<svg width="269" height="269" viewBox="0 0 269 269" fill="none" xmlns="http://www.w3.org/2000/svg">
<path fill-rule="evenodd" clip-rule="evenodd" d="M268.573 134.222C268.586 151.835 265.126 169.276 258.392 185.55C251.658 201.824 241.781 216.611 229.327 229.065C216.874 241.519 202.087 251.395 185.813 258.129C169.539 264.863 152.097 268.323 134.485 268.311C128.605 268.31 122.731 267.929 116.901 267.171C89.4123 263.546 63.7244 251.487 43.3752 232.654C23.0261 213.822 9.0169 189.144 3.2775 162.018C3.25611 161.983 3.24775 161.941 3.2539 161.9C1.35432 152.797 0.395504 143.522 0.392578 134.222C0.394663 98.6595 14.5229 64.5538 39.6697 39.4071C64.8164 14.2603 98.9221 0.132089 134.485 0.130005C137.413 0.130005 140.298 0.224318 143.183 0.409046C158.039 1.34711 172.631 4.77631 186.35 10.5533C188.708 11.528 191.004 12.5735 193.283 13.6976C215.852 24.7316 234.872 41.8761 248.182 63.1821C261.491 84.4881 268.556 109.101 268.573 134.222Z" fill="url(#paint0_radial_756_27970)"/>
<path fill-rule="evenodd" clip-rule="evenodd" d="M63.6995 223.12C52.4586 223.12 31.7652 206.742 21.9315 185.632C9.62549 159.299 9.53512 131.582 15.4778 126.48C17.1875 124.99 19.4907 124.232 22.3048 124.232C24.3665 124.268 26.4131 124.592 28.3851 125.195C42.6366 129.318 62.2885 148.985 70.7938 168.672C79.1223 187.931 76.65 203.26 74.3036 212.638C72.1851 221.261 67.3744 223.1 63.7113 223.12H63.6995Z" fill="#FF7900"/>
<path fill-rule="evenodd" clip-rule="evenodd" d="M72.0514 212.072C70.7269 217.468 68.0739 220.769 63.7033 220.793C54.0032 220.793 33.7186 205.417 24.0459 184.634C11.6928 158.186 12.3923 132.183 16.9987 128.229C19.3216 126.205 23.1616 126.087 27.7444 127.415C42.1413 131.578 63.8409 150.141 68.5416 169.211C72.5309 185.463 74.5079 202.234 72.0514 212.072Z" fill="url(#paint2_linear_756_27970)"/>
<path fill-rule="evenodd" clip-rule="evenodd" d="M25.7964 115.42C25.1007 115.458 24.4054 115.337 23.7641 115.064C23.1228 114.792 22.5527 114.375 22.0979 113.847C18.4387 109.524 23.784 94.7105 26.1501 89.3652C29.9429 80.7931 33.6925 76.395 37.2849 76.2574C38.6743 76.2376 40.0241 76.7206 41.0855 77.6173H41.1406L41.8402 78.2934C45.9396 82.3849 47.8379 91.6841 44.1276 99.0064C41.4393 104.305 33.0204 113.631 27.345 115.168C26.8402 115.311 26.3206 115.396 25.7964 115.42Z" fill="url(#paint3_linear_756_27970)"/>
<path fill-rule="evenodd" clip-rule="evenodd" d="M42.6247 98.1301C39.9953 103.31 31.5842 112.558 26.4157 113.954C25.103 114.323 24.0025 114.146 23.2715 113.286C19.4511 108.777 30.4759 77.8023 37.5898 77.5547C38.6589 77.5193 39.724 78.0459 40.6359 79.0167H40.6595C44.0593 82.4204 46.1738 91.1262 42.6247 98.1301Z" fill="url(#paint4_linear_756_27970)"/>
<path fill-rule="evenodd" clip-rule="evenodd" d="M215.405 219.661C210.893 219.661 207.544 217.892 206.019 214.681C203.052 208.436 204.573 185.644 213.624 165.504C227.051 135.582 245.484 127.675 253.357 127.675C253.872 127.674 254.387 127.709 254.897 127.781C255.176 127.818 255.451 127.881 255.719 127.969C257.759 128.469 259.543 130.119 260.848 132.831C266.15 143.836 263.1 171.05 254.445 189.9C246.372 207.441 227.393 219.661 215.405 219.661Z" fill="url(#paint5_linear_756_27970)"/>
<path fill-rule="evenodd" clip-rule="evenodd" d="M252.329 188.929C241.717 212.024 212.975 223.815 208.117 213.691C205.648 208.507 206.651 186.713 215.746 166.475C229.396 136.05 248.073 129.168 254.566 130.096C254.707 130.116 254.846 130.147 254.982 130.19C264.172 132.454 262.772 166.18 252.329 188.929Z" fill="url(#paint6_linear_756_27970)"/>
<path fill-rule="evenodd" clip-rule="evenodd" d="M250.416 125.541C249.442 125.553 248.484 125.299 247.645 124.806C242.107 121.469 238.416 99.6749 242.233 92.8557C243.282 90.9612 244.689 90.3481 245.684 90.1673C246.125 90.0816 246.574 90.0395 247.024 90.0416C253.273 90.0416 259.57 97.3992 261.676 107.154C262.294 109.905 262.183 112.769 261.356 115.464C260.529 118.159 259.014 120.591 256.96 122.522C254.916 124.424 252.526 125.541 250.416 125.541Z" fill="url(#paint7_linear_756_27970)"/>
<path fill-rule="evenodd" clip-rule="evenodd" d="M255.38 120.801C253.1 122.943 250.471 123.78 248.843 122.801C244.398 120.128 240.983 99.8438 244.261 93.9836C244.724 93.1465 245.33 92.5884 246.096 92.4469C250.655 91.5429 257.239 97.6114 259.4 107.638C259.935 109.992 259.845 112.445 259.14 114.754C258.435 117.063 257.139 119.147 255.38 120.801Z" fill="url(#paint8_linear_756_27970)"/>
<path fill-rule="evenodd" clip-rule="evenodd" d="M142.913 266.605C142.095 266.605 141.245 266.592 140.362 266.566C126.606 266.173 116.092 260.305 114.221 255.113C113.866 254.227 113.795 253.252 114.019 252.325C114.243 251.397 114.75 250.562 115.471 249.936C119.794 246.116 137.67 245.923 141.207 245.923C152.778 245.923 166.841 247.059 168.095 252.46C168.413 253.835 168.338 255.961 166.188 258.284C163.005 261.786 158.626 266.605 142.913 266.605Z" fill="url(#paint9_linear_756_27970)"/>
<path fill-rule="evenodd" clip-rule="evenodd" d="M164.481 256.705C161.223 260.289 157.128 264.738 140.432 264.243C124.203 263.76 113.1 255.125 117.007 251.666C122.289 247.012 164.387 246.757 165.83 252.967C166.109 254.193 165.645 255.451 164.481 256.705Z" fill="url(#paint10_linear_756_27970)"/>
<path fill-rule="evenodd" clip-rule="evenodd" d="M207.852 136.153C198.891 136.153 191.997 131.892 188.44 124.153C179.931 105.606 179.927 69.2931 186.133 54.68C187.705 50.9854 189.56 48.7451 191.816 47.8294C194.027 46.9047 196.397 46.4252 198.793 46.4183C206.717 46.4183 214.931 51.7204 222.552 61.7468C235.031 78.1796 243.733 104.855 240.451 116.638C239.405 120.439 236.127 124.499 231.195 128.036C224.159 133.126 215.442 136.153 207.852 136.153Z" fill="url(#paint11_linear_756_27970)"/>
<path fill-rule="evenodd" clip-rule="evenodd" d="M238.21 116.033C237.282 119.405 234.142 123.056 229.838 126.15C218.114 134.639 197.88 139.12 190.554 123.198C182.273 105.15 182.32 69.631 188.275 55.5956C189.505 52.6911 190.971 50.6905 192.692 49.9909C217.976 39.5322 243.119 98.4209 238.21 116.033Z" fill="url(#paint12_linear_756_27970)"/>
<path fill-rule="evenodd" clip-rule="evenodd" d="M72.053 212.071C58.957 216.745 38.7235 200.371 28.1626 173.672C18.8595 150.223 25.9066 131.593 27.746 127.431C42.1429 131.593 63.8425 150.156 68.5432 169.226C72.5326 185.463 74.5095 202.234 72.053 212.071Z" fill="#FFFF45"/>
<path fill-rule="evenodd" clip-rule="evenodd" d="M164.479 256.704C136.707 265.288 117.004 251.681 117.004 251.681C122.286 247.028 164.384 246.772 165.827 252.982C166.106 254.193 165.642 255.451 164.479 256.704Z" fill="#FFFF45"/>
<path fill-rule="evenodd" clip-rule="evenodd" d="M247.912 186.854C228.979 217.767 208.117 213.671 208.117 213.671C205.648 208.487 206.651 186.693 215.746 166.456C229.396 136.031 248.073 129.149 254.566 130.076C254.707 130.096 254.846 130.128 254.982 130.171C258.634 141.455 261.566 164.577 247.912 186.854Z" fill="#FFFF45"/>
<path fill-rule="evenodd" clip-rule="evenodd" d="M229.838 126.15C218.114 134.639 197.88 139.12 190.554 123.198C182.273 105.15 182.32 69.631 188.275 55.5957C193.506 54.9 203.159 56.6451 214.415 73.1369C229.885 95.7994 235.069 113.195 229.838 126.15Z" fill="#FFFF45"/>
<path fill-rule="evenodd" clip-rule="evenodd" d="M255.38 120.8C253.1 122.942 250.471 123.779 248.843 122.801C244.398 120.128 240.983 99.8433 244.261 93.9832C247.774 96.0073 252.982 100.217 254.377 107.775C255.159 112.071 255.494 116.435 255.38 120.8Z" fill="#FFFF45"/>
<path fill-rule="evenodd" clip-rule="evenodd" d="M42.623 98.13C39.9936 103.31 31.5825 112.558 26.4141 113.954C26.7442 111.898 30.6825 87.8481 40.6185 79.0166H40.6421C44.0576 82.4203 46.1721 91.1261 42.623 98.13Z" fill="#FFFF45"/>
<path style="mix-blend-mode:soft-light" opacity="0.3" fill-rule="evenodd" clip-rule="evenodd" d="M203.86 165.901C202.607 168.975 200.974 171.88 198.998 174.548C197.426 176.643 195.37 178.223 194.136 180.573C189.927 188.529 190.811 197.474 188.343 205.81C187.018 210.37 183.552 213.997 182.204 218.604C181.598 220.695 181.925 222.581 181.854 224.743C181.763 227.254 180.482 228.976 178.969 230.929C177.292 233.077 175.066 234.733 172.527 235.72C170.503 236.538 168.318 236.212 166.156 236.212C161.379 236.221 156.625 235.547 152.038 234.211C147.781 232.977 143.827 231 139.524 229.79C136.568 228.976 134.544 229.231 131.592 229.837C129.081 230.348 126.243 230.069 123.684 230.021C119.172 229.931 114.916 232.49 110.915 234.467C107.959 235.933 106.029 237.611 104.889 240.814C103.565 244.469 103.612 247.861 99.2139 249.304C96.6552 250.141 93.5384 249.261 91.0269 248.746C88.7237 248.258 86.2358 248.537 83.8854 248.561C79.3026 248.585 75.0263 247.213 70.9781 245.071C66.2341 242.559 62.0444 238.723 58.2319 235.072C56.1606 233.107 53.5155 231.979 51.3695 230.045C48.4178 227.443 45.5092 225.093 42.7423 222.279C38.5087 217.906 34.0189 213.789 29.2965 209.949C25.9714 207.324 23.1101 204.053 20.296 200.996C17.9378 198.437 16.5503 194.707 14.7935 191.74C11.3029 185.649 8.65082 179.116 6.90913 172.316C4.94395 164.71 2.74683 156.429 2.83723 148.521C2.93156 141.84 1.98043 135.382 1.98043 128.681C1.45347 139.769 1.88084 150.882 3.2578 161.896C1.35823 152.793 0.399411 143.518 0.396484 134.219C0.398569 98.6558 14.5268 64.5501 39.6736 39.4034C64.8203 14.2566 98.926 0.128427 134.489 0.126343C137.417 0.126343 140.302 0.220656 143.187 0.405384C158.043 1.34345 172.635 4.7727 186.354 10.5497C189.797 14.3386 193.24 18.3868 195.728 22.667C196.754 24.4357 197.567 26.3655 198.589 28.1341C199.497 29.7063 200.472 30.5277 200.193 32.4576C200.032 33.5974 199.242 35.0398 198.774 36.1088C197.288 39.6933 193.122 42.3188 189.938 44.2958C185.493 47.0903 180.309 48.2262 175.585 50.6709C172.539 52.243 171.517 53.6461 169.446 56.2048C168.4 57.5097 167.005 58.5316 166.097 59.9269C163.515 63.9044 162.143 69.5327 162.328 74.2098C162.654 83.2104 169.63 89.7466 171.261 98.2833C172.704 105.657 171.654 113.47 174.013 120.726C176.618 128.822 183.736 135.472 190.41 140.173C193.161 142.138 195.913 143.754 198.342 146.104C200.621 148.289 203.844 149.547 205.459 152.267C208.16 156.783 205.625 161.621 203.86 165.901Z" fill="url(#paint13_linear_756_27970)"/>
<path fill-rule="evenodd" clip-rule="evenodd" d="M193.3 13.6903C192.856 13.7298 192.414 13.7928 191.976 13.879C190.578 14.1344 189.138 14.0385 187.786 13.5999C186.717 13.2973 185.95 12.8531 184.811 12.6684C183.183 12.4129 181.666 11.7133 180.043 11.4893C178.322 11.2574 176.832 10.5814 175.205 9.99972C173.923 9.53593 173.24 9.70101 172.017 9.99972C170.795 10.2984 169.922 9.81498 168.83 9.3512C167.6 8.81666 166.365 8.72234 165.064 8.46686C161.669 7.76726 158.292 6.67461 154.92 5.81386C152.829 5.27933 150.899 5.27932 148.757 5.25573C147.083 5.23215 145.57 5.72347 143.895 5.72347C142.827 5.68664 141.763 5.56971 140.712 5.37366C139.572 5.16535 138.409 5.39725 137.269 5.23218C135.571 4.9767 134.663 4.7212 132.945 5.25573C131.668 5.67628 130.666 5.64877 129.408 5.69987C127.915 5.82696 126.435 6.08342 124.986 6.46632C122.423 7.11159 119.792 7.44672 117.149 7.4646C115.577 7.4646 113.243 7.02439 111.729 7.55892C110.751 7.90873 110.263 8.95424 109.591 9.65384C108.286 11.002 106.683 12.2125 105.59 13.7218C104.498 15.231 103.263 16.7914 103.358 18.7016C103.448 20.3523 104.218 22.2821 104.93 23.811C105.673 25.4146 105.928 26.8806 104.277 27.9497C102.177 29.3876 99.8712 30.5006 97.4386 31.2512C95.8664 31.7189 94.4397 31.998 93.1152 30.8582C92.6239 30.4376 92.3291 29.624 91.7199 29.286C91.1107 28.948 90.4386 29.286 89.7547 29.4983C88.1149 30.0396 86.4442 30.4819 84.7513 30.8228C83.7059 30.9839 82.7861 31.542 81.776 31.7307C80.5419 31.9626 79.6576 31.0547 78.3802 31.3573C76.588 31.7779 74.7957 32.5364 72.9366 32.615C71.6121 32.6818 69.9378 32.1001 68.8215 31.4359C68.1691 31.0625 68.004 30.6891 67.2494 30.9014C66.5219 31.1693 65.8845 31.6365 65.41 32.2495C64.9698 32.8784 64.8086 33.692 64.3645 34.3444C63.9007 35.0636 63.4566 35.7633 63.04 36.5297C62.2703 38.0019 61.3831 39.4096 60.387 40.7391C59.6913 41.6706 59.2079 42.9244 58.4218 43.7851C58.0288 44.2529 57.168 44.5712 56.6531 44.925C55.2579 45.9036 53.7918 46.788 52.4437 47.8334C49.8379 49.8812 47.3735 52.1568 44.7244 54.122C42.7003 55.6313 39.8626 56.5156 37.5594 57.4707C36.1169 58.0524 34.6274 58.469 33.1849 59.0743C32.7211 59.2629 31.8603 59.4673 31.4634 59.8211C30.9524 60.2613 30.6773 61.0748 30.2096 61.6801C28.9519 63.2169 27.6274 64.7497 26.6723 66.5184C26.1339 67.5351 25.6981 68.6029 25.3713 69.7059C24.8603 71.2152 24.0468 72.6105 23.5319 74.1237C22.4864 77.268 22.2781 80.5891 21.1147 83.7295C20.4387 85.5689 19.464 87.2432 18.6268 88.9175C17.1844 91.7553 16.9761 95.1275 16.5555 98.2679C16.3373 100.182 16.3995 102.118 16.7402 104.014C17.09 105.944 16.9957 107.944 16.9761 109.91C16.9525 112.001 15.624 114.048 14.2995 115.628C13.0889 117.094 11.2535 117.652 9.90536 118.957C8.76555 120.074 7.38987 121.351 6.9025 122.935C6.69419 123.631 6.87888 124.421 6.7649 125.167C6.46226 126.818 6.04174 128.375 5.80985 130.053C5.58096 132.083 5.47988 134.126 5.5072 136.168C5.5072 137.214 5.43653 138.283 5.48369 139.313C5.53086 140.343 5.90424 141.243 5.97105 142.241C6.01822 142.94 5.88066 143.636 5.97105 144.336C6.11255 145.122 6.41513 145.939 6.59986 146.694C7.06757 148.553 7.41344 150.369 7.77897 152.228C8.10519 153.949 8.78127 155.647 9.3158 157.337C10.0248 159.632 10.584 161.97 10.99 164.337C11.3359 166.106 11.3164 167.945 11.5718 169.734C11.7801 171.176 12.1063 172.642 12.177 174.085C12.2438 176.27 11.7093 178.459 11.6857 180.668C11.6621 184.39 13.1518 188.108 14.0126 191.693C14.268 192.691 14.5235 193.717 14.7986 194.715C4.46805 174.268 -0.453268 151.516 0.503851 128.627C1.46097 105.738 8.26464 83.4762 20.2662 63.9628C32.2678 44.4495 49.0673 28.3354 69.0633 17.1565C89.0594 5.97757 111.585 0.106515 134.494 0.103027C137.422 0.103027 140.307 0.197389 143.192 0.382116C160.606 1.48507 177.633 6.0072 193.3 13.6903Z" fill="url(#paint14_linear_756_27970)"/>
<path style="mix-blend-mode:soft-light" opacity="0.3" fill-rule="evenodd" clip-rule="evenodd" d="M181.513 236.208C184.147 234.636 186.705 232.958 189.374 231.492C192.259 229.919 195.112 228.819 198.158 227.636C200.41 226.756 200.646 226.689 202.482 228.135C204.152 229.464 206.172 229.747 208.267 229.762C211.136 229.786 214.257 230.01 214.524 233.657C214.89 238.661 207.328 243.023 203.759 245.055C200.874 246.686 197.738 247.807 194.719 249.167C192.18 250.346 189.303 251.686 186.501 252.067C184.08 252.401 182.468 251.281 180.904 249.465C179.029 247.307 179.159 245.24 179.155 242.544C179.163 239.399 179.01 237.273 181.513 236.208Z" fill="url(#paint15_linear_756_27970)"/>
<path style="mix-blend-mode:soft-light" opacity="0.3" fill-rule="evenodd" clip-rule="evenodd" d="M221.471 48.7608C223.484 52.7461 224.914 58.1071 227.956 61.4205C229.568 63.1813 230.822 63.476 233.066 63.4485C234.17 63.4485 236.21 63.8652 237.24 63.4957C238.69 62.973 238.604 61.3615 238.553 59.9584C238.356 54.672 234.764 49.7669 231.451 45.9584C229.293 43.4823 225.696 40.4559 222.171 41.1476C221.135 43.5522 220.892 46.2247 221.479 48.7764L221.471 48.7608Z" fill="url(#paint16_linear_756_27970)"/>
<path style="mix-blend-mode:screen" fill-rule="evenodd" clip-rule="evenodd" d="M54.9814 238.951C41.0377 227.276 29.6047 212.897 21.3728 196.68C16.1196 186.323 12.2479 175.321 9.85684 163.956C9.83868 163.92 9.83182 163.878 9.83717 163.838C7.93564 154.735 6.9768 145.46 6.97585 136.16C6.97585 100.598 21.1029 66.4913 46.2492 41.3442C71.3955 16.1971 105.502 2.06913 141.064 2.06809C143.996 2.06809 146.881 2.16245 149.762 2.34718C158.698 2.92446 167.552 4.39651 176.194 6.7413C165.507 3.24371 154.42 1.11353 143.198 0.401616C140.314 0.216889 137.429 0.122575 134.501 0.122575C116.889 0.113793 99.4481 3.57617 83.1753 10.3118C66.9025 17.0475 52.1167 26.9243 39.6633 39.3777C27.21 51.8311 17.3332 66.6168 10.5975 82.8896C3.86186 99.1624 0.399438 116.603 0.40822 134.215C0.411146 143.514 1.36997 152.789 3.26954 161.893C3.26339 161.933 3.27175 161.975 3.29314 162.01C5.68284 173.375 9.55323 184.377 14.8052 194.735C23.3205 211.502 35.2546 226.298 49.8383 238.171C64.4219 250.043 81.3316 258.728 99.4771 263.666C83.2004 258.351 68.0953 249.961 54.9814 238.951Z" fill="url(#paint17_radial_756_27970)"/>
<path fill-rule="evenodd" clip-rule="evenodd" d="M147.652 259.79C147.259 260.321 146.665 260.773 147.188 261.335C147.523 261.635 147.929 261.845 148.367 261.948C148.992 262.109 150.104 262.015 150.6 261.618C151.095 261.221 151.02 260.702 150.71 260.23C150.092 259.303 149.334 259.165 148.328 259.57L147.652 259.79Z" fill="#FFFF45"/>
<path fill-rule="evenodd" clip-rule="evenodd" d="M59.978 34.7489C58.5709 35.2127 58.0128 35.3424 56.6018 36.5215C55.4737 37.453 54.2435 38.3098 53.1666 39.3396C51.7085 40.7074 51.2801 42.1577 50.8438 43.663C50.4075 45.1683 50.0105 46.7444 50.6001 47.5423C50.9106 47.9628 51.8381 47.9353 52.5653 47.7427C53.5989 47.4519 54.7624 46.7169 55.8668 46.0133C57.3504 45.0147 58.6176 43.7274 59.5928 42.2284C60.2361 41.1648 60.7909 40.05 61.2514 38.8955C61.5417 38.2119 61.7809 37.5077 61.9668 36.7887C62.1505 36.3327 62.1822 35.8296 62.0572 35.3542C61.8764 34.7489 61.5108 34.6781 59.978 34.7489Z" fill="#FFFF45"/>
<path fill-rule="evenodd" clip-rule="evenodd" d="M75.8533 32.3083C75.2795 32.7839 74.0297 33.68 75.0201 34.3718C75.2913 34.5605 75.5232 34.4622 75.8062 34.5408C76.0892 34.6194 76.0813 34.7805 76.3407 34.6823C77.1268 34.3718 76.8242 32.0882 75.9163 32.5481L75.8533 32.3083Z" fill="#FFFF45"/>
<path fill-rule="evenodd" clip-rule="evenodd" d="M80.0137 40.6208C80.3587 40.4258 80.7456 40.3167 81.1417 40.3025C81.2282 40.7977 81.6841 41.7685 80.9766 42.1537C80.3831 42.476 80.56 41.4187 80.2809 41.1711L80.0137 40.6208Z" fill="#FFFF45"/>
<path fill-rule="evenodd" clip-rule="evenodd" d="M88.1262 40.8569C88.8809 41.1556 89.6317 41.4661 90.3784 41.7963C90.6182 41.584 90.9836 41.6233 91.2666 41.4347C91.6567 41.1345 91.9472 40.7235 92.0999 40.2556C92.3121 39.6149 91.982 39.0765 91.7069 38.6009C91.5403 38.2185 91.3075 37.8685 91.019 37.5672C90.6692 37.3078 89.9853 37.41 89.6198 37.5672C88.7274 38.1805 88.1131 39.1211 87.9102 40.1848C87.9322 40.4539 88.0142 40.7147 88.1502 40.948C88.2863 41.1813 88.4728 41.3812 88.6962 41.5329L88.1262 40.8569Z" fill="#FFFF45"/>
<path fill-rule="evenodd" clip-rule="evenodd" d="M94.9506 195.965C95.7052 196.263 96.4559 196.576 97.2027 196.904C97.4424 196.692 97.8079 196.735 98.0909 196.546C98.4783 196.243 98.7681 195.833 98.9242 195.367C99.1364 194.723 98.8102 194.188 98.5312 193.708C98.365 193.327 98.132 192.978 97.8434 192.679C97.4936 192.415 96.8096 192.521 96.4441 192.679C96.0009 192.952 95.6291 193.326 95.3593 193.771C95.023 194.216 94.8077 194.74 94.7344 195.292C94.7564 195.562 94.8385 195.823 94.9745 196.057C95.1105 196.291 95.297 196.492 95.5204 196.644L94.9506 195.965Z" fill="#FFFF45"/>
<path fill-rule="evenodd" clip-rule="evenodd" d="M66.4775 48.1122C66.1584 48.338 65.8905 48.6287 65.6914 48.9651C66.0019 49.3581 66.1513 49.7236 66.6819 49.8769C66.783 49.9174 66.8934 49.9293 67.0008 49.9113C67.1083 49.8933 67.2086 49.846 67.291 49.7747C67.5111 49.5585 67.3932 49.3188 67.4522 49.1066C67.5976 48.5917 67.7391 48.4581 67.4522 47.9864C67.2753 47.7034 67.1535 47.5934 66.8469 47.5934C66.6307 47.5934 66.1591 47.6523 66.0608 47.896L66.4775 48.1122Z" fill="#FFFF45"/>
<path fill-rule="evenodd" clip-rule="evenodd" d="M68.1991 60.1429C68.1441 60.2726 67.5585 61.7544 68.317 61.3221C68.3912 61.2656 68.4513 61.1927 68.4926 61.1092C68.534 61.0257 68.5555 60.9338 68.5555 60.8406C68.5555 60.7474 68.534 60.6555 68.4926 60.572C68.4513 60.4885 68.3912 60.4156 68.317 60.3591L68.3564 60.2098L68.1991 60.1429Z" fill="#FFFF45"/>
<path fill-rule="evenodd" clip-rule="evenodd" d="M57.0048 80.5966C56.6302 81.0741 56.3621 81.6262 56.2188 82.2159C56.4812 82.4195 56.8065 82.5252 57.1385 82.5147C57.5826 82.5147 57.6062 82.3535 57.618 81.933C57.618 81.5871 57.7712 81.3159 57.6887 80.9897C57.6062 80.6635 57.2642 80.3058 56.8751 80.5219L57.0048 80.5966Z" fill="#FFFF45"/>
<path fill-rule="evenodd" clip-rule="evenodd" d="M74.1484 49.5783C74.435 49.839 74.6271 50.1873 74.6947 50.5688C74.3017 50.6709 74.2427 50.274 74.1837 49.9595C74.0894 49.4564 74.3214 49.6137 74.5572 49.2089L74.6908 49.2364L74.1484 49.5783Z" fill="#FFFF45"/>
<path fill-rule="evenodd" clip-rule="evenodd" d="M70.1826 33.7387C69.8615 33.9607 69.5932 34.2505 69.3965 34.5876C69.5851 34.8234 69.4948 35.2518 69.9389 35.2204C70.2534 35.1968 70.5088 34.8588 70.6621 34.6033C70.8067 34.3356 70.8798 34.0351 70.8743 33.7308C70.8743 33.5657 70.8743 32.8543 70.5795 33.3378L70.1826 33.7387Z" fill="#FFFF45"/>
<path fill-rule="evenodd" clip-rule="evenodd" d="M121.529 25.5244C121.596 25.1116 121.711 24.708 121.871 24.3216C121.926 24.2273 122.064 24.1448 122.131 24.0465C122.355 23.7242 122.288 23.6535 122.653 23.6535C122.834 23.6308 123.017 23.6448 123.192 23.6948C123.367 23.7448 123.53 23.8297 123.671 23.9443C124.803 24.8444 121.938 25.5401 121.828 24.6715L121.529 25.5244Z" fill="#FFFF45"/>
<path fill-rule="evenodd" clip-rule="evenodd" d="M131.146 29.0816C131.001 29.7341 130.584 30.6184 131.185 31.0468C131.704 31.4163 132.793 30.8306 133.206 30.4573C133.937 29.7891 134.829 28.5235 134.129 27.592C133.837 27.2988 133.489 27.0678 133.105 26.9131C132.722 26.7584 132.31 26.6832 131.897 26.692C130.529 26.8217 130.132 28.4528 129.932 29.7577L131.146 29.0816Z" fill="#FFFF45"/>
<path fill-rule="evenodd" clip-rule="evenodd" d="M135.357 15.883C135.207 14.7629 135.007 13.6584 136.001 13.0728C136.54 12.7545 137.534 12.6405 138.045 13.0178C138.42 13.353 138.733 13.7522 138.969 14.1969C139.311 14.7629 139.22 14.7629 139.043 15.2778C138.65 16.4569 138.355 17.2429 137.172 17.2429C135.6 17.2429 135.376 16.0324 135.357 14.5271V15.883Z" fill="#FFFF45"/>
<path fill-rule="evenodd" clip-rule="evenodd" d="M149.785 35.535C150.63 35.3076 151.392 34.844 151.982 34.1987C151.369 33.8056 150.017 33.0196 149.785 34.1987V35.535Z" fill="#FFFF45"/>
<path fill-rule="evenodd" clip-rule="evenodd" d="M100.191 213.844C101.037 213.616 101.8 213.152 102.392 212.508C101.775 212.114 100.427 211.328 100.191 212.508V213.844Z" fill="#FFC445"/>
<path fill-rule="evenodd" clip-rule="evenodd" d="M192.197 233.142C193.043 232.916 193.807 232.452 194.398 231.806C193.785 231.413 192.433 230.627 192.197 231.806V233.142Z" fill="#FFC445"/>
<path fill-rule="evenodd" clip-rule="evenodd" d="M160.904 52.7971C161.756 51.7516 162.983 49.8454 164.523 50.8908C165.42 51.4961 165.675 53.1036 164.818 53.7443C164.09 54.2429 163.267 54.5867 162.401 54.7544C161.717 54.9391 160.699 54.4872 160.904 53.4731V52.7971Z" fill="#FFFF45"/>
<path fill-rule="evenodd" clip-rule="evenodd" d="M101.321 77.6566C102.17 76.6151 103.396 74.7088 104.94 75.7543C105.837 76.3596 106.092 77.9671 105.235 78.6077C104.449 79.2012 103.71 79.3663 102.814 79.6139C102.13 79.8026 101.112 79.3506 101.321 78.3366V77.6566Z" fill="#FFC445"/>
<path fill-rule="evenodd" clip-rule="evenodd" d="M200.184 33.6173C201.033 32.5718 202.259 30.6656 203.804 31.711C204.7 32.3163 204.955 33.9238 204.098 34.5645C203.371 35.0628 202.548 35.4053 201.681 35.5706C200.997 35.7593 199.975 35.3073 200.184 34.2933V33.6173Z" fill="#FFC445"/>
<path fill-rule="evenodd" clip-rule="evenodd" d="M144.766 124.998C145.615 123.953 146.841 122.046 148.386 123.092C149.278 123.701 149.537 125.309 148.68 125.949C147.95 126.445 147.126 126.787 146.259 126.955C145.576 127.144 144.558 126.692 144.766 125.678V124.998Z" fill="#FFC445"/>
<path fill-rule="evenodd" clip-rule="evenodd" d="M96.3079 40.3183C95.2192 41.0101 93.3877 41.8669 93.2029 43.3604C93.0929 44.2644 93.5095 44.7911 94.323 45.1841C94.7056 45.3533 95.1193 45.4407 95.5376 45.4407C95.9558 45.4407 96.3695 45.3533 96.7521 45.1841C97.7465 44.6811 98.898 43.8478 99.3461 42.7866C99.5008 42.4644 99.574 42.1091 99.5589 41.7519C99.5438 41.3948 99.441 41.0469 99.2596 40.7389C99.0591 40.277 98.6972 39.9039 98.2416 39.6894C96.8542 39.2099 96.0171 40.5738 94.9873 41.1909L96.3079 40.3183Z" fill="#FFFF45"/>
<path fill-rule="evenodd" clip-rule="evenodd" d="M99.8337 36.3521C100.41 36.5526 100.927 36.8929 101.339 37.3426C100.746 37.547 100.113 38.0147 99.5036 37.7985C98.7175 37.5156 98.572 36.7727 98.7489 36.022C98.8472 35.629 99.5862 34.89 100.007 35.0708C100.219 35.1612 100.258 35.4639 100.329 35.6368C100.474 36.0299 100.486 35.9473 100.274 36.3521H99.8337Z" fill="#FFFF45"/>
<path fill-rule="evenodd" clip-rule="evenodd" d="M40.1175 61.2517C38.8896 62.2604 37.9026 63.5307 37.2286 64.9698C36.9142 65.7166 37.4724 65.7559 38.1523 65.6223C39.4651 65.3668 40.7896 65.0012 42.0827 64.6672C42.8491 64.4706 43.9536 64.0658 44.4881 63.4134C44.8952 62.834 45.0691 62.1226 44.9755 61.4207C44.8497 60.5403 44.2247 60.1984 43.4229 59.9743C41.5992 59.4712 39.2489 60.6739 38.5729 62.3561L40.1175 61.2517Z" fill="#FFFF45"/>
<path fill-rule="evenodd" clip-rule="evenodd" d="M41.006 67.422C41.9158 67.4415 42.8083 67.6744 43.6117 68.1019C43.3799 68.3771 43.4545 68.7504 43.3327 69.0727C43.1081 69.5818 42.7374 70.0127 42.2676 70.3108C41.8635 70.5464 41.4152 70.6962 40.9507 70.751C40.4861 70.8057 40.0153 70.7643 39.5675 70.6292C37.1542 69.7134 40.8526 66.8521 41.6702 67.8779L41.006 67.422Z" fill="#FFFF45"/>
<path fill-rule="evenodd" clip-rule="evenodd" d="M117.687 13.4385C118.587 13.0061 119.396 12.4519 120.367 12.2908C121.453 12.064 122.556 11.9325 123.665 11.8977C124.239 11.8977 125.52 11.8506 125.147 12.7821C124.754 13.7961 122.564 14.7473 121.696 15.1678C120.21 15.8674 118.811 16.571 117.144 16.74C116.303 16.8264 114.896 16.8893 114.421 16.0443C114.028 15.3368 114.208 14.7551 114.601 14.1027C114.95 13.4915 115.52 13.0372 116.193 12.8332C116.535 12.6956 118.469 12.1807 118.551 12.7821L117.687 13.4385Z" fill="#FFFF45"/>
<path fill-rule="evenodd" clip-rule="evenodd" d="M102.713 13.8787C102.32 14.1656 99.2701 15.8439 100.72 16.5867C101.506 16.9797 103.032 16.8657 103.822 16.5317C104.529 16.229 105.24 15.7692 104.8 14.9595C103.904 13.3245 101.656 14.2678 100.512 14.9595L102.713 13.8787Z" fill="#FFFF45"/>
<path fill-rule="evenodd" clip-rule="evenodd" d="M60.6152 124.935C60.8393 126.189 61.0987 127.556 62.1874 128.386C63.2761 129.215 64.5967 128.897 65.7247 128.244C66.5462 127.757 67.3205 127.242 68.1262 126.747C68.5939 126.46 69.0066 126.385 69.0263 125.717C69.0459 125.049 68.3857 124.031 67.973 123.485C67.3672 122.74 66.5924 122.151 65.713 121.767C64.0269 121.138 60.8157 121.767 60.855 124.054L60.6152 124.935Z" fill="#FFD32F"/>
<path fill-rule="evenodd" clip-rule="evenodd" d="M156.684 126.276C156.908 127.525 157.167 128.897 158.256 129.726C159.344 130.556 160.661 130.237 161.773 129.585C162.595 129.098 163.369 128.583 164.175 128.087C164.643 127.797 165.055 127.726 165.075 127.058C165.095 126.389 164.434 125.372 164.022 124.825C163.416 124.079 162.64 123.49 161.758 123.108C160.075 122.479 156.864 123.108 156.904 125.391L156.684 126.276Z" fill="#FFBA00"/>
<path fill-rule="evenodd" clip-rule="evenodd" d="M19.6444 174.721C19.6444 174.721 18.5479 179.544 21.928 185.632C25.3081 191.72 27.7607 191.414 27.7607 191.414C27.7607 191.414 24.8521 180.082 19.6444 174.721Z" fill="#FFFF59"/>
<path fill-rule="evenodd" clip-rule="evenodd" d="M238.565 108.597C238.565 108.597 234.634 119.944 234.053 121.539C234.053 121.539 240.251 119.786 238.565 108.597Z" fill="#FFFF59"/>
<path fill-rule="evenodd" clip-rule="evenodd" d="M259.661 112.138C259.661 112.138 256.937 114.217 255.4 119.441C255.4 119.441 258.749 121.013 259.661 112.138Z" fill="#FFFF59"/>
<path fill-rule="evenodd" clip-rule="evenodd" d="M216.439 217.291C216.439 217.291 229.142 209.037 236.457 208.463C236.457 208.471 228.152 218.666 216.439 217.291Z" fill="#FFFF59"/>
<defs>
<radialGradient id="paint0_radial_756_27970" cx="0" cy="0" r="1" gradientUnits="userSpaceOnUse" gradientTransform="translate(51.452 71.5133) scale(215.396 215.396)">
<stop offset="0.01" stop-color="#FFB80B"/>
<stop offset="0.26" stop-color="#FFB60C"/>
<stop offset="0.38" stop-color="#FEAE10"/>
<stop offset="0.48" stop-color="#FCA117"/>
<stop offset="0.57" stop-color="#FA8E21"/>
<stop offset="0.64" stop-color="#F7762E"/>
<stop offset="0.66" stop-color="#F66D33"/>
<stop offset="0.72" stop-color="#EF6836"/>
<stop offset="0.81" stop-color="#DC593D"/>
<stop offset="0.91" stop-color="#BD4049"/>
<stop offset="0.98" stop-color="#A02A54"/>
</radialGradient>
<linearGradient id="paint1_linear_756_27970" x1="11.6379" y1="173.676" x2="76.5636" y2="173.676" gradientUnits="userSpaceOnUse">
<stop offset="0.01" stop-color="#FFA90B"/>
<stop offset="0.37" stop-color="#FFA60E"/>
<stop offset="0.64" stop-color="#FF9D16"/>
<stop offset="0.87" stop-color="#FF8D25"/>
<stop offset="1" stop-color="#FF8031"/>
</linearGradient>
<linearGradient id="paint2_linear_756_27970" x1="13.9213" y1="173.676" x2="73.1283" y2="173.676" gradientUnits="userSpaceOnUse">
<stop offset="0.01" stop-color="#FFE00B"/>
<stop offset="0.31" stop-color="#FFDD0D"/>
<stop offset="0.52" stop-color="#FFD412"/>
<stop offset="0.71" stop-color="#FFC41B"/>
<stop offset="0.89" stop-color="#FFAD27"/>
<stop offset="1" stop-color="#FF9B31"/>
</linearGradient>
<linearGradient id="paint3_linear_756_27970" x1="19.9179" y1="98.0272" x2="45.7797" y2="97.2514" gradientUnits="userSpaceOnUse">
<stop offset="0.01" stop-color="#FFA90B"/>
<stop offset="0.37" stop-color="#FFA60E"/>
<stop offset="0.64" stop-color="#FF9D16"/>
<stop offset="0.87" stop-color="#FF8D25"/>
<stop offset="1" stop-color="#FF8031"/>
</linearGradient>
<linearGradient id="paint4_linear_756_27970" x1="21.5081" y1="97.9797" x2="44.1313" y2="97.301" gradientUnits="userSpaceOnUse">
<stop offset="0.01" stop-color="#FFE00B"/>
<stop offset="0.31" stop-color="#FFDD0D"/>
<stop offset="0.52" stop-color="#FFD412"/>
<stop offset="0.71" stop-color="#FFC41B"/>
<stop offset="0.89" stop-color="#FFAD27"/>
<stop offset="1" stop-color="#FF9B31"/>
</linearGradient>
<linearGradient id="paint5_linear_756_27970" x1="234.055" y1="219.661" x2="234.055" y2="127.675" gradientUnits="userSpaceOnUse">
<stop offset="0.01" stop-color="#FF8E0B"/>
<stop offset="0.35" stop-color="#FD8B0D"/>
<stop offset="0.59" stop-color="#F98215"/>
<stop offset="0.81" stop-color="#F17221"/>
<stop offset="1" stop-color="#E65D31"/>
</linearGradient>
<linearGradient id="paint6_linear_756_27970" x1="206.957" y1="173.668" x2="261.098" y2="173.668" gradientUnits="userSpaceOnUse">
<stop offset="0.01" stop-color="#FFE00B"/>
<stop offset="0.31" stop-color="#FFDD0D"/>
<stop offset="0.52" stop-color="#FFD412"/>
<stop offset="0.71" stop-color="#FFC41B"/>
<stop offset="0.89" stop-color="#FFAD27"/>
<stop offset="1" stop-color="#FF9B31"/>
</linearGradient>
<linearGradient id="paint7_linear_756_27970" x1="251.367" y1="125.533" x2="251.367" y2="90.0337" gradientUnits="userSpaceOnUse">
<stop offset="0.01" stop-color="#FFA90B"/>
<stop offset="0.37" stop-color="#FFA60E"/>
<stop offset="0.64" stop-color="#FF9D16"/>
<stop offset="0.87" stop-color="#FF8D25"/>
<stop offset="1" stop-color="#FF8031"/>
</linearGradient>
<linearGradient id="paint8_linear_756_27970" x1="251.347" y1="123.206" x2="251.347" y2="92.3604" gradientUnits="userSpaceOnUse">
<stop offset="0.01" stop-color="#FFE00B"/>
<stop offset="0.31" stop-color="#FFDD0D"/>
<stop offset="0.52" stop-color="#FFD412"/>
<stop offset="0.71" stop-color="#FFC41B"/>
<stop offset="0.89" stop-color="#FFAD27"/>
<stop offset="1" stop-color="#FF9B31"/>
</linearGradient>
<linearGradient id="paint9_linear_756_27970" x1="141.07" y1="266.605" x2="141.07" y2="245.923" gradientUnits="userSpaceOnUse">
<stop offset="0.01" stop-color="#FFA90B"/>
<stop offset="0.37" stop-color="#FFA60E"/>
<stop offset="0.64" stop-color="#FF9D16"/>
<stop offset="0.87" stop-color="#FF8D25"/>
<stop offset="1" stop-color="#FF8031"/>
</linearGradient>
<linearGradient id="paint10_linear_756_27970" x1="141.064" y1="264.279" x2="141.064" y2="248.25" gradientUnits="userSpaceOnUse">
<stop offset="0.01" stop-color="#FFE00B"/>
<stop offset="0.31" stop-color="#FFDD0D"/>
<stop offset="0.52" stop-color="#FFD412"/>
<stop offset="0.71" stop-color="#FFC41B"/>
<stop offset="0.89" stop-color="#FFAD27"/>
<stop offset="1" stop-color="#FF9B31"/>
</linearGradient>
<linearGradient id="paint11_linear_756_27970" x1="205.903" y1="136.145" x2="217.505" y2="48.7608" gradientUnits="userSpaceOnUse">
<stop offset="0.01" stop-color="#FFA90B"/>
<stop offset="0.37" stop-color="#FFA60E"/>
<stop offset="0.64" stop-color="#FF9D16"/>
<stop offset="0.87" stop-color="#FF8D25"/>
<stop offset="1" stop-color="#FF8031"/>
</linearGradient>
<linearGradient id="paint12_linear_756_27970" x1="206.201" y1="133.841" x2="217.19" y2="51.0679" gradientUnits="userSpaceOnUse">
<stop offset="0.01" stop-color="#FFE00B"/>
<stop offset="0.31" stop-color="#FFDD0D"/>
<stop offset="0.52" stop-color="#FFD412"/>
<stop offset="0.71" stop-color="#FFC41B"/>
<stop offset="0.89" stop-color="#FFAD27"/>
<stop offset="1" stop-color="#FF9B31"/>
</linearGradient>
<linearGradient id="paint13_linear_756_27970" x1="0.408275" y1="124.892" x2="206.643" y2="124.892" gradientUnits="userSpaceOnUse">
<stop offset="0.01" stop-color="#FFE00B"/>
<stop offset="0.31" stop-color="#FFDD0D"/>
<stop offset="0.52" stop-color="#FFD412"/>
<stop offset="0.71" stop-color="#FFC41B"/>
<stop offset="0.89" stop-color="#FFAD27"/>
<stop offset="1" stop-color="#FF9B31"/>
</linearGradient>
<linearGradient id="paint14_linear_756_27970" x1="0.409554" y1="97.4386" x2="193.3" y2="97.4386" gradientUnits="userSpaceOnUse">
<stop offset="0.01" stop-color="#FFE00B"/>
<stop offset="0.31" stop-color="#FFDD0D"/>
<stop offset="0.52" stop-color="#FFD412"/>
<stop offset="0.71" stop-color="#FFC41B"/>
<stop offset="0.89" stop-color="#FFAD27"/>
<stop offset="1" stop-color="#FF9B31"/>
</linearGradient>
<linearGradient id="paint15_linear_756_27970" x1="179.163" y1="239.553" x2="214.532" y2="239.553" gradientUnits="userSpaceOnUse">
<stop offset="0.01" stop-color="#FFE00B"/>
<stop offset="0.31" stop-color="#FFDD0D"/>
<stop offset="0.52" stop-color="#FFD412"/>
<stop offset="0.71" stop-color="#FFC41B"/>
<stop offset="0.89" stop-color="#FFAD27"/>
<stop offset="1" stop-color="#FF9B31"/>
</linearGradient>
<linearGradient id="paint16_linear_756_27970" x1="221.157" y1="52.3413" x2="238.565" y2="52.3413" gradientUnits="userSpaceOnUse">
<stop offset="0.01" stop-color="#FFE00B"/>
<stop offset="0.31" stop-color="#FFDD0D"/>
<stop offset="0.52" stop-color="#FFD412"/>
<stop offset="0.71" stop-color="#FFC41B"/>
<stop offset="0.89" stop-color="#FFAD27"/>
<stop offset="1" stop-color="#FF9B31"/>
</linearGradient>
<radialGradient id="paint17_radial_756_27970" cx="0" cy="0" r="1" gradientUnits="userSpaceOnUse" gradientTransform="translate(36.5086 42.9557) scale(176.493 176.493)">
<stop stop-color="#FFFFD9"/>
<stop offset="1"/>
</radialGradient>
</defs>
</svg>
