<svg width="49" height="43" viewBox="0 0 49 43" fill="none" xmlns="http://www.w3.org/2000/svg">
<path d="M1.36394 42.1147L0 40.8719C2.37934 38.2956 5.16785 38.432 7.5775 38.5381C9.98714 38.6442 11.9725 38.7351 13.7608 36.7801C15.5491 34.8251 15.2762 32.8246 14.958 30.5059C14.6397 28.1872 14.2457 25.3381 16.6099 22.7617C18.9741 20.1854 21.7778 20.2915 24.1874 20.4127C26.5971 20.5339 28.5823 20.6097 30.3706 18.6547C32.1589 16.6997 31.8861 14.6993 31.5678 12.3805C31.2496 10.0618 30.8556 7.19754 33.2349 4.62119C35.6143 2.04484 38.4028 2.15092 40.8124 2.25701C43.2221 2.36309 45.2073 2.45402 47.0108 0.499023L48.3596 1.72657C45.9954 4.31808 43.2069 4.19684 40.7821 4.0756C38.3573 3.95436 36.3872 3.89374 34.5838 5.84874C32.7803 7.80373 33.0682 9.80419 33.3865 12.1229C33.7047 14.4416 34.0988 17.3059 31.7194 19.8823C29.3401 22.4586 26.5667 22.3374 24.1419 22.2313C21.7171 22.1252 19.7621 22.0343 17.9587 23.9893C16.1552 25.9443 16.4432 27.9447 16.7766 30.2634C17.11 32.5822 17.4889 35.4313 15.1247 38.0076C12.7605 40.584 9.95685 40.4628 7.54721 40.3567C5.13756 40.2506 3.15223 40.1597 1.36394 42.1147Z" fill="#5ED19C"/>
</svg>
