<svg width="16" height="17" viewBox="0 0 16 17" fill="none" xmlns="http://www.w3.org/2000/svg">
<path d="M7.8628 16.0306C6.36195 16.0214 4.89751 15.5676 3.65433 14.7267C2.41114 13.8858 1.44491 12.6954 0.877701 11.3059C0.310491 9.9163 0.167734 8.38983 0.467358 6.91916C0.766982 5.4485 1.49559 4.09957 2.56123 3.04266C3.62686 1.98576 4.98176 1.26826 6.45485 0.980752C7.92793 0.693243 9.4532 0.848607 10.8381 1.42724C12.2229 2.00586 13.4052 2.98181 14.2359 4.23188C15.0665 5.48194 15.5082 6.95008 15.5051 8.45096C15.4927 10.4682 14.6816 12.3984 13.2493 13.819C11.8169 15.2396 9.88012 16.0348 7.8628 16.0306ZM7.8628 4.33224C7.05246 4.35073 6.26555 4.60792 5.60071 5.07159C4.93586 5.53525 4.42265 6.18477 4.12527 6.93881C3.82789 7.69285 3.75956 8.51787 3.92894 9.31054C4.09831 10.1032 4.49781 10.8283 5.07738 11.3949C5.65696 11.9616 6.39093 12.3446 7.18721 12.4961C7.9835 12.6475 8.80674 12.5607 9.55388 12.2463C10.301 11.932 10.9388 11.4043 11.3874 10.7291C11.8359 10.054 12.0753 9.26152 12.0755 8.45096C12.0735 7.90269 11.9625 7.36029 11.7489 6.85533C11.5353 6.35037 11.2235 5.89294 10.8315 5.50965C10.4394 5.12636 9.97502 4.82487 9.46537 4.62273C8.95572 4.4206 8.41097 4.32185 7.8628 4.33224Z" fill="#B1E3EB"/>
</svg>
