<svg width="121" height="111" viewBox="0 0 121 111" fill="none" xmlns="http://www.w3.org/2000/svg">
<path d="M116.765 -0.000679327L120.324 3.00653C114.506 9.83948 107.335 9.80385 101.053 9.75047C94.7718 9.69709 89.7895 9.7505 85.3943 14.8396C80.9992 19.9287 81.8355 25.1068 82.9565 31.0145C84.0776 36.9221 85.2876 44.1644 79.4867 50.9973C73.6858 57.8303 66.5147 57.7946 60.1978 57.7413C54.1834 57.7413 48.9341 57.7413 44.539 62.8304C40.1438 67.9195 40.9802 73.1154 42.0834 79.0409C43.1866 84.9663 44.4144 92.2086 38.5246 99.0415C32.6347 105.874 25.5348 105.839 19.2357 105.821C12.9366 105.803 7.95422 105.821 3.55907 110.928L0.000244404 107.921C5.83672 101.07 12.9544 101.106 19.2891 101.159C25.6238 101.212 30.5706 101.159 34.9657 96.0343C39.3609 90.9096 38.5246 85.7493 37.4213 79.8416C36.3359 73.667 35.0903 66.6739 40.9802 59.8232C46.87 52.9725 53.9343 53.0436 60.2512 53.0792C66.2834 53.0792 71.5149 53.1682 75.9101 47.9901C80.3052 42.812 79.4689 37.7229 78.3479 31.8152C77.2268 25.9076 76.0168 18.6654 81.8177 11.8324C87.6186 4.99946 94.7896 5.03503 101.107 5.08842C107.139 5.1418 112.37 5.17741 116.765 -0.000679327Z" fill="#ADE2EB"/>
</svg>
