<svg width="18" height="18" viewBox="0 0 18 18" fill="none" xmlns="http://www.w3.org/2000/svg">
<path d="M8.66519 -0.00100989C10.3705 0.00602268 12.0356 0.518161 13.4501 1.47072C14.8646 2.42328 15.9652 3.77357 16.613 5.35113C17.2607 6.9287 17.4266 8.66282 17.0896 10.3346C16.7526 12.0063 15.9278 13.5407 14.7195 14.7441C13.5111 15.9475 11.9733 16.7659 10.3002 17.096C8.62711 17.4262 6.89371 17.2532 5.31883 16.5989C3.74394 15.9447 2.39818 14.8386 1.45145 13.4201C0.504717 12.0017 -0.00052974 10.3345 -0.000542967 8.62916C0.00886996 6.33703 0.926019 4.14199 2.55014 2.52453C4.17427 0.907078 6.37305 -0.00102921 8.66519 -0.00100989ZM8.66519 13.2912C9.59077 13.2877 10.4945 13.0098 11.2621 12.4926C12.0298 11.9755 12.6268 11.2423 12.9778 10.3859C13.3287 9.5294 13.4178 8.58807 13.2338 7.68097C13.0498 6.77386 12.6009 5.94171 11.9439 5.28972C11.287 4.63772 10.4514 4.19516 9.5429 4.01804C8.63442 3.84092 7.69383 3.93715 6.84006 4.29461C5.98628 4.65206 5.25766 5.25469 4.74636 6.02623C4.23506 6.79778 3.96403 7.70358 3.96754 8.62916C4.00001 9.85334 4.50925 11.0165 5.38673 11.8707C6.26422 12.7249 7.44058 13.2027 8.66519 13.2023L8.66519 13.2912Z" fill="#ADE2EB"/>
</svg>
