<svg width="116" height="101" viewBox="0 0 116 101" fill="none" xmlns="http://www.w3.org/2000/svg">
<path d="M3.22606 100.587L0 97.6431C5.66911 91.3789 12.3405 91.7235 18.1975 92.0054C23.804 92.2403 28.69 92.4752 32.9654 87.777C37.2407 83.0789 36.583 78.2711 35.8156 72.6959C35.0012 66.8546 34.1086 60.1675 39.7621 54.0443C45.4155 47.921 52.1026 48.1246 57.9753 48.4065C63.5817 48.6571 68.4678 48.8763 72.7431 44.1782C77.0184 39.48 76.3764 34.6566 75.609 29.0658C74.8416 23.475 73.902 16.6156 79.5711 10.3984C85.2402 4.1812 91.9116 4.49441 97.7999 4.74498C103.438 4.99554 108.292 5.21479 112.583 0.500977L115.825 3.46081C110.156 9.72502 103.5 9.38049 97.5963 9.11426C91.9429 8.86369 87.0881 8.6601 82.8128 13.3583C78.5375 18.0564 79.1795 22.8799 79.9469 28.4707C80.7456 34.312 81.6539 40.9991 75.9692 47.138C70.2844 53.2769 63.66 53.042 57.7717 52.7758C52.1652 52.5252 47.2791 52.306 43.0038 57.0041C38.7285 61.7023 39.3862 66.51 40.1536 72.0852C40.9523 77.9266 41.8605 84.6136 36.2071 90.7369C30.5537 96.8601 23.8823 96.6409 17.9939 96.3747C12.3875 96.1241 7.51704 95.8892 3.22606 100.587Z" fill="#5ED19C"/>
</svg>
