<svg width="49" height="43" viewBox="0 0 49 43" fill="none" xmlns="http://www.w3.org/2000/svg">
<path d="M1.36394 42.1166L0 40.8739C2.37933 38.2975 5.16785 38.4339 7.5775 38.54C9.98714 38.6461 11.9725 38.737 13.7608 36.782C15.5491 34.8271 15.2762 32.8266 14.958 30.5079C14.6397 28.1892 14.2457 25.34 16.6099 22.7637C18.9741 20.1873 21.7778 20.2934 24.1874 20.4146C26.5971 20.5359 28.5823 20.6117 30.3706 18.6567C32.1589 16.7017 31.8861 14.7012 31.5678 12.3825C31.2496 10.0638 30.8556 7.19949 33.2349 4.62314C35.6143 2.04679 38.4028 2.15288 40.8125 2.25896C43.2221 2.36505 45.2073 2.45597 47.0108 0.500977L48.3596 1.72853C45.9954 4.32003 43.2069 4.1988 40.7821 4.07756C38.3573 3.95632 36.3872 3.89569 34.5838 5.85069C32.7803 7.80568 33.0682 9.80614 33.3865 12.1249C33.7047 14.4436 34.0988 17.3079 31.7194 19.8842C29.3401 22.4606 26.5667 22.3393 24.1419 22.2332C21.7171 22.1272 19.7621 22.0362 17.9587 23.9912C16.1552 25.9462 16.4432 27.9467 16.7766 30.2654C17.11 32.5841 17.4889 35.4333 15.1247 38.0096C12.7605 40.5859 9.95685 40.4647 7.54721 40.3586C5.13756 40.2525 3.15223 40.1616 1.36394 42.1166Z" fill="#5ED19C"/>
</svg>
