<svg width="49" height="43" viewBox="0 0 49 43" fill="none" xmlns="http://www.w3.org/2000/svg">
<path d="M1.34877 42.1015L0 40.8739C2.36418 38.2976 5.1527 38.4188 7.5775 38.54C10.0023 38.6613 11.9573 38.737 13.7455 36.782C15.5338 34.8271 15.2611 32.8266 14.9428 30.5079C14.6246 28.1892 14.2305 25.34 16.5947 22.7485C18.9589 20.157 21.7626 20.2934 24.1722 20.4146C26.5818 20.5359 28.5672 20.6117 30.3555 18.6567C32.1438 16.7017 31.8709 14.6861 31.5527 12.3673C31.2344 10.0486 30.8404 7.1995 33.2197 4.60799C35.5991 2.01649 38.3876 2.15288 40.7972 2.25896C43.2069 2.36505 45.2073 2.45597 46.9956 0.500977L48.3444 1.72853C45.9803 4.30488 43.1917 4.18364 40.7669 4.07756C38.3421 3.97147 36.372 3.88055 34.5686 5.83554C32.7651 7.79054 33.053 9.80614 33.3713 12.1249C33.6895 14.4436 34.0836 17.2927 31.7194 19.8842C29.3552 22.4757 26.5515 22.3393 24.1419 22.2333C21.7323 22.1272 19.7469 22.0362 17.9586 23.9761C16.1703 25.9159 16.4432 27.9315 16.7614 30.2502C17.0797 32.569 17.4737 35.4333 15.1095 38.0096C12.7454 40.5859 9.94168 40.4647 7.53204 40.3587C5.12239 40.2526 3.13706 40.1465 1.34877 42.1015Z" fill="#EF635B"/>
</svg>
