<svg width="196" height="41" viewBox="0 0 196 41" fill="none" xmlns="http://www.w3.org/2000/svg">
<path d="M2.25071 0.840349C1.88586 0.425741 1.25398 0.385408 0.839372 0.750263C0.424765 1.11512 0.384432 1.747 0.749286 2.1616L2.25071 0.840349ZM193.479 1.29889C193.368 0.757996 192.839 0.409998 192.298 0.52161L183.484 2.34043C182.943 2.45204 182.595 2.981 182.706 3.52189C182.818 4.06278 183.347 4.41078 183.888 4.29916L191.723 2.68243L193.339 10.5174C193.451 11.0583 193.98 11.4063 194.521 11.2946C195.062 11.183 195.41 10.6541 195.298 10.1132L193.479 1.29889ZM0.749286 2.1616C28.527 33.7272 70.3875 43.2634 108.331 40.1852C127.313 38.6453 145.363 33.9469 160.255 27.2329C175.127 20.5279 186.941 11.7704 193.335 2.05059L191.665 0.95136C185.559 10.2315 174.123 18.7866 159.433 25.4097C144.762 32.0238 126.937 36.6692 108.169 38.1917C70.6125 41.2386 29.473 31.7748 2.25071 0.840349L0.749286 2.1616Z" fill="white"/>
</svg>
