<svg width="9" height="9" viewBox="0 0 9 9" fill="none" xmlns="http://www.w3.org/2000/svg">
<path d="M4.23035 8.37751C3.4427 8.37452 2.67365 8.13821 2.02019 7.69843C1.36673 7.25865 0.858242 6.63513 0.558891 5.90657C0.25954 5.17801 0.18269 4.37708 0.338189 3.60492C0.493688 2.83276 0.874524 2.12398 1.43254 1.56808C1.99056 1.01217 2.70078 0.634061 3.47353 0.481493C4.24627 0.328926 5.04692 0.408731 5.77434 0.710844C6.50176 1.01296 7.12329 1.52384 7.56059 2.17896C7.99788 2.83408 8.23129 3.60408 8.23129 4.39174C8.22728 5.45022 7.80404 6.46399 7.05415 7.21103C6.30427 7.95808 5.28884 8.37752 4.23035 8.37751ZM4.23035 2.23973C3.80108 2.23974 3.38153 2.36724 3.02482 2.60605C2.66811 2.84486 2.39031 3.18422 2.22674 3.5811C2.06316 3.97799 2.02117 4.4145 2.10603 4.83529C2.19088 5.25609 2.39878 5.64221 2.70338 5.94468C3.00798 6.24715 3.39559 6.45236 3.81698 6.53427C4.23836 6.61617 4.67452 6.57108 5.07024 6.40472C5.46597 6.23837 5.80342 5.95824 6.03972 5.59987C6.27602 5.24149 6.4006 4.821 6.3976 4.39174C6.3936 3.8196 6.1635 3.27227 5.75751 2.86912C5.35152 2.46597 4.8025 2.23972 4.23035 2.23973Z" fill="#5ED19C"/>
</svg>
