<svg width="116" height="101" viewBox="0 0 116 101" fill="none" xmlns="http://www.w3.org/2000/svg">
<path d="M3.22606 100.585L0 97.6412C5.66911 91.377 12.3405 91.7215 18.1975 92.0034C23.804 92.2383 28.69 92.4732 32.9654 87.7751C37.2407 83.0769 36.583 78.2691 35.8156 72.694C35.0012 66.8526 34.1086 60.1656 39.7621 54.0423C45.4155 47.9191 52.1026 48.1226 57.9753 48.4045C63.5817 48.6551 68.4678 48.8744 72.7431 44.1762C77.0184 39.478 76.3764 34.6546 75.609 29.0638C74.8416 23.473 73.902 16.6137 79.5711 10.3965C85.2402 4.17924 91.9116 4.49245 97.7999 4.74302C103.438 4.99359 108.292 5.21284 112.583 0.499023L115.825 3.45886C110.156 9.72307 103.5 9.37854 97.5963 9.11231C91.9429 8.86174 87.0881 8.65815 82.8128 13.3563C78.5375 18.0545 79.1795 22.8779 79.9469 28.4687C80.7456 34.3101 81.6539 40.9971 75.9692 47.136C70.2844 53.275 63.66 53.04 57.7717 52.7738C52.1652 52.5233 47.2791 52.304 43.0038 57.0022C38.7285 61.7003 39.3862 66.5081 40.1536 72.0832C40.9523 77.9246 41.8605 84.6116 36.2071 90.7349C30.5537 96.8582 23.8823 96.6389 17.9939 96.3727C12.3875 96.1221 7.51704 95.8872 3.22606 100.585Z" fill="#5ED19C"/>
</svg>
