<svg width="49" height="43" viewBox="0 0 49 43" fill="none" xmlns="http://www.w3.org/2000/svg">
<path d="M1.34877 42.0995L0 40.872C2.36418 38.2956 5.1527 38.4168 7.5775 38.5381C10.0023 38.6593 11.9573 38.7351 13.7455 36.7801C15.5338 34.8251 15.2611 32.8247 14.9428 30.506C14.6246 28.1872 14.2305 25.3381 16.5947 22.7466C18.9589 20.1551 21.7626 20.2915 24.1722 20.4127C26.5818 20.5339 28.5672 20.6097 30.3555 18.6547C32.1438 16.6997 31.8709 14.6841 31.5527 12.3654C31.2344 10.0467 30.8404 7.19754 33.2197 4.60604C35.5991 2.01453 38.3876 2.15092 40.7972 2.25701C43.2069 2.36309 45.2073 2.45402 46.9956 0.499023L48.3444 1.72657C45.9803 4.30292 43.1917 4.18169 40.7669 4.0756C38.3421 3.96952 36.372 3.87859 34.5686 5.83359C32.7651 7.78858 33.053 9.80419 33.3713 12.1229C33.6895 14.4416 34.0836 17.2908 31.7194 19.8823C29.3552 22.4738 26.5515 22.3374 24.1419 22.2313C21.7323 22.1252 19.7469 22.0343 17.9586 23.9741C16.1703 25.914 16.4432 27.9296 16.7614 30.2483C17.0797 32.567 17.4737 35.4313 15.1095 38.0076C12.7454 40.584 9.94168 40.4628 7.53204 40.3567C5.12239 40.2506 3.13706 40.1445 1.34877 42.0995Z" fill="#EF635B"/>
</svg>
