<svg width="160" height="177" viewBox="0 0 160 177" fill="none" xmlns="http://www.w3.org/2000/svg">
<path fill-rule="evenodd" clip-rule="evenodd" d="M121.793 17.9971C121.793 17.9971 131.401 20.6578 137.796 20.2686C137.796 20.2686 149.25 28.052 155.647 48.6751C155.647 48.6751 150.146 55.1966 151.316 62.7746C151.316 62.7746 141.518 36.1541 121.793 17.9971Z" fill="url(#paint0_linear_756_24031)"/>
<path fill-rule="evenodd" clip-rule="evenodd" d="M132.33 171.898C132.33 171.898 128.412 170.716 125.503 171.071C125.503 171.071 121.593 168.138 121.531 163.056C121.531 163.056 124.526 159.354 125.621 156.498C125.621 156.498 126.823 164.707 132.33 171.898Z" fill="url(#paint1_linear_756_24031)"/>
<path fill-rule="evenodd" clip-rule="evenodd" d="M152.86 77.7404C152.869 87.3256 150.988 96.8185 147.323 105.676C143.659 114.533 138.284 122.58 131.505 129.357C124.727 136.135 116.678 141.508 107.82 145.171C98.9622 148.833 89.4689 150.713 79.8836 150.702C78.5896 150.702 77.2806 150.672 76.0016 150.595H75.9887C74.0787 150.503 72.1836 150.317 70.3207 150.086C56.5817 148.288 43.6457 142.59 33.0442 133.668C26.2064 127.914 20.4621 120.974 16.0871 113.182C15.64 112.382 15.208 111.565 14.778 110.748C14.778 110.718 14.761 110.703 14.746 110.671C14.299 109.794 13.8904 108.915 13.4841 108.023H13.4691C12.1918 105.222 11.1007 102.341 10.203 99.3966C9.5217 97.2505 8.95058 95.071 8.49193 92.8666C8.48019 92.8481 8.47485 92.8263 8.47689 92.8045C8.15392 91.2474 7.87585 89.6775 7.66197 88.099C7.1654 84.6714 6.91807 81.2123 6.92192 77.7489C6.92192 75.732 6.99896 73.7129 7.18291 71.7408C7.27702 70.4789 7.41388 69.2319 7.58499 67.9828C8.5073 60.9381 10.4746 54.0702 13.422 47.6056C19.2201 34.8393 28.5704 24.0118 40.356 16.416C52.1416 8.82023 65.8645 4.77734 79.8858 4.77014C80.6558 4.77014 81.4258 4.78511 82.1808 4.80009C82.9957 4.83217 83.8127 4.86211 84.6298 4.92414C88.7565 5.1917 92.853 5.80993 96.8749 6.77214C99.1849 7.32825 101.448 7.97419 103.666 8.74419C105.176 9.25325 106.66 9.81363 108.119 10.4382C109.212 10.9002 110.275 11.3772 111.338 11.8862C111.522 11.9782 111.706 12.0552 111.892 12.1493C118.934 15.591 125.377 20.1429 130.973 25.6307C131.775 26.4007 132.545 27.2006 133.326 28.0177C133.835 28.5717 134.342 29.1427 134.836 29.7117C135.691 30.6678 136.498 31.6688 137.3 32.6698C143.673 40.7741 148.251 50.1405 150.73 60.148C152.155 65.9034 152.87 71.8113 152.86 77.7404Z" fill="url(#paint2_radial_756_24031)"/>
<path style="mix-blend-mode:multiply" opacity="0.5" fill-rule="evenodd" clip-rule="evenodd" d="M9.70312 66.9624C9.70312 66.9624 22.7183 73.7533 34.3774 64.5219C46.0364 55.2905 36.7108 20.8523 36.7108 20.8523L9.70312 66.9624Z" fill="url(#paint3_linear_756_24031)"/>
<path style="mix-blend-mode:multiply" opacity="0.89" fill-rule="evenodd" clip-rule="evenodd" d="M94.3047 119.421C94.3047 119.421 100.193 126.498 114.605 127.277C129.017 128.056 143.411 111.518 146.72 96.537C150.029 81.5562 139.326 66.4108 128.818 64.0601C118.309 61.7095 94.3047 119.421 94.3047 119.421Z" fill="url(#paint4_linear_756_24031)"/>
<path style="mix-blend-mode:screen" fill-rule="evenodd" clip-rule="evenodd" d="M36.6135 134.729C29.0254 128.377 22.8035 120.553 18.3238 111.729C15.4648 106.093 13.3585 100.106 12.059 93.9209C12.0474 93.9017 12.0428 93.879 12.0462 93.8568C11.0114 88.9029 10.4896 83.8556 10.4891 78.7947C10.4903 59.442 18.1785 40.8822 31.8627 27.1975C45.547 13.5128 64.1066 5.82407 83.4594 5.82237C85.055 5.82237 86.6249 5.8737 88.1948 5.97423C93.0566 6.28855 97.8748 7.08965 102.577 8.3655C96.7578 6.46094 90.7207 5.3024 84.6101 4.91762C83.0401 4.81495 81.4702 4.76576 79.8768 4.76576C70.2927 4.76098 60.8017 6.64513 51.9462 10.3105C43.0908 13.9759 35.0446 19.3506 28.2676 26.1275C21.4905 32.9043 16.1156 40.9503 12.45 49.8057C8.78431 58.661 6.89981 68.1519 6.9043 77.736C6.9059 82.7967 7.42773 87.844 8.46147 92.798C8.45812 92.8203 8.46268 92.8429 8.47432 92.8622C9.77553 99.0468 11.8824 105.034 14.7412 110.671C19.3749 119.798 25.8702 127.852 33.8082 134.314C41.7462 140.776 50.9507 145.503 60.8278 148.189C51.9697 145.292 43.7497 140.723 36.6135 134.729Z" fill="url(#paint5_radial_756_24031)"/>
<path fill-rule="evenodd" clip-rule="evenodd" d="M20.2852 119.834C20.2852 119.834 24.9074 127.369 23.7395 139.625C23.7395 139.625 33.8756 157.337 62.4747 158.796C62.4747 158.796 76.8716 148.182 90.6524 149.913C90.6524 149.913 66.8594 115.992 20.2852 119.834Z" fill="url(#paint6_linear_756_24031)"/>
<path fill-rule="evenodd" clip-rule="evenodd" d="M9.70309 66.9624C9.70309 66.9624 4.90776 53.7334 0.606456 49.0642C0.606456 49.0642 -2.70243 28.0518 18.6993 20.8523C18.6993 20.8523 30.2257 23.0511 36.7108 20.8523C36.7108 20.8523 39.1791 35.0545 29.4002 50.232C21.0649 63.1701 9.70309 66.9624 9.70309 66.9624Z" fill="url(#paint7_linear_756_24031)"/>
<path fill-rule="evenodd" clip-rule="evenodd" d="M140.812 77.2633C140.812 77.2633 135.713 59.3266 118.392 58.2507C100.021 57.1107 83.7528 93.7691 89.4208 111.282C95.0889 128.795 115.537 126.274 124.899 119.908C136.271 112.178 141.851 95.093 140.812 77.2633Z" fill="url(#paint8_linear_756_24031)"/>
<path style="mix-blend-mode:multiply" opacity="0.5" fill-rule="evenodd" clip-rule="evenodd" d="M62.8906 24.5912C62.8906 24.5912 69.1084 35.1103 81.1546 33.9596C94.3066 32.7019 97.823 21.5669 97.3332 17.1565C96.8434 12.7461 62.8906 24.5912 62.8906 24.5912Z" fill="url(#paint9_linear_756_24031)"/>
<path fill-rule="evenodd" clip-rule="evenodd" d="M121.22 64.5221C105.337 64.4344 81.8111 106.697 102.293 120.903C121.757 134.402 139.741 105.103 141.85 95.0932C143.959 85.0832 142.607 64.6397 121.22 64.5221Z" fill="url(#paint10_linear_756_24031)"/>
<path fill-rule="evenodd" clip-rule="evenodd" d="M113.833 120.478C113.078 120.416 112.336 120.306 111.645 120.199C101.787 118.505 98.0905 111.644 97.2585 104.735C96.8193 100.726 97.1755 96.6696 98.3065 92.7982C100.169 86.5762 110.167 71.989 121.61 69.9399C125.674 69.1999 129.928 70.064 134.071 73.467C137.568 76.363 139.307 80.1681 139.709 84.3881C141.249 100.13 124.568 121.431 113.833 120.478Z" fill="url(#paint11_linear_756_24031)"/>
<path fill-rule="evenodd" clip-rule="evenodd" d="M65.6901 5.2643C65.6901 5.2643 58.3965 14.6305 61.9963 23.0513C65.8121 31.9833 87.2051 31.6068 94.118 24.7816C101.031 17.9565 95.5147 4.94133 89.5665 2.657C82.7926 0.0561168 73.85 0.548061 65.6901 5.2643Z" fill="url(#paint12_radial_756_24031)"/>
<path fill-rule="evenodd" clip-rule="evenodd" d="M64.3259 17.52C68.0497 25.0296 93.5517 26.1012 95.3932 13.0775C97.1429 0.701914 79.0671 -0.825251 73.8483 0.547914C68.6294 1.92108 59.3038 7.4116 64.3259 17.52Z" fill="url(#paint13_linear_756_24031)"/>
<path fill-rule="evenodd" clip-rule="evenodd" d="M91.7659 9.86921C91.813 10.2685 91.813 10.672 91.7659 11.0713C91.7495 11.4815 91.6929 11.8891 91.5969 12.2883C89.5179 20.6513 72.7127 23.3784 68.8776 18.7263C67.9338 17.6273 67.2451 16.333 66.8607 14.9362C65.5517 9.80291 70.1268 5.69625 73.1597 4.1092C76.9027 2.13714 90.936 0.120172 91.7659 9.86921Z" fill="url(#paint14_linear_756_24031)"/>
<path fill-rule="evenodd" clip-rule="evenodd" d="M0.60579 49.0642C0.956567 53.836 24.957 31.2131 18.6986 20.8523C18.6986 20.8523 -1.3406 22.7003 0.60579 49.0642Z" fill="url(#paint15_linear_756_24031)"/>
<path fill-rule="evenodd" clip-rule="evenodd" d="M23.7391 139.633C22.2419 131.108 65.5906 136.998 62.4742 158.804C61.7941 163.563 26.2159 153.784 23.7391 139.633Z" fill="url(#paint16_linear_756_24031)"/>
<path fill-rule="evenodd" clip-rule="evenodd" d="M58.5805 158.167C57.8575 158.753 34.0753 155.241 25.8962 140.793C25.3572 139.824 27.8982 139.509 31.7952 139.978C33.4505 140.176 35.093 140.468 36.7147 140.855C42.3506 142.164 48.9897 144.722 53.4878 148.788C54.675 149.835 55.7726 150.98 56.7689 152.21C57.9239 153.69 58.5399 154.89 58.8158 155.814C59.1965 157.121 58.9206 157.906 58.5805 158.167Z" fill="url(#paint17_linear_756_24031)"/>
<path fill-rule="evenodd" clip-rule="evenodd" d="M56.7632 152.206C47.335 150.544 40.559 144.968 36.709 140.855C42.3449 142.164 48.984 144.722 53.4821 148.788C54.6691 149.834 55.7667 150.977 56.7632 152.206Z" fill="url(#paint18_linear_756_24031)"/>
<path fill-rule="evenodd" clip-rule="evenodd" d="M16.0989 27.4059C15.5011 29.1988 14.802 30.9562 14.0049 32.6697C12.1847 36.7229 8.58931 40.9387 5.96917 42.992C4.63237 44.0614 3.5437 44.5512 3.10309 44.1641C2.19406 43.3791 2.34586 37.5635 5.12855 32.1607C7.91124 26.7579 15.453 22.8993 16.223 23.7399C16.7 24.2639 16.7834 25.2286 16.0989 27.4059Z" fill="url(#paint19_linear_756_24031)"/>
<path fill-rule="evenodd" clip-rule="evenodd" d="M16.1004 27.406C15.5027 29.1988 14.8035 30.9563 14.0065 32.6698C12.1863 36.723 8.59084 40.9387 5.9707 42.9921C9.02503 34.6697 14.4407 29.0038 16.1004 27.406Z" fill="url(#paint20_linear_756_24031)"/>
<path fill-rule="evenodd" clip-rule="evenodd" d="M23.739 109.571C22.984 109.109 22.2418 108.277 21.583 107.218C21.583 107.218 21.583 107.203 21.551 107.174C19.134 103.277 17.733 96.4984 20.2889 95.1124C23.4459 93.3884 28.113 94.2803 30.2241 99.8864C30.2249 99.8985 30.2302 99.91 30.239 99.9185C30.322 100.108 30.3892 100.304 30.4401 100.505C30.4569 100.532 30.4672 100.564 30.47 100.596C30.4942 100.73 30.536 100.859 30.5941 100.981C30.654 101.18 30.716 101.381 30.7631 101.597C32.0721 106.938 27.2661 111.712 23.739 109.571Z" fill="url(#paint21_linear_756_24031)"/>
<path style="mix-blend-mode:multiply" opacity="0.4" fill-rule="evenodd" clip-rule="evenodd" d="M30.2163 99.8821C29.0292 97.4951 24.4092 94.7231 21.5752 97.3154C18.6022 100.025 21.2972 106.558 21.5431 107.174C19.1262 103.276 17.7251 96.4983 20.2811 95.1123C23.4467 93.3841 28.1138 94.276 30.2163 99.8821Z" fill="url(#paint22_radial_756_24031)"/>
<path fill-rule="evenodd" clip-rule="evenodd" d="M45.8451 38.5561C45.4629 38.239 45.1561 37.8408 44.9468 37.3904C44.9452 37.3814 44.9407 37.3732 44.934 37.3669C43.9736 35.4847 43.5929 32.317 44.8228 31.778C46.3392 31.1085 48.4481 31.6988 49.201 34.3575C49.1999 34.3598 49.1993 34.3624 49.1993 34.365C49.1993 34.3676 49.1999 34.3701 49.201 34.3724C49.2333 34.462 49.2569 34.5544 49.2716 34.6484C49.2779 34.6618 49.2816 34.6763 49.2824 34.6911C49.2885 34.7532 49.3021 34.8142 49.323 34.8729C49.3444 34.9671 49.3636 35.0633 49.3786 35.1638C49.7764 37.6685 47.383 39.6769 45.8451 38.5561Z" fill="url(#paint23_linear_756_24031)"/>
<path style="mix-blend-mode:multiply" opacity="0.4" fill-rule="evenodd" clip-rule="evenodd" d="M49.201 34.3575C48.7476 33.2132 46.7328 31.7609 45.3297 32.841C43.8603 33.9703 44.8442 37.0739 44.934 37.3669C43.9736 35.4847 43.5929 32.317 44.8228 31.778C46.3392 31.1085 48.4481 31.6988 49.201 34.3575Z" fill="url(#paint24_radial_756_24031)"/>
<path fill-rule="evenodd" clip-rule="evenodd" d="M100.495 140.425H100.471C100.32 140.506 100.157 140.563 99.9877 140.594C99.9642 140.617 99.9406 140.643 99.915 140.643C99.8053 140.656 99.6989 140.689 99.6006 140.739C99.4552 140.788 99.2862 140.835 99.0937 140.884C96.6532 141.526 94.356 140.643 93.0748 139.193C92.0353 138.031 91.6739 136.557 92.4225 135.253C92.7861 134.624 93.4619 133.995 94.3324 133.439L94.356 133.415C97.5216 131.362 103.083 130.081 104.266 132.158C104.606 132.717 104.821 133.344 104.894 133.995C105.258 136.316 104.073 138.992 100.495 140.425Z" fill="url(#paint25_linear_756_24031)"/>
<path style="mix-blend-mode:screen" opacity="0.5" fill-rule="evenodd" clip-rule="evenodd" d="M40.3398 100.237C40.3398 100.237 44.7288 107.238 56.7644 106.508C68.7999 105.779 70.9879 99.8907 71.7172 95.1018C72.4466 90.3128 70.4339 84.4073 70.4339 84.4073C70.4339 84.4073 43.8369 89.4444 40.3398 100.237Z" fill="url(#paint26_radial_756_24031)"/>
<path style="mix-blend-mode:multiply" opacity="0.4" fill-rule="evenodd" clip-rule="evenodd" d="M104.891 133.995C103.901 133.15 101.846 132.111 98.4747 133.174C93.3286 134.793 93.0612 139.193 93.0612 139.193C92.0217 138.031 91.6602 136.557 92.4088 135.253C92.7724 134.624 93.4483 133.995 94.3188 133.439L94.3423 133.415C97.5079 131.362 103.069 130.081 104.252 132.158C104.596 132.716 104.814 133.343 104.891 133.995Z" fill="url(#paint27_radial_756_24031)"/>
<path fill-rule="evenodd" clip-rule="evenodd" d="M71.026 91.1959L71.0111 91.4568C71.0432 110.095 43.1157 107.815 38.7417 97.897C38.112 96.4466 37.611 94.9435 37.2445 93.4054V93.3904C34.7783 83.4082 36.3205 70.038 40.7715 66.973C45.4536 63.754 54.4475 63.677 60.9947 66.973C68.376 70.6797 71.2827 81.7848 71.026 91.1959Z" fill="url(#paint28_linear_756_24031)"/>
<path style="mix-blend-mode:multiply" opacity="0.4" fill-rule="evenodd" clip-rule="evenodd" d="M71.0256 91.1962L71.0107 91.4571C71.0107 91.4571 71.4256 79.7981 65.7896 73.5761C60.1537 67.354 48.8604 65.5959 42.4074 72.605C36.1233 79.4494 37.1863 92.7512 37.2484 93.3843C34.7822 83.4021 36.3244 70.0319 40.7754 66.9669C45.4575 63.7479 54.4514 63.6709 60.9986 66.9669C68.3756 70.68 71.2823 81.7851 71.0256 91.1962Z" fill="url(#paint29_linear_756_24031)"/>
<path fill-rule="evenodd" clip-rule="evenodd" d="M123.38 32.5266C121.795 33.3821 118.033 31.0294 114.61 28.1055C110.435 24.5165 106.769 20.0355 108.194 19.3896C110.149 18.5105 117.342 19.0965 120.655 21.8215C122.188 23.1423 123.413 24.7827 124.244 26.6275C125.275 29.0145 125.367 31.4486 123.38 32.5266Z" fill="url(#paint30_linear_756_24031)"/>
<path style="mix-blend-mode:multiply" opacity="0.4" fill-rule="evenodd" clip-rule="evenodd" d="M124.245 26.6275C124.228 26.6078 124.212 26.5871 124.198 26.5655C118.996 18.7115 110.973 19.0516 110.387 21.1926C109.801 23.3337 114.603 28.1055 114.603 28.1055C110.427 24.5165 106.761 20.0355 108.186 19.3896C110.141 18.5105 117.334 19.0965 120.647 21.8215C122.183 23.1414 123.411 24.7819 124.245 26.6275Z" fill="url(#paint31_linear_756_24031)"/>
<path fill-rule="evenodd" clip-rule="evenodd" d="M5.77734 47.0944C5.77734 47.0944 17.6524 41.1355 18.9015 29.3673C18.9015 29.3673 12.9105 41.4777 5.77734 47.0944Z" fill="#E5BDFA"/>
<path fill-rule="evenodd" clip-rule="evenodd" d="M94.307 105.443C94.307 105.443 95.4769 81.847 112.543 67.9399C112.543 67.9399 92.074 77.7318 94.307 105.443Z" fill="#E5BDFA"/>
<path fill-rule="evenodd" clip-rule="evenodd" d="M65.0234 18.5723C65.0234 18.5723 68.2317 23.4297 79.1636 23.064C90.0954 22.6982 93.693 17.6997 94.3048 16.3607C94.3048 16.3607 91.5905 24.7366 79.2234 24.4436C66.1741 24.1185 65.0234 18.5723 65.0234 18.5723Z" fill="#FFA5F7"/>
<path fill-rule="evenodd" clip-rule="evenodd" d="M42.4082 137.462C42.4082 137.462 58.9952 144.155 62.3554 153.791C62.3597 153.791 61.9897 142.733 42.4082 137.462Z" fill="#FFA5F7"/>
<path style="mix-blend-mode:multiply" opacity="0.71" fill-rule="evenodd" clip-rule="evenodd" d="M139.708 84.3881V84.4181C139.708 84.4181 134.072 74.6883 118.439 78.9532C104.421 82.7733 98.3658 100.808 97.2643 104.735C96.8252 100.726 97.1813 96.6696 98.3123 92.7982C100.175 86.5762 110.172 71.989 121.615 69.9399C125.679 69.1999 129.934 70.064 134.077 73.467C137.567 76.363 139.3 80.1724 139.708 84.3881Z" fill="url(#paint32_linear_756_24031)"/>
<path fill-rule="evenodd" clip-rule="evenodd" d="M158.693 162.519C158.289 164.769 157.445 166.917 156.21 168.84C154.974 170.763 153.372 172.423 151.494 173.726C149.616 175.029 147.5 175.949 145.266 176.433C143.032 176.917 140.725 176.955 138.476 176.546C138.172 176.493 137.867 176.428 137.569 176.356C137.124 176.253 136.688 176.129 136.26 175.996C133.113 174.992 130.319 173.107 128.209 170.564C126.848 168.924 125.794 167.053 125.097 165.039C125.027 164.825 124.96 164.622 124.894 164.412C124.894 164.412 124.894 164.401 124.894 164.393C124.828 164.179 124.766 163.944 124.71 163.717C124.531 163.006 124.397 162.283 124.31 161.555C124.242 161.022 124.2 160.487 124.186 159.95C124.185 159.946 124.185 159.94 124.186 159.935C124.186 159.557 124.186 159.176 124.186 158.795C124.216 157.97 124.304 157.147 124.451 156.334C124.537 155.861 124.642 155.39 124.768 154.937C124.843 154.644 124.928 154.357 125.02 154.081C126.317 150.076 129.022 146.676 132.634 144.513C136.246 142.349 140.521 141.569 144.664 142.317C144.846 142.35 145.025 142.386 145.201 142.422C145.376 142.459 145.581 142.506 145.772 142.555C146.726 142.784 147.659 143.095 148.561 143.483C149.081 143.712 149.583 143.958 150.073 144.234C150.404 144.418 150.728 144.613 151.044 144.82C151.282 144.974 151.511 145.132 151.739 145.297C151.778 145.325 151.818 145.35 151.857 145.38C153.366 146.489 154.687 147.834 155.769 149.363C155.923 149.577 156.071 149.791 156.216 150.022C156.312 150.174 156.409 150.328 156.498 150.484C156.657 150.743 156.806 151.012 156.952 151.282C158.103 153.453 158.781 155.844 158.939 158.297C159.029 159.709 158.946 161.127 158.693 162.519Z" fill="url(#paint33_radial_756_24031)"/>
<path fill-rule="evenodd" clip-rule="evenodd" d="M146.272 140.679C146.272 140.679 139.367 140.495 136.788 147.372C134.05 154.665 144.766 165.848 151.593 165.749C158.421 165.651 160.149 157.057 159.118 152.469C157.869 146.906 152.622 142.495 146.272 140.679Z" fill="url(#paint34_linear_756_24031)"/>
<path fill-rule="evenodd" clip-rule="evenodd" d="M139.334 147.012C137.283 153.429 149.028 168.254 156.589 161.743C163.773 155.557 155.844 144.604 152.623 142.493C149.402 140.382 142.098 138.369 139.334 147.012Z" fill="url(#paint35_linear_756_24031)"/>
<path fill-rule="evenodd" clip-rule="evenodd" d="M157.906 157.02C157.789 157.318 157.658 157.604 157.532 157.876C155.686 161.653 152.826 162.291 150.307 161.76C148.837 161.426 147.46 160.769 146.277 159.835C144.352 158.299 140.53 152.424 141.272 147.534C141.4 146.615 141.716 145.732 142.201 144.94C142.686 144.149 143.328 143.465 144.089 142.934C144.726 142.451 145.464 142.118 146.247 141.96C147.031 141.801 147.84 141.822 148.615 142.02C154.3 143.37 159.617 152.794 157.906 157.02Z" fill="url(#paint36_linear_756_24031)"/>
<path fill-rule="evenodd" clip-rule="evenodd" d="M157.532 157.871C154.507 164.044 148.784 161.826 146.277 159.835C144.352 158.299 140.53 152.424 141.272 147.534C141.778 146.553 142.511 145.706 143.411 145.066C149.778 140.422 158.097 151.91 157.532 157.871Z" fill="url(#paint37_linear_756_24031)"/>
<path style="mix-blend-mode:multiply" opacity="0.71" fill-rule="evenodd" clip-rule="evenodd" d="M148.616 142.02C148.616 142.02 144.505 143.09 144.002 149.945C143.551 156.099 149.069 160.81 150.297 161.752C148.827 161.418 147.45 160.76 146.267 159.827C144.342 158.291 140.52 152.415 141.262 147.526C141.39 146.606 141.706 145.723 142.191 144.932C142.676 144.14 143.318 143.457 144.079 142.925C144.718 142.442 145.458 142.11 146.244 141.953C147.029 141.796 147.84 141.819 148.616 142.02Z" fill="url(#paint38_linear_756_24031)"/>
<path style="mix-blend-mode:multiply" opacity="0.71" fill-rule="evenodd" clip-rule="evenodd" d="M91.7659 9.86921C91.813 10.2685 91.813 10.672 91.7659 11.0713C88.8399 6.77424 83.4499 5.81817 76.6568 7.28116C69.8637 8.74416 66.8607 14.9362 66.8607 14.9362C65.5517 9.80291 70.1268 5.69625 73.1597 4.1092C76.9027 2.13714 90.936 0.120172 91.7659 9.86921Z" fill="url(#paint39_linear_756_24031)"/>
<defs>
<linearGradient id="paint0_linear_756_24031" x1="134.481" y1="60.1075" x2="140.716" y2="20.7306" gradientUnits="userSpaceOnUse">
<stop stop-color="#8931B3"/>
<stop offset="1" stop-color="#8E8CFF"/>
</linearGradient>
<linearGradient id="paint1_linear_756_24031" x1="132.6" y1="161.534" x2="128.16" y2="174.548" gradientUnits="userSpaceOnUse">
<stop stop-color="#8E8CFF"/>
<stop offset="1" stop-color="#8931B3"/>
</linearGradient>
<radialGradient id="paint2_radial_756_24031" cx="0" cy="0" r="1" gradientUnits="userSpaceOnUse" gradientTransform="translate(55.126 52.3625) scale(110.037 110.037)">
<stop offset="0.01" stop-color="#FFB8E2"/>
<stop offset="0.22" stop-color="#FDB7E3"/>
<stop offset="0.33" stop-color="#F5B5E5"/>
<stop offset="0.42" stop-color="#E8B0E9"/>
<stop offset="0.49" stop-color="#D5AAEF"/>
<stop offset="0.55" stop-color="#BDA2F7"/>
<stop offset="0.58" stop-color="#AE9DFC"/>
<stop offset="0.64" stop-color="#A996FC"/>
<stop offset="0.72" stop-color="#9A83FD"/>
<stop offset="0.81" stop-color="#8163FE"/>
<stop offset="0.91" stop-color="#5F38FF"/>
<stop offset="0.92" stop-color="#5E37FF"/>
<stop offset="0.99" stop-color="#5E9AFF"/>
</radialGradient>
<linearGradient id="paint3_linear_756_24031" x1="9.70312" y1="45.1115" x2="40.2422" y2="45.1115" gradientUnits="userSpaceOnUse">
<stop stop-color="white"/>
<stop offset="0.17" stop-color="#DBD0EA"/>
<stop offset="0.36" stop-color="#B9A3D7"/>
<stop offset="0.55" stop-color="#9F80C7"/>
<stop offset="0.72" stop-color="#8C67BC"/>
<stop offset="0.87" stop-color="#8057B5"/>
<stop offset="1" stop-color="#7C52B3"/>
</linearGradient>
<linearGradient id="paint4_linear_756_24031" x1="94.3047" y1="95.6472" x2="147.33" y2="95.6472" gradientUnits="userSpaceOnUse">
<stop stop-color="#7C52B3"/>
<stop offset="0.13" stop-color="#8057B5"/>
<stop offset="0.28" stop-color="#8C67BC"/>
<stop offset="0.45" stop-color="#9F80C7"/>
<stop offset="0.64" stop-color="#B9A3D7"/>
<stop offset="0.83" stop-color="#DBD0EA"/>
<stop offset="1" stop-color="white"/>
</linearGradient>
<radialGradient id="paint5_radial_756_24031" cx="0" cy="0" r="1" gradientUnits="userSpaceOnUse" gradientTransform="translate(26.5628 28.0689) scale(96.0467 96.0467)">
<stop stop-color="#FFFFD9"/>
<stop offset="1"/>
</radialGradient>
<linearGradient id="paint6_linear_756_24031" x1="51.8829" y1="157.508" x2="57.3178" y2="123.198" gradientUnits="userSpaceOnUse">
<stop stop-color="#6D109D"/>
<stop offset="1" stop-color="#8E8CFF"/>
</linearGradient>
<linearGradient id="paint7_linear_756_24031" x1="30.2257" y1="50.0096" x2="6.15471" y2="29.0849" gradientUnits="userSpaceOnUse">
<stop stop-color="#C98EFF"/>
<stop offset="1" stop-color="#8931B3"/>
</linearGradient>
<linearGradient id="paint8_linear_756_24031" x1="135.382" y1="108.578" x2="94.1926" y2="77.0753" gradientUnits="userSpaceOnUse">
<stop stop-color="#5400B3"/>
<stop offset="1" stop-color="#F2C0FF"/>
</linearGradient>
<linearGradient id="paint9_linear_756_24031" x1="62.8906" y1="25.1089" x2="97.3759" y2="25.1089" gradientUnits="userSpaceOnUse">
<stop stop-color="white"/>
<stop offset="0.17" stop-color="#DBD0EA"/>
<stop offset="0.36" stop-color="#B9A3D7"/>
<stop offset="0.55" stop-color="#9F80C7"/>
<stop offset="0.72" stop-color="#8C67BC"/>
<stop offset="0.87" stop-color="#8057B5"/>
<stop offset="1" stop-color="#7C52B3"/>
</linearGradient>
<linearGradient id="paint10_linear_756_24031" x1="114.761" y1="124.774" x2="122.609" y2="64.4286" gradientUnits="userSpaceOnUse">
<stop stop-color="#644FF7"/>
<stop offset="1" stop-color="#9F6DFF"/>
</linearGradient>
<linearGradient id="paint11_linear_756_24031" x1="100.683" y1="116.551" x2="132.8" y2="77.1758" gradientUnits="userSpaceOnUse">
<stop stop-color="#935CE1"/>
<stop offset="0.22" stop-color="#8F5AE0"/>
<stop offset="0.43" stop-color="#8454DC"/>
<stop offset="0.63" stop-color="#714AD5"/>
<stop offset="0.82" stop-color="#573CCC"/>
<stop offset="0.99" stop-color="#392CC2"/>
</linearGradient>
<radialGradient id="paint12_radial_756_24031" cx="0" cy="0" r="1" gradientUnits="userSpaceOnUse" gradientTransform="translate(64.4582 19.3217) rotate(-109.29) scale(27.3649 27.3649)">
<stop stop-color="#DEA5FF"/>
<stop offset="1" stop-color="#8931B3"/>
</radialGradient>
<linearGradient id="paint13_linear_756_24031" x1="94.2183" y1="6.31702" x2="63.914" y2="16.9235" gradientUnits="userSpaceOnUse">
<stop stop-color="#C287F8"/>
<stop offset="1" stop-color="#CCB3FF"/>
</linearGradient>
<linearGradient id="paint14_linear_756_24031" x1="79.2171" y1="20.9829" x2="79.2171" y2="2.47509" gradientUnits="userSpaceOnUse">
<stop stop-color="#9F6DFF"/>
<stop offset="0.27" stop-color="#9B69FF"/>
<stop offset="0.52" stop-color="#905EFD"/>
<stop offset="0.76" stop-color="#7E4BFB"/>
<stop offset="1" stop-color="#6431F7"/>
</linearGradient>
<linearGradient id="paint15_linear_756_24031" x1="10.1067" y1="49.7166" x2="10.1067" y2="20.8523" gradientUnits="userSpaceOnUse">
<stop stop-color="#FC9FF7"/>
<stop offset="1" stop-color="#F66DFF"/>
</linearGradient>
<linearGradient id="paint16_linear_756_24031" x1="43.1687" y1="160.017" x2="43.1687" y2="135.882" gradientUnits="userSpaceOnUse">
<stop stop-color="#C282F7"/>
<stop offset="1" stop-color="#DC6DFF"/>
</linearGradient>
<linearGradient id="paint17_linear_756_24031" x1="42.4127" y1="158.229" x2="42.4127" y2="139.766" gradientUnits="userSpaceOnUse">
<stop stop-color="#4848F7"/>
<stop offset="1" stop-color="#6D20FF"/>
</linearGradient>
<linearGradient id="paint18_linear_756_24031" x1="46.7361" y1="152.206" x2="46.7361" y2="140.855" gradientUnits="userSpaceOnUse">
<stop stop-color="#644FF7"/>
<stop offset="1" stop-color="#9F6DFF"/>
</linearGradient>
<linearGradient id="paint19_linear_756_24031" x1="9.59672" y1="44.2946" x2="9.59672" y2="23.6244" gradientUnits="userSpaceOnUse">
<stop stop-color="#9F6DFF"/>
<stop offset="1" stop-color="#644FF7"/>
</linearGradient>
<linearGradient id="paint20_linear_756_24031" x1="10.1779" y1="34.6611" x2="12.197" y2="35.938" gradientUnits="userSpaceOnUse">
<stop stop-color="#9084FF"/>
<stop offset="1" stop-color="#C287F8"/>
</linearGradient>
<linearGradient id="paint21_linear_756_24031" x1="18.18" y1="97.9699" x2="30.761" y2="105.922" gradientUnits="userSpaceOnUse">
<stop stop-color="#9084FF"/>
<stop offset="0.49" stop-color="#D08BFC"/>
<stop offset="1" stop-color="#FFC9F8"/>
</linearGradient>
<radialGradient id="paint22_radial_756_24031" cx="0" cy="0" r="1" gradientUnits="userSpaceOnUse" gradientTransform="translate(24.576 100.744) scale(6.04878 6.04877)">
<stop stop-color="#1372B3"/>
<stop offset="1" stop-color="white"/>
</radialGradient>
<linearGradient id="paint23_linear_756_24031" x1="43.7148" y1="32.9405" x2="49.1847" y2="37.0808" gradientUnits="userSpaceOnUse">
<stop stop-color="#9084FF"/>
<stop offset="0.49" stop-color="#D08BFC"/>
<stop offset="1" stop-color="#FFC9F8"/>
</linearGradient>
<radialGradient id="paint24_radial_756_24031" cx="0" cy="0" r="1" gradientUnits="userSpaceOnUse" gradientTransform="translate(46.5442 34.4627) rotate(4.82006) scale(2.78907 2.78911)">
<stop stop-color="#1372B3"/>
<stop offset="1" stop-color="white"/>
</radialGradient>
<linearGradient id="paint25_linear_756_24031" x1="104.929" y1="136.213" x2="92.0417" y2="135.944" gradientUnits="userSpaceOnUse">
<stop stop-color="#9566FC"/>
<stop offset="1" stop-color="#5445B1"/>
</linearGradient>
<radialGradient id="paint26_radial_756_24031" cx="0" cy="0" r="1" gradientUnits="userSpaceOnUse" gradientTransform="translate(60.486 103.952) scale(13.6247 13.6247)">
<stop stop-color="#FFFFE8"/>
<stop offset="0.2" stop-color="#BBBBAA"/>
<stop offset="0.42" stop-color="#79796E"/>
<stop offset="0.61" stop-color="#45453F"/>
<stop offset="0.78" stop-color="#1F1F1D"/>
<stop offset="0.91" stop-color="#080808"/>
<stop offset="1"/>
</radialGradient>
<radialGradient id="paint27_radial_756_24031" cx="0" cy="0" r="1" gradientUnits="userSpaceOnUse" gradientTransform="translate(98.4576 135.146) scale(5.37504 5.37502)">
<stop stop-color="#1372B3"/>
<stop offset="1" stop-color="white"/>
</radialGradient>
<linearGradient id="paint28_linear_756_24031" x1="35.6253" y1="74.288" x2="70.6303" y2="96.4169" gradientUnits="userSpaceOnUse">
<stop stop-color="#9084FF"/>
<stop offset="0.12" stop-color="#9785FF"/>
<stop offset="0.29" stop-color="#AA87FE"/>
<stop offset="0.49" stop-color="#CA8AFC"/>
<stop offset="0.53" stop-color="#D08BFC"/>
<stop offset="1" stop-color="#FFC9F8"/>
</linearGradient>
<linearGradient id="paint29_linear_756_24031" x1="36.0763" y1="78.9532" x2="71.0427" y2="78.9532" gradientUnits="userSpaceOnUse">
<stop stop-color="#1372B3"/>
<stop offset="1" stop-color="white"/>
</linearGradient>
<linearGradient id="paint30_linear_756_24031" x1="108.202" y1="19.2035" x2="125.393" y2="30.0712" gradientUnits="userSpaceOnUse">
<stop stop-color="#845FFF"/>
<stop offset="0.49" stop-color="#A972FC"/>
<stop offset="1" stop-color="#D4B0F8"/>
</linearGradient>
<linearGradient id="paint31_linear_756_24031" x1="107.878" y1="23.5582" x2="124.245" y2="23.5582" gradientUnits="userSpaceOnUse">
<stop stop-color="#1372B3"/>
<stop offset="1" stop-color="white"/>
</linearGradient>
<linearGradient id="paint32_linear_756_24031" x1="97.0675" y1="87.2157" x2="139.708" y2="87.2157" gradientUnits="userSpaceOnUse">
<stop stop-color="#7C52B3"/>
<stop offset="1" stop-color="white"/>
</linearGradient>
<radialGradient id="paint33_radial_756_24031" cx="0" cy="0" r="1" gradientUnits="userSpaceOnUse" gradientTransform="translate(136.794 152.487) rotate(10.24) scale(26.2377 26.2377)">
<stop offset="0.01" stop-color="#FFB8E2"/>
<stop offset="0.22" stop-color="#FDB7E3"/>
<stop offset="0.33" stop-color="#F5B5E5"/>
<stop offset="0.42" stop-color="#E8B0E9"/>
<stop offset="0.49" stop-color="#D5AAEF"/>
<stop offset="0.55" stop-color="#BDA2F7"/>
<stop offset="0.58" stop-color="#AE9DFC"/>
<stop offset="0.64" stop-color="#A996FC"/>
<stop offset="0.72" stop-color="#9A83FD"/>
<stop offset="0.81" stop-color="#8163FE"/>
<stop offset="0.91" stop-color="#5F38FF"/>
<stop offset="0.92" stop-color="#5E37FF"/>
<stop offset="0.99" stop-color="#5E9AFF"/>
</radialGradient>
<linearGradient id="paint34_linear_756_24031" x1="156.773" y1="147.462" x2="140.041" y2="158.775" gradientUnits="userSpaceOnUse">
<stop stop-color="#5400B3"/>
<stop offset="1" stop-color="#F2C0FF"/>
</linearGradient>
<linearGradient id="paint35_linear_756_24031" x1="159.724" y1="156.772" x2="139.193" y2="146.785" gradientUnits="userSpaceOnUse">
<stop stop-color="#644FF7"/>
<stop offset="1" stop-color="#9F6DFF"/>
</linearGradient>
<linearGradient id="paint36_linear_756_24031" x1="158.666" y1="154.995" x2="140.742" y2="148.984" gradientUnits="userSpaceOnUse">
<stop offset="0.01" stop-color="#392CC2"/>
<stop offset="1" stop-color="#5F33C5"/>
</linearGradient>
<linearGradient id="paint37_linear_756_24031" x1="158.227" y1="156.023" x2="140.495" y2="150.076" gradientUnits="userSpaceOnUse">
<stop stop-color="#5E48F7"/>
<stop offset="1" stop-color="#8C50FF"/>
</linearGradient>
<linearGradient id="paint38_linear_756_24031" x1="144.098" y1="159.738" x2="149.895" y2="142.454" gradientUnits="userSpaceOnUse">
<stop stop-color="#7C52B3"/>
<stop offset="1" stop-color="white"/>
</linearGradient>
<linearGradient id="paint39_linear_756_24031" x1="66.6297" y1="8.70566" x2="91.8023" y2="8.70566" gradientUnits="userSpaceOnUse">
<stop stop-color="#7C52B3"/>
<stop offset="1" stop-color="white"/>
</linearGradient>
</defs>
</svg>
