<svg width="235" height="231" viewBox="0 0 235 231" fill="none" xmlns="http://www.w3.org/2000/svg">
<path fill-rule="evenodd" clip-rule="evenodd" d="M114.179 1.32141C136.698 1.32141 158.711 8.00034 177.434 20.5136C196.158 33.0268 210.751 50.8124 219.369 71.6212C227.986 92.43 230.241 115.327 225.848 137.418C221.455 159.508 210.611 179.8 194.688 195.726C178.765 211.652 158.477 222.498 136.391 226.892C114.305 231.287 91.4125 229.031 70.6079 220.412C49.8033 211.793 32.0214 197.197 19.5106 178.469C6.99992 159.742 0.322266 137.724 0.322266 115.201C0.322266 84.9983 12.3179 56.0326 33.6702 34.676C55.0224 13.3194 83.9823 1.32141 114.179 1.32141Z" fill="url(#paint0_radial_756_27944)"/>
<path style="mix-blend-mode:screen" fill-rule="evenodd" clip-rule="evenodd" d="M114.179 1.32141C136.698 1.32141 158.711 8.00034 177.434 20.5136C196.158 33.0268 210.751 50.8124 219.369 71.6212C227.986 92.43 230.241 115.327 225.848 137.418C221.455 159.508 210.611 179.8 194.688 195.726C178.765 211.652 158.477 222.498 136.391 226.892C114.305 231.287 91.4125 229.031 70.6079 220.412C49.8033 211.793 32.0214 197.197 19.5106 178.469C6.99992 159.742 0.322266 137.724 0.322266 115.201C0.322266 84.9983 12.3179 56.0326 33.6702 34.676C55.0224 13.3194 83.9823 1.32141 114.179 1.32141Z" fill="url(#paint1_radial_756_27944)"/>
<path style="mix-blend-mode:screen" fill-rule="evenodd" clip-rule="evenodd" d="M29.3629 74.9268C27.2735 73.4746 27.3089 71.2076 23.0238 71.1013C18.7387 70.9951 15.9409 75.104 14.5952 79.4608C9.93803 94.4045 10.538 110.493 16.2951 125.048C18.6133 130.015 21.5141 134.688 24.9362 138.969C29.3984 144.99 38.4998 153.35 46.893 150.481C50.4344 149.276 53.2321 146.301 56.7027 144.778C59.1639 143.796 61.7507 143.164 64.3875 142.9C67.9289 142.334 71.7891 142.369 75.4722 142.05C85.8839 141.094 82.98 138.508 90.1337 135.922C92.5419 135.037 95.1979 135.179 97.6415 134.435C99.5753 133.845 101.421 133 103.131 131.92C109.045 128.094 100.368 127.846 97.9602 128.094C96.7313 128.371 95.5417 128.799 94.4188 129.369C92.1223 130.539 89.757 131.568 87.3359 132.451C85.2444 133.055 83.0577 133.26 80.8905 133.053C77.9157 132.734 75.1534 131.353 72.2495 130.751C70.5496 130.397 69.5934 130.751 67.9289 130.22C66.3425 130.023 64.819 129.479 63.4668 128.626C56.6319 123.596 63.7501 115.591 72.7808 116.299C75.3526 116.79 78.0098 116.57 80.4656 115.661C80.6503 115.488 80.7715 115.258 80.81 115.007C80.8485 114.757 80.8021 114.501 80.6781 114.28C80.4097 113.821 80.0757 113.403 79.6865 113.04C78.5496 112.23 77.6775 111.102 77.1798 109.797C76.682 108.492 76.5807 107.07 76.8887 105.708C77.0773 105.177 77.3817 104.695 77.7799 104.297C78.1781 103.899 78.6601 103.594 79.1907 103.406C81.2093 102.626 83.5112 103.406 85.636 102.981C86.7686 102.867 87.8356 102.396 88.6817 101.635C89.9212 100.218 90.0983 98.0924 91.2315 96.6756C95.6229 90.8665 107.274 92.7438 114.145 91.3978C117.159 90.9851 120.04 89.8952 122.573 88.2098C124.769 86.545 125.548 79.1066 128.062 76.8042C130.706 74.9058 133.618 73.4134 136.703 72.3765C143.786 69.1886 148.921 69.7553 152.958 62.0335C154.304 59.4477 154.127 56.189 155.473 53.6032C156.5 51.655 161.068 49.7068 161.918 47.6878C167.691 34.0506 146.761 9.50363 130.895 11.6998C121.688 12.9749 125.052 14.9231 129.975 17.5088C140.988 23.2471 147.682 28.3124 146.619 41.7725C146.23 47.9712 139.536 46.8023 137.766 47.5816C137.199 47.8649 137.057 48.6442 137.022 49.2818C137.409 52.0385 137.516 54.8275 137.341 57.6058C136.634 60.294 135.214 62.7414 133.233 64.6901C131.413 66.2492 129.235 67.3324 126.894 67.8426C124.493 68.4783 122.001 68.694 119.527 68.4802C116.551 68.4914 113.603 67.9135 110.851 66.7799C108.085 65.2841 105.971 62.816 104.918 59.8526C103.865 56.8891 103.948 53.6404 105.149 50.7341C106.109 48.9597 107.21 47.2658 108.443 45.6688C109.47 43.7915 107.345 42.1267 111.772 39.4347C115.313 37.1323 119.28 33.3068 107.487 36.8135C102.741 38.2303 97.5707 38.9388 99.4476 43.8978C100.003 45.0172 100.396 46.2098 100.616 47.4399C102.068 61.9272 92.4002 58.9518 80.6781 61.1479C78.4337 61.4293 76.2097 61.8553 74.0202 62.4231C72.0724 63.0961 70.4788 64.6901 68.531 65.2922C64.5292 66.4611 58.6505 65.2922 54.6133 66.6382C54.1286 66.8128 53.6975 67.1102 53.3623 67.5014C53.0271 67.8925 52.7992 68.3641 52.7009 68.8698C52.7009 70.1804 56.2423 72.6599 52.7009 75.7415C49.5765 77.5993 45.9435 78.4179 42.3245 78.0794C37.7499 78.2983 33.2135 77.1517 29.2922 74.7852L29.3629 74.9268ZM42.8557 122.108C72.2141 121.045 60.2441 141.802 45.9368 136.56C43.6471 135.728 41.5066 134.532 39.5976 133.018C38.6408 132.251 37.9343 131.217 37.5685 130.047C37.2026 128.876 37.194 127.624 37.5438 126.449C37.8936 125.273 38.586 124.229 39.5322 123.45C40.4784 122.67 41.6356 122.191 42.8557 122.073V122.108Z" fill="url(#paint2_radial_756_27944)"/>
<path fill-rule="evenodd" clip-rule="evenodd" d="M4.04201 144.246C3.20162 147.213 2.62092 150.247 2.30664 153.314C2.30664 154.342 3.22742 155.156 3.86487 155.971C4.99596 157.619 6.369 159.088 7.93759 160.328C10.2395 161.922 14.135 161.213 16.5786 161.886C17.6764 162.17 18.5264 163.126 19.5888 163.516C20.6512 163.905 22.7053 164.012 24.1927 164.507C24.8656 164.755 28.8673 166.42 26.3529 167.589C25.5738 167.943 24.653 167.589 23.8031 167.589C23.1745 167.718 22.5965 168.025 22.1386 168.475C21.1824 169.502 20.6867 170.919 19.7659 172.017C18.8451 173.115 16.8265 172.017 16.2245 171.308C14.6951 169.714 13.3959 167.914 12.3644 165.96C11.873 167.306 11.5633 168.711 11.4436 170.139C11.1555 171.907 11.025 173.697 11.0539 175.488C11.0685 175.704 11.1299 175.914 11.2339 176.104C11.3379 176.293 11.4819 176.458 11.656 176.586C16.1497 179.619 20.9157 182.228 25.8925 184.379C28.0446 185.042 30.2319 185.586 32.4441 186.008C38.3937 187.177 37.2959 185.619 42.6435 183.635C45.596 182.545 48.6116 181.634 51.674 180.907C58.1194 179.491 64.7773 178.995 71.1873 177.365C75.8974 176.126 80.3241 173.823 84.8925 172.3C88.2176 170.914 91.6237 169.731 95.0919 168.758C96.5686 168.454 98.1006 168.565 99.5186 169.077C100.584 169.51 101.488 170.266 102.104 171.237C102.614 172.076 102.826 173.062 102.706 174.036C102.597 174.936 102.184 175.773 101.537 176.409C100.262 177.613 98.4916 178.109 97.1458 179.207C95.9391 180.239 94.8787 181.431 93.994 182.749C93.2857 183.777 93.2149 185.193 92.4003 186.292C91.5554 187.167 90.5275 187.844 89.3902 188.275C86.4154 189.55 83.2281 190.33 80.2178 191.534C79.1701 191.949 78.1625 192.458 77.2077 193.057C74.729 194.985 72.1263 196.748 69.4166 198.335C67.1612 199.258 64.7671 199.797 62.3337 199.929C57.8361 200.425 53.3031 200.354 48.8055 200.708C45.5474 200.991 42.1831 202.337 38.9958 200.921C37.7725 204.711 37.5891 208.76 38.4646 212.645C39.0666 214.806 41.4748 216.187 43.458 217.214C45.4344 218.149 47.5529 218.748 49.7263 218.985C53.6218 219.658 57.6236 219.694 61.5192 220.438C63.294 220.842 65.0169 221.448 66.6543 222.244C68.5312 223.094 70.1957 224.263 72.0726 225.184C73.7991 226.181 75.5985 227.045 77.4555 227.77C79.0676 228.391 80.7618 228.773 82.4844 228.903C84.9342 228.95 87.3842 228.82 89.8152 228.514C92.2942 228.301 94.7731 228.018 97.2521 227.628C98.3145 227.628 99.3416 227.061 100.404 226.849C104.264 226.034 108.195 225.503 112.02 224.547C114.887 223.829 117.713 222.954 120.484 221.925C124.804 220.402 129.089 218.702 133.41 217.002C139.572 214.558 145.805 212.149 151.896 209.528C153.915 208.657 155.878 207.664 157.775 206.553C163.902 203.01 170.064 199.468 176.013 195.607C180.546 192.679 184.949 189.538 189.223 186.185C193.118 183.21 196.837 179.987 200.484 176.692C204.132 173.398 206.647 170.848 209.621 167.837C210.613 166.845 211.357 165.605 212.419 164.72C212.596 164.72 212.915 164.72 212.95 165.11C213.729 168.404 201.866 182.147 199.068 184.52C196.908 186.327 194.606 188.063 192.445 189.798C189.435 192.278 186.567 194.934 183.557 197.378C181.361 199.185 179.165 200.921 176.828 202.621C172.72 205.384 168.47 207.792 164.22 210.697C161.175 212.751 157.881 215.302 154.977 217.179C152.738 218.476 150.363 219.521 147.894 220.296C144.353 221.713 140.812 223.342 137.022 224.617C134.933 225.326 132.702 225.645 130.577 226.247C127.035 227.203 124.486 228.195 120.944 228.868C127.708 229.576 131.568 231.595 135.712 229.718C137.376 228.974 138.722 227.557 140.457 226.884C143.123 225.858 145.872 225.064 148.674 224.511C155.756 222.988 166.381 221.288 169.922 218.915C172.153 217.498 173.463 215.372 175.517 213.637C177.04 212.432 179.059 211.689 180.475 210.591C186.222 206.982 191.565 202.766 196.412 198.016C201.653 192.278 204.982 185.052 209.586 178.818C213.446 173.611 219.042 169.289 221.627 162.984C222.505 159.725 223.168 156.412 223.61 153.066C224.301 150.244 225.225 147.483 226.372 144.813C231.189 134.187 232.782 134.753 234.163 121.081C234.548 117.916 234.417 114.71 233.774 111.588C232.862 109.162 231.797 106.796 230.587 104.504C229.666 101.953 229.205 99.2259 228.391 96.6047C227.824 94.8336 227.187 93.0626 226.479 91.3624C225.77 89.6621 224.885 87.8202 224.07 86.1908C224.708 89.5559 225.522 92.8855 226.018 96.2859C226.909 102.917 227.182 109.617 226.833 116.299C225.735 136.56 217.944 151.72 203.778 165.889C200.524 169.391 197.072 172.702 193.437 175.807C191.669 177.073 189.755 178.119 187.735 178.924C185.079 180.164 182.246 181.12 179.519 182.466C176.792 183.812 173.924 184.698 171.303 186.008C169.675 187.078 168.125 188.261 166.664 189.55C164.964 190.825 163.406 192.278 161.635 193.411C159.516 194.728 157.315 195.911 155.048 196.953C150.515 199.043 145.911 200.921 141.272 202.692C137.166 204.631 132.818 206.013 128.346 206.801C127.815 206.801 127.106 206.801 126.823 206.446C126.54 206.092 127 205.561 127.354 205.384C131.03 203.571 134.58 201.512 137.978 199.22C141.024 197.095 143.574 194.332 146.619 192.136C149.028 190.436 151.896 189.479 154.269 187.744C156.036 186.384 157.619 184.8 158.979 183.033C161.529 179.845 163.477 176.161 166.062 172.973C167.636 170.939 169.442 169.096 171.445 167.483C173.377 166.063 175.469 164.874 177.678 163.941C180.68 163.068 183.636 162.039 186.531 160.859C188.403 159.712 189.961 158.117 191.064 156.219C192.941 153.279 193.614 149.701 195.42 146.726C198.211 142.247 201.237 137.92 204.486 133.762C206.965 130.22 209.515 127.102 212.242 123.985C213.04 123.058 213.986 122.269 215.04 121.648C215.251 121.523 215.486 121.444 215.73 121.413C215.973 121.383 216.22 121.402 216.456 121.47C217.342 121.718 217.448 122.923 219.396 122.71C222.477 122.391 223.645 117.999 224.424 115.626C225.405 111.42 225.94 107.122 226.018 102.803C226.018 102.272 226.018 101.564 225.381 101.316C224.743 101.068 224.779 101.599 224.318 101.316C224.155 101.227 224.015 101.1 223.91 100.946C223.805 100.792 223.739 100.615 223.716 100.43C223.043 96.3922 222.795 92.3187 222.3 88.2807C222.123 86.2129 221.839 84.1557 221.45 82.1174C221.162 80.8817 220.709 79.6904 220.104 78.5753C220.104 78.1856 219.644 77.7606 219.254 77.6897C218.864 77.6189 218.864 78.0439 218.652 78.1856C218.44 78.3273 218.227 78.6461 217.944 78.6815C217.66 78.7169 216.81 78.6815 216.669 78.469C216.459 77.8769 216.282 77.2738 216.138 76.6625C215.394 72.9433 214.827 69.3303 213.977 65.5402C213.791 64.9829 213.637 64.4152 213.517 63.84C213.517 63.84 213.517 63.5212 213.729 63.5212C213.816 63.5491 213.895 63.5951 213.962 63.6562C214.03 63.7173 214.083 63.792 214.119 63.8754C214.65 64.8318 215.075 65.8236 215.571 66.8154L216.917 69.4011C217.306 70.1096 217.519 69.4011 217.519 69.4011C217.531 68.0742 217.364 66.7517 217.023 65.4694C216.32 62.9721 215.456 60.523 214.438 58.1371C213.37 54.8389 212.128 51.5993 210.719 48.4317C205.506 43.8689 200.597 38.9703 196.022 33.7673C191.383 27.9227 185.398 16.4108 180.086 12.9749C178.315 11.8414 175.588 13.4708 169.001 10.1412C165.159 8.15787 161.466 5.8967 157.952 3.37574C154.729 1.10878 118.996 -0.166394 107.77 1.56925C107.77 3.19863 110.568 3.69453 112.303 3.72996C114.038 3.76538 116.73 3.23406 118.961 3.09237C119.315 3.09237 119.917 2.91527 120.023 3.26948C120.13 3.62369 119.457 3.76538 119.173 3.9779C117.781 4.73458 116.515 5.70244 115.42 6.84703C114.393 8.05136 116.907 7.90968 117.474 7.9451C120.484 8.19305 125.654 8.37015 126.929 8.44099C129.125 8.44099 131.321 8.05136 133.516 8.44099C135.939 8.68914 138.32 9.24869 140.599 10.1058C142.157 10.708 143.397 11.9123 144.884 12.6561C147.352 14.0315 149.921 15.2157 152.569 16.1983C154.127 16.6587 155.792 16.1983 157.385 16.6587C158.193 16.907 158.985 17.2027 159.758 17.5443C160.972 17.7596 162.159 18.104 163.3 18.5715C164.693 19.3702 165.901 20.4571 166.841 21.7594C167.772 23.462 168.497 25.2694 169.001 27.1435C169.745 29.375 170.028 31.7128 170.949 33.8735C171.525 34.9598 172.279 35.9417 173.18 36.7781C174.687 38.4861 176.36 40.0404 178.173 41.4183C179.873 42.5517 180.369 40.3556 180.723 40.0368C180.819 39.9772 180.929 39.9455 181.042 39.9455C181.155 39.9455 181.265 39.9772 181.361 40.0368C181.818 40.194 182.215 40.4915 182.494 40.8869C182.986 41.8319 183.4 42.8151 183.734 43.8269C184.371 45.6688 184.229 45.6334 185.681 46.8377C187.133 48.042 187.665 48.3963 188.585 49.2818C189.274 49.8653 189.861 50.5596 190.321 51.3362C190.872 52.3948 191.266 53.5285 191.489 54.7013C191.702 55.8702 191.489 57.0745 191.737 58.2434C191.836 58.7358 192.028 59.2048 192.304 59.6248C192.941 60.5812 193.862 61.3605 194.429 62.3523C194.995 63.3441 195.208 64.7255 195.739 65.8944C196.27 67.0633 197.687 68.1968 198.005 69.6136C198.344 73.3037 197.554 77.0096 195.739 80.24C194.693 81.8079 193.508 83.2779 192.198 84.6323C190.545 86.3426 188.984 88.1399 187.523 90.0163C186.734 91.3945 186.07 92.8408 185.54 94.3378C184.229 97.2423 183.238 100.324 181.644 103.087C180.336 105.215 178.804 107.198 177.076 109.002C175.152 111.162 173.082 113.186 170.878 115.059C168.187 117.362 165.177 119.239 162.414 121.47C159.652 123.702 157.456 125.898 154.836 127.882C151.969 130.116 148.977 132.185 145.876 134.08C143.321 135.403 140.697 136.585 138.014 137.623C136.101 138.437 134.118 139.004 132.241 139.854C130.364 140.704 129.302 141.413 127.815 142.227C125.336 143.573 122.927 145.026 120.413 146.336C117.988 147.714 115.494 148.968 112.941 150.091C111.394 150.684 109.773 151.065 108.124 151.224C107.488 151.322 106.838 151.197 106.283 150.87C106.137 150.733 106.037 150.553 105.999 150.355C105.961 150.158 105.986 149.954 106.07 149.772C106.596 149.051 107.289 148.467 108.089 148.072C110.957 146.443 113.932 145.097 116.907 143.644C119.882 142.192 123.388 140.669 126.54 139.004C128.909 137.76 131.182 136.339 133.339 134.753C136.192 132.738 138.88 130.499 141.378 128.059C144.92 124.517 148.036 120.479 151.507 116.795C153.1 115.059 154.836 113.43 156.571 111.8C158.306 110.171 160.112 108.719 161.954 107.019C163.795 105.318 166.239 102.556 168.187 100.147C170.135 97.7382 171.516 95.7192 173.039 93.4168C174.52 91.4219 175.712 89.2277 176.58 86.8993C177.709 82.2393 178.502 77.5042 178.953 72.7307C179.357 70.3899 179.582 68.0216 179.625 65.6465C179.625 63.4503 178.811 61.2896 178.846 59.0935C178.987 57.9826 179.286 56.8973 179.732 55.8702C180.071 55.1285 180.344 54.358 180.546 53.5678C180.537 51.3215 180.324 49.0807 179.909 46.8731C179.744 46.2417 179.43 45.6592 178.993 45.1745C178.556 44.6899 178.009 44.3173 177.398 44.0881C176.787 43.859 176.13 43.78 175.483 43.8578C174.835 43.9357 174.215 44.168 173.676 44.5353C172.559 45.462 171.735 46.6923 171.303 48.0775C170.878 49.4943 170.843 50.982 170.453 52.3989C169.639 55.4451 168.647 55.3743 165.672 56.3306C163.37 57.0745 160.927 57.3224 158.589 58.1017C157.824 58.333 157.153 58.805 156.677 59.4477C156.267 60.2611 156.049 61.1579 156.04 62.0689C156.111 63.1185 156.111 64.1718 156.04 65.2214C155.296 68.0551 151.967 70.1804 149.913 72.0931C148.992 72.9433 148.355 74.1122 147.257 74.6789C145.645 75.4267 143.942 75.9625 142.193 76.2729C140.139 76.7688 137.978 76.8396 135.924 77.3709C134.56 77.7232 133.249 78.2594 132.029 78.9649C131.163 79.4291 130.403 80.0685 129.798 80.8422C129.573 81.2657 129.487 81.7486 129.55 82.2236C129.581 82.5082 129.691 82.7783 129.869 83.0029C130.117 83.2154 130.541 83.18 130.789 83.428C131.037 83.6759 130.789 85.7658 129.904 86.5805C129.019 87.3952 128.452 86.9701 127.921 87.466C127.39 87.9619 126.823 89.4496 126.079 90.2643C123.252 93.7276 119.262 96.0442 114.853 96.7818C112.728 96.9589 110.603 96.5693 108.478 96.5693C105.787 96.5693 103.095 96.5693 100.439 96.7818C96.3668 97.0298 93.569 96.7818 91.3025 100.607C90.8668 101.669 90.358 102.698 89.7797 103.689C89.3511 104.201 88.7864 104.582 88.1507 104.787C87.3144 105.071 86.4459 105.249 85.5654 105.318C84.3811 105.288 83.1963 105.359 82.024 105.531C81.432 105.786 80.9448 106.236 80.6429 106.806C80.2042 107.36 79.967 108.047 79.97 108.754C79.97 109.463 80.9616 109.852 81.1741 110.525C81.3866 111.198 80.9262 111.694 81.1741 112.226C81.3542 112.825 81.7277 113.348 82.2365 113.713C82.7776 113.921 83.3584 114.006 83.9364 113.961C85.5052 113.873 87.0777 113.873 88.6464 113.961C89.0174 114.012 89.3607 114.186 89.6205 114.455C89.8804 114.725 90.0417 115.074 90.0786 115.447C90.1154 115.82 90.0256 116.194 89.8236 116.509C89.6216 116.824 89.3191 117.062 88.9652 117.185C86.7651 117.57 84.5401 117.795 82.3074 117.858C81.7762 117.858 81.2095 117.61 80.6783 117.858C79.3679 118.141 78.1993 119.062 76.8181 119.239C75.437 119.416 73.6308 118.566 72.0372 118.849C70.5184 119.396 69.0393 120.047 67.6104 120.797C66.4867 120.962 65.3748 121.199 64.2815 121.506C60.74 123.1 61.0234 126.677 64.2815 127.35C67.5396 128.023 69.6998 127.35 72.3559 127.811C79.0744 129.685 86.1641 129.782 92.9316 128.094C94.1003 127.775 94.8794 126.571 96.0126 126.182C97.1459 125.792 99.0582 126.182 100.369 125.544C101.679 124.906 101.998 123.525 103.131 122.923C104.377 122.421 105.689 122.099 107.026 121.966C109.08 121.506 111.099 121.01 113.153 120.585C114.57 120.302 117.509 119.912 117.261 122.321C117.167 123.398 116.801 124.433 116.199 125.331C115.238 126.713 114.039 127.913 112.657 128.874C111.134 129.936 109.116 130.397 107.593 131.388C106.566 132.061 105.893 133.266 104.76 133.762C101.794 134.947 98.7679 135.976 95.6939 136.843C93.7107 137.516 91.6567 138.083 89.7089 138.898C89.0894 139.209 88.5071 139.589 87.9736 140.031C86.6632 140.988 85.4592 142.05 84.0781 142.9C82.9735 143.65 81.785 144.269 80.5367 144.742C77.6327 145.663 74.587 146.265 71.6122 146.903C69.7707 147.293 67.8937 147.434 66.0876 147.789C64.2815 148.143 61.59 148.78 59.359 149.383C57.1279 149.985 55.8176 150.41 54.1885 150.976C52.5595 151.543 51.7095 152.039 50.3992 152.393C49.3433 152.655 48.2635 152.81 47.1765 152.854C44.2371 153.102 41.2623 153.243 38.3229 153.385C36.1627 153.385 34.0024 153.633 31.8422 153.668C30.3463 153.81 28.8404 153.81 27.3445 153.668C24.5468 153.243 21.8199 152.393 19.0576 151.72C17.2869 151.295 15.5162 150.799 13.7809 150.339C12.6449 150.147 11.5214 149.886 10.4165 149.56C9.38276 149.282 8.40994 148.813 7.54798 148.178C6.34716 146.998 5.23452 145.731 4.21904 144.388L4.04201 144.246ZM34.994 123.879C34.2107 124.666 33.7016 125.685 33.542 126.784C32.9399 131.495 40.6248 134.718 45.2995 135.922C46.5798 136.241 47.9152 136.27 49.2081 136.007C50.5009 135.743 51.7185 135.194 52.7719 134.399C53.3739 134.08 54.1884 134.08 54.5426 133.549C55.2154 132.416 55.1092 130.928 55.6758 129.724C56.2425 128.519 57.1279 128.023 57.5882 126.996C57.7015 126.758 57.7603 126.498 57.7603 126.235C57.7603 125.971 57.7015 125.711 57.5882 125.473C57.2073 124.597 56.5304 123.882 55.6758 123.454C52.524 122.25 37.7563 121.01 34.994 123.879Z" fill="url(#paint3_radial_756_27944)"/>
<path style="mix-blend-mode:multiply" fill-rule="evenodd" clip-rule="evenodd" d="M4.04201 144.246C3.20162 147.213 2.62092 150.247 2.30664 153.314C2.30664 154.342 3.22742 155.156 3.86487 155.971C4.99596 157.619 6.369 159.088 7.93759 160.328C10.2395 161.922 14.135 161.213 16.5786 161.886C17.6764 162.17 18.5264 163.126 19.5888 163.516C20.6512 163.905 22.7053 164.012 24.1927 164.507C24.8656 164.755 28.8673 166.42 26.3529 167.589C25.5738 167.943 24.653 167.589 23.8031 167.589C23.1745 167.718 22.5965 168.025 22.1386 168.475C21.1824 169.502 20.6867 170.919 19.7659 172.017C18.8451 173.115 16.8265 172.017 16.2245 171.308C14.6951 169.714 13.3959 167.914 12.3644 165.96C11.873 167.306 11.5633 168.711 11.4436 170.139C11.1555 171.907 11.025 173.697 11.0539 175.488C11.0685 175.704 11.1299 175.914 11.2339 176.104C11.3379 176.293 11.4819 176.458 11.656 176.586C16.1497 179.619 20.9157 182.228 25.8925 184.379C28.0446 185.042 30.2319 185.586 32.4441 186.008C38.3937 187.177 37.2959 185.619 42.6435 183.635C45.596 182.545 48.6116 181.634 51.674 180.907C58.1194 179.491 64.7773 178.995 71.1873 177.365C75.8974 176.126 80.3241 173.823 84.8925 172.3C88.2176 170.914 91.6237 169.731 95.0919 168.758C96.5686 168.454 98.1006 168.565 99.5186 169.077C100.584 169.51 101.488 170.266 102.104 171.237C102.614 172.076 102.826 173.062 102.706 174.036C102.597 174.936 102.184 175.773 101.537 176.409C100.262 177.613 98.4916 178.109 97.1458 179.207C95.9391 180.239 94.8787 181.431 93.994 182.749C93.2857 183.777 93.2149 185.193 92.4003 186.292C91.5554 187.167 90.5275 187.844 89.3902 188.275C86.4154 189.55 83.2281 190.33 80.2178 191.534C79.1701 191.949 78.1625 192.458 77.2077 193.057C74.729 194.985 72.1263 196.748 69.4166 198.335C67.1612 199.258 64.7671 199.797 62.3337 199.929C57.8361 200.425 53.3031 200.354 48.8055 200.708C45.5474 200.991 42.1831 202.337 38.9958 200.921C37.7725 204.711 37.5891 208.76 38.4646 212.645C39.0666 214.806 41.4748 216.187 43.458 217.214C45.4344 218.149 47.5529 218.748 49.7263 218.985C53.6218 219.658 57.6236 219.694 61.5192 220.438C63.294 220.842 65.0169 221.448 66.6543 222.244C68.5312 223.094 70.1957 224.263 72.0726 225.184C73.7991 226.181 75.5985 227.045 77.4555 227.77C79.0676 228.391 80.7618 228.773 82.4844 228.903C84.9342 228.95 87.3842 228.82 89.8152 228.514C92.2942 228.301 94.7731 228.018 97.2521 227.628C98.3145 227.628 99.3416 227.061 100.404 226.849C104.264 226.034 108.195 225.503 112.02 224.547C114.887 223.829 117.713 222.954 120.484 221.925C124.804 220.402 129.089 218.702 133.41 217.002C139.572 214.558 145.805 212.149 151.896 209.528C153.915 208.657 155.878 207.664 157.775 206.553C163.902 203.01 170.064 199.468 176.013 195.607C180.546 192.679 184.949 189.538 189.223 186.185C193.118 183.21 196.837 179.987 200.484 176.692C204.132 173.398 206.647 170.848 209.621 167.837C210.613 166.845 211.357 165.605 212.419 164.72C212.596 164.72 212.915 164.72 212.95 165.11C213.729 168.404 201.866 182.147 199.068 184.52C196.908 186.327 194.606 188.063 192.445 189.798C189.435 192.278 186.567 194.934 183.557 197.378C181.361 199.185 179.165 200.921 176.828 202.621C172.72 205.384 168.47 207.792 164.22 210.697C161.175 212.751 157.881 215.302 154.977 217.179C152.738 218.476 150.363 219.521 147.894 220.296C144.353 221.713 140.812 223.342 137.022 224.617C134.933 225.326 132.702 225.645 130.577 226.247C127.035 227.203 124.486 228.195 120.944 228.868C127.708 229.576 131.568 231.595 135.712 229.718C137.376 228.974 138.722 227.557 140.457 226.884C143.123 225.858 145.872 225.064 148.674 224.511C155.756 222.988 166.381 221.288 169.922 218.915C172.153 217.498 173.463 215.372 175.517 213.637C177.04 212.432 179.059 211.689 180.475 210.591C186.222 206.982 191.565 202.766 196.412 198.016C201.653 192.278 204.982 185.052 209.586 178.818C213.446 173.611 219.042 169.289 221.627 162.984C222.505 159.725 223.168 156.412 223.61 153.066C224.301 150.244 225.225 147.483 226.372 144.813C231.189 134.187 232.782 134.753 234.163 121.081C234.548 117.916 234.417 114.71 233.774 111.588C232.862 109.162 231.797 106.796 230.587 104.504C229.666 101.953 229.205 99.2259 228.391 96.6047C227.824 94.8336 227.187 93.0626 226.479 91.3624C225.77 89.6621 224.885 87.8202 224.07 86.1908C224.708 89.5559 225.522 92.8855 226.018 96.2859C226.909 102.917 227.182 109.617 226.833 116.299C225.735 136.56 217.944 151.72 203.778 165.889C200.524 169.391 197.072 172.702 193.437 175.807C191.669 177.073 189.755 178.119 187.735 178.924C185.079 180.164 182.246 181.12 179.519 182.466C176.792 183.812 173.924 184.698 171.303 186.008C169.675 187.078 168.125 188.261 166.664 189.55C164.964 190.825 163.406 192.278 161.635 193.411C159.516 194.728 157.315 195.911 155.048 196.953C150.515 199.043 145.911 200.921 141.272 202.692C137.166 204.631 132.818 206.013 128.346 206.801C127.815 206.801 127.106 206.801 126.823 206.446C126.54 206.092 127 205.561 127.354 205.384C131.03 203.571 134.58 201.512 137.978 199.22C141.024 197.095 143.574 194.332 146.619 192.136C149.028 190.436 151.896 189.479 154.269 187.744C156.036 186.384 157.619 184.8 158.979 183.033C161.529 179.845 163.477 176.161 166.062 172.973C167.636 170.939 169.442 169.096 171.445 167.483C173.377 166.063 175.469 164.874 177.678 163.941C180.68 163.068 183.636 162.039 186.531 160.859C188.403 159.712 189.961 158.117 191.064 156.219C192.941 153.279 193.614 149.701 195.42 146.726C198.211 142.247 201.237 137.92 204.486 133.762C206.965 130.22 209.515 127.102 212.242 123.985C213.04 123.058 213.986 122.269 215.04 121.648C215.251 121.523 215.486 121.444 215.73 121.413C215.973 121.383 216.22 121.402 216.456 121.47C217.342 121.718 217.448 122.923 219.396 122.71C222.477 122.391 223.645 117.999 224.424 115.626C225.405 111.42 225.94 107.122 226.018 102.803C226.018 102.272 226.018 101.564 225.381 101.316C224.743 101.068 224.779 101.599 224.318 101.316C224.155 101.227 224.015 101.1 223.91 100.946C223.805 100.792 223.739 100.615 223.716 100.43C223.043 96.3922 222.795 92.3187 222.3 88.2807C222.123 86.2129 221.839 84.1557 221.45 82.1174C221.162 80.8817 220.709 79.6904 220.104 78.5753C220.104 78.1856 219.644 77.7606 219.254 77.6897C218.864 77.6189 218.864 78.0439 218.652 78.1856C218.44 78.3273 218.227 78.6461 217.944 78.6815C217.66 78.7169 216.81 78.6815 216.669 78.469C216.459 77.8769 216.282 77.2738 216.138 76.6625C215.394 72.9433 214.827 69.3303 213.977 65.5402C213.791 64.9829 213.637 64.4152 213.517 63.84C213.517 63.84 213.517 63.5212 213.729 63.5212C213.816 63.5491 213.895 63.5951 213.962 63.6562C214.03 63.7173 214.083 63.792 214.119 63.8754C214.65 64.8318 215.075 65.8236 215.571 66.8154L216.917 69.4011C217.306 70.1096 217.519 69.4011 217.519 69.4011C217.531 68.0742 217.364 66.7517 217.023 65.4694C216.32 62.9721 215.456 60.523 214.438 58.1371C213.37 54.8389 212.128 51.5993 210.719 48.4317C205.506 43.8689 200.597 38.9703 196.022 33.7673C191.383 27.9227 185.398 16.4108 180.086 12.9749C178.315 11.8414 175.588 13.4708 169.001 10.1412C165.159 8.15787 161.466 5.8967 157.952 3.37574C154.729 1.10878 118.996 -0.166394 107.77 1.56925C107.77 3.19863 110.568 3.69453 112.303 3.72996C114.038 3.76538 116.73 3.23406 118.961 3.09237C119.315 3.09237 119.917 2.91527 120.023 3.26948C120.13 3.62369 119.457 3.76538 119.173 3.9779C117.781 4.73458 116.515 5.70244 115.42 6.84703C114.393 8.05136 116.907 7.90968 117.474 7.9451C120.484 8.19305 125.654 8.37015 126.929 8.44099C129.125 8.44099 131.321 8.05136 133.516 8.44099C135.939 8.68914 138.32 9.24869 140.599 10.1058C142.157 10.708 143.397 11.9123 144.884 12.6561C147.352 14.0315 149.921 15.2157 152.569 16.1983C154.127 16.6587 155.792 16.1983 157.385 16.6587C158.193 16.907 158.985 17.2027 159.758 17.5443C160.972 17.7596 162.159 18.104 163.3 18.5715C164.693 19.3702 165.901 20.4571 166.841 21.7594C167.772 23.462 168.497 25.2694 169.001 27.1435C169.745 29.375 170.028 31.7128 170.949 33.8735C171.525 34.9598 172.279 35.9417 173.18 36.7781C174.687 38.4861 176.36 40.0404 178.173 41.4183C179.873 42.5517 180.369 40.3556 180.723 40.0368C180.819 39.9772 180.929 39.9455 181.042 39.9455C181.155 39.9455 181.265 39.9772 181.361 40.0368C181.818 40.194 182.215 40.4915 182.494 40.8869C182.986 41.8319 183.4 42.8151 183.734 43.8269C184.371 45.6688 184.229 45.6334 185.681 46.8377C187.133 48.042 187.665 48.3963 188.585 49.2818C189.274 49.8653 189.861 50.5596 190.321 51.3362C190.872 52.3948 191.266 53.5285 191.489 54.7013C191.702 55.8702 191.489 57.0745 191.737 58.2434C191.836 58.7358 192.028 59.2048 192.304 59.6248C192.941 60.5812 193.862 61.3605 194.429 62.3523C194.995 63.3441 195.208 64.7255 195.739 65.8944C196.27 67.0633 197.687 68.1968 198.005 69.6136C198.344 73.3037 197.554 77.0096 195.739 80.24C194.693 81.8079 193.508 83.2779 192.198 84.6323C190.545 86.3426 188.984 88.1399 187.523 90.0163C186.734 91.3945 186.07 92.8408 185.54 94.3378C184.229 97.2423 183.238 100.324 181.644 103.087C180.336 105.215 178.804 107.198 177.076 109.002C175.152 111.162 173.082 113.186 170.878 115.059C168.187 117.362 165.177 119.239 162.414 121.47C159.652 123.702 157.456 125.898 154.836 127.882C151.969 130.116 148.977 132.185 145.876 134.08C143.321 135.403 140.697 136.585 138.014 137.623C136.101 138.437 134.118 139.004 132.241 139.854C130.364 140.704 129.302 141.413 127.815 142.227C125.336 143.573 122.927 145.026 120.413 146.336C117.988 147.714 115.494 148.968 112.941 150.091C111.394 150.684 109.773 151.065 108.124 151.224C107.488 151.322 106.838 151.197 106.283 150.87C106.137 150.733 106.037 150.553 105.999 150.355C105.961 150.158 105.986 149.954 106.07 149.772C106.596 149.051 107.289 148.467 108.089 148.072C110.957 146.443 113.932 145.097 116.907 143.644C119.882 142.192 123.388 140.669 126.54 139.004C128.909 137.76 131.182 136.339 133.339 134.753C136.192 132.738 138.88 130.499 141.378 128.059C144.92 124.517 148.036 120.479 151.507 116.795C153.1 115.059 154.836 113.43 156.571 111.8C158.306 110.171 160.112 108.719 161.954 107.019C163.795 105.318 166.239 102.556 168.187 100.147C170.135 97.7382 171.516 95.7192 173.039 93.4168C174.52 91.4219 175.712 89.2277 176.58 86.8993C177.709 82.2393 178.502 77.5042 178.953 72.7307C179.357 70.3899 179.582 68.0216 179.625 65.6465C179.625 63.4503 178.811 61.2896 178.846 59.0935C178.987 57.9826 179.286 56.8973 179.732 55.8702C180.071 55.1285 180.344 54.358 180.546 53.5678C180.537 51.3215 180.324 49.0807 179.909 46.8731C179.744 46.2417 179.43 45.6592 178.993 45.1745C178.556 44.6899 178.009 44.3173 177.398 44.0881C176.787 43.859 176.13 43.78 175.483 43.8578C174.835 43.9357 174.215 44.168 173.676 44.5353C172.559 45.462 171.735 46.6923 171.303 48.0775C170.878 49.4943 170.843 50.982 170.453 52.3989C169.639 55.4451 168.647 55.3743 165.672 56.3306C163.37 57.0745 160.927 57.3224 158.589 58.1017C157.824 58.333 157.153 58.805 156.677 59.4477C156.267 60.2611 156.049 61.1579 156.04 62.0689C156.111 63.1185 156.111 64.1718 156.04 65.2214C155.296 68.0551 151.967 70.1804 149.913 72.0931C148.992 72.9433 148.355 74.1122 147.257 74.6789C145.645 75.4267 143.942 75.9625 142.193 76.2729C140.139 76.7688 137.978 76.8396 135.924 77.3709C134.56 77.7232 133.249 78.2594 132.029 78.9649C131.163 79.4291 130.403 80.0685 129.798 80.8422C129.573 81.2657 129.487 81.7486 129.55 82.2236C129.581 82.5082 129.691 82.7783 129.869 83.0029C130.117 83.2154 130.541 83.18 130.789 83.428C131.037 83.6759 130.789 85.7658 129.904 86.5805C129.019 87.3952 128.452 86.9701 127.921 87.466C127.39 87.9619 126.823 89.4496 126.079 90.2643C123.252 93.7276 119.262 96.0442 114.853 96.7818C112.728 96.9589 110.603 96.5693 108.478 96.5693C105.787 96.5693 103.095 96.5693 100.439 96.7818C96.3668 97.0298 93.569 96.7818 91.3025 100.607C90.8668 101.669 90.358 102.698 89.7797 103.689C89.3511 104.201 88.7864 104.582 88.1507 104.787C87.3144 105.071 86.4459 105.249 85.5654 105.318C84.3811 105.288 83.1963 105.359 82.024 105.531C81.432 105.786 80.9448 106.236 80.6429 106.806C80.2042 107.36 79.967 108.047 79.97 108.754C79.97 109.463 80.9616 109.852 81.1741 110.525C81.3866 111.198 80.9262 111.694 81.1741 112.226C81.3542 112.825 81.7277 113.348 82.2365 113.713C82.7776 113.921 83.3584 114.006 83.9364 113.961C85.5052 113.873 87.0777 113.873 88.6464 113.961C89.0174 114.012 89.3607 114.186 89.6205 114.455C89.8804 114.725 90.0417 115.074 90.0786 115.447C90.1154 115.82 90.0256 116.194 89.8236 116.509C89.6216 116.824 89.3191 117.062 88.9652 117.185C86.7651 117.57 84.5401 117.795 82.3074 117.858C81.7762 117.858 81.2095 117.61 80.6783 117.858C79.3679 118.141 78.1993 119.062 76.8181 119.239C75.437 119.416 73.6308 118.566 72.0372 118.849C70.5184 119.396 69.0393 120.047 67.6104 120.797C66.4867 120.962 65.3748 121.199 64.2815 121.506C60.74 123.1 61.0234 126.677 64.2815 127.35C67.5396 128.023 69.6998 127.35 72.3559 127.811C79.0744 129.685 86.1641 129.782 92.9316 128.094C94.1003 127.775 94.8794 126.571 96.0126 126.182C97.1459 125.792 99.0582 126.182 100.369 125.544C101.679 124.906 101.998 123.525 103.131 122.923C104.377 122.421 105.689 122.099 107.026 121.966C109.08 121.506 111.099 121.01 113.153 120.585C114.57 120.302 117.509 119.912 117.261 122.321C117.167 123.398 116.801 124.433 116.199 125.331C115.238 126.713 114.039 127.913 112.657 128.874C111.134 129.936 109.116 130.397 107.593 131.388C106.566 132.061 105.893 133.266 104.76 133.762C101.794 134.947 98.7679 135.976 95.6939 136.843C93.7107 137.516 91.6567 138.083 89.7089 138.898C89.0894 139.209 88.5071 139.589 87.9736 140.031C86.6632 140.988 85.4592 142.05 84.0781 142.9C82.9735 143.65 81.785 144.269 80.5367 144.742C77.6327 145.663 74.587 146.265 71.6122 146.903C69.7707 147.293 67.8937 147.434 66.0876 147.789C64.2815 148.143 61.59 148.78 59.359 149.383C57.1279 149.985 55.8176 150.41 54.1885 150.976C52.5595 151.543 51.7095 152.039 50.3992 152.393C49.3433 152.655 48.2635 152.81 47.1765 152.854C44.2371 153.102 41.2623 153.243 38.3229 153.385C36.1627 153.385 34.0024 153.633 31.8422 153.668C30.3463 153.81 28.8404 153.81 27.3445 153.668C24.5468 153.243 21.8199 152.393 19.0576 151.72C17.2869 151.295 15.5162 150.799 13.7809 150.339C12.6449 150.147 11.5214 149.886 10.4165 149.56C9.38276 149.282 8.40994 148.813 7.54798 148.178C6.34716 146.998 5.23452 145.731 4.21904 144.388L4.04201 144.246ZM34.994 123.879C34.2107 124.666 33.7016 125.685 33.542 126.784C32.9399 131.495 40.6248 134.718 45.2995 135.922C46.5798 136.241 47.9152 136.27 49.2081 136.007C50.5009 135.743 51.7185 135.194 52.7719 134.399C53.3739 134.08 54.1884 134.08 54.5426 133.549C55.2154 132.416 55.1092 130.928 55.6758 129.724C56.2425 128.519 57.1279 128.023 57.5882 126.996C57.7015 126.758 57.7603 126.498 57.7603 126.235C57.7603 125.971 57.7015 125.711 57.5882 125.473C57.2073 124.597 56.5304 123.882 55.6758 123.454C52.524 122.25 37.7563 121.01 34.994 123.879Z" fill="url(#paint4_radial_756_27944)"/>
<path style="mix-blend-mode:multiply" fill-rule="evenodd" clip-rule="evenodd" d="M36.195 166.172C44.013 163.792 52.084 162.342 60.2413 161.851C65.736 161.967 71.2331 161.79 76.7089 161.319C85.4208 159.3 90.8746 155.333 98.524 151.826C101.428 150.516 105.076 148.957 108.405 147.682C111.167 146.159 114.035 144.848 116.869 143.467C119.702 142.086 123.349 140.492 126.501 138.827C128.871 137.582 131.144 136.161 133.301 134.576C136.153 132.561 138.841 130.322 141.34 127.882C144.881 124.34 147.998 120.301 151.468 116.618C153.062 114.882 154.797 113.253 156.532 111.623C158.268 109.994 160.074 108.542 161.915 106.841C163.757 105.141 166.201 102.378 168.148 99.9697C170.096 97.561 171.477 95.542 173 93.2396C174.481 91.2447 175.674 89.0505 176.541 86.7221C177.67 82.0621 178.463 77.3271 178.914 72.5535C179.319 70.2127 179.544 67.8444 179.587 65.4693C179.587 63.2731 178.773 61.1124 178.808 58.9163C178.949 57.8054 179.247 56.7201 179.693 55.693C180.033 54.9513 180.305 54.1808 180.508 53.3906C180.499 51.1443 180.286 48.9035 179.87 46.696C179.676 45.9582 179.277 45.2904 178.72 44.7701C178.162 44.2498 177.468 43.8982 176.719 43.756C177.072 44.0672 177.381 44.4247 177.639 44.8186C177.935 45.4247 178.08 46.0928 178.064 46.7668C178.117 47.6812 177.985 48.5969 177.675 49.4588C177.206 50.5334 176.586 51.5353 175.833 52.4342C174.842 53.7094 173.283 54.5595 172.575 55.9763C172.137 57.106 172.062 58.3445 172.363 59.5185C172.646 60.8645 173.744 61.8917 174.169 63.0606C174.735 64.4666 175.012 65.9726 174.983 67.4883C174.75 69.5027 174.188 71.4652 173.319 73.2974C172.681 74.8559 171.336 76.0602 170.769 77.6188C169.813 80.2754 169.884 83.2508 168.786 85.872C167.411 89.0693 165.638 92.0803 163.509 94.8336C160.925 98.0084 158.017 100.905 154.833 103.476C150.229 107.266 144.598 109.711 140.277 113.819C137.055 116.901 135.603 121.435 132.592 124.694C130.277 127.101 127.601 129.132 124.66 130.715C122.854 131.743 120.481 131.601 118.639 132.628C114.248 135.037 110.388 138.331 106.103 140.952C102.561 143.184 99.0199 145.309 95.0181 147.186C91.3463 149.044 87.5333 150.607 83.6147 151.862C79.6563 152.832 75.6487 153.589 71.6092 154.129C67.147 154.979 62.6495 155.51 58.2581 156.573C54.7167 157.459 51.1753 159.017 47.6339 160.115C46.0266 160.624 44.3599 160.922 42.6759 161.001C40.5014 160.839 38.3376 160.556 36.195 160.151C35.1347 159.939 34.0512 159.868 32.9723 159.938C31.6759 160.345 30.4098 160.842 29.1831 161.426C28.5095 161.705 27.7875 161.85 27.0582 161.851C25.0141 161.732 22.9921 161.364 21.0378 160.753C19.692 160.257 14.7695 157.211 14.4508 157.211C13.1759 157.211 12.0072 158.131 10.6969 158.131C9.98122 158.134 9.26779 158.051 8.57201 157.884C7.95313 157.743 7.35705 157.517 6.8013 157.211C5.29733 155.94 4.08873 154.356 3.25988 152.57C3.01216 151.069 3.01216 149.538 3.25988 148.036C2.77946 149.721 2.5059 151.457 2.44531 153.208C2.44531 154.235 3.36609 155.05 4.00355 155.865C5.13463 157.513 6.50756 158.982 8.07616 160.221C8.68777 160.633 9.37332 160.921 10.0948 161.071C12.2905 161.567 14.9111 161.284 16.7172 161.78C17.8151 162.063 18.665 163.02 19.7275 163.409C20.7899 163.799 22.8439 163.905 24.3313 164.401C25.0041 164.649 29.006 166.314 26.4916 167.483C25.7125 167.837 24.7917 167.483 23.9417 167.483C23.3132 167.611 22.7352 167.919 22.2773 168.368L21.7814 168.935C22.6022 168.398 23.563 168.115 24.5437 168.12C26.0665 168.12 28.0852 168.829 29.5018 168.722C32.4412 168.475 33.7515 166.916 36.3367 165.96L36.195 166.172Z" fill="url(#paint5_radial_756_27944)"/>
<path style="mix-blend-mode:multiply" fill-rule="evenodd" clip-rule="evenodd" d="M44.2375 132.77C42.2206 132.94 40.1931 132.605 38.3381 131.795C36.4832 130.985 34.8594 129.725 33.6133 128.13C34.4278 132.097 41.0148 134.824 45.3354 135.922C46.6157 136.241 47.9511 136.27 49.2439 136.007C50.5368 135.743 51.7544 135.194 52.8077 134.399C53.4098 134.08 54.2243 134.08 54.5784 133.549C55.2513 132.416 55.1451 130.928 55.7117 129.724C56.2783 128.519 57.1637 128.023 57.6241 126.996C57.7374 126.758 57.7962 126.498 57.7962 126.235C57.7962 125.971 57.7374 125.711 57.6241 125.473C57.2432 124.596 56.5662 123.882 55.7117 123.454H55.4638C55.5837 123.647 55.6902 123.848 55.7825 124.056C55.8639 124.465 55.8272 124.889 55.6767 125.278C55.5262 125.667 55.2681 126.005 54.9326 126.252C53.6577 126.996 50.7891 127.102 49.7267 128.448C49.1955 129.157 49.7266 131.53 48.4517 131.991C47.1359 132.57 45.7107 132.86 44.2729 132.841L44.2375 132.77Z" fill="url(#paint6_radial_756_27944)"/>
<path style="mix-blend-mode:multiply" fill-rule="evenodd" clip-rule="evenodd" d="M87.7602 124.623C87.7602 125.296 88.3623 125.933 88.2914 126.642C88.2206 127.35 87.7957 127.244 87.4415 127.386C84.1145 128.249 80.6566 128.489 77.2422 128.094C75.7548 127.74 74.3383 126.961 72.8154 126.642C72.2556 126.518 71.6755 126.518 71.1156 126.642C68.8491 126.996 67.5742 127.315 65.6973 127.492C67.8221 127.492 70.0178 127.492 72.1072 127.705C78.8257 129.578 85.9153 129.676 92.6829 127.988C93.8515 127.669 94.6306 126.465 95.7639 126.075C96.8971 125.686 98.8095 126.075 100.12 125.438C101.43 124.8 101.749 123.419 102.882 122.816C104.129 122.314 105.44 121.992 106.778 121.86C108.832 121.4 110.85 120.904 112.904 120.479C113.862 120.278 114.851 120.278 115.808 120.479C111.699 119.788 107.497 119.86 103.413 120.691C101.43 120.939 99.8719 120.691 99.5178 122.568C99.4827 122.828 99.3956 123.078 99.2617 123.303C99.1279 123.528 98.95 123.724 98.7387 123.879C98.1363 124.18 97.4606 124.303 96.7909 124.233C94.8431 124.233 92.9662 123.312 91.0184 123.135C89.9914 123.135 88.0081 123.454 87.7602 124.658V124.623Z" fill="url(#paint7_radial_756_27944)"/>
<path style="mix-blend-mode:multiply" fill-rule="evenodd" clip-rule="evenodd" d="M89.3882 188.169C86.4134 189.444 83.226 190.223 80.2158 191.428C79.168 191.842 78.1605 192.352 77.2057 192.951C74.73 194.915 72.1273 196.714 69.4146 198.335C67.1592 199.258 64.7651 199.797 62.3317 199.929C57.8341 200.425 53.3011 200.354 48.8035 200.708C45.5454 200.991 42.1811 202.337 38.9938 200.921C37.7705 204.711 37.5871 208.76 38.4626 212.645C39.0646 214.806 41.4728 216.187 43.456 217.214C45.4324 218.149 47.5509 218.748 49.7243 218.985C53.6198 219.658 57.6216 219.694 61.5171 220.438C63.292 220.842 65.0149 221.448 66.6522 222.244C68.5292 223.094 70.1937 224.263 72.0706 225.184C73.7971 226.181 75.5965 227.045 77.4535 227.77C79.0655 228.391 80.7598 228.773 82.4824 228.903C84.9322 228.95 87.3821 228.82 89.8132 228.514C92.0443 228.514 94.2399 228.089 96.471 227.735H97.25C98.3125 227.735 99.3395 227.168 100.402 226.955C104.262 226.141 108.193 225.609 112.018 224.653C114.885 223.935 117.711 223.06 120.482 222.032C124.802 220.509 129.087 218.808 133.408 217.108C139.57 214.664 145.803 212.255 151.894 209.634C153.913 208.763 155.876 207.77 157.773 206.659C163.9 203.117 170.062 199.575 176.011 195.714C180.544 192.785 184.947 189.645 189.221 186.292C193.116 183.316 196.835 180.093 200.482 176.799C204.13 173.504 206.644 170.954 209.619 167.943C210.611 166.952 211.355 165.712 212.417 164.826C212.594 164.826 212.913 164.826 212.948 165.216C213.727 168.51 201.864 182.254 199.066 184.627C196.906 186.433 194.604 188.169 192.443 189.905C189.433 192.384 186.565 195.041 183.554 197.485C181.359 199.291 179.163 201.027 176.826 202.727C172.718 205.49 168.468 207.899 164.218 210.803C161.173 212.858 157.879 215.408 154.975 217.285C152.736 218.582 150.361 219.628 147.892 220.402C144.351 221.819 140.81 223.449 137.02 224.724C134.931 225.432 132.7 225.751 130.575 226.353C127.033 227.309 124.484 228.301 120.942 228.974C127.706 229.683 131.566 231.702 135.71 229.824C137.374 229.081 138.72 227.664 140.455 226.991C143.121 225.964 145.87 225.17 148.672 224.617C155.754 223.094 166.379 221.394 169.92 219.021C172.151 217.604 173.461 215.479 175.515 213.743C177.038 212.539 179.057 211.795 180.473 210.697C186.22 207.088 191.563 202.873 196.41 198.122C201.651 192.384 204.98 185.158 209.584 178.924C213.444 173.717 219.04 169.396 221.625 163.091C222.503 159.832 223.165 156.519 223.608 153.173C224.299 150.35 225.223 147.589 226.37 144.919C231.187 134.293 232.78 134.86 234.161 121.187C234.546 118.023 234.415 114.817 233.772 111.694C232.86 109.268 231.795 106.902 230.585 104.61C229.664 102.06 229.203 99.3322 228.389 96.711C227.822 94.9399 227.185 93.1689 226.476 91.4686C225.768 89.7684 224.883 87.9265 224.068 86.2971C224.706 89.6622 225.52 92.9917 226.016 96.3922C226.907 103.024 227.18 109.723 226.831 116.405C225.733 136.666 217.942 151.827 203.776 165.995C200.522 169.497 197.07 172.809 193.435 175.913C191.667 177.179 189.753 178.226 187.733 179.03C185.077 180.27 182.244 181.226 179.517 182.572C176.79 183.918 173.922 184.804 171.301 186.114C169.673 187.184 168.123 188.368 166.662 189.657C164.962 190.932 163.404 192.384 161.633 193.518C159.513 194.835 157.313 196.018 155.046 197.06C150.513 199.15 145.909 201.027 141.27 202.798C137.164 204.737 132.816 206.119 128.344 206.907C127.813 206.907 127.104 206.907 126.821 206.553C126.538 206.198 126.998 205.667 127.352 205.49C131.028 203.677 134.578 201.618 137.976 199.327C141.022 197.201 143.572 194.438 146.617 192.242C149.026 190.542 151.894 189.586 154.267 187.85C156.034 186.49 157.617 184.907 158.977 183.139C161.527 179.951 163.475 176.267 166.06 173.079C167.634 171.045 169.44 169.202 171.443 167.589C173.375 166.169 175.467 164.98 177.676 164.047C180.678 163.174 183.634 162.146 186.529 160.965C188.401 159.818 189.959 158.224 191.062 156.325C192.939 153.385 193.612 149.808 195.418 146.832C198.209 142.353 201.235 138.026 204.484 133.868C206.963 130.326 209.513 127.209 212.24 124.092C213.038 123.165 213.984 122.375 215.038 121.754C215.249 121.63 215.484 121.55 215.728 121.519C215.971 121.489 216.218 121.508 216.454 121.577C217.34 121.825 217.446 123.029 219.394 122.817C222.475 122.498 223.643 118.105 224.422 115.732C225.403 111.526 225.938 107.228 226.016 102.91C226.016 102.378 226.016 101.67 225.379 101.422C224.741 101.174 224.777 101.705 224.316 101.422C224.153 101.333 224.013 101.206 223.908 101.052C223.803 100.898 223.737 100.721 223.714 100.537C223.041 96.4985 222.793 92.425 222.298 88.387C222.121 86.3192 221.837 84.262 221.448 82.2237C221.16 80.988 220.707 79.7966 220.102 78.6815C220.102 78.2919 219.641 77.8668 219.252 77.796C218.862 77.7252 218.862 78.1502 218.65 78.2919C218.437 78.4336 218.225 78.7524 217.942 78.7878C217.658 78.8232 216.808 78.7878 216.667 78.5753C216.457 77.9831 216.28 77.3801 216.135 76.7688C215.392 73.0495 214.825 69.4366 213.975 65.6465C213.789 65.0892 213.635 64.5215 213.515 63.9463C213.515 63.9463 213.515 63.6275 213.727 63.6275C213.814 63.6553 213.893 63.7014 213.96 63.7625C214.028 63.8235 214.081 63.8983 214.117 63.9817C214.648 64.938 215.073 65.9298 215.569 66.9216L216.915 69.5074C217.304 70.2158 217.517 69.5074 217.517 69.5074C217.588 68.86 217.588 68.2067 217.517 67.5592C217.442 66.8885 217.311 66.225 217.127 65.5756C216.424 63.0784 215.561 60.6292 214.542 58.2434C213.474 54.9452 212.232 51.7055 210.823 48.538C209.655 47.4045 208.274 46.1647 206.822 44.8187C208.761 48.1328 210.204 51.7129 211.107 55.4451C211.458 57.0467 211.718 58.6669 211.886 60.2979C212.54 67.8027 211.893 75.3641 209.973 82.6487C208.486 87.1118 205.015 90.6539 202.891 94.9045C200.766 99.1551 200.978 103.476 198.464 106.948C189.053 117.663 178.667 127.482 167.441 136.277C157.277 143.609 135.922 157.069 123.775 160.115C114.816 162.347 105.36 161.78 96.3294 163.657C90.061 165.003 84.3594 168.262 78.1973 169.856C68.7063 172.336 61.6588 173.044 51.6012 176.09C48.1836 177.28 44.4963 177.465 40.977 176.622C37.7897 176.232 34.4961 176.055 33.1858 177.613C32.6192 178.322 33.4337 179.809 32.6546 180.27C32.0226 180.542 31.3417 180.682 30.6537 180.682C29.9657 180.682 29.2848 180.542 28.6528 180.27C25.6072 179.243 23.0574 177.153 20.0472 175.949C19.2478 175.65 18.3675 175.65 17.5681 175.949C16.6474 176.232 15.9746 176.869 15.1954 176.905C14.8972 176.921 14.5989 176.875 14.3188 176.772C14.0387 176.668 13.7827 176.509 13.5664 176.303C12.0099 173.993 11.2058 171.259 11.2644 168.475C11.2644 169.041 11.0874 169.608 11.0166 170.175C10.7285 171.943 10.5981 173.733 10.627 175.523C10.6415 175.739 10.703 175.949 10.8069 176.139C10.9109 176.329 11.0549 176.493 11.2291 176.622C14.8179 179.057 18.582 181.224 22.4908 183.104C23.4974 183.634 24.5386 184.095 25.6072 184.485C27.7594 185.149 29.9466 185.693 32.1589 186.114C38.1084 187.283 37.0105 185.725 42.3581 183.741C45.3106 182.651 48.3264 181.74 51.3887 181.014C57.8341 179.597 64.492 179.101 70.902 177.472C75.6121 176.232 80.0388 173.93 84.6073 172.406C87.9324 171.021 91.3384 169.838 94.8066 168.864C96.2833 168.56 97.8153 168.671 99.2333 169.183C100.299 169.616 101.203 170.372 101.819 171.344C102.329 172.182 102.541 173.168 102.421 174.142C102.311 175.043 101.899 175.88 101.252 176.515C99.977 177.72 98.2063 178.215 96.8605 179.314C95.6538 180.345 94.5933 181.537 93.7086 182.856C93.0003 183.883 92.9296 185.3 92.1151 186.398C91.2701 187.273 90.2421 187.95 89.1048 188.381L89.3882 188.169Z" fill="url(#paint8_radial_756_27944)"/>
<path style="mix-blend-mode:multiply" fill-rule="evenodd" clip-rule="evenodd" d="M66.1189 175.488C60.8068 176.905 54.7155 175.736 49.1201 176.94C46.5112 177.371 43.8449 177.311 41.2581 176.763C38.0708 176.374 34.7774 176.197 33.4671 177.755C32.9004 178.464 33.715 179.951 32.9359 180.412C32.3038 180.684 31.623 180.824 30.935 180.824C30.2469 180.824 29.5661 180.684 28.934 180.412C25.8884 179.384 23.3386 177.295 20.3284 176.09C19.5291 175.792 18.6487 175.792 17.8494 176.09C16.9286 176.374 16.2557 177.011 15.4766 177.047C15.1784 177.062 14.8802 177.017 14.6001 176.914C14.32 176.81 14.0639 176.65 13.8476 176.445C12.2911 174.135 11.487 171.401 11.5457 168.616C11.5457 169.183 11.3686 169.75 11.2977 170.317C11.0096 172.084 10.8793 173.874 10.9082 175.665C10.9227 175.881 10.9841 176.091 11.0881 176.281C11.192 176.47 11.3361 176.635 11.5102 176.763C15.099 179.199 18.8632 181.366 22.7719 183.245C23.7786 183.775 24.8197 184.237 25.8884 184.627C28.0405 185.29 30.2277 185.834 32.44 186.256C38.3896 187.425 37.2918 185.867 42.6393 183.883C45.5918 182.793 48.6075 181.882 51.6699 181.156C58.1153 179.739 64.7732 179.243 71.1831 177.613C75.8932 176.374 80.32 174.071 84.8884 172.548C88.2135 171.162 91.6195 169.98 95.0877 169.006C96.5645 168.702 98.0965 168.813 99.5145 169.325C100.58 169.758 101.484 170.514 102.1 171.486C102.61 172.324 102.822 173.31 102.702 174.284C102.592 175.185 102.18 176.021 101.533 176.657C101.096 177.062 100.608 177.407 100.081 177.684C100.872 177.354 101.631 176.951 102.348 176.48C105.535 174.178 105.429 171.379 112.582 167.979C118.319 165.251 107.199 165.358 106.101 165.393C101.372 164.92 96.5989 165.146 91.9358 166.066C84.6405 168.085 74.9016 173.15 65.9773 175.665L66.1189 175.488Z" fill="url(#paint9_radial_756_27944)"/>
<path style="mix-blend-mode:multiply" fill-rule="evenodd" clip-rule="evenodd" d="M150.868 155.511C142.333 158.451 131.426 161.178 122.537 163.551C121.687 163.764 117.543 164.614 117.225 165.535C119.284 166.136 121.455 166.245 123.564 165.854C132.43 164.581 141.207 162.747 149.841 160.363C158.846 158.888 167.62 156.244 175.941 152.5C179.418 150.722 182.54 148.321 185.149 145.415C187.486 142.582 187.982 138.508 190.001 135.391C191.856 132.661 194.018 130.153 196.446 127.917C200.413 123.986 204.875 120.621 208.877 116.724C210.976 115.002 212.761 112.928 214.153 110.596C215.889 106.755 217.024 102.669 217.518 98.4822C217.913 93.7702 218.008 89.0377 217.801 84.3137C217.632 82.4407 217.824 80.5527 218.368 78.7525H218.084C217.659 78.7525 216.951 78.7525 216.809 78.54C216.6 77.9478 216.422 77.3448 216.278 76.7335C215.534 73.0142 214.968 69.4013 214.118 65.6112C213.931 65.0539 213.778 64.4862 213.657 63.911C213.657 63.911 213.657 63.5922 213.87 63.5922C213.956 63.6201 214.036 63.6661 214.103 63.7272C214.17 63.7883 214.223 63.863 214.259 63.9464C214.791 64.9028 215.216 65.8946 215.711 66.8864L217.057 69.4721C217.447 70.1805 217.659 69.4721 217.659 69.4721C217.731 68.8247 217.731 68.1714 217.659 67.5239C217.584 66.8532 217.454 66.1897 217.27 65.5403C216.567 63.0431 215.703 60.5939 214.684 58.2081C213.616 54.9099 212.375 51.6702 210.966 48.5027C210.827 48.3818 210.697 48.2516 210.576 48.113C212.226 51.5917 213.188 55.3563 213.41 59.1999C213.451 59.6003 213.451 60.0039 213.41 60.4042C213.41 60.6522 212.949 60.6522 212.878 60.9001C212.854 62.4636 212.949 64.0266 213.162 65.5758C213.651 70.0462 213.911 74.5388 213.941 79.0359C214.09 84.8283 213.482 90.6153 212.135 96.2506C210.502 100.402 208.31 104.311 205.618 107.869C202.855 113.086 199.606 118.032 195.915 122.64C192.798 125.969 188.018 127.315 184.724 130.432C171.727 142.759 173.321 148.143 151.151 155.546L150.868 155.511Z" fill="url(#paint10_radial_756_27944)"/>
<path style="mix-blend-mode:multiply" fill-rule="evenodd" clip-rule="evenodd" d="M68.5287 213.92C66.1058 214.435 63.735 215.17 61.4459 216.116C57.2418 217.198 52.788 216.72 48.9093 214.77C41.4723 211.972 39.5953 207.686 40.162 201.664C40.162 201.664 40.162 201.381 40.162 201.239C39.8563 201.165 39.5596 201.058 39.2766 200.921C38.0533 204.711 37.8699 208.76 38.7454 212.645C39.3474 214.806 41.7556 216.187 43.7388 217.214C45.7152 218.149 47.8337 218.748 50.0071 218.986C53.9026 219.659 57.9045 219.694 61.8001 220.438C63.5749 220.842 65.2977 221.449 66.9351 222.244C68.812 223.094 70.4765 224.263 72.3534 225.184C74.0799 226.181 75.8795 227.045 77.7365 227.77C79.3485 228.391 81.0426 228.773 82.7652 228.903C85.215 228.95 87.665 228.82 90.096 228.514C92.3271 228.514 94.5228 228.089 96.7539 227.735H97.533C98.5954 227.735 99.6224 227.168 100.685 226.955C104.545 226.141 108.476 225.609 112.301 224.653C115.168 223.935 117.994 223.06 120.765 222.032C125.085 220.509 129.37 218.808 133.691 217.108C139.853 214.664 146.086 212.255 152.177 209.634C154.196 208.764 156.159 207.77 158.056 206.659C164.182 203.117 170.344 199.575 176.294 195.714C180.827 192.786 185.23 189.645 189.504 186.292C193.399 183.316 197.118 180.093 200.765 176.799C204.413 173.505 206.927 170.954 209.902 167.943C210.894 166.952 211.637 165.712 212.7 164.826C212.877 164.826 213.196 164.826 213.231 165.216C214.01 168.51 202.146 182.254 199.349 184.627L198.499 185.335C206.715 179.42 210.433 174.709 216.808 164.082C217.552 162.772 218.295 161.461 219.004 160.115C220.776 156.815 222.314 153.394 223.607 149.878C224.23 148.324 224.636 146.691 224.812 145.026C224.812 145.026 224.351 145.415 223.926 146.124C223.501 146.832 222.439 148.639 222.191 149.099C219.639 153.681 216.726 158.051 213.479 162.17C211.725 164.278 209.857 166.288 207.884 168.191C204.873 171.167 201.863 174.142 198.605 176.834C195.984 179.03 193.01 180.766 190.247 182.749C186.706 185.406 182.846 187.992 179.304 190.79C176.861 192.703 174.878 195.147 172.221 196.918C169.513 198.609 166.697 200.124 163.793 201.452C160.074 203.329 156.32 204.994 152.602 206.942C150.194 208.111 147.927 209.563 145.519 210.484C140.951 212.255 136.099 213.283 131.353 215.018C128.91 215.939 126.75 217.533 124.271 218.56C119.348 220.261 113.434 220.296 108.44 221.748C99.8703 224.192 97.108 226.672 89.7065 226.884C87.8152 226.928 85.923 226.857 84.0402 226.672C81.5612 226.459 80.4988 225.538 80.0738 224.334C79.6842 222.421 81.8799 219.871 85.563 218.773C90.0251 217.462 94.6644 216.789 99.162 215.62C108.441 213.247 122.181 210.591 130.716 207.792C134.705 206.407 138.618 204.81 142.438 203.011L141.447 203.4C137.34 205.34 132.993 206.722 128.52 207.509C127.989 207.509 127.281 207.509 126.998 207.155C126.714 206.801 127.175 206.269 127.529 206.092C131.205 204.28 134.755 202.221 138.153 199.929C141.199 197.804 143.748 195.041 146.794 192.845C149.202 191.144 152.071 190.188 154.444 188.452C156.086 187.205 157.562 185.753 158.835 184.131C155.96 186.482 152.557 188.098 148.919 188.842C146.444 189.347 144.016 190.058 141.659 190.967C139.074 192.738 134.116 201.806 124.342 205.136C112.521 208.999 100.313 211.552 87.9358 212.751C81.4904 213.46 74.9387 213.247 68.5287 214.204V213.92Z" fill="url(#paint11_radial_756_27944)"/>
<path fill-rule="evenodd" clip-rule="evenodd" d="M77.2068 192.951C74.7311 194.915 72.1284 196.714 69.4156 198.335C67.1603 199.258 64.7662 199.797 62.3328 199.929C57.8352 200.425 53.3021 200.354 48.8045 200.708C46.2527 201.232 43.6539 201.493 41.0488 201.487C43.3947 201.865 45.7858 201.865 48.1317 201.487C56.6311 201.204 69.9469 202.125 73.5591 201.487C76.1074 201.019 78.5238 200.004 80.642 198.512C83.9709 196.316 77.4192 196.28 81.7044 194.509C87.5477 192.101 102.953 192.844 106.494 186.575C106.759 186.218 106.927 185.8 106.983 185.359C107.039 184.919 106.98 184.471 106.813 184.06C106.317 183.316 104.688 184.06 104.299 183.21C103.909 182.36 104.83 181.651 105.432 181.226C111.189 177.297 117.351 173.995 123.812 171.379C127.137 170.065 130.558 169.011 134.047 168.227C144.494 165.96 124.449 166.562 117.791 168.227C113.335 169.458 109.311 171.912 106.176 175.311C105.14 176.423 103.946 177.378 102.634 178.145C99.801 179.349 95.7992 179.455 93.7452 182.466C93.0369 183.493 92.9661 184.91 92.1516 186.008C91.3066 186.883 90.2787 187.56 89.1414 187.992C86.1666 189.267 82.9793 190.046 79.9691 191.25C78.9213 191.665 77.9137 192.175 76.9589 192.774L77.2068 192.951Z" fill="url(#paint12_radial_756_27944)"/>
<path opacity="0.65" fill-rule="evenodd" clip-rule="evenodd" d="M135.887 206.694C132.345 207.934 128.804 208.855 125.262 209.776C121.721 210.697 117.011 211.618 112.903 212.609C109.948 213.19 107.028 213.935 104.156 214.841C103.766 214.841 103.235 215.833 103.624 215.974C105.252 216.543 106.965 216.831 108.689 216.825C112.301 217.179 115.932 217.321 119.561 217.25C120.8 217.211 122.012 216.883 123.102 216.293C125.758 214.876 127.989 212.751 130.716 211.334C133.09 210.352 135.558 209.616 138.082 209.138C141.176 208.738 144.24 208.134 147.255 207.332C154.313 203.86 160.628 199.048 165.847 193.163C166.024 192.844 165.847 192.242 165.635 192.1C165.422 191.959 164.749 192.1 164.36 192.49C160.995 194.297 157.773 196.422 154.408 198.228C151.044 200.035 148.494 201.204 145.484 202.55C142.474 203.896 139.216 205.419 135.993 206.552L135.887 206.694Z" fill="url(#paint13_radial_756_27944)"/>
<path fill-rule="evenodd" clip-rule="evenodd" d="M63.1823 10.8142C64.2448 10.3892 65.0948 9.57449 66.1218 9.04317C75.0669 5.17537 85.0694 4.50007 94.4531 7.13042C97.0738 7.87426 99.8715 7.52006 102.492 8.29933C105.113 9.0786 106.636 10.5309 108.796 11.3456C111.023 11.776 113.214 12.38 115.347 13.152C116.693 13.8959 116.906 16.0566 118.322 16.6942C120.66 17.8631 123.599 17.2963 126.007 18.2881C132.028 20.7322 140.173 27.5331 141.094 34.4403C141.434 36.7101 141.178 39.0297 140.35 41.1703C139.323 43.6852 135.038 42.4809 133.834 43.0831C132.63 43.6852 132.948 44.4291 132.878 45.2084C132.488 48.3963 133.055 51.655 132.452 54.8075C131.355 60.3333 125.37 62.4586 120.305 63.7691C113.648 65.5402 105.892 62.8836 107.238 54.595C107.592 52.2572 109.787 50.5924 110.779 48.3609C111.771 46.1293 110.779 44.3228 111.735 42.7643C114.143 39.2222 120.766 37.5219 121.651 36.2113C122.439 34.6474 122.735 32.8816 122.501 31.1461C122.533 29.554 122.155 27.9804 121.403 26.5767C121.173 26.2866 120.85 26.0855 120.488 26.0079C120.126 25.9304 119.749 25.9812 119.42 26.1517C117.295 27.604 116.552 31.4295 111.948 33.236C107.344 35.0424 99.3049 35.0424 95.4447 39.8952C95.1983 40.1629 95.021 40.4868 94.9284 40.8387C94.8358 41.1906 94.8308 41.5598 94.9135 41.9142C95.3739 43.4727 97.0737 44.5708 97.3924 46.1647C97.437 46.7239 97.3657 47.2862 97.1829 47.8165C97.0001 48.3468 96.7097 48.8336 96.3301 49.2464C95.1313 50.9646 93.5411 52.3729 91.6908 53.3553C87.1651 55.0647 82.5553 56.5425 77.8793 57.7829C75.6128 58.5622 73.4171 59.554 71.2214 60.4395C60.5972 64.6901 50.6457 63.6275 49.3708 64.9735C48.0959 66.3195 48.3792 68.9761 47.1397 70.57C42.8546 76.0603 38.3925 78.0439 32.3721 74.1122C30.1764 72.6245 28.8306 69.897 26.4578 68.7281C24.8288 67.9134 22.9164 68.7281 21.004 68.5156C17.8876 68.2677 14.3817 66.8862 11.4777 69.3657C9.88407 70.7471 8.85706 74.1122 7.93629 74.6081C7.01552 75.104 8.43207 70.0741 9.45908 68.0905C11.0881 64.8672 6.66134 62.1752 17.746 52.7885C20.5528 50.0892 22.8554 46.9105 24.5454 43.4019C25.3329 41.5956 26.3963 39.9226 27.6974 38.4429C29.1793 37.0846 30.753 35.8301 32.4074 34.6882C35.028 32.5984 38.5341 28.2061 41.863 25.4078C43.2088 24.2389 44.9795 23.6368 46.3253 22.4679C49.4063 19.7404 51.7436 16.8713 54.1872 14.6397C57.2682 11.806 60.1013 12.1248 63.4303 10.7788L63.1823 10.8142Z" fill="url(#paint14_radial_756_27944)"/>
<path style="mix-blend-mode:multiply" fill-rule="evenodd" clip-rule="evenodd" d="M86.4865 37.7345C76.606 46.5898 82.7326 47.192 87.6551 47.9004C89.9216 48.2192 92.8611 49.3527 89.4613 50.805C86.0615 52.2572 83.2284 52.2572 80.289 53.4261C78.6246 54.0992 77.3496 55.5514 75.7206 56.2953C65.0963 61.148 50.9307 58.208 42.6437 59.4124C39.1023 59.9437 37.6503 63.167 40.6606 66.0716C42.75 68.0906 44.981 68.126 45.0164 69.6137C45.0164 72.7308 40.7313 75.5645 37.9336 76.3438C39.7506 76.1748 41.5023 75.5801 43.0466 74.6078C44.591 73.6354 45.8846 72.3128 46.8226 70.7472C48.0621 69.1532 47.6725 66.6029 49.0537 65.1506C50.4349 63.6983 60.2446 64.8672 70.9043 60.6167C73.1 59.7312 75.2956 58.7394 77.5621 57.9601C82.2381 56.7197 86.848 55.2419 91.3737 53.5324C93.224 52.5501 94.8141 51.1417 96.0129 49.4235C96.3926 49.0107 96.6829 48.5239 96.8658 47.9936C97.0486 47.4634 97.1199 46.901 97.0753 46.3419C96.7566 44.7479 95.0567 43.6499 94.5963 42.0913C94.5135 41.737 94.5187 41.3677 94.6113 41.0158C94.7039 40.6639 94.8812 40.34 95.1276 40.0723C98.9877 35.2196 107.275 35.2196 111.631 33.4131C115.987 31.6066 116.978 27.7103 119.103 26.3288C119.431 26.1583 119.809 26.1075 120.171 26.1851C120.533 26.2626 120.856 26.4637 121.086 26.7539C121.838 28.1576 122.216 29.7311 122.184 31.3232C122.418 33.0588 122.122 34.8245 121.334 36.3885C120.52 37.5574 114.959 39.0805 112.126 42.0559C119.882 36.5302 125.442 38.868 125.548 32.3859C125.746 29.3906 125.147 26.3965 123.813 23.7076C123.575 23.3879 123.273 23.1212 122.927 22.9246C122.58 22.728 122.196 22.6059 121.8 22.5659C121.403 22.5259 121.003 22.569 120.624 22.6924C120.245 22.8158 119.896 23.0168 119.599 23.2826C116.624 26.2934 115.278 29.9418 110.958 31.217C108.066 32.002 105.134 32.6287 102.175 33.0943C96.3671 34.1569 91.3382 33.3777 86.4511 37.7699L86.4865 37.7345Z" fill="url(#paint15_radial_756_27944)"/>
<path style="mix-blend-mode:multiply" fill-rule="evenodd" clip-rule="evenodd" d="M114.993 14.3562C115.312 15.5251 114.993 18.4651 116.87 18.8901C120.588 19.7403 123.953 17.8984 128.238 20.6612C133.904 24.4159 139.747 29.1623 138.862 36.7425C138.472 39.5408 135.993 38.9386 133.196 38.0531C131.283 37.4509 129.265 37.203 128.911 38.9386C127.99 43.0829 129.477 47.4398 129.442 51.6903C129.442 60.8999 122.182 63.8044 115.524 64.5128C117.146 64.6118 118.773 64.4442 120.34 64.0169C125.298 62.7063 131.39 60.4748 132.487 55.0553C133.089 51.9028 132.487 48.6441 132.912 45.4562C132.912 44.6769 133.16 43.6851 133.869 43.3309C134.577 42.9767 139.358 43.933 140.385 41.4181C141.213 39.2775 141.469 36.958 141.129 34.6881C140.279 27.7809 132.062 20.98 126.042 18.5359C123.634 17.5441 120.695 18.1109 118.357 16.942C116.941 16.269 116.728 14.1083 115.382 13.3998C114.558 12.9674 113.675 12.6571 112.762 12.4789L114.426 13.2582C114.791 13.5385 115.042 13.9409 115.135 14.3916L114.993 14.3562Z" fill="url(#paint16_radial_756_27944)"/>
<defs>
<radialGradient id="paint0_radial_756_27944" cx="0" cy="0" r="1" gradientUnits="userSpaceOnUse" gradientTransform="translate(68.2113 52.7532) scale(198.886 198.926)">
<stop stop-color="#71F5FF"/>
<stop offset="0.17" stop-color="#6AE9FF"/>
<stop offset="0.47" stop-color="#56C9FF"/>
<stop offset="0.5" stop-color="#54C5FF"/>
<stop offset="0.92" stop-color="#1483FF"/>
</radialGradient>
<radialGradient id="paint1_radial_756_27944" cx="0" cy="0" r="1" gradientUnits="userSpaceOnUse" gradientTransform="translate(121.085 122.144) scale(125.154 125.179)">
<stop offset="0.04"/>
<stop offset="0.84"/>
<stop offset="0.85" stop-color="#0D1516"/>
<stop offset="0.9" stop-color="#3E6268"/>
<stop offset="0.93" stop-color="#659FA9"/>
<stop offset="0.96" stop-color="#81CBD7"/>
<stop offset="0.99" stop-color="#93E6F4"/>
<stop offset="1" stop-color="#99F0FF"/>
</radialGradient>
<radialGradient id="paint2_radial_756_27944" cx="0" cy="0" r="1" gradientUnits="userSpaceOnUse" gradientTransform="translate(32.9397 21.476) scale(137.195 137.222)">
<stop stop-color="#86FFFF"/>
<stop offset="1"/>
</radialGradient>
<radialGradient id="paint3_radial_756_27944" cx="0" cy="0" r="1" gradientUnits="userSpaceOnUse" gradientTransform="translate(64.4585 94.6211) scale(178.452 178.488)">
<stop stop-color="#F2F6FF"/>
<stop offset="1" stop-color="#D6F3FF"/>
</radialGradient>
<radialGradient id="paint4_radial_756_27944" cx="0" cy="0" r="1" gradientUnits="userSpaceOnUse" gradientTransform="translate(103.485 95.4712) scale(149.094 149.124)">
<stop offset="0.62" stop-color="white"/>
<stop offset="0.65" stop-color="#F5FAFF"/>
<stop offset="0.75" stop-color="#D0E8FF"/>
<stop offset="0.85" stop-color="#B4DAFF"/>
<stop offset="0.94" stop-color="#A4D2FF"/>
<stop offset="1" stop-color="#9ECFFF"/>
</radialGradient>
<radialGradient id="paint5_radial_756_27944" cx="0" cy="0" r="1" gradientUnits="userSpaceOnUse" gradientTransform="translate(26.2082 30.8272) scale(182.914 182.951)">
<stop offset="0.7" stop-color="white"/>
<stop offset="1" stop-color="#AAC2E6"/>
</radialGradient>
<radialGradient id="paint6_radial_756_27944" cx="0" cy="0" r="1" gradientUnits="userSpaceOnUse" gradientTransform="translate(46.327 119.381) scale(26.9856 26.9911)">
<stop stop-color="white"/>
<stop offset="1" stop-color="#AAC2E6"/>
</radialGradient>
<radialGradient id="paint7_radial_756_27944" cx="0" cy="0" r="1" gradientUnits="userSpaceOnUse" gradientTransform="translate(76.109 106.7) scale(59.7437 59.7558)">
<stop stop-color="white"/>
<stop offset="1" stop-color="#AAC2E6"/>
</radialGradient>
<radialGradient id="paint8_radial_756_27944" cx="0" cy="0" r="1" gradientUnits="userSpaceOnUse" gradientTransform="translate(70.7249 125.473) scale(164.251 164.284)">
<stop stop-color="white"/>
<stop offset="1" stop-color="#CFE2FF"/>
</radialGradient>
<radialGradient id="paint9_radial_756_27944" cx="0" cy="0" r="1" gradientUnits="userSpaceOnUse" gradientTransform="translate(118.496 176.763) scale(105.818 105.839)">
<stop stop-color="#AAC2E6"/>
<stop offset="1" stop-color="white"/>
</radialGradient>
<radialGradient id="paint10_radial_756_27944" cx="0" cy="0" r="1" gradientUnits="userSpaceOnUse" gradientTransform="translate(130.894 130.468) scale(110.598 110.621)">
<stop stop-color="white"/>
<stop offset="1" stop-color="#AAC2E6"/>
</radialGradient>
<radialGradient id="paint11_radial_756_27944" cx="0" cy="0" r="1" gradientUnits="userSpaceOnUse" gradientTransform="translate(107.378 57.3579) scale(195.628 195.667)">
<stop stop-color="white"/>
<stop offset="1" stop-color="#AAC2E6"/>
</radialGradient>
<radialGradient id="paint12_radial_756_27944" cx="0" cy="0" r="1" gradientUnits="userSpaceOnUse" gradientTransform="translate(113.613 161.426) scale(84.8878 84.905)">
<stop stop-color="#F2F6FF"/>
<stop offset="1" stop-color="#D6F3FF"/>
</radialGradient>
<radialGradient id="paint13_radial_756_27944" cx="0" cy="0" r="1" gradientUnits="userSpaceOnUse" gradientTransform="translate(140.491 178.074) scale(76.7072 76.7226)">
<stop stop-color="#F2F6FF"/>
<stop offset="1" stop-color="#D6F3FF"/>
</radialGradient>
<radialGradient id="paint14_radial_756_27944" cx="0" cy="0" r="1" gradientUnits="userSpaceOnUse" gradientTransform="translate(16.4357 41.0286) scale(177.921 177.957)">
<stop stop-color="#F2F6FF"/>
<stop offset="1" stop-color="#D6F3FF"/>
</radialGradient>
<radialGradient id="paint15_radial_756_27944" cx="0" cy="0" r="1" gradientUnits="userSpaceOnUse" gradientTransform="translate(52.4888 28.277) scale(76.5655 76.5809)">
<stop stop-color="white"/>
<stop offset="1" stop-color="#AAC2E6"/>
</radialGradient>
<radialGradient id="paint16_radial_756_27944" cx="0" cy="0" r="1" gradientUnits="userSpaceOnUse" gradientTransform="translate(96.2941 27.6392) scale(49.8632 49.8733)">
<stop stop-color="white"/>
<stop offset="1" stop-color="#AAC2E6"/>
</radialGradient>
</defs>
</svg>
