<svg width="208" height="237" viewBox="0 0 208 237" fill="none" xmlns="http://www.w3.org/2000/svg">
<path fill-rule="evenodd" clip-rule="evenodd" d="M15.252 79.58C15.252 79.58 16.4322 69.3623 17.2085 63.7516C22.3493 56.9755 28.4497 50.9843 35.3176 45.9667L50.1336 46.7402C50.1336 46.7402 20.2456 70.7074 15.252 79.58Z" fill="url(#paint0_linear_756_25721)"/>
<path fill-rule="evenodd" clip-rule="evenodd" d="M35.3176 45.9667C35.3176 45.9667 35.3176 54.188 27.8158 60.6832C20.3139 67.1783 17.0521 64.9005 17.0521 64.9005L15.252 77.9818L50.1336 46.7288L35.3176 45.9667Z" fill="url(#paint1_linear_756_25721)"/>
<path fill-rule="evenodd" clip-rule="evenodd" d="M194.165 131.621C194.175 144.365 191.672 156.986 186.799 168.761C181.927 180.537 174.78 191.236 165.767 200.246C156.755 209.257 146.054 216.401 134.277 221.271C122.501 226.141 109.879 228.641 97.1352 228.627C95.4148 228.627 93.6744 228.588 91.9738 228.485H91.9539C89.4144 228.363 86.8949 228.116 84.4179 227.808C66.1519 225.418 48.9535 217.843 34.8597 205.98C25.7688 198.328 18.1308 189.102 12.3115 178.742C11.7172 177.676 11.1455 176.592 10.5711 175.506C10.5667 175.469 10.5531 175.434 10.5313 175.404C9.93696 174.238 9.39376 173.069 8.8506 171.88H8.83074C7.13251 168.158 5.68188 164.327 4.48831 160.414C3.58109 157.56 2.82174 154.661 2.2133 151.729C2.19747 151.706 2.1904 151.678 2.19337 151.65C1.76112 149.579 1.39426 147.492 1.10704 145.393C0.446825 140.836 0.117993 136.237 0.123106 131.632C0.123106 128.948 0.225476 126.266 0.472883 123.644C0.595165 121.966 0.780043 120.306 1.0047 118.648C2.23095 109.281 4.84652 100.15 8.76527 91.5551C16.4742 74.5816 28.9058 60.1858 44.5755 50.0868C60.2451 39.9878 78.4904 34.6126 97.1325 34.603C98.1562 34.603 99.18 34.6229 100.184 34.6428C101.27 34.6855 102.354 34.7253 103.44 34.8078C108.927 35.1619 114.373 35.9839 119.72 37.2648C122.792 38.0013 125.803 38.863 128.752 39.8867C130.743 40.5607 132.734 41.3086 134.67 42.139C136.123 42.7533 137.537 43.3874 138.936 44.0642C139.18 44.1865 139.428 44.2889 139.672 44.4112C149.038 48.9924 157.606 55.0502 165.047 62.3525C166.111 63.3762 167.134 64.4398 168.158 65.5261C168.835 66.2627 169.509 67.0219 170.166 67.7784C171.303 69.0467 172.378 70.3804 173.442 71.7113C181.917 82.4856 188.005 94.9389 191.301 108.245C193.203 115.891 194.165 123.741 194.165 131.621Z" fill="url(#paint2_radial_756_25721)"/>
<path fill-rule="evenodd" clip-rule="evenodd" d="M139.683 44.4112C139.361 44.4399 139.04 44.4855 138.722 44.5477C137.712 44.7325 136.671 44.6631 135.694 44.3458C134.92 44.1268 134.363 43.8055 133.538 43.6718C132.361 43.487 131.263 42.9808 130.089 42.8187C128.843 42.6509 127.768 42.1618 126.588 41.7409C125.664 41.4053 125.166 41.5219 124.285 41.7409C123.403 41.9599 122.769 41.6073 121.978 41.2717C121.085 40.8849 120.195 40.8167 119.251 40.6318C116.794 40.1257 114.354 39.3351 111.914 38.7123C110.398 38.3256 109.002 38.3255 107.455 38.3085C106.244 38.2914 105.149 38.644 103.937 38.644C103.163 38.6184 102.392 38.5347 101.631 38.3938C100.806 38.2402 99.9646 38.4109 99.1399 38.2914C97.9114 38.1066 97.2573 37.9217 96.0118 38.3085C95.0847 38.6128 94.3624 38.5929 93.4354 38.6298C92.3559 38.7218 91.2863 38.9073 90.2389 39.1844C88.3836 39.6515 86.4788 39.894 84.5656 39.9067C83.4281 39.9067 81.7389 39.5882 80.6469 39.9749C79.9388 40.228 79.5862 40.9845 79.0971 41.4907C78.1558 42.4661 76.9927 43.342 76.2021 44.434C75.4116 45.526 74.5215 46.6549 74.5869 48.037C74.6551 49.2314 75.2097 50.6277 75.7244 51.7339C76.2619 52.8942 76.4467 53.9549 75.2523 54.7284C73.732 55.7683 72.064 56.5735 70.3042 57.1171C69.1667 57.4556 68.1344 57.6575 67.176 56.8328C66.8234 56.5285 66.6073 55.9398 66.1665 55.6953C65.7257 55.4507 65.2422 55.6953 64.7446 55.8488C63.5591 56.2405 62.3512 56.5605 61.1273 56.8072C60.3709 56.9238 59.7054 57.3276 58.9717 57.4641C58.0816 57.6319 57.4418 56.975 56.5148 57.1939C55.2208 57.4954 53.9241 58.0471 52.579 58.1039C51.6178 58.1523 50.4063 57.7314 49.5987 57.2508C49.1266 56.9806 49.01 56.7105 48.4612 56.864C47.9342 57.0568 47.4728 57.395 47.1303 57.8395C46.8118 58.2945 46.6923 58.8831 46.3738 59.3523C46.0354 59.8756 45.717 60.3789 45.4155 60.9363C44.8559 61.9999 44.2141 63.0182 43.496 63.982C42.9898 64.656 42.6429 65.5631 42.0741 66.1859C41.7897 66.5215 41.1641 66.7547 40.7944 67.0106C39.7849 67.7187 38.7242 68.3557 37.7488 69.115C35.8633 70.5966 34.0803 72.2431 32.1607 73.665C30.6962 74.757 28.643 75.3969 26.9765 76.0879C25.9357 76.5088 24.858 76.8102 23.8143 77.2481C23.4787 77.3818 22.8559 77.5325 22.5687 77.7885C22.199 78.107 22 78.6956 21.6587 79.1336C20.7516 80.2455 19.7904 81.3545 19.0993 82.6342C18.7089 83.3698 18.3926 84.1424 18.1552 84.9405C17.7855 86.0325 17.1969 87.0421 16.8272 88.1369C16.0707 90.4262 15.9172 92.8149 15.0783 95.0871C14.5891 96.418 13.881 97.6294 13.2753 98.8409C12.2316 100.894 12.0809 103.334 11.7795 105.606C11.6203 106.99 11.6653 108.39 11.9131 109.761C12.1662 111.16 12.098 112.605 12.0809 114.027C12.0639 115.539 11.1055 117.021 10.1472 118.164C9.27128 119.225 7.94042 119.629 6.96501 120.573C6.14032 121.381 5.14781 122.305 4.79518 123.451C4.64161 123.954 4.77815 124.526 4.69284 125.066C4.47387 126.26 4.17239 127.387 4.0046 128.598C3.83765 130.068 3.76458 131.547 3.7857 133.026C3.7857 133.782 3.73449 134.556 3.76862 135.301C3.80274 136.046 4.07005 136.697 4.12124 137.419C4.15537 137.926 4.05299 138.429 4.12124 138.935C4.22077 139.504 4.4397 140.095 4.5762 140.641C4.91177 141.986 5.16486 143.3 5.42933 144.645C5.66536 145.891 6.15169 147.119 6.53844 148.342C7.05411 150.002 7.45882 151.694 7.74989 153.407C8.00298 154.687 7.98592 156.015 8.17076 157.312C8.32432 158.355 8.55752 159.416 8.60871 160.46C8.6599 162.041 8.27315 163.622 8.25609 165.223C8.23902 167.913 9.31679 170.606 9.93957 173.185C10.1244 173.908 10.3093 174.65 10.5083 175.372C3.04045 160.577 -0.514022 144.116 0.183711 127.558C0.881445 111 5.80811 94.8962 14.4942 80.782C23.1802 66.6677 35.3363 55.0131 49.8037 46.9289C64.2711 38.8447 80.5678 34.6003 97.1407 34.6002C99.2622 34.6002 101.35 34.6685 103.434 34.8021C116.031 35.5954 128.348 38.8605 139.683 44.4112Z" fill="url(#paint3_linear_756_25721)"/>
<path style="mix-blend-mode:multiply" fill-rule="evenodd" clip-rule="evenodd" d="M103.324 177.215C103.324 177.215 112.384 190.581 124.368 201.435C136.352 212.29 138.115 219.57 138.115 219.57C138.115 219.57 160.771 210.092 176.938 187.657C193.105 165.223 103.324 177.215 103.324 177.215Z" fill="url(#paint4_linear_756_25721)"/>
<path style="mix-blend-mode:screen" fill-rule="evenodd" clip-rule="evenodd" d="M39.6088 207.396C29.5197 198.95 21.2466 188.548 15.2889 176.817C11.4897 169.321 8.68934 161.36 6.95948 153.137C6.94242 153.137 6.9424 153.089 6.9424 153.054C5.56813 146.468 4.87439 139.757 4.87213 133.029C4.87364 107.298 15.096 82.6209 33.2905 64.4263C51.4851 46.2317 76.1618 36.0094 101.893 36.0079C104.011 36.0079 106.099 36.0761 108.186 36.2098C114.651 36.6249 121.059 37.6901 127.31 39.3891C119.573 36.8577 111.547 35.3164 103.423 34.8021C101.338 34.6685 99.251 34.6002 97.1296 34.6002C84.388 34.5957 71.7705 37.1023 59.9982 41.9766C48.2259 46.851 37.5295 53.9975 28.5206 63.0078C19.5116 72.0181 12.3666 82.7155 7.494 94.4885C2.6214 106.262 0.116706 118.879 0.123059 131.621C0.123747 138.35 0.817503 145.06 2.19333 151.647C2.18888 151.676 2.19493 151.706 2.21041 151.732C3.93769 159.957 6.73813 167.919 10.5398 175.415C16.6999 187.547 25.334 198.253 35.8854 206.843C46.4368 215.433 58.6713 221.717 71.8001 225.289C60.0237 221.439 49.0955 215.365 39.6088 207.396Z" fill="url(#paint5_radial_756_25721)"/>
<path style="mix-blend-mode:multiply" opacity="0.4" fill-rule="evenodd" clip-rule="evenodd" d="M119.723 37.259C114.375 35.9781 108.929 35.1561 103.442 34.802C102.356 34.7196 101.272 34.6797 100.186 34.6371C102.501 35.9282 104.651 38.2003 105.182 40.5351C106.064 44.5305 107.352 48.236 108.091 52.2286C108.828 56.1615 108.683 61.0443 106.903 64.599C105.814 66.8158 104.383 68.8474 102.663 70.6192C101.394 71.9103 100.308 72.6269 99.4067 74.2223C98.5052 75.8176 97.6464 77.2964 96.6226 78.7723C95.1069 80.9848 93.5087 83.3394 91.7683 85.367C91.154 86.1035 90.4772 86.6154 89.9255 87.4771C89.2288 88.5406 88.9018 89.5445 88.1425 90.3834C86.4021 92.3285 83.7005 93.4148 81.3032 94.2964C78.3219 95.444 75.4214 96.7912 72.6212 98.3289C68.5034 100.502 65.125 103.286 60.3134 103.408C58.7152 103.451 57.0573 103.223 55.4591 103.368C53.4685 103.53 51.6314 104.506 49.6635 104.864C47.9573 105.191 46.2226 105.538 44.5021 105.825C41.6782 106.254 39.3435 107.218 36.6192 107.873C33.0759 108.754 29.3704 108.529 25.8129 109.01C22.5966 109.442 19.8125 109.829 16.6161 109.053C11.6822 107.824 9.04035 105.489 10.0755 100.237C10.7722 96.7961 10.5276 94.177 8.76448 91.5351C4.84572 100.13 2.23016 109.261 1.00391 118.628C3.26458 119.532 5.64352 120.107 8.06777 120.334C15.2568 121.07 22.9976 117.854 29.5723 115.397C32.9308 114.129 36.349 112.286 39.9748 111.877C43.7826 111.467 47.1439 111.936 50.9517 110.995C64.0786 107.759 77.0206 103.172 88.734 96.2302C93.5883 93.3637 95.7382 89.2658 99.1166 85.1111C102.088 81.4853 105.424 78.4737 108.967 75.4423C112.448 72.4734 115.522 69.5244 117.59 65.3668C119.779 60.9846 121.645 56.1729 122.649 51.3613C123.715 46.2908 122.404 41.3967 119.723 37.259ZM119.068 50.4484C118.861 51.5319 118.719 52.7007 118.392 53.7244C117.538 56.3236 115.994 59.0081 113.557 60.3788C113.004 60.6851 112.353 60.7646 111.742 60.6007C111.131 60.4368 110.607 60.0423 110.281 59.5001C109.934 58.8859 109.934 58.1067 109.809 57.4299C109.546 56.1087 109.417 54.7644 109.422 53.4173C109.466 50.1566 109.336 46.8959 109.033 43.649C109.38 45.5116 108.95 40.8848 111.859 39.6137C113.23 38.9994 115.298 39.5539 116.344 40.6175C117.655 41.9484 117.962 44.2007 118.451 45.941C118.884 47.4994 119.353 48.8104 119.068 50.4484Z" fill="url(#paint6_linear_756_25721)"/>
<path style="mix-blend-mode:multiply" opacity="0.4" fill-rule="evenodd" clip-rule="evenodd" d="M105.02 205.328C104.735 205.371 104.468 205.431 104.201 205.451L106.126 205.636C105.881 205.576 105.472 205.431 105.02 205.328ZM105.02 205.328C104.735 205.371 104.468 205.431 104.201 205.451L106.126 205.636C105.881 205.576 105.472 205.431 105.02 205.328ZM191.319 108.239C191.277 110.779 190.56 113.296 190.5 115.858C190.438 119.256 189.863 121.898 188.985 125.174C188.371 127.426 187.222 129.087 186.465 131.257C185.612 133.757 184.375 135.887 183.107 138.179C180.587 142.766 178.068 147.353 176.984 152.554C176 157.246 175.795 161.196 173.461 165.499C171.228 169.633 167.85 173.074 165.453 177.09C164.315 179.015 163.55 178.913 161.85 180.118C159.944 181.472 158.204 183.602 156.361 185.095C152.38 188.269 148.763 190.461 143.951 192.264C141.006 193.436 137.944 194.287 134.817 194.804C132.729 195.131 130.682 194.804 128.612 195.151C125.336 195.682 122.222 196.666 119.071 197.69C113.889 199.371 108.606 200.332 103.43 201.93C99.8242 203.036 96.3036 203.69 92.638 204.47C90.4057 204.939 88.6027 206.147 86.2879 205.678C83.9731 205.209 81.826 204.407 79.5311 203.688C76.602 202.786 74.1849 202.726 71.0311 202.726C66.8337 202.726 61.9595 203.361 57.8246 202.561C53.1552 201.66 48.5056 200.412 43.8362 199.433C41.0095 198.842 38.8596 197.673 36.2803 196.464C33.8631 195.327 31.2639 195.011 28.7443 194.212C26.0825 193.373 23.5203 192.122 20.7988 191.448C24.9531 196.773 29.6624 201.64 34.8471 205.968C48.9409 217.831 66.1393 225.406 84.4053 227.797C86.8823 228.104 89.4018 228.366 91.9413 228.474H91.9612C97.4496 227.225 102.816 225.607 108.344 223.907C117.541 221.04 125.486 215.489 134.68 212.788C138.01 211.837 141.25 210.6 144.366 209.091C146.721 207.925 149.22 207.618 151.595 206.594C160.126 202.968 166.564 194.676 170.364 186.545C172.084 182.848 173.742 178.679 176.836 175.915C178.104 174.778 179.62 173.765 180.726 172.474C181.975 171.052 182.814 169.301 183.92 167.765C185.865 165.021 187.751 162.257 189.696 159.493C189.939 159.175 190.158 158.84 190.35 158.489C195.061 142.109 195.387 124.779 191.294 108.234L191.319 108.239ZM102.31 206.025C102.657 205.8 103.231 205.328 103.598 205.226C103.965 205.124 104.522 205.206 105.02 205.328C105.736 205.226 106.442 205.144 107.13 205.431C107.519 205.616 108.267 205.963 108.421 206.415C108.574 206.867 108.358 207.111 108.071 207.396C107.704 207.766 107.417 207.765 106.905 207.868C105.852 208.116 104.769 208.212 103.689 208.152C103.035 208.09 102.051 208.05 101.641 207.436C101.232 206.821 101.826 206.352 102.318 206.025H102.31ZM108.677 218.68C108.122 219.47 107.461 220.18 106.712 220.79C105.975 221.359 105.156 221.711 104.357 222.163C102.392 223.267 100.376 224.456 98.1521 225.03C97.2705 225.255 96.3918 225.215 95.4704 225.275C94.3642 225.377 93.2778 225.397 92.1716 225.42C90.8606 225.439 89.5923 225.704 88.2814 225.786C86.9704 225.869 85.6793 225.889 84.3712 225.971C82.2775 226.094 80.1818 225.767 78.2258 225.01C76.3284 224.342 74.5151 223.455 72.8226 222.368C71.6538 221.589 70.6529 220.483 69.649 219.499C68.7057 218.66 67.9457 217.636 67.4167 216.49C67.2319 216.061 67.0271 215.609 67.1323 215.139C67.1721 214.912 67.2745 214.73 67.2745 214.667C67.6061 214.391 67.971 214.157 68.3608 213.971C69.0675 213.684 69.8133 213.504 70.5732 213.439C72.3534 213.191 74.2986 213.501 76.0816 213.644C77.0959 213.759 78.1204 213.753 79.133 213.624C80.5307 213.37 81.9123 213.035 83.2707 212.62C86.5051 211.715 89.8054 211.064 93.1414 210.675C96.4999 210.305 100.02 209.935 103.399 210.51C104.67 210.714 106.206 211.078 107.312 211.821C108.133 212.423 108.794 213.218 109.237 214.136C110.016 215.629 109.689 217.392 108.688 218.68H108.677ZM134.379 210.265C133.784 210.959 132.926 211.371 132.186 211.883C131.162 212.6 130.079 213.171 129.013 213.786C128.138 214.298 127.236 214.764 126.311 215.179C125.39 215.609 124.445 216.032 123.524 216.51C122.503 216.992 121.449 217.402 120.37 217.739C119.594 218.023 118.752 218.373 117.913 218.231C117.196 218.116 116.527 217.796 115.988 217.309C115.252 216.53 115.374 215.691 115.621 215.344C115.621 214.627 115.417 213.604 115.641 212.907C115.783 212.498 116.275 211.883 116.494 211.485C117.347 209.927 118.585 208.801 119.876 207.572C121.013 206.486 122.085 205.667 123.601 205.135C125.307 204.566 127.247 204.418 129.004 204.194C130.929 203.969 134.185 203.824 135.047 206.036C135.351 206.731 135.451 207.498 135.334 208.247C135.217 208.996 134.889 209.696 134.387 210.265H134.379ZM106.129 205.636C105.884 205.576 105.475 205.431 105.023 205.328C104.738 205.371 104.471 205.431 104.204 205.451L106.129 205.636Z" fill="url(#paint7_linear_756_25721)"/>
<path style="mix-blend-mode:multiply" opacity="0.4" fill-rule="evenodd" clip-rule="evenodd" d="M183.575 87.5144V87.904C183.45 90.5856 182.367 92.4284 181.403 94.8655C180.623 96.7816 179.727 98.6486 178.721 100.456C177.015 103.57 176.221 106.499 174.973 109.841C173.028 115.065 172.044 120.408 169.001 125.16C166.257 129.4 165.623 134.601 163.39 139.126C160.871 144.185 157.02 147.811 152.885 151.496C151.043 153.154 149.507 155.142 147.846 156.942C146.086 158.847 144.718 161.304 142.605 162.82C138.038 166.139 133.042 169.005 128.577 172.506C125.892 174.596 123.99 177.38 121.041 179.121C118.092 180.861 114.896 182.112 111.969 183.892C109.328 185.511 106.725 187.251 103.859 188.42C100.583 189.731 97.8586 189.341 94.5002 189.506C90.772 189.668 86.9215 190.644 83.4095 191.861C80.5003 192.884 78.0631 193.928 75.0942 192.884C73.1292 192.188 71.3462 190.894 69.2788 190.467C64.4671 189.483 58.9787 190.467 54.0845 190.345C50.254 190.243 46.0367 189.361 42.2886 188.605C38.5917 187.888 35.5915 185.306 32.0283 184.262C27.6261 182.971 22.4846 184.077 18.2246 182.399C16.4843 181.723 14.8264 180.329 13.2908 179.368L12.3068 178.754C11.7125 177.687 11.1408 176.604 10.5664 175.518C11.6101 175.947 12.6538 176.419 13.7202 176.939C19.2911 179.601 26.2327 179.192 32.233 180.235C38.9898 181.424 45.7494 183.184 52.5688 183.963C55.3251 184.264 58.1064 184.257 60.8613 183.944C64.7117 183.514 68.7043 183.574 72.4951 182.92C79.0869 181.751 85.5195 178.64 92.3588 179.507C93.6271 179.672 95.0405 180.36 96.3401 180.326C98.2454 180.267 99.5564 178.62 101.092 177.645C103.794 175.938 106.64 176.271 109.018 174.042C111.352 171.849 113.932 170.436 116.778 169.002C124.192 165.234 130.192 159.112 136.008 153.296C140.882 148.442 145.611 143.301 148.95 137.24C152.226 131.269 151.572 124.196 154.029 118.011C155.812 113.586 157.305 109.428 160.194 105.538C161.584 103.675 163.285 102.077 164.761 100.297C166.336 98.3918 167.301 96.3158 168.506 94.1944C169.837 91.817 171.518 89.6273 172.584 87.1077C173.585 84.6905 173.506 82.5577 173.463 80.0438C173.423 77.2768 173.463 74.4729 173.463 71.7087C177.347 76.631 180.734 81.9253 183.575 87.5144Z" fill="url(#paint8_linear_756_25721)"/>
<path style="mix-blend-mode:multiply" opacity="0.4" fill-rule="evenodd" clip-rule="evenodd" d="M168.176 65.5206C167.152 64.4343 166.128 63.3707 165.065 62.347C157.622 55.0442 149.052 48.9864 139.684 44.4057C139.44 44.2834 139.192 44.181 138.948 44.0587C137.526 43.3819 136.121 42.7477 134.682 42.1335C132.737 41.3145 130.769 40.5552 128.764 39.8812C129.286 40.1985 129.826 40.4834 130.382 40.7344C131.588 41.3486 132.572 41.7581 133.411 42.8444C134.25 43.9307 134.6 44.7071 134.662 46.0607C134.721 47.3523 134.871 48.6381 135.112 49.9083C135.316 51.0771 135.891 52.1834 136.135 53.3493C136.236 54.0289 136.387 54.7 136.588 55.357C137.135 56.9634 137.599 58.5969 137.978 60.2511C138.592 63.2428 136.997 65.7197 135.931 68.444C134.253 72.7637 133.186 77.1459 131.949 81.6106C130.965 85.134 129.04 88.6148 126.378 91.1543C123.779 93.6739 119.929 94.2455 117.594 96.9698C115.546 99.3671 113.027 101.639 110.141 102.99C106.774 104.551 103.296 105.858 99.7352 106.903C97.1957 107.66 94.5339 107.722 91.9745 108.396C88.8009 109.195 85.8917 110.793 82.9029 112.093C79.7293 113.464 76.7575 115.221 73.564 116.597C70.3704 117.974 67.3589 119.791 64.1653 121.102C62.6069 121.736 60.9689 122.043 59.3935 122.598C56.1175 123.735 52.941 125.834 49.4602 126.244C48.2516 126.386 47.0231 126.673 45.8344 126.673C44.8989 126.665 43.9695 126.825 43.0902 127.145C40.0616 128.331 38.1961 131.752 34.7153 131.772C31.5217 131.772 28.368 131.649 25.1915 132.016C23.6559 132.201 22.1203 132.099 20.5846 132.119C20.1353 132.119 19.541 132.224 19.0888 132.039C18.5769 131.834 18.0054 131.342 17.4935 131.055C16.3493 130.391 15.2545 129.645 14.2175 128.823C12.2098 127.267 9.54801 128.126 7.23318 127.657C6.53646 127.512 5.51271 127.594 4.89846 127.247C3.47658 126.394 1.66226 124.625 0.496321 123.641C0.248913 126.263 0.146543 128.945 0.146543 131.63C0.14143 136.234 0.470263 140.833 1.13047 145.391C1.41485 147.501 1.78456 149.588 2.21681 151.647C2.21383 151.675 2.22083 151.703 2.23667 151.726C2.84511 154.659 3.60445 157.557 4.51168 160.411C5.70525 164.325 7.15588 168.155 8.85411 171.877H8.87404C11.5159 172.31 14.2402 172.657 16.902 172.267C20.6899 171.715 24.4579 171.129 28.3083 171.263C31.9142 171.428 35.2727 172.657 38.7933 173.254C42.7461 173.908 46.861 174.442 50.8764 174.707C54.542 174.932 58.1877 175.239 61.8335 175.648C64.5777 175.978 67.3219 176.501 70.0804 176.695C77.2068 177.187 84.1684 175.321 91.1725 174.585C94.6732 174.215 98.1569 173.336 101.595 172.594C103.705 172.145 105.753 171.593 107.618 170.444C110.075 168.908 111.631 166.554 113.823 164.691C116.238 162.621 118.757 160.616 121.277 158.691C123.427 157.053 125.454 155.278 127.706 153.817C129.427 152.679 131.147 151.624 132.765 150.356C135.939 147.856 138.453 144.97 141.078 141.938C144.743 137.673 146.259 131.76 147.735 126.477C149.066 121.622 149.987 116.771 152.649 112.409C153.961 110.231 154.942 107.871 155.558 105.404C155.948 103.889 156.09 102.188 156.787 100.755C157.893 98.4201 160.063 96.7423 161.394 94.5298C162.437 92.7895 163.606 91.1714 164.343 89.2461C165.795 85.5331 166.844 81.6747 167.471 77.7374C167.92 74.7685 168.893 72.0499 169.805 69.2061C169.948 68.7341 170.09 68.2648 170.215 67.7842C169.527 67.0164 168.853 66.2571 168.176 65.5206ZM41.9129 131.809C42.1176 131.297 45.7435 129.886 46.2952 129.721C46.2588 129.75 46.2172 129.771 46.1728 129.784L43.7983 130.808C46.4174 129.926 51.1495 132.588 48.8545 135.599C48.1806 136.478 46.4174 136.91 45.3738 137.073C44.3301 137.235 43.6675 136.91 43.039 136.009C42.5072 135.23 42.1176 133.879 41.9754 132.958C41.9242 132.628 41.7821 132.139 41.9243 131.809H41.9129ZM13.0174 157.94C10.1907 157.164 8.3081 156.117 6.56772 153.743C5.43021 152.207 4.45764 150.671 4.15052 148.786C3.90311 147.23 3.29739 145.837 3.65855 144.282C3.96898 142.992 4.42203 141.742 5.00934 140.553C5.64634 139.265 6.58765 137.934 6.67012 137.502C9.49682 137.257 12.1358 137.155 14.9625 137.135C18.1162 137.115 21.27 137.525 24.4436 137.545C25.8655 137.565 27.313 137.627 28.7093 137.32C30.1056 137.013 31.4137 136.683 32.8071 136.467C35.2243 136.057 37.4766 135.77 39.7488 136.979C41.4551 137.9 42.2684 139.805 43.0675 141.529C43.5168 142.513 43.7841 143.207 43.7841 144.313C43.8009 145.644 43.7248 146.974 43.5566 148.294C43.4969 148.786 43.4343 149.298 43.3518 149.79C41.3612 154.132 35.8983 155.566 31.8232 157.081C25.7931 159.28 19.2343 159.58 13.0288 157.94H13.0174ZM56.6464 167.239C55.3753 170.433 50.0318 171.579 46.9606 171.704C45.4448 171.764 43.622 171.457 42.2911 170.657C41.4925 170.127 40.8269 169.419 40.346 168.59C39.9962 168.021 39.2084 166.952 37.6415 167.424C37.9721 165.678 38.5155 163.979 39.2597 162.365C39.9564 161.586 40.6816 160.849 41.4494 160.153C42.8839 158.853 44.4813 157.745 46.2013 156.857C48.8858 155.503 51.6897 156.507 54.2719 157.71C56.0122 158.509 57.3631 159.7 57.7328 161.6C58.165 163.756 57.4484 165.294 56.6464 167.239ZM92.566 166.625C91.5821 168.98 90.2113 169.511 88.0387 170.606C85.5021 171.897 82.4081 172.858 79.5416 172.881C78.0657 172.904 76.6978 172.207 75.3641 171.673C74.4825 171.326 73.5213 171.104 72.8246 170.444C70.8993 168.684 70.5922 166.105 71.7809 166.636C71.0471 165.094 70.5762 163.44 70.3875 161.742C70.7109 161.476 70.9344 161.108 71.0217 160.699C72.0454 158.773 73.9507 157.175 75.8333 156.109C77.5346 155.163 79.4274 154.613 81.3707 154.499C83.3141 154.386 85.2579 154.713 87.0576 155.455C88.6331 156.109 89.6369 156.908 90.8256 158.116C91.3773 158.685 92.1565 159.223 92.5859 159.919C93.6551 161.708 93.331 164.822 92.5689 166.625H92.566ZM103.603 166.255C103.051 166.705 101.987 167.586 101.271 167.444C100.676 167.319 99.5645 166.113 99.7323 165.476L99.3455 165.089C100.199 163.756 101.052 162.405 101.905 161.034C103.216 161.603 104.382 161.526 105.181 162.959C105.92 164.29 104.589 165.462 103.605 166.255H103.603ZM131.065 101.85C129.981 103.303 128.548 104.676 126.867 105.373C124.757 106.252 121.934 106.909 121.831 103.732C121.724 102.021 122.092 100.313 122.895 98.7983C124.103 96.3612 125.249 95.747 127.584 94.5327C128.406 94.6292 129.215 94.8073 130.001 95.0645C131.312 95.4967 132.561 96.6627 132.746 98.0561C132.953 99.515 131.909 100.763 131.068 101.85H131.065ZM156.684 88.0461C155.661 91.2424 154.29 94.3336 152.877 97.3651C151.156 101.093 150.951 104.921 150.09 108.854C149.601 111.066 148.554 113.503 146.393 114.362C145.452 114.732 144.53 114.647 143.484 114.647C142.542 114.647 140.802 114.994 140.864 115.813C140.296 114.277 139.369 112.21 138.999 110.469C138.609 108.544 138.447 106.474 138.146 104.551C137.819 102.524 137.674 100.496 137.469 98.4457C137.307 96.5432 136.917 94.5355 136.937 92.6103C137.02 86.263 140.52 78.3574 146.481 75.4283C148.304 74.5496 150.104 74.14 152.112 74.4671C154.446 74.814 155.777 75.4482 156.824 77.6805C158.223 80.7575 157.671 84.8923 156.687 88.0461H156.684Z" fill="url(#paint9_linear_756_25721)"/>
<path style="mix-blend-mode:multiply" opacity="0.4" fill-rule="evenodd" clip-rule="evenodd" d="M128.447 94.0831L127.594 94.5324C127.107 94.452 126.613 94.432 126.121 94.4727L128.447 94.0831Z" fill="url(#paint10_linear_756_25721)"/>
<path style="mix-blend-mode:multiply" opacity="0.4" fill-rule="evenodd" clip-rule="evenodd" d="M6.67914 137.502C6.53411 137.525 6.37197 137.525 6.20703 137.544C6.59378 137.308 6.73886 137.308 6.67914 137.502Z" fill="url(#paint11_linear_756_25721)"/>
<path fill-rule="evenodd" clip-rule="evenodd" d="M115.742 36.3918L132.773 29.6805C132.773 29.6805 159.872 40.2025 176.943 63.2682L178.009 77.9933C178.009 77.9933 145.724 65.6172 115.742 36.3918Z" fill="url(#paint12_linear_756_25721)"/>
<path fill-rule="evenodd" clip-rule="evenodd" d="M177.64 186.221C177.64 186.221 163.367 201.703 152.58 205.158L143.725 207.859C143.725 207.859 103.326 193.325 101.114 168.047C99.2513 146.804 135.586 114.2 145.414 110.318C155.242 106.436 166.759 108.638 166.759 108.638L177.64 186.221Z" fill="url(#paint13_linear_756_25721)"/>
<path fill-rule="evenodd" clip-rule="evenodd" d="M166.759 108.618C158.228 105.91 121.412 122.874 111.525 160.92C109.52 168.641 128.198 197.972 150.51 205.144C157.904 207.524 191.867 177.863 193.286 157.767C194.705 137.67 179.414 112.636 166.759 108.618Z" fill="url(#paint14_linear_756_25721)"/>
<path fill-rule="evenodd" clip-rule="evenodd" d="M113.901 165.374C119.154 122.285 158.335 108.257 166.855 110.961C173.009 112.915 182.058 121.952 187.236 130.867C181.89 119.868 173.905 110.893 166.761 108.623C158.23 105.916 121.414 122.879 111.529 160.926C110.83 163.61 112.636 168.906 116.219 174.968C114.257 170.828 113.651 167.424 113.901 165.374Z" fill="url(#paint15_linear_756_25721)"/>
<path style="mix-blend-mode:multiply" fill-rule="evenodd" clip-rule="evenodd" d="M41.8599 211.531C41.8599 211.531 50.6414 214.747 57.0456 213.001C57.0456 213.001 59.5026 192.242 51.6766 178.947C43.8505 165.652 30.5901 185.738 30.5901 185.738L27.5586 198.45C27.5586 198.45 34.9382 207.339 41.8599 211.531Z" fill="url(#paint16_linear_756_25721)"/>
<path fill-rule="evenodd" clip-rule="evenodd" d="M49.477 208.184L55.1077 206.676C55.1077 206.676 57.8207 195.173 53.1171 182.195C47.7651 167.458 28.1517 156.444 25.2482 156.208C22.3447 155.972 19.4668 162.595 19.4668 162.595L49.477 208.184Z" fill="url(#paint17_linear_756_25721)"/>
<path fill-rule="evenodd" clip-rule="evenodd" d="M138.12 219.57L128.769 231.721C128.769 231.721 112.534 239.579 96.2395 235.771L84.418 227.808L138.12 219.57Z" fill="url(#paint18_linear_756_25721)"/>
<path fill-rule="evenodd" clip-rule="evenodd" d="M15.2386 171.718C16.214 167.248 20.1527 159.822 23.6846 159.097C27.2166 158.372 43.8952 174.209 47.7542 184.407C51.6132 194.605 49.6681 205.897 49.4776 208.201C49.287 210.504 30.3618 204.083 20.8124 196.237C11.2631 188.391 15.2386 171.718 15.2386 171.718Z" fill="url(#paint19_linear_756_25721)"/>
<path fill-rule="evenodd" clip-rule="evenodd" d="M47.7543 184.39C43.8953 174.201 27.2138 158.364 23.6847 159.08C22.3225 159.365 20.9035 160.639 19.6152 162.354C20.4058 161.634 21.2106 161.125 21.9983 160.966C25.5302 160.241 42.5217 172.844 46.3125 183.059C50.9677 195.606 48.4083 204.672 47.9505 208.616C48.869 208.676 49.4463 208.553 49.4776 208.175C49.6681 205.88 51.6133 194.579 47.7543 184.39Z" fill="url(#paint20_linear_756_25721)"/>
<path fill-rule="evenodd" clip-rule="evenodd" d="M100.44 141.113C96.251 139.154 101.009 120.772 105.126 116.774C109.244 112.775 119.974 122.12 121.396 129.764C122.817 137.408 110.035 145.604 100.44 141.113Z" fill="url(#paint21_linear_756_25721)"/>
<path fill-rule="evenodd" clip-rule="evenodd" d="M104.631 139.712C101.272 138.088 105.08 122.837 108.382 119.521C111.683 116.205 120.274 123.957 121.415 130.299C122.555 136.64 112.317 143.437 104.631 139.712Z" fill="url(#paint22_linear_756_25721)"/>
<path fill-rule="evenodd" clip-rule="evenodd" d="M132.773 29.6805C132.773 29.6805 133.626 40.0176 145.254 52.6951C156.882 65.3726 176.937 63.2682 176.937 63.2682L178.003 77.9933C178.003 77.9933 135.372 59.1505 115.725 36.3918L132.773 29.6805Z" fill="url(#paint23_linear_756_25721)"/>
<path fill-rule="evenodd" clip-rule="evenodd" d="M166.204 121.307C165.721 121.708 164.666 122.464 165.502 123.047C165.729 123.206 165.925 123.124 166.164 123.192C166.352 123.246 166.397 123.391 166.616 123.309C167.296 123.05 167.023 121.119 166.255 121.506L166.204 121.307Z" fill="#0EDBFF"/>
<path fill-rule="evenodd" clip-rule="evenodd" d="M206.409 103.991C205.926 104.392 204.871 105.148 205.707 105.734C205.934 105.89 206.13 105.808 206.372 105.876C206.557 105.93 206.605 106.075 206.821 105.993C207.501 105.734 207.228 103.803 206.46 104.193L206.409 103.991Z" fill="#0EDBFF"/>
<path fill-rule="evenodd" clip-rule="evenodd" d="M188.753 175.395C188.269 175.796 187.214 176.552 188.05 177.138C188.278 177.295 188.474 177.212 188.713 177.28C188.901 177.334 188.946 177.479 189.165 177.397C189.845 177.138 189.572 175.207 188.804 175.597L188.753 175.395Z" fill="#0EDBFF"/>
<path fill-rule="evenodd" clip-rule="evenodd" d="M169.721 128.328C170.011 128.16 170.338 128.067 170.673 128.058C170.747 128.476 171.131 129.295 170.534 129.622C170.033 129.906 170.184 128.999 169.945 128.791L169.721 128.328Z" fill="#0EDBFF"/>
<path fill-rule="evenodd" clip-rule="evenodd" d="M105.894 132.63C106.534 132.881 107.168 133.148 107.799 133.424C108.001 133.245 108.308 133.279 108.547 133.12C108.876 132.867 109.122 132.521 109.252 132.127C109.431 131.584 109.156 131.14 108.905 130.728C108.74 130.444 108.581 130.045 108.337 129.858C108.052 129.636 107.464 129.724 107.154 129.872C106.399 130.387 105.879 131.181 105.709 132.079C105.728 132.306 105.797 132.526 105.912 132.723C106.028 132.92 106.185 133.088 106.374 133.216L105.894 132.63Z" fill="#0EDBFF"/>
<path fill-rule="evenodd" clip-rule="evenodd" d="M15.4447 180.992C16.0845 181.245 16.7215 181.509 17.35 181.785C17.5519 181.606 17.859 181.64 18.0978 181.481C18.4277 181.229 18.6736 180.883 18.8031 180.488C18.9822 179.948 18.7064 179.504 18.4562 179.089C18.2912 178.805 18.132 178.407 17.8874 178.219C17.603 178 17.0144 178.085 16.7044 178.219C16.3301 178.449 16.0162 178.765 15.7887 179.14C15.5038 179.517 15.3215 179.961 15.2598 180.429C15.2783 180.656 15.3477 180.876 15.4629 181.073C15.5781 181.27 15.7361 181.438 15.9252 181.566L15.4447 180.992Z" fill="#0EDBFF"/>
<path fill-rule="evenodd" clip-rule="evenodd" d="M191.766 206.227C192.407 206.479 193.041 206.744 193.668 207.021C193.873 206.842 194.18 206.876 194.419 206.716C194.748 206.463 194.993 206.117 195.124 205.724C195.304 205.181 195.025 204.74 194.778 204.325C194.613 204.04 194.45 203.642 194.209 203.455C193.967 203.267 193.336 203.321 193.029 203.455C192.654 203.684 192.34 204 192.113 204.376C191.827 204.751 191.645 205.194 191.584 205.661C191.603 205.889 191.672 206.109 191.787 206.306C191.903 206.503 192.06 206.671 192.249 206.799L191.766 206.227Z" fill="#0EDBFF"/>
<path fill-rule="evenodd" clip-rule="evenodd" d="M179.086 188.712C179.727 188.966 180.361 189.231 180.989 189.506C181.194 189.327 181.501 189.361 181.74 189.201C182.068 188.948 182.314 188.602 182.445 188.209C182.624 187.666 182.345 187.225 182.098 186.81C181.933 186.525 181.771 186.127 181.529 185.94C181.245 185.718 180.656 185.806 180.349 185.94C179.974 186.169 179.66 186.485 179.433 186.861C179.148 187.236 178.965 187.679 178.904 188.146C178.923 188.374 178.993 188.594 179.108 188.791C179.223 188.988 179.381 189.156 179.57 189.284L179.086 188.712Z" fill="#0EDBFF"/>
<path fill-rule="evenodd" clip-rule="evenodd" d="M3.09912 66.4816C4.72007 67.1186 6.32583 67.7888 7.91644 68.4921C8.43116 68.0371 9.2104 68.1253 9.81613 67.7215C10.5953 67.2039 11.3006 66.1119 11.5992 65.2076C12.0542 63.8341 11.3517 62.7108 10.7233 61.6643C10.3052 60.9647 9.89861 59.9353 9.25876 59.4575C8.50516 58.8888 7.0463 59.1219 6.26427 59.4945C5.29739 59.9523 4.58925 60.9476 3.94656 61.8321C3.34368 62.6596 2.63559 64.0417 2.60431 65.0853C2.57303 66.2228 3.47164 67.3973 4.29064 67.9717L3.09912 66.4816Z" fill="#0EDBFF"/>
<path fill-rule="evenodd" clip-rule="evenodd" d="M110.016 7.63297C111.637 8.26997 113.248 8.94016 114.85 9.64351C115.365 9.18851 116.141 9.27667 116.75 8.87285C117.529 8.35529 118.231 7.26328 118.533 6.35896C118.988 4.98543 118.285 3.86214 117.657 2.81563C117.236 2.11607 116.832 1.08663 116.19 0.608873C115.439 0.0401205 113.98 0.273308 113.195 0.645841C112.228 1.10369 111.52 2.099 110.877 2.98341C110.275 3.81095 109.567 5.19302 109.538 6.23668C109.504 7.37419 110.391 8.54866 111.224 9.1231L110.016 7.63297Z" fill="#0EDBFF"/>
<path fill-rule="evenodd" clip-rule="evenodd" d="M124.229 148.715C123.957 148.904 123.729 149.149 123.561 149.434C123.822 149.764 123.95 150.074 124.397 150.202C124.482 150.237 124.575 150.247 124.666 150.232C124.757 150.217 124.842 150.177 124.911 150.117C125.099 149.935 124.997 149.733 125.048 149.548C125.17 149.113 125.292 148.999 125.048 148.604C124.9 148.362 124.795 148.266 124.536 148.268C124.354 148.268 123.967 148.317 123.865 148.521L124.229 148.715Z" fill="#0EDBFF"/>
<path fill-rule="evenodd" clip-rule="evenodd" d="M125.681 158.859C125.633 158.972 125.141 160.224 125.781 159.862C126.102 159.68 125.988 159.186 125.781 159.046L125.815 158.921L125.681 158.859Z" fill="#0EDBFF"/>
<path fill-rule="evenodd" clip-rule="evenodd" d="M157.71 177.334C157.39 177.737 157.159 178.203 157.033 178.702C157.256 178.873 157.531 178.963 157.812 178.955C158.185 178.941 158.205 178.819 158.213 178.461C158.213 178.176 158.344 177.943 158.273 177.664C158.202 177.386 157.918 177.096 157.588 177.272L157.71 177.334Z" fill="#0EDBFF"/>
<path fill-rule="evenodd" clip-rule="evenodd" d="M130.707 149.94C130.951 150.159 131.113 150.454 131.168 150.777C130.827 150.859 130.79 150.526 130.738 150.259C130.659 149.835 130.855 149.975 131.054 149.628L131.165 149.65L130.707 149.94Z" fill="#0EDBFF"/>
<path fill-rule="evenodd" clip-rule="evenodd" d="M161.415 122.521C161.145 122.709 160.918 122.954 160.75 123.238C160.912 123.437 160.832 123.806 161.208 123.772C161.472 123.752 161.691 123.471 161.819 123.252C161.942 123.026 162.004 122.772 161.998 122.515C161.998 122.376 161.998 121.776 161.751 122.171L161.415 122.521Z" fill="#0EDBFF"/>
<path fill-rule="evenodd" clip-rule="evenodd" d="M157.264 51.0658C157.595 50.9433 157.94 50.8603 158.29 50.8184C158.381 50.8184 158.501 50.8866 158.6 50.8951C158.93 50.9236 158.941 50.8496 159.101 51.117C159.193 51.2417 159.259 51.384 159.294 51.5351C159.329 51.6863 159.333 51.843 159.305 51.9957C159.115 53.2014 157.412 51.3871 158.006 50.9435L157.264 51.0658Z" fill="#0EDBFF"/>
<path fill-rule="evenodd" clip-rule="evenodd" d="M26.9714 53.2156C26.4339 53.3805 25.6121 53.4402 25.5495 54.0687C25.4926 54.6062 26.377 55.1635 26.8235 55.3086C27.6197 55.5673 28.9193 55.6953 29.3118 54.791C29.5421 54.2649 29.3687 53.2411 29.0445 52.7776C28.379 51.8278 27.0169 52.2089 25.9789 52.6184L26.9714 53.2156Z" fill="#0EDBFF"/>
<path fill-rule="evenodd" clip-rule="evenodd" d="M165.186 178.66C164.945 176.803 164.618 174.963 166.258 173.993C167.157 173.464 168.818 173.277 169.654 173.905C170.271 174.363 170.808 175.21 171.19 175.847C171.758 176.786 171.608 176.789 171.312 177.647C170.632 179.618 170.174 180.918 168.209 180.921C165.619 180.921 165.22 178.91 165.186 176.41V178.66Z" fill="#0EDBFF"/>
<path fill-rule="evenodd" clip-rule="evenodd" d="M166.338 126.445C167.053 126.249 167.698 125.855 168.198 125.308C167.677 124.986 166.543 124.318 166.338 125.293V126.445Z" fill="#0EDBFF"/>
<path fill-rule="evenodd" clip-rule="evenodd" d="M19.5625 173.709C20.2784 173.515 20.9238 173.12 21.4223 172.571C20.9019 172.25 19.7673 171.582 19.5625 172.571V173.709Z" fill="#0EDBFF"/>
<path fill-rule="evenodd" clip-rule="evenodd" d="M19.5625 189.309C20.2779 189.115 20.923 188.72 21.4223 188.172C20.9019 187.851 19.7673 187.182 19.5625 188.172V189.309Z" fill="#0EDBFF"/>
<path fill-rule="evenodd" clip-rule="evenodd" d="M129.304 133.509C130.023 132.627 131.058 131.018 132.361 131.899C133.117 132.414 133.333 133.771 132.611 134.311C131.94 134.811 131.326 134.954 130.569 135.164C130 135.323 129.13 134.942 129.304 134.086V133.509Z" fill="#0EDBFF"/>
<path fill-rule="evenodd" clip-rule="evenodd" d="M153.653 173.655C154.373 172.773 155.408 171.161 156.71 172.045C157.467 172.557 157.683 173.916 156.961 174.457C156.289 174.957 155.675 175.099 154.919 175.31C154.35 175.469 153.48 175.085 153.653 174.229V173.655Z" fill="#0EDBFF"/>
<path fill-rule="evenodd" clip-rule="evenodd" d="M149.985 40.6204C151.105 40.808 153.019 40.9047 152.894 42.4859C152.82 43.3959 151.757 44.2547 150.918 43.8907C150.153 43.5551 149.726 43.0916 149.172 42.5342C148.748 42.1105 148.657 41.172 149.487 40.9019L149.985 40.6204Z" fill="#0EDBFF"/>
<path fill-rule="evenodd" clip-rule="evenodd" d="M146 184.06C146.716 183.176 147.754 181.566 149.057 182.45C149.813 182.962 150.029 184.322 149.304 184.862C148.636 185.362 148.019 185.502 147.262 185.715C146.694 185.874 145.823 185.49 146 184.634V184.06Z" fill="#0EDBFF"/>
<path fill-rule="evenodd" clip-rule="evenodd" d="M112.81 132.19C111.888 132.759 110.341 133.495 110.185 134.749C110.091 135.511 110.444 135.958 111.129 136.288C111.452 136.431 111.802 136.505 112.156 136.505C112.509 136.505 112.859 136.431 113.182 136.288C114.035 135.864 114.996 135.15 115.375 134.266C115.505 133.993 115.566 133.693 115.553 133.392C115.54 133.091 115.453 132.797 115.301 132.537C115.131 132.149 114.829 131.834 114.448 131.649C113.273 131.243 112.568 132.397 111.698 132.918L112.81 132.19Z" fill="#0EDBFF"/>
<path fill-rule="evenodd" clip-rule="evenodd" d="M115.798 128.828C116.284 128.995 116.721 129.283 117.066 129.664C116.568 129.835 116.031 130.233 115.519 130.048C114.853 129.812 114.731 129.181 114.882 128.547C114.961 128.2 115.584 127.591 115.94 127.745C116.122 127.822 116.156 128.066 116.224 128.223C116.349 128.552 116.358 128.484 116.181 128.828H115.798Z" fill="#0EDBFF"/>
<path fill-rule="evenodd" clip-rule="evenodd" d="M141.161 123.292C138.729 125.422 136.443 127.97 135.155 131.018C134.498 132.571 135.664 132.648 137.074 132.375C139.804 131.84 142.554 131.084 145.253 130.384C146.851 129.974 149.146 129.13 150.255 127.773C151.108 126.733 151.461 124.93 151.273 123.63C151.009 121.799 149.706 121.085 148.046 120.624C144.246 119.575 138.852 123.676 137.444 127.165L141.161 123.292Z" fill="#0EDBFF"/>
<path fill-rule="evenodd" clip-rule="evenodd" d="M127.616 137.121C128.383 137.137 129.135 137.332 129.814 137.689C129.618 137.923 129.683 138.238 129.578 138.511C129.39 138.941 129.077 139.305 128.679 139.555C128.34 139.756 127.963 139.885 127.571 139.934C127.18 139.983 126.783 139.951 126.404 139.839C124.368 139.066 127.491 136.649 128.179 137.505L127.616 137.121Z" fill="#0EDBFF"/>
<path fill-rule="evenodd" clip-rule="evenodd" d="M13.9203 214.909C13.6478 215.097 13.4197 215.343 13.252 215.629C13.5136 215.958 13.6416 216.268 14.0881 216.396C14.1734 216.431 14.2666 216.442 14.3575 216.427C14.4483 216.411 14.5332 216.371 14.6027 216.311C14.7904 216.129 14.688 215.927 14.7392 215.742C14.8615 215.307 14.981 215.193 14.7392 214.798C14.5885 214.556 14.4862 214.46 14.2274 214.463C14.0426 214.463 13.6586 214.511 13.5563 214.716L13.9203 214.909Z" fill="#0EDBFF"/>
<path fill-rule="evenodd" clip-rule="evenodd" d="M15.3746 225.053C15.3262 225.166 14.8342 226.418 15.4741 226.057C15.7954 225.875 15.6817 225.38 15.4741 225.24L15.5082 225.115L15.3746 225.053Z" fill="#0EDBFF"/>
<path fill-rule="evenodd" clip-rule="evenodd" d="M20.3984 216.135C20.6423 216.353 20.8047 216.648 20.8591 216.971C20.5178 217.053 20.478 216.721 20.4297 216.453C20.3472 216.029 20.5463 216.169 20.7425 215.822L20.8562 215.845L20.3984 216.135Z" fill="#0EDBFF"/>
<path fill-rule="evenodd" clip-rule="evenodd" d="M17.3082 203.315C18.0752 203.332 18.8278 203.526 19.5064 203.884C19.3102 204.117 19.3757 204.433 19.2705 204.706C19.0807 205.135 18.768 205.498 18.3718 205.749C18.0326 205.951 17.6555 206.08 17.264 206.129C16.8725 206.178 16.4751 206.146 16.0968 206.034C14.0578 205.26 17.1831 202.843 17.8713 203.699L17.3082 203.315Z" fill="#0EDBFF"/>
<path fill-rule="evenodd" clip-rule="evenodd" d="M145.997 42.4178C146.688 42.8984 147.433 43.2709 147.956 43.9108C148.578 44.6114 149.138 45.3651 149.629 46.163C149.865 46.5839 150.436 47.5053 149.594 47.6219C148.682 47.747 147.066 46.547 146.404 46.0806C145.266 45.2786 144.174 44.5478 143.352 43.3932C142.937 42.8245 142.306 41.8035 142.727 41.1011C143.079 40.5125 143.58 40.4101 144.228 40.4243C144.822 40.4289 145.392 40.6586 145.824 41.067C146.068 41.2632 147.246 42.4661 146.85 42.7903L145.997 42.4178Z" fill="#0EDBFF"/>
<path fill-rule="evenodd" clip-rule="evenodd" d="M154.821 119.788C154.485 120.03 151.912 121.457 153.137 122.063C153.794 122.396 155.088 122.299 155.756 122.015C156.351 121.762 156.953 121.372 156.581 120.69C155.824 119.308 153.933 120.104 152.958 120.707L154.821 119.788Z" fill="#0EDBFF"/>
<path fill-rule="evenodd" clip-rule="evenodd" d="M173.326 35.6211C172.473 36.2297 166.032 39.8128 169.103 41.3626C170.756 42.1987 174 41.957 175.678 41.2432C177.171 40.6091 178.684 39.628 177.746 37.9132C175.852 34.4466 171.105 36.4458 168.645 37.9587L173.326 35.6211Z" fill="#0EDBFF"/>
<path fill-rule="evenodd" clip-rule="evenodd" d="M20.4922 182.174C20.7766 183.682 21.0609 185.331 22.3833 186.326C23.7426 187.361 25.281 186.943 26.6147 186.156C27.6044 185.587 28.54 184.95 29.5069 184.353C30.0757 184.006 30.5648 183.92 30.5875 183.113C30.616 182.26 29.8168 181.085 29.322 180.431C28.5946 179.532 27.6611 178.822 26.6006 178.361C24.5758 177.607 20.7111 178.361 20.7566 181.114L20.4922 182.174Z" fill="#0EDBFF"/>
<path fill-rule="evenodd" clip-rule="evenodd" d="M156.055 185.138C156.245 186.196 156.461 187.353 157.383 188.053C158.304 188.752 159.416 188.485 160.352 187.93C161.045 187.521 161.702 187.077 162.382 186.668C162.777 186.423 163.124 186.361 163.141 185.798C163.161 185.189 162.601 184.376 162.251 183.912C161.741 183.283 161.086 182.786 160.343 182.462C158.921 181.93 156.208 182.462 156.24 184.393L156.055 185.138Z" fill="#0EDBFF"/>
<path style="mix-blend-mode:screen" d="M175.308 193.376C184.679 189.495 189.129 178.752 185.247 169.381C181.366 160.011 170.623 155.561 161.252 159.442C151.882 163.324 147.432 174.067 151.313 183.437C155.195 192.808 165.938 197.258 175.308 193.376Z" fill="url(#paint24_radial_756_25721)"/>
<path style="mix-blend-mode:screen" d="M155.757 138.538C162.416 131.879 162.416 121.083 155.757 114.424C149.098 107.765 138.302 107.765 131.643 114.424C124.984 121.083 124.984 131.879 131.643 138.538C138.302 145.197 149.098 145.197 155.757 138.538Z" fill="url(#paint25_radial_756_25721)"/>
<path style="mix-blend-mode:screen" fill-rule="evenodd" clip-rule="evenodd" d="M154.598 50.7473C152.44 53.719 147.028 53.4688 142.512 50.1785C137.996 46.8883 136.082 41.8293 138.247 38.8604C140.411 35.8915 145.817 36.1389 150.333 39.4291C154.848 42.7194 156.748 47.7784 154.598 50.7473Z" fill="url(#paint26_radial_756_25721)"/>
<path style="mix-blend-mode:screen" d="M25.5408 200.15C35.6836 200.15 43.9059 191.928 43.9059 181.785C43.9059 171.642 35.6836 163.42 25.5408 163.42C15.3981 163.42 7.17578 171.642 7.17578 181.785C7.17578 191.928 15.3981 200.15 25.5408 200.15Z" fill="url(#paint27_radial_756_25721)"/>
<path fill-rule="evenodd" clip-rule="evenodd" d="M133.061 31.3696C133.061 31.3696 137.514 50.2835 150.038 57.4157C165.886 66.4361 176.943 63.2681 176.943 63.2681C176.943 63.2681 162.781 62.7676 149.685 53.8382C138.751 46.379 133.061 31.3696 133.061 31.3696Z" fill="url(#paint28_linear_756_25721)"/>
<path style="mix-blend-mode:multiply" opacity="0.4" fill-rule="evenodd" clip-rule="evenodd" d="M103.324 177.215L111.736 164.85C111.736 164.85 122.523 195.532 150.508 205.144L144.377 209.097C144.377 209.097 115.848 200.98 103.324 177.215Z" fill="url(#paint29_linear_756_25721)"/>
<path style="mix-blend-mode:multiply" fill-rule="evenodd" clip-rule="evenodd" d="M119.254 40.6433C119.254 40.6433 159.604 81.2608 188.642 99.313C188.642 99.313 185.832 88.2223 178.006 77.9848C178.009 77.9933 153.618 69.9767 119.254 40.6433Z" fill="url(#paint30_linear_756_25721)"/>
<path style="mix-blend-mode:screen" d="M75.0243 105.596C93.919 93.224 102.806 73.3749 94.8748 61.2613C86.9433 49.1477 65.1964 49.3568 46.3017 61.7283C27.407 74.0998 18.5196 93.9489 26.4511 106.063C34.3827 118.176 56.1296 117.967 75.0243 105.596Z" fill="url(#paint31_radial_756_25721)"/>
<defs>
<linearGradient id="paint0_linear_756_25721" x1="32.6928" y1="79.5686" x2="32.6928" y2="45.9667" gradientUnits="userSpaceOnUse">
<stop stop-color="#9A00B3"/>
<stop offset="1" stop-color="#7F72FF"/>
</linearGradient>
<linearGradient id="paint1_linear_756_25721" x1="25.2563" y1="81.2692" x2="37.8826" y2="42.7276" gradientUnits="userSpaceOnUse">
<stop stop-color="#5B008B"/>
<stop offset="1" stop-color="#8E00FF"/>
</linearGradient>
<radialGradient id="paint2_radial_756_25721" cx="0" cy="0" r="1" gradientUnits="userSpaceOnUse" gradientTransform="translate(37.0579 86.2429) scale(155.847 155.847)">
<stop offset="0.01" stop-color="#60DBFF"/>
<stop offset="0.09" stop-color="#60D5FF"/>
<stop offset="0.21" stop-color="#5FC4FF"/>
<stop offset="0.34" stop-color="#5DA9FF"/>
<stop offset="0.49" stop-color="#5A82FF"/>
<stop offset="0.64" stop-color="#5751FF"/>
<stop offset="0.68" stop-color="#5643FF"/>
<stop offset="0.74" stop-color="#563DF8"/>
<stop offset="0.83" stop-color="#552EE5"/>
<stop offset="0.93" stop-color="#5315C6"/>
<stop offset="1" stop-color="#5200AB"/>
</radialGradient>
<linearGradient id="paint3_linear_756_25721" x1="0.122881" y1="105.006" x2="139.686" y2="105.006" gradientUnits="userSpaceOnUse">
<stop offset="0.01" stop-color="#81E0FF"/>
<stop offset="0.32" stop-color="#82DDFF"/>
<stop offset="0.55" stop-color="#86D4FF"/>
<stop offset="0.75" stop-color="#8BC4FF"/>
<stop offset="0.94" stop-color="#94ADFF"/>
<stop offset="1" stop-color="#97A4FF"/>
</linearGradient>
<linearGradient id="paint4_linear_756_25721" x1="141.106" y1="219.57" x2="141.106" y2="174.013" gradientUnits="userSpaceOnUse">
<stop stop-color="#B8C2FF"/>
<stop offset="1" stop-color="#5B729C"/>
</linearGradient>
<radialGradient id="paint5_radial_756_25721" cx="0" cy="0" r="1" gradientUnits="userSpaceOnUse" gradientTransform="translate(26.243 65.583) scale(127.699 127.699)">
<stop stop-color="#FFFFD9"/>
<stop offset="1"/>
</radialGradient>
<linearGradient id="paint6_linear_756_25721" x1="1.00675" y1="77.5438" x2="123.021" y2="77.5438" gradientUnits="userSpaceOnUse">
<stop stop-color="#B8C2FF"/>
<stop offset="1" stop-color="#7D72B3"/>
</linearGradient>
<linearGradient id="paint7_linear_756_25721" x1="20.813" y1="168.365" x2="194.166" y2="168.365" gradientUnits="userSpaceOnUse">
<stop stop-color="#B8C2FF"/>
<stop offset="1" stop-color="#7D72B3"/>
</linearGradient>
<linearGradient id="paint8_linear_756_25721" x1="10.5693" y1="132.508" x2="183.575" y2="132.508" gradientUnits="userSpaceOnUse">
<stop stop-color="#B8C2FF"/>
<stop offset="1" stop-color="#7D72B3"/>
</linearGradient>
<linearGradient id="paint9_linear_756_25721" x1="0.126637" y1="108.331" x2="170.184" y2="108.331" gradientUnits="userSpaceOnUse">
<stop stop-color="#B8C2FF"/>
<stop offset="1" stop-color="#7D72B3"/>
</linearGradient>
<linearGradient id="paint10_linear_756_25721" x1="126.113" y1="94.3135" x2="128.447" y2="94.3135" gradientUnits="userSpaceOnUse">
<stop stop-color="#E8DDFF"/>
<stop offset="1" stop-color="#AA8AD8"/>
</linearGradient>
<linearGradient id="paint11_linear_756_25721" x1="6.20703" y1="137.448" x2="6.69336" y2="137.448" gradientUnits="userSpaceOnUse">
<stop stop-color="#E8DDFF"/>
<stop offset="1" stop-color="#AA8AD8"/>
</linearGradient>
<linearGradient id="paint12_linear_756_25721" x1="115.742" y1="53.8383" x2="178.009" y2="53.8383" gradientUnits="userSpaceOnUse">
<stop stop-color="#7F72FF"/>
<stop offset="1" stop-color="#9A00B3"/>
</linearGradient>
<linearGradient id="paint13_linear_756_25721" x1="129.887" y1="203.312" x2="161.47" y2="106.886" gradientUnits="userSpaceOnUse">
<stop stop-color="#280077"/>
<stop offset="1" stop-color="#812CFF"/>
</linearGradient>
<linearGradient id="paint14_linear_756_25721" x1="139.16" y1="200.223" x2="169.166" y2="108.269" gradientUnits="userSpaceOnUse">
<stop stop-color="#7A00B3"/>
<stop offset="1" stop-color="#B136FF"/>
</linearGradient>
<linearGradient id="paint15_linear_756_25721" x1="149.306" y1="174.963" x2="149.306" y2="108.339" gradientUnits="userSpaceOnUse">
<stop stop-color="#8E00B3"/>
<stop offset="1" stop-color="#E05CFF"/>
</linearGradient>
<linearGradient id="paint16_linear_756_25721" x1="42.4855" y1="213.53" x2="42.4855" y2="174.414" gradientUnits="userSpaceOnUse">
<stop stop-color="#81A9CE"/>
<stop offset="1" stop-color="#5B729C"/>
</linearGradient>
<linearGradient id="paint17_linear_756_25721" x1="31.4931" y1="202.294" x2="44.5403" y2="162.462" gradientUnits="userSpaceOnUse">
<stop stop-color="#280077"/>
<stop offset="1" stop-color="#812CFF"/>
</linearGradient>
<linearGradient id="paint18_linear_756_25721" x1="111.269" y1="236.823" x2="111.269" y2="219.57" gradientUnits="userSpaceOnUse">
<stop stop-color="#7A00B3"/>
<stop offset="0.92" stop-color="#7006FC"/>
<stop offset="1" stop-color="#7006F9"/>
</linearGradient>
<linearGradient id="paint19_linear_756_25721" x1="32.2756" y1="208.658" x2="32.2756" y2="159.063" gradientUnits="userSpaceOnUse">
<stop stop-color="#7A00B3"/>
<stop offset="1" stop-color="#B136FF"/>
</linearGradient>
<linearGradient id="paint20_linear_756_25721" x1="34.8749" y1="208.639" x2="34.8749" y2="159.063" gradientUnits="userSpaceOnUse">
<stop stop-color="#8E00B3"/>
<stop offset="1" stop-color="#E05CFF"/>
</linearGradient>
<linearGradient id="paint21_linear_756_25721" x1="106.429" y1="143.178" x2="114.73" y2="117.837" gradientUnits="userSpaceOnUse">
<stop stop-color="#5B008B"/>
<stop offset="1" stop-color="#8E00FF"/>
</linearGradient>
<linearGradient id="paint22_linear_756_25721" x1="109.32" y1="141.347" x2="116.185" y2="120.388" gradientUnits="userSpaceOnUse">
<stop stop-color="#A400CA"/>
<stop offset="1" stop-color="#B136FF"/>
</linearGradient>
<linearGradient id="paint23_linear_756_25721" x1="143.739" y1="66.7661" x2="153.646" y2="36.5198" gradientUnits="userSpaceOnUse">
<stop stop-color="#5B008B"/>
<stop offset="1" stop-color="#8E00FF"/>
</linearGradient>
<radialGradient id="paint24_radial_756_25721" cx="0" cy="0" r="1" gradientUnits="userSpaceOnUse" gradientTransform="translate(168.281 176.411) scale(18.365 18.365)">
<stop stop-color="#317AFF"/>
<stop offset="0.1" stop-color="#2967D7"/>
<stop offset="0.29" stop-color="#1D4897"/>
<stop offset="0.47" stop-color="#132E61"/>
<stop offset="0.64" stop-color="#0B1A37"/>
<stop offset="0.78" stop-color="#050C19"/>
<stop offset="0.91" stop-color="#010307"/>
<stop offset="1"/>
</radialGradient>
<radialGradient id="paint25_radial_756_25721" cx="0" cy="0" r="1" gradientUnits="userSpaceOnUse" gradientTransform="translate(143.699 126.482) scale(17.0512)">
<stop stop-color="#317AFF"/>
<stop offset="0.1" stop-color="#2967D7"/>
<stop offset="0.29" stop-color="#1D4897"/>
<stop offset="0.47" stop-color="#132E61"/>
<stop offset="0.64" stop-color="#0B1A37"/>
<stop offset="0.78" stop-color="#050C19"/>
<stop offset="0.91" stop-color="#010307"/>
<stop offset="1"/>
</radialGradient>
<radialGradient id="paint26_radial_756_25721" cx="0" cy="0" r="1" gradientUnits="userSpaceOnUse" gradientTransform="translate(145.804 45.6913) rotate(36.0694) scale(10.1279 6.65043)">
<stop stop-color="#317AFF"/>
<stop offset="0.1" stop-color="#2967D7"/>
<stop offset="0.29" stop-color="#1D4897"/>
<stop offset="0.47" stop-color="#132E61"/>
<stop offset="0.64" stop-color="#0B1A37"/>
<stop offset="0.78" stop-color="#050C19"/>
<stop offset="0.91" stop-color="#010307"/>
<stop offset="1"/>
</radialGradient>
<radialGradient id="paint27_radial_756_25721" cx="0" cy="0" r="1" gradientUnits="userSpaceOnUse" gradientTransform="translate(25.5408 181.785) scale(18.3651 18.365)">
<stop stop-color="#317AFF"/>
<stop offset="0.1" stop-color="#2967D7"/>
<stop offset="0.29" stop-color="#1D4897"/>
<stop offset="0.47" stop-color="#132E61"/>
<stop offset="0.64" stop-color="#0B1A37"/>
<stop offset="0.78" stop-color="#050C19"/>
<stop offset="0.91" stop-color="#010307"/>
<stop offset="1"/>
</radialGradient>
<linearGradient id="paint28_linear_756_25721" x1="155.003" y1="63.8056" x2="155.003" y2="31.3696" gradientUnits="userSpaceOnUse">
<stop stop-color="#B000D9"/>
<stop offset="1" stop-color="#E05CFF"/>
</linearGradient>
<linearGradient id="paint29_linear_756_25721" x1="126.916" y1="209.097" x2="126.916" y2="164.85" gradientUnits="userSpaceOnUse">
<stop stop-color="#B8C2FF"/>
<stop offset="1" stop-color="#7D72B3"/>
</linearGradient>
<linearGradient id="paint30_linear_756_25721" x1="153.951" y1="99.313" x2="153.951" y2="40.6433" gradientUnits="userSpaceOnUse">
<stop stop-color="#81A9CE"/>
<stop offset="1" stop-color="#5B729C"/>
</linearGradient>
<radialGradient id="paint31_radial_756_25721" cx="0" cy="0" r="1" gradientUnits="userSpaceOnUse" gradientTransform="translate(63.0911 81.9723) rotate(-33.2153) scale(40.9691 26.2496)">
<stop stop-color="#06FEFF"/>
<stop offset="0.17" stop-color="#05C4C5"/>
<stop offset="0.4" stop-color="#037F80"/>
<stop offset="0.6" stop-color="#024849"/>
<stop offset="0.78" stop-color="#012121"/>
<stop offset="0.92" stop-color="#000909"/>
<stop offset="1"/>
</radialGradient>
</defs>
</svg>
