<svg width="20" height="20" viewBox="0 0 20 20" fill="none" xmlns="http://www.w3.org/2000/svg">
<path d="M9.9724 19.9301C8.0808 19.9189 6.23494 19.3475 4.66782 18.2881C3.1007 17.2286 1.88259 15.7287 1.1673 13.9775C0.452006 12.2263 0.271587 10.3024 0.64883 8.44879C1.02607 6.59516 1.94405 4.89489 3.28689 3.56257C4.62972 2.23024 6.33716 1.32564 8.1937 0.96298C10.0502 0.600315 11.9726 0.795832 13.7181 1.52486C15.4636 2.2539 16.954 3.48374 18.0011 5.05914C19.0482 6.63454 19.6051 8.48486 19.6014 10.3765C19.5864 12.9187 18.5647 15.3514 16.76 17.142C14.9553 18.9326 12.5147 19.9351 9.9724 19.9301ZM9.9724 5.19457C8.94915 5.20201 7.95099 5.51223 7.1038 6.08613C6.25661 6.66003 5.59831 7.4719 5.21188 8.41941C4.82544 9.36691 4.72822 10.4076 4.9324 11.4103C5.13658 12.413 5.63304 13.3328 6.35922 14.0538C7.08541 14.7747 8.00877 15.2645 9.01292 15.4614C10.0171 15.6583 11.0571 15.5535 12.0018 15.1602C12.9464 14.7669 13.7535 14.1028 14.3212 13.2515C14.889 12.4001 15.192 11.3998 15.192 10.3765C15.182 8.9987 14.6278 7.68073 13.65 6.71C12.6722 5.73927 11.3502 5.19453 9.9724 5.19457Z" fill="white"/>
</svg>
