<svg width="20" height="19" viewBox="0 0 20 19" fill="none" xmlns="http://www.w3.org/2000/svg">
<path d="M10.0085 18.323C8.20713 18.3118 6.44945 17.7674 4.9571 16.7585C3.46475 15.7496 2.30457 14.3214 1.62294 12.6539C0.941318 10.9865 0.768755 9.1545 1.12702 7.38909C1.48528 5.62369 2.35839 4.00393 3.63609 2.7341C4.91379 1.46427 6.53886 0.601267 8.30644 0.25392C10.074 -0.0934266 11.905 0.0904504 13.5682 0.782365C15.2314 1.47428 16.6524 2.64324 17.6521 4.1418C18.6518 5.64035 19.1852 7.40137 19.1852 9.20276C19.1703 11.6268 18.1968 13.9464 16.4775 15.6552C14.7581 17.3639 12.4325 18.323 10.0085 18.323ZM10.0085 4.24698C9.02913 4.2507 8.07291 4.54452 7.26042 5.09133C6.44793 5.63813 5.81557 6.41341 5.44337 7.31928C5.07116 8.22516 4.97572 9.22101 5.16907 10.1811C5.36241 11.1412 5.83593 12.0225 6.52976 12.7137C7.22358 13.4049 8.10665 13.875 9.06747 14.0647C10.0283 14.2544 11.0238 14.1551 11.9282 13.7795C12.8327 13.4038 13.6055 12.7687 14.1492 11.9541C14.6929 11.1395 14.9831 10.1821 14.9832 9.20276C14.9782 7.88667 14.4519 6.6262 13.5195 5.69735C12.5871 4.76849 11.3246 4.24697 10.0085 4.24698Z" fill="#EF635B"/>
</svg>
