<svg width="304" height="493" viewBox="0 0 304 493" fill="none" xmlns="http://www.w3.org/2000/svg">
<path d="M86.9908 208.823L0.876709 411.653L86.237 410.409L88.6113 221.505" fill="#FCF9DE"/>
<path d="M133.478 75.0542L116.142 24.1772C114.427 19.146 112.732 13.5118 114.899 8.63141C117.819 2.11162 126.318 0.133054 133.459 0.905631C139.89 1.65711 146.052 3.91575 151.444 7.49784C156.837 11.0799 161.308 15.8843 164.494 21.5203C162.699 18.6682 161.572 15.4475 161.197 12.0986C161.065 8.76331 162.855 5.10772 166.096 4.22208C168.734 3.48719 171.504 4.73085 173.897 6.10641C181.614 10.545 188.331 16.5304 193.626 23.6872C191.949 20.2954 195.812 16.2441 199.618 16.3383C203.425 16.4326 206.628 19.1837 209.153 21.9913L216.86 31.5826C226.828 25.2889 232.556 35.0498 224.718 56.4558C222.475 62.6176 219.743 75.0353 219.743 75.0353H133.478" fill="#0E1F3D"/>
<path d="M212.659 135.862C212.659 135.862 167.153 134.128 159.22 135.862C151.287 137.595 140.188 132.941 136.476 126.12C132.764 119.298 132.5 37.7256 132.5 37.7256L217.917 35.3513L212.659 135.862Z" fill="#F6B69E"/>
<path d="M148.476 109.651V155.12H212.657V97.1008L148.476 109.651Z" fill="#F6B69E"/>
<path d="M212.658 155.12H147.328V184.459H212.658V155.12Z" fill="#FCF9DE"/>
<path d="M88.4609 492.34L83.0718 293.166C83.0718 293.166 69.6365 217.378 92.0978 203.943C114.559 190.507 149.118 176.394 149.118 176.394H207.72C207.72 176.394 283.32 206.543 291.215 214.702C299.111 222.861 302.145 489.042 302.145 489.042L88.4609 492.34Z" fill="#FCF9DE"/>
<path d="M183.657 97.7039C183.719 98.1402 183.681 98.585 183.544 99.004C183.301 100.181 182.875 101.313 182.281 102.358C181.33 104.117 180.007 105.647 178.403 106.842C176.799 108.036 174.954 108.866 172.996 109.273C171.039 109.681 169.015 109.656 167.068 109.2C165.121 108.744 163.297 107.869 161.723 106.636C160.769 105.913 159.925 105.057 159.217 104.092C158.727 103.395 158.539 102.961 158.595 102.942C159.694 104.067 160.872 105.112 162.119 106.07C165.248 108.191 169.086 108.997 172.803 108.313C174.626 107.899 176.349 107.128 177.872 106.044C179.396 104.961 180.689 103.586 181.678 102C182.452 100.623 183.113 99.1865 183.657 97.7039Z" fill="#F29680"/>
<path d="M186.919 75.9022C186.278 75.9022 185.732 74.5266 185.92 72.7365C186.109 70.9464 186.617 69.797 187.277 69.8346C187.937 69.8723 188.483 71.2102 188.276 73.0003C188.068 74.7905 187.597 75.9022 186.919 75.9022Z" fill="#0E1F3D"/>
<path d="M193.419 57.9067C192.606 58.2102 191.723 58.2756 190.875 58.0951C189.97 58.0009 188.991 57.9255 188.274 57.9255C187.558 57.9255 186.56 57.9255 185.655 57.9255C184.8 58.0564 183.926 57.9454 183.13 57.6052C182.452 57.1906 182.188 56.06 183.017 54.6845C183.623 53.8231 184.431 53.1242 185.371 52.6497C186.311 52.1752 187.353 51.9396 188.406 51.9639C189.458 51.9881 190.489 52.2713 191.406 52.7886C192.323 53.3058 193.098 54.0411 193.664 54.9294C194.436 56.3992 194.135 57.5109 193.419 57.9067Z" fill="#0E1F3D"/>
<path d="M148.46 75.1671C147.819 75.1671 147.254 73.7916 147.461 71.9826C147.631 70.4563 148.14 69.0619 148.818 69.0808C149.496 69.0996 150.005 70.4563 149.817 72.2653C149.628 74.0742 149.12 75.2048 148.46 75.1671Z" fill="#0E1F3D"/>
<path d="M153.602 63.654C152.789 63.9555 151.907 64.0209 151.058 63.8425C150.154 63.8425 149.174 63.6917 148.458 63.6729C147.742 63.654 146.743 63.6729 145.839 63.6729C144.984 63.8133 144.107 63.702 143.314 63.3525C142.635 62.938 142.372 61.8074 143.201 60.4318C143.818 59.5782 144.637 58.89 145.584 58.4282C146.531 57.9664 147.577 57.7453 148.63 57.7845C149.683 57.8236 150.71 58.1217 151.62 58.6526C152.53 59.1834 153.295 59.9304 153.847 60.8275C154.601 62.1466 154.281 63.2772 153.602 63.654Z" fill="#0E1F3D"/>
<path d="M213.072 93.5584C213.072 93.5584 226.828 94.5194 226.828 84.0425C226.828 73.5656 214.24 74.4136 214.24 74.4136L213.072 93.5584Z" fill="#F6B69E"/>
<path d="M216.86 89.7519C216.86 89.6012 217.859 89.7519 219.234 89.017C220.088 88.6114 220.826 87.9982 221.382 87.2335C221.937 86.4689 222.292 85.5772 222.414 84.6399C222.536 83.7027 222.421 82.7499 222.079 81.8686C221.738 80.9873 221.181 80.2058 220.459 79.5954C219.291 78.6343 218.311 78.427 218.349 78.2763C218.386 78.1256 219.442 78.1067 220.874 79.0301C221.667 79.5976 222.314 80.3472 222.758 81.2159C223.333 82.3154 223.551 83.5671 223.38 84.7961C223.255 85.9095 222.814 86.964 222.11 87.8353C221.405 88.7066 220.466 89.3585 219.404 89.7142C217.915 90.1853 216.822 89.865 216.86 89.7519Z" fill="#F29680"/>
<path d="M222.852 83.9483C222.852 84.0613 222.852 84.3628 222.267 84.6643C221.637 85.0359 220.9 85.1821 220.176 85.0789C219.467 84.9858 218.807 84.6689 218.291 84.1744C217.915 83.7787 217.82 83.4207 217.915 83.3453C218.009 83.2699 219.007 83.9671 220.364 84.099C221.721 84.2309 222.682 83.741 222.852 83.9483Z" fill="#F29680"/>
<path d="M137.266 95.1789C137.266 95.1789 123.529 96.1399 123.529 85.6442C123.529 75.1484 136.116 76.0341 136.116 76.0341L137.266 95.1789Z" fill="#F6B69E"/>
<path d="M133.498 91.3725C133.498 91.4856 132.462 91.8059 130.841 91.2783C129.904 90.9483 129.062 90.3916 128.391 89.6578C127.801 89.0214 127.356 88.2643 127.087 87.439C126.819 86.6137 126.732 85.7398 126.834 84.8778C126.937 84.0158 127.225 83.1863 127.679 82.4467C128.133 81.7071 128.743 81.075 129.466 80.5942C130.898 79.6708 131.991 79.7273 131.991 79.8404C131.991 79.9535 131.048 80.1984 129.88 81.1594C129.132 81.7565 128.551 82.5373 128.194 83.4256C127.838 84.314 127.717 85.2796 127.845 86.2283C127.97 87.1795 128.334 88.0833 128.905 88.8547C129.475 89.6261 130.232 90.2397 131.105 90.6377C132.48 91.2595 133.498 91.2218 133.498 91.3725Z" fill="#F29680"/>
<path d="M127.469 85.5688C127.638 85.3615 128.693 85.9079 130.031 85.7195C131.369 85.5311 132.274 84.7962 132.481 84.9658C132.688 85.1353 132.481 85.3992 132.104 85.7949C131.584 86.283 130.926 86.5989 130.22 86.6993C129.49 86.7952 128.749 86.6496 128.109 86.2848C127.6 85.9833 127.469 85.663 127.469 85.5688Z" fill="#F29680"/>
<path d="M303.258 490.305C303.233 490.105 303.233 489.902 303.258 489.702V487.95C303.258 486.329 303.163 484.068 303.088 481.185C303.013 478.302 302.956 474.665 302.768 470.501C302.579 466.336 302.466 461.588 302.165 456.349C301.694 445.872 300.789 433.417 299.753 419.567C298.716 405.717 297.058 390.586 295.645 374.607C292.611 342.724 289.992 313.818 288.71 292.864C288.334 287.626 288.126 282.877 287.9 278.713C287.674 274.549 287.542 270.968 287.467 268.029C287.391 265.089 287.316 262.885 287.26 261.283V259.512C287.26 259.116 287.26 258.909 287.26 258.909C287.292 259.108 287.292 259.312 287.26 259.512C287.26 259.964 287.26 260.548 287.391 261.264C287.486 262.885 287.599 265.146 287.768 268.01C287.938 270.874 288.108 274.53 288.39 278.694C288.673 282.859 288.918 287.588 289.332 292.827C290.783 313.762 293.497 342.63 296.549 374.513C298.038 390.473 299.376 405.661 300.431 419.511C301.486 433.36 302.315 445.891 302.655 456.312C302.899 461.569 303.013 466.317 303.107 470.482C303.201 474.646 303.276 478.245 303.258 481.185C303.239 484.124 303.258 486.329 303.258 487.95V489.702C303.276 490.098 303.258 490.305 303.258 490.305Z" fill="#C4AF9B"/>
<path d="M179.982 486.687C179.718 486.687 179.492 412.67 179.492 321.393C179.492 230.116 179.718 156.099 180.001 156.099C180.283 156.099 180.491 230.097 180.472 321.393C180.453 412.689 180.227 486.687 179.982 486.687Z" fill="#C4AF9B"/>
<path d="M199.789 219.62C199.694 219.62 199.676 219.112 199.412 218.264C199.042 217.093 198.301 216.074 197.301 215.362C196.579 214.844 195.74 214.513 194.859 214.398C193.978 214.283 193.082 214.387 192.251 214.702C191.244 215.072 190.375 215.741 189.76 216.621C189.146 217.501 188.817 218.548 188.817 219.62C188.817 220.693 189.146 221.74 189.76 222.62C190.375 223.499 191.244 224.169 192.251 224.538C193.085 224.846 193.98 224.945 194.861 224.826C195.741 224.708 196.579 224.376 197.301 223.86C198.301 223.148 199.042 222.129 199.412 220.958C199.676 220.129 199.694 219.601 199.789 219.62C199.925 220.088 199.925 220.585 199.789 221.052C199.516 222.386 198.782 223.58 197.716 224.425C196.912 225.055 195.963 225.473 194.955 225.641C193.948 225.809 192.915 225.721 191.95 225.386C190.746 224.974 189.701 224.195 188.961 223.16C188.222 222.124 187.824 220.884 187.824 219.611C187.824 218.338 188.222 217.098 188.961 216.062C189.701 215.027 190.746 214.248 191.95 213.835C192.916 213.5 193.951 213.413 194.959 213.585C195.967 213.756 196.915 214.179 197.716 214.815C198.787 215.648 199.523 216.839 199.789 218.169C199.922 218.644 199.922 219.146 199.789 219.62Z" fill="#C4AF9B"/>
<path d="M199.787 269.989C199.693 269.989 199.674 269.48 199.41 268.632C199.04 267.461 198.3 266.442 197.3 265.73C196.575 265.217 195.737 264.888 194.856 264.774C193.976 264.659 193.081 264.761 192.25 265.071C191.242 265.44 190.373 266.11 189.759 266.989C189.144 267.869 188.815 268.916 188.815 269.989C188.815 271.061 189.144 272.108 189.759 272.988C190.373 273.868 191.242 274.537 192.25 274.907C193.083 275.214 193.979 275.313 194.859 275.195C195.739 275.076 196.577 274.745 197.3 274.228C198.3 273.516 199.04 272.497 199.41 271.327C199.674 270.497 199.693 269.989 199.787 269.989C199.922 270.456 199.922 270.953 199.787 271.421C199.525 272.758 198.789 273.956 197.714 274.794C196.912 275.426 195.963 275.846 194.955 276.014C193.947 276.182 192.912 276.093 191.948 275.755C190.742 275.347 189.694 274.572 188.952 273.537C188.21 272.503 187.81 271.262 187.81 269.989C187.81 268.716 188.21 267.474 188.952 266.44C189.694 265.406 190.742 264.63 191.948 264.223C192.912 263.879 193.947 263.787 194.956 263.955C195.965 264.123 196.914 264.546 197.714 265.184C198.785 266.017 199.521 267.207 199.787 268.538C199.923 269.012 199.923 269.515 199.787 269.989Z" fill="#C4AF9B"/>
<path d="M199.787 320.244C199.693 320.244 199.674 319.735 199.411 318.906C199.041 317.735 198.3 316.717 197.3 316.004C196.578 315.488 195.74 315.156 194.859 315.038C193.979 314.92 193.083 315.018 192.25 315.326C191.243 315.695 190.373 316.365 189.759 317.244C189.145 318.124 188.815 319.171 188.815 320.244C188.815 321.317 189.145 322.364 189.759 323.243C190.373 324.123 191.243 324.793 192.25 325.162C193.082 325.472 193.977 325.574 194.857 325.459C195.737 325.344 196.576 325.016 197.3 324.502C198.3 323.79 199.041 322.771 199.411 321.601C199.674 320.753 199.693 320.244 199.787 320.244C199.923 320.718 199.923 321.221 199.787 321.695C199.522 323.025 198.786 324.216 197.715 325.049C196.915 325.686 195.965 326.109 194.956 326.277C193.947 326.446 192.912 326.354 191.949 326.01C191.11 325.72 190.344 325.251 189.706 324.635C189.067 324.019 188.57 323.271 188.249 322.444C187.929 321.616 187.793 320.729 187.851 319.843C187.908 318.957 188.158 318.095 188.583 317.316C189.008 316.537 189.598 315.86 190.311 315.332C191.024 314.804 191.844 314.438 192.713 314.259C193.583 314.081 194.481 314.094 195.344 314.297C196.208 314.501 197.017 314.891 197.715 315.439C198.79 316.276 199.526 317.474 199.787 318.812C199.923 319.28 199.923 319.776 199.787 320.244Z" fill="#C4AF9B"/>
<path d="M199.789 370.555C199.694 370.555 199.676 370.047 199.412 369.218C199.042 368.047 198.301 367.028 197.301 366.316C196.579 365.799 195.741 365.468 194.861 365.349C193.98 365.231 193.085 365.33 192.251 365.637C191.244 366.007 190.375 366.677 189.76 367.556C189.146 368.436 188.817 369.483 188.817 370.555C188.817 371.628 189.146 372.675 189.76 373.555C190.375 374.434 191.244 375.104 192.251 375.474C193.082 375.789 193.978 375.893 194.859 375.778C195.74 375.663 196.579 375.332 197.301 374.814C198.301 374.102 199.042 373.083 199.412 371.912C199.676 371.064 199.694 370.555 199.789 370.555C199.922 371.03 199.922 371.532 199.789 372.006C199.523 373.337 198.787 374.528 197.716 375.361C196.915 375.997 195.967 376.42 194.959 376.591C193.951 376.762 192.916 376.676 191.95 376.34C190.746 375.928 189.701 375.149 188.961 374.114C188.222 373.078 187.824 371.838 187.824 370.565C187.824 369.292 188.222 368.051 188.961 367.016C189.701 365.98 190.746 365.202 191.95 364.789C192.915 364.455 193.948 364.367 194.955 364.535C195.963 364.703 196.912 365.121 197.716 365.75C198.782 366.596 199.516 367.79 199.789 369.123C199.925 369.591 199.925 370.088 199.789 370.555Z" fill="#C4AF9B"/>
<path d="M199.789 420.886C199.694 420.886 199.676 420.377 199.412 419.529C199.042 418.359 198.301 417.34 197.301 416.628C196.579 416.11 195.74 415.779 194.859 415.664C193.978 415.549 193.082 415.653 192.251 415.968C191.244 416.337 190.375 417.007 189.76 417.887C189.146 418.766 188.817 419.813 188.817 420.886C188.817 421.959 189.146 423.006 189.76 423.886C190.375 424.765 191.244 425.435 192.251 425.804C193.085 426.112 193.98 426.21 194.861 426.092C195.741 425.974 196.579 425.642 197.301 425.126C198.301 424.413 199.042 423.395 199.412 422.224C199.676 421.395 199.694 420.886 199.789 420.886C199.925 421.354 199.925 421.851 199.789 422.318C199.516 423.651 198.782 424.846 197.716 425.691C196.912 426.321 195.963 426.739 194.955 426.907C193.948 427.075 192.915 426.987 191.95 426.652C190.746 426.24 189.701 425.461 188.961 424.426C188.222 423.39 187.824 422.149 187.824 420.877C187.824 419.604 188.222 418.363 188.961 417.328C189.701 416.292 190.746 415.514 191.95 415.101C192.916 414.765 193.951 414.679 194.959 414.851C195.967 415.022 196.915 415.445 197.716 416.081C198.787 416.914 199.523 418.105 199.789 419.435C199.924 419.909 199.924 420.412 199.789 420.886Z" fill="#C4AF9B"/>
<path d="M199.787 471.198C199.693 471.198 199.674 470.689 199.41 469.841C199.04 468.67 198.3 467.652 197.3 466.939C196.575 466.426 195.737 466.098 194.856 465.983C193.976 465.868 193.081 465.97 192.25 466.28C191.242 466.649 190.373 467.319 189.759 468.198C189.144 469.078 188.815 470.125 188.815 471.198C188.815 472.271 189.144 473.318 189.759 474.197C190.373 475.077 191.242 475.746 192.25 476.116C193.083 476.423 193.979 476.522 194.859 476.404C195.739 476.286 196.577 475.954 197.3 475.437C198.3 474.725 199.04 473.706 199.41 472.536C199.674 471.706 199.693 471.198 199.787 471.198C199.922 471.666 199.922 472.162 199.787 472.63C199.525 473.967 198.789 475.165 197.714 476.003C196.912 476.636 195.963 477.055 194.955 477.223C193.947 477.391 192.912 477.302 191.948 476.964C190.742 476.556 189.694 475.781 188.952 474.746C188.21 473.712 187.81 472.471 187.81 471.198C187.81 469.925 188.21 468.683 188.952 467.649C189.694 466.615 190.742 465.839 191.948 465.432C192.912 465.093 193.947 465.004 194.955 465.172C195.963 465.34 196.912 465.76 197.714 466.393C198.785 467.226 199.521 468.416 199.787 469.747C199.923 470.221 199.923 470.724 199.787 471.198Z" fill="#C4AF9B"/>
<path d="M212.658 177.656C211.56 177.738 210.458 177.738 209.36 177.656C208.832 177.656 208.248 177.656 207.589 177.656L205.516 177.355C204.762 177.223 203.952 177.185 203.104 176.959L200.466 176.262C196.143 174.982 192.142 172.798 188.727 169.855C186.699 168.122 184.912 166.125 183.413 163.919C181.749 161.567 180.441 158.983 179.531 156.25L180.492 156.156V156.797C180.038 162.495 177.374 167.791 173.068 171.551C169.545 174.486 165.412 176.597 160.97 177.732C158.014 178.534 154.983 179.033 151.925 179.22C151.091 179.262 150.254 179.262 149.419 179.22C149.131 179.252 148.841 179.252 148.552 179.22C148.552 179.22 149.758 179.107 151.888 178.862C154.893 178.539 157.864 177.946 160.763 177.091C165.071 175.893 169.069 173.779 172.484 170.891C176.561 167.247 179.078 162.172 179.512 156.721V156.099L179.776 153.819L180.473 156.005C182.249 161.082 185.291 165.622 189.311 169.195C192.608 172.081 196.454 174.273 200.617 175.64L203.198 176.375C204.008 176.62 204.8 176.695 205.535 176.846L207.589 177.204C208.229 177.317 208.814 177.317 209.341 177.374C210.452 177.378 211.562 177.473 212.658 177.656Z" fill="#C4AF9B"/>
<path d="M172.013 96.6298C172.013 96.6298 171.58 96.9878 170.656 97.4212C170.088 97.6859 169.485 97.8699 168.866 97.9677C167.99 98.0861 167.098 97.921 166.322 97.4966C165.864 97.2158 165.487 96.8194 165.229 96.3472C164.986 95.8405 164.851 95.2885 164.834 94.7266C164.834 93.6149 164.834 92.5408 164.834 91.3348C164.834 88.9417 164.985 86.3602 165.06 83.6467C165.229 78.1822 165.437 73.2452 165.644 69.665C165.649 67.7303 165.832 65.8002 166.19 63.8989C166.395 65.8264 166.446 67.7672 166.341 69.7027C166.341 73.2829 166.209 78.2199 166.04 83.6844C165.927 86.379 165.832 88.9606 165.738 91.3725C165.644 93.7845 165.116 96.0834 166.662 96.8936C167.239 97.1964 167.876 97.3685 168.527 97.3979C169.178 97.4272 169.828 97.3129 170.43 97.0632C170.935 96.8466 171.468 96.7008 172.013 96.6298Z" fill="#F29680"/>
<path d="M130.388 45.1499C131.273 44.7353 170.222 53.441 212.658 39.6288L215.88 73.4526L220.346 34.3149L129.992 35.3513L130.388 45.1499Z" fill="#0E1F3D"/>
<path d="M155.599 87.5096C155.599 90.0723 152.659 92.1828 149.004 92.5973C145.348 93.0119 141.975 91.5986 141.466 89.0925C140.958 86.5863 143.822 83.8917 148.005 83.4394C152.188 82.9872 155.561 84.9658 155.599 87.5096Z" fill="#F29680"/>
<path d="M204.969 85.8137C204.969 88.2257 202.199 90.2043 198.77 90.6C195.34 90.9957 192.156 89.6578 191.647 87.3024C191.138 84.947 193.852 82.4031 197.79 81.9697C201.728 81.5363 204.95 83.4395 204.969 85.8137Z" fill="#F29680"/>
<path d="M148.476 135.014C157.461 138.679 167.146 140.307 176.836 139.781L148.476 142.419V135.014Z" fill="#F29680"/>
</svg>
