<svg width="127" height="280" viewBox="0 0 127 280" fill="none" xmlns="http://www.w3.org/2000/svg">
<path d="M74.1033 61.8652L83.2988 42.2681C83.2988 42.2681 74.7816 22.1058 78.8517 20.7867C82.9219 19.4677 91.4956 35.5787 93.493 33.3175C95.4904 31.0563 104.008 3.84654 107.362 4.27994C108.224 4.30466 109.062 4.57249 109.779 5.05255C110.495 5.53262 111.062 6.20539 111.413 6.99339C111.413 6.99339 114.183 0.285157 115.634 0.812771C117.085 1.34038 119.271 1.45344 118.705 8.35011C118.705 8.35011 121.343 5.14675 122.229 12.5145C122.229 12.5145 127.128 12.6464 126.582 16.7919C126.035 20.9375 115.276 84.383 115.276 84.383L74.1033 61.8652Z" fill="#F6B69E"/>
<path d="M111.073 6.78625C111.027 8.20131 110.812 9.6058 110.432 10.9695C109.885 13.5133 109.019 17.0182 107.869 20.8434C106.72 24.6686 105.476 28.0604 104.515 30.4724C104.047 31.8026 103.414 33.0687 102.631 34.241C102.871 32.848 103.257 31.4839 103.78 30.1709C104.59 27.6835 105.664 24.2729 106.852 20.4854C108.039 16.6979 108.981 13.2307 109.678 10.7245C109.991 9.36282 110.459 8.04146 111.073 6.78625Z" fill="#F29680"/>
<path d="M118.421 6.01355C117.636 10.3242 116.527 14.5696 115.105 18.714C114.011 22.9494 112.593 27.0945 110.865 31.1129C111.652 26.8087 112.76 22.5697 114.181 18.4313C115.277 14.1904 116.695 10.0392 118.421 6.01355Z" fill="#F29680"/>
<path d="M123.17 12.1188C122.537 15.5073 121.578 18.8267 120.306 22.0304C119.361 25.3412 118.099 28.5532 116.537 31.6216C117.182 28.2339 118.147 24.9151 119.42 21.71C120.364 18.4016 121.619 15.1901 123.17 12.1188Z" fill="#F29680"/>
<path d="M1.06421 57.9458L77.0217 236.015L13.237 259.193L1.06421 57.9458Z" fill="#FCF9DE"/>
<path d="M118.234 81.8392L76.9671 253.804C76.9671 253.804 73.368 279.996 29.5007 279.412C-17.6077 278.809 6.4553 219.32 6.4553 219.32L72.407 57.927L118.234 81.8392Z" fill="#FCF9DE"/>
<path d="M39.0912 208.316C38.8085 208.316 38.4881 192.845 38.3374 173.757C38.1866 154.669 38.3374 139.179 38.5823 139.179C38.8273 139.179 39.1854 154.65 39.3173 173.757C39.4492 192.864 39.2984 208.316 39.0912 208.316Z" fill="#C4AF9B"/>
<path d="M52.0165 200.835C51.7527 200.835 48.6059 187.362 45.0069 170.686C41.4078 154.009 38.6754 140.291 38.9392 140.235C39.203 140.178 42.35 153.708 45.9679 170.478C49.5858 187.249 52.2803 200.778 52.0165 200.835Z" fill="#C4AF9B"/>
<path d="M114.896 100.909C114.783 101.154 103.59 95.7266 89.8532 88.7734C76.1164 81.8203 65.1307 75.9788 65.2627 75.7527C65.3946 75.5266 76.5686 80.9346 90.3054 87.8878C104.042 94.841 115.028 100.682 114.896 100.909Z" fill="#C4AF9B"/>
<path d="M85.1817 63.5046C84.27 66.7558 83.0458 69.9111 81.5261 72.9263C80.3157 76.0389 78.8009 79.0244 77.0037 81.8392C77.8988 78.6156 79.1172 75.4905 80.6404 72.5118C81.8559 69.3681 83.377 66.3512 85.1817 63.5046Z" fill="#C4AF9B"/>
<path d="M93.1522 68.0271C93.1522 67.8952 93.3972 67.801 93.661 68.0271C93.818 68.1624 93.9185 68.3516 93.9429 68.5574C93.9673 68.7632 93.9139 68.9706 93.7929 69.1389C93.7315 69.2217 93.6546 69.2921 93.5667 69.3461L93.1522 69.6476L92.9072 69.2519C92.8471 69.1757 92.8036 69.0877 92.7795 68.9936C92.7553 68.8996 92.7511 68.8014 92.767 68.7056C92.783 68.6098 92.8188 68.5185 92.8722 68.4373C92.9255 68.3562 92.9953 68.287 93.0769 68.2344C93.3219 68.0836 93.4914 68.2344 93.5102 68.2344C93.4889 68.3464 93.4889 68.4615 93.5102 68.5735H93.4161L92.9072 68.4417C92.9072 68.4417 93.1711 68.2909 93.1522 68.0271Z" fill="#C4AF9B"/>
<path d="M91.2497 73.2278C91.2497 73.3409 91.3628 73.5105 91.5135 73.4163C91.6643 73.3221 91.6266 73.1336 91.5135 73.1336C91.4005 73.1336 91.3439 73.1336 91.2308 73.1336C91.1178 73.1336 91.2309 73.3597 91.4194 73.4163C91.6078 73.4728 91.6643 73.5859 91.4194 73.7932C91.3258 73.8681 91.2094 73.9089 91.0895 73.9089C90.9696 73.9089 90.8533 73.8681 90.7598 73.7932C90.6814 73.7011 90.6384 73.5842 90.6384 73.4634C90.6384 73.3425 90.6814 73.2257 90.7598 73.1336C90.7723 73.0687 90.8101 73.0113 90.8649 72.9742C90.9197 72.9371 90.9869 72.9233 91.0519 72.9358C91.1169 72.9483 91.1742 72.986 91.2113 73.0408C91.2484 73.0956 91.2622 73.1629 91.2497 73.2278Z" fill="#C4AF9B"/>
</svg>
