<svg width="35" height="35" viewBox="0 0 35 35" fill="none" xmlns="http://www.w3.org/2000/svg">
<path d="M17.3671 34.9474C13.9149 34.9263 10.5464 33.8831 7.68655 31.9495C4.82669 30.0159 2.60366 27.2785 1.29799 24.0827C-0.00767439 20.8869 -0.337474 17.376 0.350211 13.993C1.03789 10.61 2.71225 7.50651 5.16198 5.07413C7.61172 2.64175 10.7271 0.98951 14.1149 0.325897C17.5027 -0.337716 21.0112 0.0170304 24.1975 1.34539C27.3839 2.67375 30.1055 4.9162 32.0187 7.78974C33.9319 10.6633 34.9511 14.0391 34.9477 17.4913C34.9241 22.1353 33.0604 26.5805 29.7649 29.8526C26.4694 33.1247 22.0111 34.9569 17.3671 34.9474ZM17.3671 8.02487C15.4979 8.03892 13.6747 8.60604 12.1273 9.65473C10.58 10.7034 9.37769 12.1867 8.6721 13.9177C7.9665 15.6487 7.78916 17.5498 8.16243 19.3814C8.53569 21.213 9.44286 22.8931 10.7696 24.2099C12.0963 25.5267 13.7831 26.4212 15.6175 26.7808C17.4518 27.1403 19.3515 26.9487 21.0772 26.2302C22.8028 25.5117 24.2771 24.2983 25.3142 22.7432C26.3512 21.188 26.9047 19.3606 26.9047 17.4913C26.9001 16.2435 26.6497 15.0088 26.1678 13.8578C25.686 12.7067 24.9822 11.6618 24.0965 10.7828C23.2108 9.90373 22.1607 9.20771 21.0061 8.73451C19.8514 8.2613 18.6149 8.02019 17.3671 8.02487Z" fill="white"/>
</svg>
