<svg width="231" height="181" viewBox="0 0 231 181" fill="none" xmlns="http://www.w3.org/2000/svg">
<path fill-rule="evenodd" clip-rule="evenodd" d="M226.045 100.432C234.019 74.189 230.619 61.7628 223.326 43.7109L222.43 90.7262L226.045 100.432Z" fill="url(#paint0_radial_146_169)"/>
<path fill-rule="evenodd" clip-rule="evenodd" d="M91.3648 19.8789C149.28 -0.182202 207.504 16.1387 221.38 56.2918C235.256 96.4448 199.561 145.253 141.646 165.283C83.7314 185.313 25.4764 169.023 11.6002 128.87C-2.27589 88.7171 33.4189 39.909 91.3648 19.8789Z" fill="url(#paint1_radial_146_169)"/>
<path fill-rule="evenodd" clip-rule="evenodd" d="M89.2008 13.9438C147.116 -6.11725 205.34 10.2036 219.216 50.3567C233.092 90.5097 197.428 139.318 139.482 159.348C81.5365 179.378 23.3433 163.088 9.43628 122.935C-4.47075 82.7821 31.2548 33.974 89.2008 13.9438Z" fill="url(#paint2_radial_146_169)"/>
<path style="mix-blend-mode:screen" opacity="0.5" fill-rule="evenodd" clip-rule="evenodd" d="M189.486 85.4094C174.034 40.4343 113.214 19.755 48.6854 34.994C15.9266 59.0116 -0.761797 93.3226 9.43669 122.935C23.3437 163.119 81.5678 179.409 139.483 159.348C157.893 153.119 174.911 143.354 189.579 130.601C194.433 115.928 194.433 100.082 189.579 85.4094H189.486Z" fill="url(#paint3_radial_146_169)"/>
<path fill-rule="evenodd" clip-rule="evenodd" d="M223.327 91.1589C208.215 78.5164 175.703 70.0778 165.072 69.3359L163.496 71.8706C182.012 77.2266 200.101 83.9635 217.61 92.0244L219.526 98.5156L217.455 103.338L226.047 100.432L223.327 91.1589Z" fill="url(#paint4_radial_146_169)"/>
<path fill-rule="evenodd" clip-rule="evenodd" d="M68.9902 16.8188L70.9372 21.5173C75.1418 23.8566 78.9067 26.911 82.0628 30.5432L83.4535 29.8014C80.7339 23.8974 72.3279 16.8188 68.9902 16.8188Z" fill="url(#paint5_radial_146_169)"/>
<path fill-rule="evenodd" clip-rule="evenodd" d="M8.38672 135.237L12.7133 141.42H17.7508L13.5169 132.146C24.458 117.818 37.5152 105.237 52.2402 94.8372L51.2513 91.7461C32.245 103.152 14.1659 120.462 8.38672 135.423V135.237Z" fill="url(#paint6_radial_146_169)"/>
<path fill-rule="evenodd" clip-rule="evenodd" d="M152.001 6.06164L149.529 0.466797C139.925 4.25031 132.019 11.389 127.277 20.5588H131.542C136.071 14.5841 141.744 9.57177 148.231 5.81434L152.001 6.15436V6.06164Z" fill="url(#paint7_radial_146_169)"/>
<path fill-rule="evenodd" clip-rule="evenodd" d="M127.586 20.0952C142.698 21.1461 155.4 26.8028 162.57 36.2306C179.273 31.2814 196.605 28.7825 214.026 28.812C218.798 34.3451 222.479 40.7327 224.873 47.6367C229.52 61.8703 228.973 77.2909 223.328 91.159C204.611 82.1325 185.113 74.8281 165.073 69.336C159.634 81.453 148.044 92.9209 132.561 100.803L162.724 153.351C155.585 157.001 148.202 160.152 140.627 162.779C118.286 170.756 94.4046 173.465 70.8449 170.692C73.7985 150.285 78.2714 130.127 84.2266 110.385C69.1761 108.747 56.7216 102.38 50.4171 92.1791C35.4284 103.152 15.155 122.317 8.38691 135.238C6.2946 131.782 4.57491 128.114 3.25675 124.295C-2.92415 106.862 0.166319 87.8515 9.74672 70.0469C22.7129 63.9192 36.619 60.0213 50.8806 58.5173C58.3593 45.7287 69.5915 35.5518 83.0522 29.3684C78.9702 24.5525 74.2376 20.3287 68.9907 16.8186C75.0102 13.8891 81.2026 11.3291 87.5334 9.15275C107.416 2.12262 128.51 -0.83138 149.559 0.466838C140.948 5.39599 133.471 12.0839 127.617 20.0952H127.586Z" fill="url(#paint8_radial_146_169)"/>
<path fill-rule="evenodd" clip-rule="evenodd" d="M70.8438 170.692L74.2742 179.378C97.1925 182.403 120.502 179.913 142.264 172.114C150.228 169.384 157.959 166.014 165.381 162.037L162.785 153.352C155.646 157.002 148.263 160.152 140.688 162.779C118.347 170.757 94.4652 173.465 70.9055 170.692H70.8438Z" fill="url(#paint9_radial_146_169)"/>
<path style="mix-blend-mode:screen" fill-rule="evenodd" clip-rule="evenodd" d="M127.586 20.0952C142.698 21.1461 155.4 26.8028 162.57 36.2306C179.273 31.2814 196.605 28.7825 214.026 28.812C218.798 34.3451 222.479 40.7327 224.873 47.6367C229.52 61.8703 228.973 77.2909 223.328 91.159C204.611 82.1325 185.113 74.8281 165.073 69.336C159.634 81.453 148.044 92.9209 132.561 100.803L162.724 153.351C155.585 157.001 148.202 160.152 140.627 162.779C118.286 170.756 94.4046 173.465 70.8449 170.692C73.7985 150.285 78.2714 130.127 84.2266 110.385C69.1761 108.747 56.7216 102.38 50.4171 92.1791C35.4284 103.152 15.155 122.317 8.38691 135.238C6.2946 131.782 4.57491 128.114 3.25675 124.295C-2.92415 106.862 0.166319 87.8515 9.74672 70.0469C22.7129 63.9192 36.619 60.0213 50.8806 58.5173C58.3593 45.7287 69.5915 35.5518 83.0522 29.3684C78.9702 24.5525 74.2376 20.3287 68.9907 16.8186C75.0102 13.8891 81.2026 11.3291 87.5334 9.15275C107.416 2.12262 128.51 -0.83138 149.559 0.466838C140.948 5.39599 133.471 12.0839 127.617 20.0952H127.586Z" fill="url(#paint10_radial_146_169)"/>
<path fill-rule="evenodd" clip-rule="evenodd" d="M76.3759 176.257C76.667 176.576 77.0605 176.784 77.4884 176.844C99.0427 179.194 120.849 176.637 141.275 169.363C147.812 167.108 154.192 164.423 160.374 161.327C160.605 161.217 160.811 161.061 160.981 160.87C161.151 160.679 161.281 160.456 161.363 160.214C161.465 159.932 161.482 159.626 161.41 159.334C161.338 159.043 161.181 158.78 160.959 158.578C160.737 158.376 160.46 158.244 160.164 158.2C159.867 158.155 159.564 158.2 159.293 158.328C153.528 161.04 147.628 163.455 141.615 165.561C120.998 172.832 99.1143 175.82 77.303 174.34C77.0717 174.31 76.8368 174.354 76.6316 174.465C76.4264 174.576 76.2612 174.748 76.1595 174.958C76.0537 175.166 76.012 175.4 76.0395 175.631C76.067 175.862 76.1626 176.08 76.314 176.257H76.3759Z" fill="#00FFFF"/>
<path fill-rule="evenodd" clip-rule="evenodd" d="M94.7042 29.4304C122.518 19.4771 150.765 26.6793 157.502 45.5658C164.239 64.4523 146.995 87.7898 119.026 97.7431C91.0575 107.696 62.9653 100.494 56.2591 81.6386C49.5528 62.7831 66.7357 39.4145 94.7042 29.4304Z" fill="url(#paint11_radial_146_169)"/>
<g style="mix-blend-mode:screen" opacity="0.75">
<path fill-rule="evenodd" clip-rule="evenodd" d="M94.1773 29.492C121.744 19.6624 149.435 26.7719 155.986 45.3801C162.538 63.9884 145.664 86.986 118.097 96.8156C90.5306 106.645 62.8402 99.5049 56.2884 80.9275C49.7367 62.3501 66.6414 39.3216 94.2083 29.492H94.1773Z" fill="#9CFFF8"/>
</g>
<path fill-rule="evenodd" clip-rule="evenodd" d="M93.9308 27.5758C121.745 17.6225 149.992 24.8247 156.729 43.6803C163.466 62.5359 146.221 85.9044 118.253 95.8886C90.2841 105.873 62.1919 98.6396 55.4856 79.7531C48.7793 60.8667 65.9622 37.529 93.9308 27.5758Z" fill="url(#paint12_radial_146_169)"/>
<path style="mix-blend-mode:screen" fill-rule="evenodd" clip-rule="evenodd" d="M153.639 60.0009C145.356 36.7869 110.774 27.8846 76.3774 40.1562C73.2222 41.2828 70.1276 42.5725 67.1061 44.02C56.1968 54.8697 51.283 68.1613 55.4242 79.7529C62.1305 98.6393 90.2535 105.842 118.191 95.8883C135.93 89.7061 149.343 77.8364 155.06 65.3175C154.775 63.5065 154.32 61.7264 153.7 60.0009H153.639Z" fill="url(#paint13_radial_146_169)"/>
<path fill-rule="evenodd" clip-rule="evenodd" d="M96.0312 33.5721C115.316 26.7099 134.693 31.6866 139.298 44.7C143.902 57.7134 132.004 73.7561 112.812 80.6492C93.6207 87.5423 74.1199 82.5657 69.546 69.5522C64.9722 56.5388 76.7777 40.4034 96.0931 33.5412L96.0312 33.5721Z" fill="url(#paint14_radial_146_169)"/>
<path fill-rule="evenodd" clip-rule="evenodd" d="M96.6802 35.4268C114.45 29.2447 132.282 33.6649 136.547 45.6583C140.812 57.6517 129.872 72.4579 112.132 78.7946C94.3932 85.1313 76.5304 80.5256 72.2656 68.5632C68.0007 56.6007 78.941 41.7326 96.6802 35.4268Z" fill="url(#paint15_radial_146_169)"/>
<path fill-rule="evenodd" clip-rule="evenodd" d="M73.2862 70.665C70.9993 59.1353 81.6613 45.6891 98.3189 39.7543C114.976 33.8194 131.727 37.4978 137.259 47.8529C137.114 47.1053 136.907 46.3712 136.64 45.6582C132.376 33.6649 114.544 29.0901 96.7737 35.4268C79.0036 41.7635 68.0942 56.5697 72.3591 68.5631C72.6233 69.2827 72.9329 69.9848 73.2862 70.665Z" fill="url(#paint16_radial_146_169)"/>
<g style="mix-blend-mode:screen" opacity="0.5">
<path fill-rule="evenodd" clip-rule="evenodd" d="M96.7439 35.9834C112.474 30.3886 128.297 33.2633 134.849 42.1656C128.668 32.8923 112.629 29.8013 96.6821 35.3652C83.2696 40.1255 73.751 49.7696 71.7422 59.3829C74.1218 49.9551 83.5786 40.62 96.7439 35.9216V35.9834Z" fill="#9CFFF8"/>
</g>
<path fill-rule="evenodd" clip-rule="evenodd" d="M76.8713 54.5296C75.4103 58.1026 74.8058 61.968 75.1063 65.8166C75.4068 69.6651 76.604 73.3899 78.602 76.6926C86.359 82.2256 99.2771 83.3694 112.133 78.7946C124.99 74.2198 134.57 64.8538 136.857 55.5188C136.012 50.9374 133.916 46.6791 130.802 43.215C127.687 39.7509 123.676 37.2158 119.211 35.8904C111.903 34.1317 104.235 34.6164 97.2065 37.2814C92.8255 38.6445 88.7627 40.8735 85.259 43.8364C81.7553 46.7992 78.882 50.4355 76.8095 54.5296H76.8713Z" fill="url(#paint17_radial_146_169)"/>
<path fill-rule="evenodd" clip-rule="evenodd" d="M163.774 71.9634C156.533 84.519 145.647 94.5768 132.561 100.803L133.271 102.04C147.673 94.3118 158.489 83.4931 163.805 71.9634H163.774Z" fill="url(#paint18_radial_146_169)"/>
<path style="mix-blend-mode:screen" opacity="0.5" fill-rule="evenodd" clip-rule="evenodd" d="M86.3593 77.8674C103.882 83.4623 136.641 67.4196 128.822 46.153C127.525 42.8279 125.257 39.9704 122.314 37.9526C119.37 35.9348 115.888 34.8501 112.319 34.8397C107.193 34.6936 102.086 35.5223 97.2686 37.2816C92.8876 38.6447 88.8248 40.8737 85.3211 43.8366C81.8175 46.7994 78.9442 50.4356 76.8717 54.5298C76.5428 55.2869 76.2539 56.0607 76.0064 56.8481C75.7187 57.8641 75.4917 58.8963 75.3265 59.9392C74.6791 63.7653 75.4402 67.6965 77.4688 71.0043C79.4974 74.3121 82.656 76.7724 86.3593 77.9293V77.8674Z" fill="url(#paint19_radial_146_169)"/>
<path style="mix-blend-mode:screen" opacity="0.5" fill-rule="evenodd" clip-rule="evenodd" d="M88.7378 43.4946C98.0091 37.3124 108.517 37.3124 112.411 43.309C116.305 49.3057 112.102 59.1972 102.923 65.3484C93.7443 71.4997 83.144 71.5306 79.2192 65.5648C75.2943 59.5991 79.5591 49.6458 88.7378 43.4946Z" fill="url(#paint20_radial_146_169)"/>
<path fill-rule="evenodd" clip-rule="evenodd" d="M118.159 36.6635C117.232 36.6635 115.44 36.6635 115.502 37.56C115.563 38.4564 117.263 38.6418 118.283 38.6727C119.303 38.7037 120.848 38.6727 120.879 37.8381C120.91 37.0036 119.148 36.6945 118.159 36.6635ZM124.958 42.1038C123.877 41.8256 122.022 41.7947 121.868 42.8148C121.713 43.8348 123.104 44.6385 124.186 44.9476C125.267 45.2567 126.998 45.2877 127.276 44.2058C127.554 43.1239 126.133 42.382 125.082 42.1038H124.958ZM122.424 50.4188C121.775 51.4389 122.981 52.8917 124.062 53.5099C125.144 54.1281 127.153 54.4372 127.709 53.5099C128.265 52.5826 127.276 51.2225 126.164 50.4188C125.051 49.6151 123.073 49.4915 122.424 50.4188ZM117.325 58.3011C116.918 58.8326 116.722 59.4953 116.773 60.1625C116.825 60.8297 117.12 61.4546 117.603 61.9176C118.092 62.4714 118.762 62.832 119.494 62.9341C120.225 63.0361 120.968 62.8729 121.59 62.474C122.455 61.7013 122.084 59.8775 121.095 58.8574C120.619 58.3566 119.99 58.0296 119.306 57.9287C118.623 57.8279 117.925 57.959 117.325 58.3011ZM107.621 64.4832C107.113 64.9201 106.775 65.5226 106.667 66.1843C106.56 66.846 106.69 67.5244 107.034 68.0998C107.218 68.4567 107.478 68.769 107.796 69.0147C108.113 69.2603 108.481 69.4335 108.873 69.5218C109.265 69.6102 109.671 69.6117 110.063 69.5262C110.456 69.4408 110.825 69.2704 111.144 69.0271C111.598 68.499 111.86 67.8331 111.888 67.1375C111.916 66.4418 111.708 65.7571 111.299 65.1942C110.904 64.6141 110.295 64.2138 109.606 64.0806C108.917 63.9474 108.204 64.0921 107.621 64.4832ZM97.7625 66.3069C97.0379 66.3227 96.3474 66.6176 95.835 67.1302C95.3225 67.6427 95.0277 68.3333 95.012 69.058C94.8964 69.7272 95.0352 70.4154 95.4012 70.9874C95.7672 71.5594 96.3339 71.9738 96.9898 72.1491C98.226 72.1491 99.3695 70.9436 99.524 69.3671C99.6786 67.7907 98.9368 66.2761 97.7625 66.2761V66.3069ZM85.1843 65.8433C84.5663 67.0797 84.5044 68.9344 85.6479 69.5835C86.7914 70.2326 88.4293 68.5325 88.7383 67.327C89.2019 65.4724 88.7383 64.4523 87.8112 64.2359C86.8841 64.0196 85.8642 64.545 85.1843 65.8742V65.8433ZM82.7738 58.5175C82.063 57.8065 80.5487 58.5174 79.6833 59.4139C78.818 60.3103 77.8909 62.2886 78.7871 63.1231C79.6833 63.9577 81.2595 62.7213 82.0321 61.7631C82.8047 60.8048 83.4536 59.2284 82.681 58.5175H82.7738ZM79.6833 51.5007C78.818 52.3044 77.9527 53.8499 78.4471 54.4063C78.9416 54.9627 80.5796 54.0354 81.3522 53.3244C82.1248 52.6135 83.2064 51.0679 82.6501 50.4188C82.0939 49.7697 80.5486 50.6661 79.5597 51.5007H79.6833ZM86.915 44.7621C88.4293 43.6494 88.8311 42.2584 87.4095 42.2584C86.1479 43.1213 84.9403 44.0607 83.7936 45.0713C83.5464 46.2459 85.4933 45.8131 86.8841 44.7621H86.915ZM93.714 38.58C94.6497 38.8808 95.6602 38.8515 96.5769 38.4971C97.4936 38.1427 98.2612 37.4846 98.7514 36.6326L97.1444 37.189C95.9759 37.5884 94.8306 38.0528 93.714 38.58ZM105.272 35.1489C104.871 35.9217 106.385 36.509 107.837 36.3854C109.29 36.2617 110.619 35.5198 109.939 34.7471C108.376 34.7761 106.817 34.9104 105.272 35.1489Z" fill="url(#paint21_radial_146_169)"/>
<path style="mix-blend-mode:screen" opacity="0.65" fill-rule="evenodd" clip-rule="evenodd" d="M119.025 97.7431C91.2108 107.635 63.2422 100.556 56.3505 81.9168C56.0415 81.2058 55.7324 80.4949 55.4852 79.753C51.344 68.1615 56.2578 54.8699 67.1671 44.0202C74.7876 36.6588 83.9206 31.0471 93.9304 27.5757C90.0982 27.5757 86.2352 27.5757 82.2794 27.823H81.5995C82.094 28.3175 82.5575 28.8121 82.9902 29.3376L81.5377 30.0486C68.6882 36.2466 57.9889 46.1513 50.8186 58.4864C42.8119 59.3821 34.9004 60.9854 27.1767 63.2776C24.3025 64.1431 21.4902 65.1014 18.7088 66.1832C15.9274 67.2651 12.7133 68.6251 9.68469 70.0161C-0.0193254 87.8207 -2.83161 106.831 3.19477 124.265C4.51293 128.083 6.23258 131.751 8.32488 135.207C9.36869 133.26 10.5351 131.381 11.8171 129.581L12.0334 129.272C20.8412 116.908 37.5297 101.452 50.355 92.1792C50.8781 93.0596 51.4562 93.9061 52.0857 94.7138C58.792 103.431 70.3812 108.871 84.1646 110.386C78.6272 128.767 74.383 147.514 71.4628 166.489C71.2465 167.849 71.0611 169.24 70.8447 170.6C94.4044 173.372 118.286 170.664 140.627 162.687C148.202 160.059 155.585 156.909 162.724 153.259L160.9 150.168L133.272 102.04L132.561 100.803C145.648 94.5769 156.533 84.5192 163.775 71.9635C164.238 71.098 164.671 70.2016 165.073 69.3361C173.664 71.809 181.205 74.1273 188.467 76.662C188.035 75.7965 187.633 74.931 187.2 74.0964C180.179 61.0382 169.518 50.2999 156.512 43.1856V43.4329C156.852 44.1439 157.13 44.8548 157.408 45.5967C164.115 64.4522 146.901 87.8208 118.932 97.774L119.025 97.7431Z" fill="url(#paint22_radial_146_169)"/>
<path style="mix-blend-mode:multiply" fill-rule="evenodd" clip-rule="evenodd" d="M139.73 7.2363C142.798 4.7056 146.075 2.44092 149.527 0.466838C128.479 -0.83138 107.384 2.12262 87.5017 9.15275C81.1709 11.3291 74.9785 13.8891 68.959 16.8186C70.0244 17.4659 71.0559 18.1675 72.0494 18.9206C74.9545 17.715 77.9213 16.6022 80.9499 15.5513C99.7747 8.8998 119.737 6.07294 139.668 7.2363H139.73ZM197.182 29.5538C203.888 35.8182 208.977 43.6134 212.016 52.2733C215.708 63.2625 216.02 75.1066 212.912 86.2751C216.25 87.7588 219.68 89.3662 223.327 91.0663C228.972 77.1981 229.519 61.7776 224.872 47.5439C222.478 40.6399 218.797 34.2523 214.025 28.7193C208.122 28.7193 202.528 28.9665 197.182 29.4611V29.5538Z" fill="url(#paint23_radial_146_169)"/>
<path fill-rule="evenodd" clip-rule="evenodd" d="M77.1789 174.804C76.2208 174.804 75.6955 176.133 77.5188 176.318C99.152 178.544 120.26 174.711 132.838 169.178C110.927 174.185 100.234 175.947 77.2098 174.804H77.1789Z" fill="#BAFFFF"/>
<path style="mix-blend-mode:screen" fill-rule="evenodd" clip-rule="evenodd" d="M93.6214 66.7706C93.6214 68.1156 93.2227 69.4304 92.4756 70.5487C91.7285 71.667 90.6667 72.5386 89.4243 73.0533C88.182 73.568 86.8149 73.7027 85.496 73.4403C84.1772 73.1779 82.9657 72.5302 82.0148 71.5792C81.064 70.6282 80.4164 69.4164 80.1541 68.0973C79.8917 66.7782 80.0264 65.4108 80.541 64.1682C81.0556 62.9256 81.927 61.8635 83.0451 61.1163C84.1632 60.3691 85.4777 59.9702 86.8224 59.9702C88.6231 59.9783 90.3477 60.6974 91.621 61.971C92.8943 63.2446 93.6133 64.9696 93.6214 66.7706Z" fill="url(#paint24_radial_146_169)"/>
<path style="mix-blend-mode:screen" fill-rule="evenodd" clip-rule="evenodd" d="M90.8704 66.7705C90.8704 67.5714 90.633 68.3543 90.1881 69.0202C89.7433 69.6861 89.111 70.2051 88.3712 70.5116C87.6315 70.8181 86.8175 70.8983 86.0321 70.742C85.2468 70.5858 84.5254 70.2001 83.9592 69.6338C83.393 69.0675 83.0074 68.346 82.8512 67.5605C82.695 66.775 82.7752 65.9608 83.0816 65.2209C83.3881 64.481 83.9069 63.8486 84.5727 63.4036C85.2385 62.9587 86.0212 62.7212 86.8219 62.7212C87.8957 62.7212 88.9254 63.1478 89.6846 63.9072C90.4439 64.6666 90.8704 65.6966 90.8704 66.7705Z" fill="url(#paint25_radial_146_169)"/>
<path style="mix-blend-mode:screen" fill-rule="evenodd" clip-rule="evenodd" d="M104.192 69.2125C104.192 70.5588 103.792 71.8748 103.044 72.9938C102.295 74.1128 101.232 74.9844 99.9874 75.4982C98.7432 76.012 97.3746 76.1448 96.0549 75.8799C94.7352 75.615 93.5238 74.9642 92.5742 74.0101C91.6246 73.0559 90.9795 71.8413 90.7206 70.5202C90.4618 69.199 90.6009 67.8307 91.1202 66.5886C91.6395 65.3466 92.5158 64.2867 93.6379 63.5432C94.7601 62.7997 96.0776 62.4061 97.4236 62.4122C99.2215 62.4204 100.943 63.1404 102.211 64.4149C103.48 65.6893 104.192 67.4143 104.192 69.2125Z" fill="url(#paint26_radial_146_169)"/>
<path style="mix-blend-mode:screen" d="M97.2672 73.2617C99.5032 73.2617 101.316 71.4488 101.316 69.2124C101.316 66.976 99.5032 65.1631 97.2672 65.1631C95.0313 65.1631 93.2188 66.976 93.2188 69.2124C93.2188 71.4488 95.0313 73.2617 97.2672 73.2617Z" fill="url(#paint27_radial_146_169)"/>
<path style="mix-blend-mode:screen" fill-rule="evenodd" clip-rule="evenodd" d="M85.6473 60.7735C85.6472 61.753 85.3565 62.7104 84.8117 63.5243C84.267 64.3383 83.4929 64.9722 82.5876 65.3456C81.6823 65.719 80.6865 65.8151 79.7264 65.6218C78.7664 65.4284 77.8855 64.9543 77.1952 64.2595C76.5049 63.5647 76.0364 62.6806 75.8491 61.7192C75.6618 60.7578 75.7642 59.7624 76.1432 58.8593C76.5221 57.9561 77.1608 57.1859 77.978 56.6462C78.7952 56.1065 79.7542 55.8216 80.7335 55.8277C82.0395 55.8359 83.2893 56.3606 84.2099 57.2872C85.1306 58.2138 85.6473 59.4671 85.6473 60.7735Z" fill="url(#paint28_radial_146_169)"/>
<path style="mix-blend-mode:screen" fill-rule="evenodd" clip-rule="evenodd" d="M83.6067 60.7736C83.6067 61.385 83.4254 61.9826 83.0858 62.4909C82.7463 62.9992 82.2636 63.3954 81.6989 63.6294C81.1342 63.8633 80.5128 63.9246 79.9133 63.8053C79.3139 63.686 78.7632 63.3916 78.331 62.9593C77.8987 62.527 77.6044 61.9762 77.4852 61.3766C77.3659 60.777 77.4271 60.1555 77.6611 59.5907C77.895 59.0259 78.291 58.5431 78.7993 58.2035C79.3075 57.8638 79.905 57.6825 80.5162 57.6825C80.9279 57.6602 81.3398 57.7249 81.7248 57.8723C82.1099 58.0198 82.4595 58.2467 82.7511 58.5383C83.0426 58.8299 83.2695 59.1796 83.4169 59.5648C83.5644 59.9499 83.629 60.3618 83.6067 60.7736Z" fill="url(#paint29_radial_146_169)"/>
<g opacity="0.85">
<path style="mix-blend-mode:screen" d="M109.291 71.438C111.919 71.438 114.05 69.3068 114.05 66.6777C114.05 64.0487 111.919 61.9175 109.291 61.9175C106.662 61.9175 104.531 64.0487 104.531 66.6777C104.531 69.3068 106.662 71.438 109.291 71.438Z" fill="url(#paint30_radial_146_169)"/>
<path style="mix-blend-mode:screen" fill-rule="evenodd" clip-rule="evenodd" d="M112.134 66.6779C112.127 67.239 111.956 67.7858 111.639 68.2493C111.323 68.7129 110.877 69.0726 110.357 69.2831C109.837 69.4936 109.266 69.5455 108.717 69.4324C108.167 69.3192 107.664 69.0459 107.269 68.647C106.875 68.2481 106.607 67.7413 106.5 67.1905C106.392 66.6398 106.451 66.0696 106.667 65.5517C106.883 65.0339 107.247 64.5916 107.714 64.2804C108.181 63.9693 108.729 63.8033 109.29 63.8032C109.666 63.8032 110.039 63.8777 110.386 64.0226C110.733 64.1674 111.047 64.3797 111.312 64.6471C111.576 64.9144 111.785 65.2316 111.926 65.5802C112.067 65.9288 112.138 66.3019 112.134 66.6779Z" fill="url(#paint31_radial_146_169)"/>
</g>
<g opacity="0.75">
<path style="mix-blend-mode:screen" fill-rule="evenodd" clip-rule="evenodd" d="M123.414 60.3408C123.414 61.1369 123.178 61.915 122.735 62.5765C122.292 63.2379 121.663 63.7529 120.927 64.0562C120.191 64.3594 119.381 64.4371 118.601 64.2795C117.821 64.122 117.105 63.7362 116.545 63.1711C115.984 62.606 115.604 61.8871 115.452 61.1056C115.301 60.3241 115.385 59.5152 115.694 58.7815C116.002 58.0478 116.522 57.4224 117.187 56.9845C117.852 56.5467 118.631 56.3163 119.427 56.3224C119.954 56.3224 120.474 56.4265 120.96 56.6288C121.446 56.8311 121.887 57.1277 122.257 57.5012C122.628 57.8748 122.921 58.318 123.12 58.8053C123.318 59.2927 123.418 59.8146 123.414 60.3408Z" fill="url(#paint32_radial_146_169)"/>
<path style="mix-blend-mode:screen" fill-rule="evenodd" clip-rule="evenodd" d="M121.807 60.3408C121.813 60.8202 121.676 61.2906 121.414 61.6918C121.151 62.093 120.775 62.4068 120.334 62.5931C119.892 62.7794 119.405 62.8297 118.934 62.7377C118.464 62.6456 118.031 62.4154 117.692 62.0764C117.353 61.7373 117.123 61.3049 117.031 60.8343C116.939 60.3638 116.989 59.8764 117.176 59.4346C117.362 58.9928 117.676 58.6166 118.077 58.3541C118.478 58.0915 118.948 57.9545 119.428 57.9606C120.059 57.9606 120.664 58.2114 121.11 58.6578C121.557 59.1041 121.807 59.7095 121.807 60.3408Z" fill="url(#paint33_radial_146_169)"/>
</g>
<path style="mix-blend-mode:screen" fill-rule="evenodd" clip-rule="evenodd" d="M84.7525 52.3659C84.7525 53.1729 84.5133 53.9617 84.065 54.6327C83.6168 55.3037 82.9797 55.8267 82.2342 56.1355C81.4888 56.4443 80.6686 56.5251 79.8773 56.3677C79.0859 56.2103 78.3591 55.8217 77.7886 55.251C77.2181 54.6804 76.8295 53.9534 76.6721 53.1619C76.5147 52.3704 76.5955 51.55 76.9043 50.8045C77.213 50.0589 77.7359 49.4217 78.4067 48.9733C79.0776 48.525 79.8663 48.2856 80.6731 48.2856C81.7551 48.2856 82.7927 48.7155 83.5577 49.4807C84.3227 50.2459 84.7525 51.2837 84.7525 52.3659Z" fill="url(#paint34_radial_146_169)"/>
<path style="mix-blend-mode:screen" fill-rule="evenodd" clip-rule="evenodd" d="M83.0821 52.366C83.0821 52.8503 82.9381 53.3236 82.6684 53.7258C82.3988 54.1281 82.0156 54.441 81.5677 54.6249C81.1198 54.8088 80.6273 54.8553 80.1529 54.7585C79.6785 54.6617 79.2435 54.4261 78.9034 54.0815C78.5632 53.7369 78.3331 53.2989 78.2424 52.8232C78.1517 52.3475 78.2045 51.8555 78.3941 51.4099C78.5836 50.9643 78.9013 50.585 79.3069 50.3205C79.7124 50.0559 80.1875 49.9179 80.6716 49.924C80.9908 49.924 81.3068 49.9874 81.6013 50.1105C81.8958 50.2336 82.1629 50.414 82.3871 50.6411C82.6114 50.8683 82.7883 51.1378 82.9076 51.4339C83.0269 51.73 83.0862 52.0468 83.0821 52.366Z" fill="url(#paint35_radial_146_169)"/>
<path style="mix-blend-mode:screen" opacity="0.2" fill-rule="evenodd" clip-rule="evenodd" d="M165.074 69.3358C185.113 74.8279 204.612 82.1323 223.328 91.1588C228.973 77.2907 229.521 61.8701 224.874 47.6364C222.479 40.7325 218.799 34.3449 214.026 28.8118C196.606 28.7823 179.273 31.2812 162.57 36.2304C164.38 38.6395 165.818 41.307 166.835 44.1435C169.579 52.4464 168.946 61.4957 165.074 69.3358Z" fill="url(#paint36_radial_146_169)"/>
<path style="mix-blend-mode:screen" opacity="0.25" fill-rule="evenodd" clip-rule="evenodd" d="M84.2254 110.386C78.2702 130.127 73.7973 150.285 70.8438 170.692C94.4034 173.465 118.285 170.757 140.626 162.779C148.201 160.152 155.584 157.002 162.723 153.352L132.56 100.803C129.015 102.628 125.349 104.208 121.589 105.533C109.651 109.914 96.8858 111.572 84.2254 110.386Z" fill="url(#paint37_radial_146_169)"/>
<path style="mix-blend-mode:screen" opacity="0.25" fill-rule="evenodd" clip-rule="evenodd" d="M47.6969 86.584C46.1996 81.953 45.7008 77.0571 46.2336 72.2192C46.7663 67.3812 48.3183 62.7112 50.7874 58.5171C36.5257 60.0212 22.6196 63.919 9.65347 70.0468C-0.0505422 87.8514 -2.86287 106.862 3.16351 124.295C4.48167 128.114 6.20136 131.782 8.29367 135.238C15.0618 122.317 35.3351 103.152 50.3238 92.1789C49.2092 90.4225 48.2968 88.5456 47.6042 86.584H47.6969Z" fill="url(#paint38_radial_146_169)"/>
<path style="mix-blend-mode:screen" opacity="0.2" fill-rule="evenodd" clip-rule="evenodd" d="M92.9718 25.1645C104.04 21.1192 115.822 19.3937 127.585 20.0952C133.44 12.0839 140.916 5.39599 149.527 0.466838C128.479 -0.83138 107.384 2.12262 87.5017 9.15275C81.1709 11.3291 74.9785 13.8891 68.959 16.8186C74.189 20.278 78.9202 24.4382 83.0205 29.1829C86.2462 27.6065 89.5583 26.2133 92.9409 25.01L92.9718 25.1645Z" fill="url(#paint39_radial_146_169)"/>
<path d="M140.596 19.5076C140.333 19.4192 140.112 19.2384 139.972 18.9989C139.833 18.7594 139.785 18.4774 139.838 18.2054C139.891 17.9334 140.041 17.6899 140.26 17.52C140.479 17.3502 140.752 17.2656 141.028 17.282C145.952 18.184 150.754 19.6571 155.337 21.6714C159.528 23.5228 163.447 25.9353 166.988 28.8427C167.193 29.0604 167.306 29.3478 167.306 29.6464C167.306 29.9449 167.193 30.2323 166.988 30.45C166.895 30.5645 166.781 30.6594 166.651 30.7292C166.521 30.7991 166.379 30.8424 166.232 30.8568C166.086 30.8712 165.938 30.8563 165.797 30.813C165.656 30.7697 165.525 30.6989 165.412 30.6046C162.038 27.8143 158.294 25.505 154.286 23.7424C149.86 21.8031 145.225 20.3821 140.472 19.5076H140.596ZM152.772 10.729C152.489 10.6662 152.241 10.4984 152.077 10.2595C151.913 10.0207 151.846 9.72849 151.889 9.44203C151.932 9.15558 152.083 8.89618 152.31 8.71622C152.537 8.53626 152.823 8.44914 153.112 8.47247C160.296 9.55054 167.336 11.4378 174.096 14.0982C180.286 16.5508 186.118 19.8259 191.434 23.8351C191.574 23.9177 191.694 24.0291 191.788 24.1619C191.881 24.2947 191.945 24.4458 191.975 24.6053C192.006 24.7648 192.002 24.9289 191.964 25.0868C191.926 25.2447 191.855 25.3927 191.756 25.521C191.656 25.6493 191.53 25.7549 191.387 25.8308C191.243 25.9068 191.086 25.9513 190.924 25.9614C190.761 25.9715 190.599 25.947 190.447 25.8895C190.296 25.832 190.158 25.7428 190.043 25.6279C184.91 21.7278 179.263 18.5553 173.262 16.2002C166.663 13.6017 159.788 11.766 152.772 10.729ZM148.322 13.5727C148.023 13.527 147.754 13.3647 147.575 13.1214C147.395 12.8781 147.32 12.5736 147.364 12.2745C147.386 12.1275 147.438 11.9864 147.516 11.8597C147.594 11.7329 147.696 11.6231 147.817 11.5367C147.938 11.4502 148.075 11.3889 148.22 11.3564C148.365 11.3238 148.516 11.3207 148.662 11.3472C155.112 12.3256 161.428 14.0474 167.483 16.4784C173.013 18.6781 178.213 21.6323 182.935 25.257C183.171 25.4457 183.325 25.718 183.365 26.0173C183.405 26.3167 183.329 26.62 183.151 26.8644C183.058 26.9821 182.942 27.0804 182.811 27.1534C182.68 27.2265 182.535 27.2729 182.386 27.2902C182.237 27.3074 182.086 27.295 181.941 27.2538C181.797 27.2126 181.662 27.1433 181.544 27.0498C176.966 23.5598 171.934 20.7104 166.586 18.5803C160.696 16.2268 154.559 14.547 148.291 13.5727H148.322ZM144.273 16.4784C144.126 16.456 143.985 16.4043 143.859 16.3264C143.732 16.2486 143.622 16.1461 143.536 16.0251C143.449 15.904 143.388 15.7669 143.355 15.6218C143.323 15.4766 143.32 15.3265 143.346 15.1801C143.369 15.0331 143.42 14.892 143.498 14.7653C143.576 14.6386 143.679 14.5287 143.8 14.4423C143.921 14.3558 144.058 14.2945 144.203 14.262C144.348 14.2294 144.498 14.2263 144.644 14.2528C150.337 15.1993 155.904 16.7858 161.24 18.9821C166.119 21.0004 170.695 23.6842 174.838 26.9571C175.072 27.1416 175.222 27.4113 175.257 27.7069C175.292 28.0026 175.208 28.2999 175.023 28.5336C174.932 28.6493 174.819 28.7458 174.69 28.8177C174.562 28.8897 174.42 28.9356 174.274 28.9528C173.978 28.9876 173.681 28.9035 173.447 28.719C169.453 25.5815 165.043 23.0121 160.344 21.0841C155.179 18.9432 149.788 17.398 144.273 16.4784ZM48.4695 54.9622C48.3283 55.0949 48.1454 55.1743 47.9521 55.1869C47.7588 55.1994 47.5672 55.1444 47.4101 55.0311C47.253 54.9178 47.1402 54.7533 47.091 54.566C47.0418 54.3786 47.0593 54.1799 47.1405 54.004C50.5339 49.3162 54.4419 45.0237 58.7916 41.207C63.4467 37.1083 68.4988 33.4842 73.873 30.3882C74.0615 30.2816 74.2846 30.2543 74.4933 30.3123C74.7019 30.3703 74.879 30.5088 74.9855 30.6973C75.0921 30.8859 75.1194 31.109 75.0614 31.3177C75.0034 31.5264 74.865 31.7035 74.6765 31.8101C69.4259 34.8655 64.4793 38.4157 59.9041 42.4125C55.6344 46.154 51.7988 50.3637 48.4695 54.9622ZM42.5049 56.0132C42.4382 56.1008 42.3548 56.1744 42.2596 56.2296C42.1643 56.2849 42.059 56.3207 41.9499 56.3351C41.8407 56.3494 41.7298 56.342 41.6235 56.3133C41.5172 56.2846 41.4176 56.2351 41.3305 56.1678C41.2439 56.1039 41.171 56.0232 41.1161 55.9306C41.0613 55.838 41.0256 55.7353 41.0112 55.6287C40.9968 55.522 41.004 55.4135 41.0323 55.3096C41.0606 55.2058 41.1094 55.1087 41.176 55.0241C45.0736 49.7759 49.5408 44.976 54.4958 40.7124C59.7882 36.1813 65.5005 32.1654 71.5551 28.719C71.6505 28.6642 71.7557 28.6287 71.8648 28.6146C71.9739 28.6005 72.0847 28.608 72.1908 28.6367C72.297 28.6654 72.3965 28.7148 72.4836 28.7819C72.5708 28.8491 72.6438 28.9327 72.6986 29.0281C72.7534 29.1235 72.7889 29.2288 72.803 29.3379C72.8171 29.447 72.8096 29.5578 72.7809 29.664C72.7522 29.7702 72.7029 29.8697 72.6357 29.9568C72.5686 30.044 72.4849 30.117 72.3896 30.1718C66.3995 33.5271 60.7665 37.4835 55.5775 41.9797C50.6988 46.1433 46.3127 50.8517 42.5049 56.0132ZM36.324 57.2805C36.1834 57.4281 35.9937 57.519 35.7907 57.5363C35.5876 57.5535 35.3853 57.4959 35.2219 57.3742C35.0584 57.2526 34.9451 57.0753 34.9033 56.8758C34.8615 56.6763 34.8942 56.4685 34.9951 56.2914C39.3986 50.4467 44.4358 45.1077 50.0147 40.3724C55.9566 35.3411 62.3737 30.9 69.1755 27.1117C69.365 27.0098 69.5865 26.985 69.7938 27.0426C70.0011 27.1002 70.1782 27.2357 70.288 27.4208C70.3889 27.6186 70.4099 27.8477 70.3466 28.0606C70.2833 28.2735 70.1406 28.4539 69.9481 28.5645C63.2467 32.2877 56.9318 36.6676 51.0964 41.6397C45.6008 46.2821 40.6454 51.5288 36.324 57.2805ZM30.1431 58.7952C30.0846 58.8978 30.005 58.9869 29.9095 59.0564C29.814 59.126 29.7048 59.1746 29.5892 59.1988C29.4736 59.223 29.3542 59.2224 29.2388 59.197C29.1234 59.1716 29.0147 59.122 28.92 59.0514C28.8252 58.9809 28.7465 58.891 28.689 58.7878C28.6316 58.6845 28.5967 58.5703 28.5867 58.4526C28.5767 58.3348 28.5918 58.2163 28.631 58.1049C28.6702 57.9934 28.7327 57.8915 28.8142 57.806C33.7131 51.3372 39.3212 45.4377 45.5335 40.2178C52.1147 34.6459 59.2377 29.7478 66.7958 25.597C66.9843 25.4905 67.2075 25.4631 67.4161 25.5211C67.6247 25.5791 67.8018 25.7176 67.9084 25.9061C68.0149 26.0947 68.0423 26.3179 67.9843 26.5266C67.9263 26.7352 67.7879 26.9123 67.5994 27.0189C60.1347 31.1363 53.0954 35.982 46.5843 41.4852C40.4723 46.6203 34.9572 52.4268 30.1431 58.7952ZM203.208 92.0243C203.301 91.8288 203.431 91.6536 203.592 91.5088C203.753 91.364 203.94 91.2524 204.144 91.1806C204.348 91.1087 204.565 91.078 204.781 91.0902C204.996 91.1023 205.208 91.1572 205.403 91.2515C205.799 91.4448 206.104 91.7875 206.248 92.2047C206.393 92.6218 206.367 93.0793 206.175 93.4771C201.533 102.721 195.417 111.146 188.065 118.422C180.025 126.425 170.951 133.317 161.085 138.916C160.9 139.025 160.694 139.096 160.48 139.123C160.267 139.151 160.05 139.136 159.842 139.078C159.634 139.021 159.44 138.922 159.272 138.788C159.103 138.654 158.963 138.487 158.86 138.298C158.644 137.919 158.585 137.471 158.695 137.05C158.804 136.628 159.075 136.266 159.448 136.041C169.066 130.601 177.911 123.895 185.747 116.104C192.837 109.079 198.734 100.946 203.208 92.0243ZM67.8775 152.64C68.0904 152.677 68.2936 152.757 68.4751 152.874C68.6566 152.991 68.8126 153.144 68.9337 153.323C69.0549 153.501 69.1387 153.703 69.1803 153.915C69.2218 154.127 69.2202 154.345 69.1755 154.557C69.1349 154.771 69.052 154.975 68.9317 155.157C68.8114 155.338 68.656 155.494 68.4747 155.615C68.2934 155.736 68.0898 155.819 67.8758 155.861C67.6618 155.902 67.4417 155.9 67.2285 155.855C58.0182 154.036 49.1662 150.726 41.0215 146.056C33.7591 141.866 27.4451 136.214 22.4788 129.457C22.3545 129.281 22.2662 129.082 22.2192 128.871C22.1721 128.66 22.1671 128.443 22.2044 128.23C22.2417 128.017 22.3207 127.814 22.4367 127.632C22.5527 127.45 22.7036 127.293 22.8805 127.17C23.0535 127.04 23.2509 126.946 23.461 126.894C23.671 126.843 23.8894 126.834 24.1029 126.868C24.3165 126.903 24.5209 126.98 24.7038 127.096C24.8867 127.211 25.0444 127.363 25.1674 127.541C29.9086 133.924 35.9161 139.259 42.8139 143.212C50.6448 147.697 59.1509 150.88 68.0011 152.64H67.8775ZM192.546 87.7277C192.646 87.5348 192.782 87.3635 192.948 87.2234C193.113 87.0833 193.305 86.9773 193.512 86.9113C193.718 86.8452 193.936 86.8206 194.152 86.8387C194.368 86.8568 194.579 86.9172 194.771 87.0167C194.964 87.1161 195.135 87.2526 195.275 87.4183C195.416 87.584 195.522 87.7756 195.588 87.9823C195.654 88.1889 195.678 88.4065 195.66 88.6227C195.642 88.8389 195.582 89.0494 195.482 89.2423C191.261 97.3458 185.773 104.723 179.226 111.096C172.105 118.113 164.106 124.181 155.43 129.148C155.241 129.292 155.023 129.394 154.791 129.448C154.559 129.501 154.319 129.504 154.085 129.456C153.852 129.409 153.632 129.312 153.439 129.172C153.247 129.033 153.086 128.854 152.968 128.647C152.851 128.44 152.778 128.211 152.757 127.974C152.735 127.737 152.764 127.498 152.842 127.273C152.92 127.048 153.045 126.843 153.209 126.671C153.373 126.498 153.571 126.363 153.792 126.273C162.224 121.469 169.995 115.588 176.909 108.778C183.2 102.632 188.478 95.5267 192.546 87.7277ZM70.1953 141.327C70.6181 141.423 70.9867 141.68 71.2232 142.044C71.4597 142.407 71.5455 142.849 71.4624 143.274C71.4219 143.488 71.339 143.692 71.2187 143.874C71.0983 144.056 70.9429 144.212 70.7616 144.333C70.5803 144.453 70.3767 144.537 70.1627 144.578C69.9487 144.619 69.7287 144.617 69.5154 144.573C61.4039 142.917 53.6031 139.997 46.3989 135.918C39.9466 132.24 34.3022 127.299 29.8031 121.389C29.6708 121.216 29.5746 121.018 29.52 120.806C29.4654 120.595 29.4537 120.375 29.4853 120.159C29.517 119.943 29.5915 119.735 29.7045 119.549C29.8174 119.362 29.9665 119.199 30.1431 119.071C30.4944 118.822 30.9287 118.717 31.3549 118.781C31.7812 118.844 32.1665 119.07 32.43 119.411C36.6727 124.961 41.9914 129.597 48.0677 133.043C54.955 136.966 62.4252 139.763 70.1953 141.327ZM181.761 83.5856C181.864 83.3967 182.004 83.2301 182.171 83.0953C182.339 82.9604 182.532 82.86 182.739 82.7997C182.945 82.7394 183.162 82.7205 183.376 82.744C183.59 82.7674 183.797 82.8328 183.986 82.9365C184.369 83.1513 184.652 83.5088 184.774 83.9313C184.895 84.3538 184.845 84.8071 184.635 85.193C180.787 92.043 175.956 98.2916 170.295 103.739C164.127 109.702 157.257 114.892 149.836 119.195C149.459 119.416 149.01 119.479 148.587 119.368C148.164 119.258 147.802 118.985 147.58 118.607C147.359 118.23 147.296 117.781 147.407 117.358C147.517 116.934 147.79 116.572 148.167 116.351C155.362 112.212 162.016 107.197 167.977 101.421C173.427 96.2006 178.072 90.2004 181.761 83.6165V83.5856ZM72.7295 129.952C73.1178 130.081 73.4448 130.349 73.6486 130.704C73.8524 131.059 73.9186 131.477 73.8346 131.877C73.7507 132.278 73.5225 132.634 73.1933 132.877C72.8642 133.121 72.4572 133.235 72.0496 133.197C65.1052 131.768 58.4163 129.298 52.2089 125.872C46.6217 122.808 41.6791 118.694 37.6529 113.755C37.5156 113.587 37.413 113.393 37.3511 113.185C37.2892 112.977 37.2692 112.759 37.2922 112.544C37.3152 112.328 37.3807 112.119 37.4851 111.929C37.5895 111.739 37.7305 111.571 37.9001 111.436C38.2423 111.167 38.6763 111.042 39.1094 111.088C39.5424 111.134 39.9403 111.348 40.218 111.683C43.9777 116.298 48.5954 120.139 53.8159 122.997C59.7282 126.268 66.1068 128.613 72.7295 129.952ZM170.666 79.9381C170.911 79.5955 171.276 79.3582 171.689 79.2738C172.102 79.1895 172.531 79.2644 172.891 79.4835C173.251 79.7025 173.514 80.0495 173.629 80.4549C173.744 80.8603 173.701 81.294 173.509 81.6691C170.071 87.2293 165.914 92.3116 161.147 96.7845C156.037 101.569 150.408 105.768 144.366 109.303C143.988 109.519 143.54 109.579 143.119 109.469C142.697 109.359 142.335 109.089 142.11 108.716C141.999 108.53 141.926 108.323 141.896 108.108C141.865 107.894 141.878 107.675 141.932 107.465C141.987 107.255 142.083 107.058 142.214 106.886C142.345 106.713 142.51 106.568 142.697 106.46C148.574 103.022 154.047 98.9368 159.015 94.2807C163.581 90.0098 167.551 85.1442 170.82 79.8145L170.666 79.9381ZM75.5727 119.071C75.8726 119.251 76.1084 119.521 76.2469 119.842C76.3853 120.163 76.4193 120.52 76.3442 120.861C76.2691 121.203 76.0886 121.512 75.8281 121.746C75.5677 121.979 75.2405 122.125 74.8928 122.162C69.195 120.992 63.684 119.047 58.5134 116.382C53.887 113.939 49.7073 110.731 46.1516 106.892C46.0055 106.734 45.892 106.548 45.8176 106.346C45.7432 106.144 45.7093 105.929 45.7179 105.714C45.7265 105.499 45.7775 105.287 45.8678 105.092C45.9581 104.896 46.086 104.72 46.2443 104.574C46.4026 104.428 46.5881 104.314 46.7903 104.24C46.9924 104.166 47.2072 104.132 47.4224 104.14C47.6377 104.149 47.8491 104.2 48.0447 104.29C48.2402 104.38 48.4161 104.508 48.5622 104.667C51.8865 108.252 55.8078 111.233 60.1514 113.476C65.0279 115.991 70.2275 117.821 75.6036 118.917L75.5727 119.071Z" fill="url(#paint40_radial_146_169)"/>
<defs>
<radialGradient id="paint0_radial_146_169" cx="0" cy="0" r="1" gradientUnits="userSpaceOnUse" gradientTransform="translate(132.313 159.874) scale(148.99 149.021)">
<stop stop-color="#657D94"/>
<stop offset="1" stop-color="#293140"/>
</radialGradient>
<radialGradient id="paint1_radial_146_169" cx="0" cy="0" r="1" gradientUnits="userSpaceOnUse" gradientTransform="translate(79.5902 166.396) scale(162.434 162.467)">
<stop stop-color="#0077FF"/>
<stop offset="0.25" stop-color="#006BEB"/>
<stop offset="0.77" stop-color="#004DB9"/>
<stop offset="0.79" stop-color="#004CB7"/>
</radialGradient>
<radialGradient id="paint2_radial_146_169" cx="0" cy="0" r="1" gradientUnits="userSpaceOnUse" gradientTransform="translate(47.9124 162.161) scale(215.683 215.726)">
<stop stop-color="#2B8FFF"/>
<stop offset="0.32" stop-color="#1F7DEB"/>
<stop offset="0.97" stop-color="#014EB9"/>
<stop offset="1" stop-color="#004CB7"/>
</radialGradient>
<radialGradient id="paint3_radial_146_169" cx="0" cy="0" r="1" gradientUnits="userSpaceOnUse" gradientTransform="translate(44.1734 201.17) scale(194.049 194.089)">
<stop stop-color="#00CCFF"/>
<stop offset="1"/>
</radialGradient>
<radialGradient id="paint4_radial_146_169" cx="0" cy="0" r="1" gradientUnits="userSpaceOnUse" gradientTransform="translate(180.864 159.286) scale(89.9321 89.9503)">
<stop stop-color="#748FA8"/>
<stop offset="1" stop-color="#475670"/>
</radialGradient>
<radialGradient id="paint5_radial_146_169" cx="0" cy="0" r="1" gradientUnits="userSpaceOnUse" gradientTransform="translate(66.5797 -4.32408) scale(39.9286 39.9366)">
<stop stop-color="#688096"/>
<stop offset="1" stop-color="#404E66"/>
</radialGradient>
<radialGradient id="paint6_radial_146_169" cx="0" cy="0" r="1" gradientUnits="userSpaceOnUse" gradientTransform="translate(58.4211 185.189) scale(93.208 93.2268)">
<stop stop-color="#89A9C7"/>
<stop offset="1" stop-color="#526482"/>
</radialGradient>
<radialGradient id="paint7_radial_146_169" cx="0" cy="0" r="1" gradientUnits="userSpaceOnUse" gradientTransform="translate(191.466 -21.6653) scale(76.9831 76.9987)">
<stop stop-color="#688096"/>
<stop offset="1" stop-color="#404E66"/>
</radialGradient>
<radialGradient id="paint8_radial_146_169" cx="0" cy="0" r="1" gradientUnits="userSpaceOnUse" gradientTransform="translate(79.9926 160.152) scale(184.098 184.135)">
<stop stop-color="#89A9C7"/>
<stop offset="1" stop-color="#526482"/>
</radialGradient>
<radialGradient id="paint9_radial_146_169" cx="0" cy="0" r="1" gradientUnits="userSpaceOnUse" gradientTransform="translate(18.4606 206.765) scale(155.79 155.821)">
<stop stop-color="#89A9C7"/>
<stop offset="1" stop-color="#526482"/>
</radialGradient>
<radialGradient id="paint10_radial_146_169" cx="0" cy="0" r="1" gradientUnits="userSpaceOnUse" gradientTransform="translate(136.764 17.0968) scale(179.524 179.561)">
<stop offset="0.04"/>
<stop offset="0.72"/>
<stop offset="0.74" stop-color="#050708"/>
<stop offset="0.78" stop-color="#121C1E"/>
<stop offset="0.83" stop-color="#273D41"/>
<stop offset="0.88" stop-color="#446B72"/>
<stop offset="0.94" stop-color="#6AA7B1"/>
<stop offset="1" stop-color="#99F0FF"/>
</radialGradient>
<radialGradient id="paint11_radial_146_169" cx="0" cy="0" r="1" gradientUnits="userSpaceOnUse" gradientTransform="translate(90.594 103.894) scale(90.7356 90.7539)">
<stop stop-color="#00A3DD"/>
<stop offset="0.13" stop-color="#009AD3"/>
<stop offset="0.37" stop-color="#0083B7"/>
<stop offset="0.67" stop-color="#005D8B"/>
<stop offset="1" stop-color="#002C51"/>
</radialGradient>
<radialGradient id="paint12_radial_146_169" cx="0" cy="0" r="1" gradientUnits="userSpaceOnUse" gradientTransform="translate(95.3215 114.528) scale(97.1637 97.1834)">
<stop stop-color="#00A3DD"/>
<stop offset="0.21" stop-color="#009AD3"/>
<stop offset="0.57" stop-color="#0084B7"/>
<stop offset="1" stop-color="#00618E"/>
</radialGradient>
<radialGradient id="paint13_radial_146_169" cx="0" cy="0" r="1" gradientUnits="userSpaceOnUse" gradientTransform="translate(106.849 -6.3027) scale(128.717 128.743)">
<stop offset="0.44" stop-color="#000014"/>
<stop offset="0.49" stop-color="#00071A"/>
<stop offset="0.57" stop-color="#00192A"/>
<stop offset="0.65" stop-color="#003845"/>
<stop offset="0.75" stop-color="#00626A"/>
<stop offset="0.85" stop-color="#009999"/>
<stop offset="0.96" stop-color="#00DBD2"/>
<stop offset="1" stop-color="#00F7EB"/>
</radialGradient>
<radialGradient id="paint14_radial_146_169" cx="0" cy="0" r="1" gradientUnits="userSpaceOnUse" gradientTransform="translate(87.5634 87.7587) scale(68.8862 68.9001)">
<stop stop-color="#00C9FF"/>
<stop offset="0.17" stop-color="#00C1F5"/>
<stop offset="0.47" stop-color="#00ABD9"/>
<stop offset="0.85" stop-color="#0089AD"/>
<stop offset="1" stop-color="#007999"/>
</radialGradient>
<radialGradient id="paint15_radial_146_169" cx="0" cy="0" r="1" gradientUnits="userSpaceOnUse" gradientTransform="translate(109.382 58.7954) scale(82.0824 82.099)">
<stop stop-color="#002C51"/>
<stop offset="0.14" stop-color="#003157"/>
<stop offset="0.32" stop-color="#003F68"/>
<stop offset="0.53" stop-color="#005784"/>
<stop offset="0.75" stop-color="#0078AA"/>
<stop offset="0.99" stop-color="#00A2DC"/>
<stop offset="1" stop-color="#00A3DD"/>
</radialGradient>
<radialGradient id="paint16_radial_146_169" cx="0" cy="0" r="1" gradientUnits="userSpaceOnUse" gradientTransform="translate(99.7095 45.8128) scale(26.8869 26.8924)">
<stop stop-color="#002C51"/>
<stop offset="0.38" stop-color="#004872"/>
<stop offset="0.77" stop-color="#006290"/>
<stop offset="1" stop-color="#006B9B"/>
</radialGradient>
<radialGradient id="paint17_radial_146_169" cx="0" cy="0" r="1" gradientUnits="userSpaceOnUse" gradientTransform="translate(90.6239 58.0225) scale(45.8314 45.8407)">
<stop stop-color="#0077FF"/>
<stop offset="0.25" stop-color="#006BEB"/>
<stop offset="0.77" stop-color="#004DB9"/>
<stop offset="0.79" stop-color="#004CB7"/>
</radialGradient>
<radialGradient id="paint18_radial_146_169" cx="0" cy="0" r="1" gradientUnits="userSpaceOnUse" gradientTransform="translate(141.276 105.749) scale(49.6018 49.6117)">
<stop stop-color="#404E66"/>
<stop offset="1" stop-color="#688096"/>
</radialGradient>
<radialGradient id="paint19_radial_146_169" cx="0" cy="0" r="1" gradientUnits="userSpaceOnUse" gradientTransform="translate(80.982 68.2542) scale(52.4449 52.4555)">
<stop stop-color="#4DB6FF"/>
<stop offset="0.15" stop-color="#3F94D9"/>
<stop offset="0.45" stop-color="#265591"/>
<stop offset="0.71" stop-color="#13275D"/>
<stop offset="0.9" stop-color="#070B3C"/>
<stop offset="1" stop-color="#030030"/>
</radialGradient>
<radialGradient id="paint20_radial_146_169" cx="0" cy="0" r="1" gradientUnits="userSpaceOnUse" gradientTransform="translate(83.3295 72.5816) scale(48.551 48.5608)">
<stop stop-color="#4DB6FF"/>
<stop offset="0.15" stop-color="#3F94D9"/>
<stop offset="0.45" stop-color="#265591"/>
<stop offset="0.71" stop-color="#13275D"/>
<stop offset="0.9" stop-color="#070B3C"/>
<stop offset="1" stop-color="#030030"/>
</radialGradient>
<radialGradient id="paint21_radial_146_169" cx="0" cy="0" r="1" gradientUnits="userSpaceOnUse" gradientTransform="translate(89.9127 68.0689) scale(46.4186 46.4279)">
<stop stop-color="#83FFEA"/>
<stop offset="1" stop-color="#00FFFF"/>
</radialGradient>
<radialGradient id="paint22_radial_146_169" cx="0" cy="0" r="1" gradientUnits="userSpaceOnUse" gradientTransform="translate(50.3859 199.625) scale(212.994 213.037)">
<stop stop-color="#89A5CF"/>
<stop offset="1"/>
</radialGradient>
<radialGradient id="paint23_radial_146_169" cx="0" cy="0" r="1" gradientUnits="userSpaceOnUse" gradientTransform="translate(80.3937 149.333) scale(204.742 204.784)">
<stop offset="0.65" stop-color="white"/>
<stop offset="0.69" stop-color="#F9FAFB"/>
<stop offset="0.73" stop-color="#EAECF0"/>
<stop offset="0.79" stop-color="#CFD5DF"/>
<stop offset="0.85" stop-color="#ABB5C6"/>
<stop offset="0.91" stop-color="#7C8CA6"/>
<stop offset="0.98" stop-color="#445A7F"/>
<stop offset="1" stop-color="#2D4670"/>
</radialGradient>
<radialGradient id="paint24_radial_146_169" cx="0" cy="0" r="1" gradientUnits="userSpaceOnUse" gradientTransform="translate(86.8224 66.7706) scale(6.79899 6.80037)">
<stop stop-color="#00FFFF"/>
<stop offset="0.12" stop-color="#00D4D2"/>
<stop offset="0.3" stop-color="#009893"/>
<stop offset="0.47" stop-color="#00655F"/>
<stop offset="0.64" stop-color="#003E36"/>
<stop offset="0.78" stop-color="#002118"/>
<stop offset="0.91" stop-color="#001006"/>
<stop offset="1" stop-color="#000A00"/>
</radialGradient>
<radialGradient id="paint25_radial_146_169" cx="0" cy="0" r="1" gradientUnits="userSpaceOnUse" gradientTransform="translate(86.8219 66.7705) scale(4.04849 4.04932)">
<stop stop-color="#83FFEA"/>
<stop offset="0.12" stop-color="#66C8B5"/>
<stop offset="0.24" stop-color="#4B9686"/>
<stop offset="0.36" stop-color="#346B5D"/>
<stop offset="0.48" stop-color="#21483B"/>
<stop offset="0.61" stop-color="#132D21"/>
<stop offset="0.74" stop-color="#08190F"/>
<stop offset="0.87" stop-color="#020E04"/>
<stop offset="1" stop-color="#000A00"/>
</radialGradient>
<radialGradient id="paint26_radial_146_169" cx="0" cy="0" r="1" gradientUnits="userSpaceOnUse" gradientTransform="translate(97.2691 69.2125) scale(6.79898 6.80036)">
<stop stop-color="#00FFFF"/>
<stop offset="0.12" stop-color="#00D4D2"/>
<stop offset="0.3" stop-color="#009893"/>
<stop offset="0.47" stop-color="#00655F"/>
<stop offset="0.64" stop-color="#003E36"/>
<stop offset="0.78" stop-color="#002118"/>
<stop offset="0.91" stop-color="#001006"/>
<stop offset="1" stop-color="#000A00"/>
</radialGradient>
<radialGradient id="paint27_radial_146_169" cx="0" cy="0" r="1" gradientUnits="userSpaceOnUse" gradientTransform="translate(97.2672 69.2124) scale(4.04848 4.04931)">
<stop stop-color="#83FFEA"/>
<stop offset="0.12" stop-color="#66C8B5"/>
<stop offset="0.24" stop-color="#4B9686"/>
<stop offset="0.36" stop-color="#346B5D"/>
<stop offset="0.48" stop-color="#21483B"/>
<stop offset="0.61" stop-color="#132D21"/>
<stop offset="0.74" stop-color="#08190F"/>
<stop offset="0.87" stop-color="#020E04"/>
<stop offset="1" stop-color="#000A00"/>
</radialGradient>
<radialGradient id="paint28_radial_146_169" cx="0" cy="0" r="1" gradientUnits="userSpaceOnUse" gradientTransform="translate(80.6716 60.7735) scale(4.94473 4.94573)">
<stop stop-color="#00FFFF"/>
<stop offset="0.12" stop-color="#00D4D2"/>
<stop offset="0.3" stop-color="#009893"/>
<stop offset="0.47" stop-color="#00655F"/>
<stop offset="0.64" stop-color="#003E36"/>
<stop offset="0.78" stop-color="#002118"/>
<stop offset="0.91" stop-color="#001006"/>
<stop offset="1" stop-color="#000A00"/>
</radialGradient>
<radialGradient id="paint29_radial_146_169" cx="0" cy="0" r="1" gradientUnits="userSpaceOnUse" gradientTransform="translate(80.6708 60.7736) scale(2.93593 2.93652)">
<stop stop-color="#83FFEA"/>
<stop offset="0.12" stop-color="#66C8B5"/>
<stop offset="0.24" stop-color="#4B9686"/>
<stop offset="0.36" stop-color="#346B5D"/>
<stop offset="0.48" stop-color="#21483B"/>
<stop offset="0.61" stop-color="#132D21"/>
<stop offset="0.74" stop-color="#08190F"/>
<stop offset="0.87" stop-color="#020E04"/>
<stop offset="1" stop-color="#000A00"/>
</radialGradient>
<radialGradient id="paint30_radial_146_169" cx="0" cy="0" r="1" gradientUnits="userSpaceOnUse" gradientTransform="translate(109.291 66.6777) scale(4.75927 4.76026)">
<stop stop-color="#00FFFF"/>
<stop offset="0.12" stop-color="#00D4D2"/>
<stop offset="0.3" stop-color="#009893"/>
<stop offset="0.47" stop-color="#00655F"/>
<stop offset="0.64" stop-color="#003E36"/>
<stop offset="0.78" stop-color="#002118"/>
<stop offset="0.91" stop-color="#001006"/>
<stop offset="1" stop-color="#000A00"/>
</radialGradient>
<radialGradient id="paint31_radial_146_169" cx="0" cy="0" r="1" gradientUnits="userSpaceOnUse" gradientTransform="translate(109.29 66.6779) scale(2.84323 2.8438)">
<stop stop-color="#83FFEA"/>
<stop offset="0.12" stop-color="#66C8B5"/>
<stop offset="0.24" stop-color="#4B9686"/>
<stop offset="0.36" stop-color="#346B5D"/>
<stop offset="0.48" stop-color="#21483B"/>
<stop offset="0.61" stop-color="#132D21"/>
<stop offset="0.74" stop-color="#08190F"/>
<stop offset="0.87" stop-color="#020E04"/>
<stop offset="1" stop-color="#000A00"/>
</radialGradient>
<radialGradient id="paint32_radial_146_169" cx="0" cy="0" r="1" gradientUnits="userSpaceOnUse" gradientTransform="translate(119.427 60.3408) scale(3.98669 3.98748)">
<stop stop-color="#00FFFF"/>
<stop offset="0.12" stop-color="#00D4D2"/>
<stop offset="0.3" stop-color="#009893"/>
<stop offset="0.47" stop-color="#00655F"/>
<stop offset="0.64" stop-color="#003E36"/>
<stop offset="0.78" stop-color="#002118"/>
<stop offset="0.91" stop-color="#001006"/>
<stop offset="1" stop-color="#000A00"/>
</radialGradient>
<radialGradient id="paint33_radial_146_169" cx="0" cy="0" r="1" gradientUnits="userSpaceOnUse" gradientTransform="translate(119.428 60.3408) scale(2.37964 2.38012)">
<stop stop-color="#83FFEA"/>
<stop offset="0.12" stop-color="#66C8B5"/>
<stop offset="0.24" stop-color="#4B9686"/>
<stop offset="0.36" stop-color="#346B5D"/>
<stop offset="0.48" stop-color="#21483B"/>
<stop offset="0.61" stop-color="#132D21"/>
<stop offset="0.74" stop-color="#08190F"/>
<stop offset="0.87" stop-color="#020E04"/>
<stop offset="1" stop-color="#000A00"/>
</radialGradient>
<radialGradient id="paint34_radial_146_169" cx="0" cy="0" r="1" gradientUnits="userSpaceOnUse" gradientTransform="translate(80.6731 52.3659) scale(4.0794 4.08022)">
<stop stop-color="#00FFFF"/>
<stop offset="0.12" stop-color="#00D4D2"/>
<stop offset="0.3" stop-color="#009893"/>
<stop offset="0.47" stop-color="#00655F"/>
<stop offset="0.64" stop-color="#003E36"/>
<stop offset="0.78" stop-color="#002118"/>
<stop offset="0.91" stop-color="#001006"/>
<stop offset="1" stop-color="#000A00"/>
</radialGradient>
<radialGradient id="paint35_radial_146_169" cx="0" cy="0" r="1" gradientUnits="userSpaceOnUse" gradientTransform="translate(80.6716 52.366) scale(2.44146 2.44196)">
<stop stop-color="#83FFEA"/>
<stop offset="0.12" stop-color="#66C8B5"/>
<stop offset="0.24" stop-color="#4B9686"/>
<stop offset="0.36" stop-color="#346B5D"/>
<stop offset="0.48" stop-color="#21483B"/>
<stop offset="0.61" stop-color="#132D21"/>
<stop offset="0.74" stop-color="#08190F"/>
<stop offset="0.87" stop-color="#020E04"/>
<stop offset="1" stop-color="#000A00"/>
</radialGradient>
<radialGradient id="paint36_radial_146_169" cx="0" cy="0" r="1" gradientUnits="userSpaceOnUse" gradientTransform="translate(123.847 80.7419) scale(107.795 107.817)">
<stop offset="0.33" stop-color="white"/>
<stop offset="1"/>
</radialGradient>
<radialGradient id="paint37_radial_146_169" cx="0" cy="0" r="1" gradientUnits="userSpaceOnUse" gradientTransform="translate(92.446 27.452) scale(141.45 141.479)">
<stop offset="0.33" stop-color="white"/>
<stop offset="1"/>
</radialGradient>
<radialGradient id="paint38_radial_146_169" cx="0" cy="0" r="1" gradientUnits="userSpaceOnUse" gradientTransform="translate(115.285 106.738) scale(114.069 114.092)">
<stop offset="0.33" stop-color="white"/>
<stop offset="1"/>
</radialGradient>
<radialGradient id="paint39_radial_146_169" cx="0" cy="0" r="1" gradientUnits="userSpaceOnUse" gradientTransform="translate(124.587 84.8841) scale(86.3163 86.3337)">
<stop offset="0.33" stop-color="white"/>
<stop offset="1"/>
</radialGradient>
<radialGradient id="paint40_radial_146_169" cx="0" cy="0" r="1" gradientUnits="userSpaceOnUse" gradientTransform="translate(88.3672 142.718) scale(145.777 145.806)">
<stop stop-color="#B3FFF2"/>
<stop offset="0.11" stop-color="#ADFCF1"/>
<stop offset="0.27" stop-color="#9BF2EF"/>
<stop offset="0.46" stop-color="#7DE2EB"/>
<stop offset="0.66" stop-color="#54CCE5"/>
<stop offset="0.88" stop-color="#21B0DE"/>
<stop offset="1" stop-color="#009FD9"/>
</radialGradient>
</defs>
</svg>
