<svg width="22" height="63" viewBox="0 0 22 63" fill="none" xmlns="http://www.w3.org/2000/svg">
<path d="M4.10409 61.4816L5.83132 62.067C6.94018 58.7508 5.48347 56.3699 4.20293 54.3073C2.92238 52.2446 1.90919 50.571 2.75337 48.0595C3.59756 45.5481 5.4798 44.8178 7.66252 43.9731C9.84524 43.1285 12.5287 42.0932 13.6508 38.7696C14.773 35.446 13.2957 33.0593 12.0224 31.0099C10.7492 28.9605 9.72132 27.2603 10.5655 24.7488C11.4097 22.2374 13.3052 21.4998 15.488 20.6551C17.6707 19.8105 20.3542 18.7752 21.4689 15.4383C22.5837 12.1015 21.1137 9.72798 19.8538 7.67124C18.5938 5.6145 17.5453 3.90841 18.3895 1.39697L16.6623 0.811507C15.5534 4.12773 17.0101 6.5086 18.2774 8.5786C19.5447 10.6486 20.5785 12.3282 19.7417 14.8529C18.9048 17.3776 17.002 18.102 14.8192 18.9466C12.6365 19.7913 9.95303 20.8266 8.83092 24.1501C7.70881 27.4737 9.18612 29.8605 10.4461 31.9172C11.706 33.974 12.7472 35.6668 11.9163 38.1709C11.0853 40.675 9.18979 41.4126 7.00707 42.2573C4.82435 43.1019 2.12762 44.1446 1.01877 47.4608C-0.0900864 50.777 1.37395 53.1712 2.63389 55.2279C3.89384 57.2846 4.94827 58.9701 4.10409 61.4816Z" fill="#EF635B"/>
</svg>
