<svg width="9" height="9" viewBox="0 0 9 9" fill="none" xmlns="http://www.w3.org/2000/svg">
<path d="M0.798097 6.81019C1.18223 7.49784 1.76146 8.0562 2.46272 8.41488C3.16398 8.77356 3.95577 8.9164 4.73816 8.82541C5.52055 8.73442 6.25847 8.41372 6.8587 7.90367C7.45892 7.39362 7.89455 6.71714 8.11061 5.95969C8.32667 5.20224 8.31346 4.39774 8.07265 3.6478C7.83184 2.89785 7.37422 2.23604 6.75758 1.74597C6.14093 1.25591 5.39294 0.959603 4.60798 0.894342C3.82303 0.829082 3.03633 0.997835 2.34723 1.37934C1.42314 1.89554 0.741226 2.75685 0.450875 3.77474C0.160525 4.79263 0.2854 5.88415 0.798097 6.81019ZM6.16785 3.83729C6.37576 4.21285 6.46743 4.64167 6.43128 5.06941C6.39513 5.49715 6.23279 5.90456 5.9648 6.2399C5.69681 6.57524 5.33525 6.82341 4.92601 6.95299C4.51677 7.08257 4.07827 7.0877 3.66611 6.96772C3.25395 6.84774 2.88667 6.60803 2.61092 6.27905C2.33517 5.95006 2.16336 5.54664 2.11722 5.11986C2.07109 4.69308 2.15271 4.26216 2.35179 3.88185C2.55086 3.50154 2.8584 3.18887 3.2354 2.98359C3.73788 2.70997 4.32818 2.64617 4.87753 2.80608C5.42687 2.966 5.89073 3.33673 6.16785 3.83729Z" fill="#5ED19C"/>
</svg>
