<svg width="11" height="11" viewBox="0 0 11 11" fill="none" xmlns="http://www.w3.org/2000/svg">
<path d="M5.7665 10.0034C4.78635 9.99963 3.82932 9.70534 3.01643 9.15769C2.20353 8.61004 1.5713 7.83363 1.19966 6.92666C0.828019 6.01968 0.733648 5.02288 0.928523 4.06229C1.1234 3.10169 1.59874 2.22045 2.29445 1.53001C2.99016 0.839573 3.875 0.370946 4.83705 0.183381C5.79909 -0.00418428 6.79514 0.0977555 7.69926 0.476284C8.60338 0.854813 9.37498 1.49292 9.91643 2.30996C10.4579 3.12699 10.7449 4.08626 10.7412 5.06642C10.7312 6.37923 10.2027 7.63487 9.27088 8.55966C8.33903 9.48446 7.07936 10.0034 5.7665 10.0034ZM5.7665 2.3718C5.23356 2.3718 4.71259 2.52984 4.26947 2.82592C3.82634 3.12201 3.48099 3.54286 3.27704 4.03523C3.07309 4.5276 3.0197 5.0694 3.12367 5.5921C3.22765 6.1148 3.48428 6.59492 3.86112 6.97177C4.23797 7.34862 4.71815 7.60525 5.24085 7.70922C5.76355 7.81319 6.30532 7.75983 6.79769 7.55588C7.29006 7.35193 7.71088 7.00658 8.00697 6.56345C8.30306 6.12033 8.46109 5.59936 8.46109 5.06642C8.46109 4.35177 8.17722 3.66637 7.67189 3.16104C7.16655 2.6557 6.48116 2.3718 5.7665 2.3718Z" fill="#5ED19C"/>
</svg>
