<svg width="19" height="19" viewBox="0 0 19 19" fill="none" xmlns="http://www.w3.org/2000/svg">
<path d="M9.68231 18.8515C7.88096 18.8404 6.12328 18.296 4.63093 17.2871C3.13858 16.2782 1.9784 14.8499 1.29677 13.1825C0.615146 11.5151 0.442583 9.68309 0.800845 7.91769C1.15911 6.15229 2.0321 4.53252 3.3098 3.26269C4.5875 1.99286 6.21269 1.12983 7.98027 0.782485C9.74785 0.435138 11.5787 0.619015 13.2419 1.31093C14.9051 2.00284 16.3261 3.17181 17.3258 4.67036C18.3255 6.16892 18.859 7.92996 18.859 9.73135C18.8441 12.1554 17.8707 14.475 16.1513 16.1837C14.432 17.8925 12.1064 18.8516 9.68231 18.8515ZM9.68231 4.77554C8.70296 4.77926 7.74663 5.07308 6.93413 5.61989C6.12164 6.1667 5.4894 6.94197 5.1172 7.84785C4.74499 8.75372 4.64955 9.74957 4.84289 10.7097C5.03624 11.6697 5.50965 12.551 6.20347 13.2422C6.8973 13.9334 7.78037 14.4036 8.74118 14.5933C9.70199 14.7829 10.6975 14.6837 11.602 14.3081C12.5064 13.9324 13.2793 13.2972 13.823 12.4827C14.3668 11.6681 14.657 10.7107 14.657 9.73135C14.652 8.41526 14.1256 7.15477 13.1932 6.22591C12.2609 5.29706 10.9984 4.77553 9.68231 4.77554Z" fill="#5ED19C"/>
</svg>
