<svg width="61" height="53" viewBox="0 0 61 53" fill="none" xmlns="http://www.w3.org/2000/svg">
<path d="M2.20321 52.4059L0.507324 50.8608C3.46573 47.6574 6.9329 47.827 9.929 47.9589C12.9251 48.0908 15.3936 48.2039 17.6171 45.7731C19.8406 43.3423 19.5014 40.855 19.1057 37.9719C18.71 35.0889 18.2201 31.5464 21.1597 28.343C24.0992 25.1396 27.5853 25.2715 30.5813 25.4223C33.5774 25.573 36.0459 25.6672 38.2694 23.2364C40.4929 20.8056 40.1537 18.3183 39.758 15.4353C39.3623 12.5523 38.8724 8.99087 41.8308 5.7875C44.7892 2.58413 48.2564 2.71604 51.2525 2.84794C54.2486 2.97985 56.717 3.0929 58.9594 0.662109L60.6364 2.18842C57.6969 5.41063 54.2297 5.25989 51.2148 5.10914C48.1998 4.95839 45.7503 4.88302 43.5079 7.31381C41.2655 9.7446 41.6235 12.2319 42.0192 15.115C42.4149 17.998 42.9049 21.5594 39.9465 24.7628C36.9881 27.9661 33.5398 27.8154 30.5248 27.6835C27.5099 27.5516 25.0791 27.4385 22.8367 29.8693C20.5943 32.3001 20.9524 34.7874 21.3669 37.6704C21.7815 40.5535 22.2526 44.096 19.313 47.2994C16.3734 50.5028 12.8874 50.352 9.89133 50.2201C6.89524 50.0882 4.42673 49.9752 2.20321 52.4059Z" fill="#5ED19C"/>
</svg>
