<svg width="61" height="53" viewBox="0 0 61 53" fill="none" xmlns="http://www.w3.org/2000/svg">
<path d="M2.16873 52.2024L0.491699 50.6761C3.43126 47.4727 6.89844 47.6235 9.91337 47.7742C12.9283 47.925 15.3591 48.0192 17.5826 45.5884C19.8061 43.1576 19.4669 40.6703 19.0712 37.7873C18.6755 34.9042 18.1856 31.3617 21.1251 28.1395C24.0647 24.9173 27.5507 25.0868 30.5468 25.2376C33.5429 25.3883 36.0114 25.4826 38.2349 23.0518C40.4584 20.621 40.1192 18.1148 39.7235 15.2318C39.3278 12.3487 38.8379 8.80619 41.7963 5.58398C44.7547 2.36176 48.2219 2.53135 51.218 2.66325C54.214 2.79516 56.7014 2.90821 58.9249 0.477417L60.602 2.00372C57.6624 5.20709 54.1952 5.05635 51.1803 4.92445C48.1654 4.79254 45.7157 4.67949 43.4734 7.11028C41.231 9.54107 41.589 12.0472 41.9847 14.9303C42.3804 17.8133 42.8704 21.3559 39.9308 24.5781C36.9912 27.8003 33.5052 27.6307 30.5091 27.4988C27.513 27.3669 25.0445 27.2538 22.821 29.6658C20.5975 32.0777 20.9367 34.5839 21.3324 37.4669C21.7281 40.3499 22.2181 43.9113 19.2785 47.1147C16.339 50.3181 12.8529 50.1674 9.85684 50.0355C6.86075 49.9035 4.39224 49.7716 2.16873 52.2024Z" fill="#EF635B"/>
</svg>
