<svg width="121" height="111" viewBox="0 0 121 111" fill="none" xmlns="http://www.w3.org/2000/svg">
<path d="M3.55883 110.952L0 107.945C5.81868 101.112 12.9897 101.148 19.2711 101.201C25.5524 101.255 30.5347 101.201 34.9299 96.1122C39.3251 91.023 38.4887 85.8449 37.3677 79.9373C36.2467 74.0296 35.0367 66.7874 40.8376 59.9545C46.6384 53.1215 53.8095 53.1571 60.1264 53.2105C66.1408 53.2105 71.3901 53.2105 75.7852 48.1214C80.1804 43.0322 79.3441 37.8364 78.2408 31.9109C77.1376 25.9855 75.9098 18.7432 81.7997 11.9103C87.6895 5.07733 94.7894 5.11292 101.089 5.13071C107.388 5.14851 112.37 5.13072 116.765 0.0238037L120.324 3.03102C114.487 9.88176 107.37 9.84615 101.035 9.79277C94.7004 9.73939 89.7536 9.79278 85.3585 14.9175C80.9633 20.0422 81.7997 25.2025 82.9029 31.1102C83.9883 37.2847 85.2339 44.2778 79.3441 51.1286C73.4542 57.9793 66.3899 57.9082 60.073 57.8726C54.0408 57.8726 48.8093 57.7836 44.4142 62.9617C40.019 68.1398 40.8553 73.2289 41.9764 79.1365C43.0974 85.0442 44.3074 92.2864 38.5065 99.1194C32.7056 105.952 25.5346 105.917 19.2177 105.863C13.1855 105.81 7.95398 105.774 3.55883 110.952Z" fill="#EF635B"/>
</svg>
