<svg width="18" height="18" viewBox="0 0 18 18" fill="none" xmlns="http://www.w3.org/2000/svg">
<path d="M8.59457 17.2603C6.88922 17.2533 5.22419 16.7411 3.80965 15.7886C2.39512 14.836 1.29452 13.4857 0.64678 11.9081C-0.000962029 10.3306 -0.166818 8.59646 0.170187 6.92472C0.507191 5.25299 1.33193 3.71857 2.54029 2.51518C3.74864 1.31178 5.28644 0.493364 6.95955 0.163241C8.63266 -0.166881 10.3661 0.0061059 11.9409 0.660335C13.5158 1.31456 14.8616 2.42071 15.8083 3.83915C16.755 5.25759 17.2603 6.92475 17.2603 8.63012C17.2509 10.9222 16.3337 13.1173 14.7096 14.7347C13.0855 16.3522 10.8867 17.2603 8.59457 17.2603ZM8.59457 3.96806C7.66899 3.97159 6.76525 4.2495 5.99762 4.76665C5.22999 5.2838 4.63294 6.01693 4.28199 6.8734C3.93104 7.72988 3.84195 8.6712 4.02597 9.57831C4.21 10.4854 4.65887 11.3176 5.31584 11.9696C5.97281 12.6216 6.80839 13.0641 7.71687 13.2412C8.62535 13.4184 9.56593 13.3221 10.4197 12.9647C11.2735 12.6072 12.0021 12.0046 12.5134 11.233C13.0247 10.4615 13.2957 9.5557 13.2922 8.63012C13.2598 7.40594 12.7505 6.24281 11.873 5.38859C10.9955 4.53437 9.81918 4.05658 8.59457 4.05701V3.96806Z" fill="#ADE2EB"/>
</svg>
