<svg width="10" height="10" viewBox="0 0 10 10" fill="none" xmlns="http://www.w3.org/2000/svg">
<path d="M8.07143 2.92857L1.73214 9.28571C1.58929 9.42857 1.41952 9.5 1.22286 9.5C1.02667 9.5 0.857143 9.42857 0.714285 9.28571C0.571428 9.14286 0.5 8.97309 0.5 8.77643C0.5 8.58024 0.571428 8.41071 0.714285 8.26786L7.07143 1.92857H1.64286C1.44048 1.92857 1.27071 1.86024 1.13357 1.72357C0.996905 1.58643 0.928571 1.41667 0.928571 1.21429C0.928571 1.0119 0.996905 0.842143 1.13357 0.705C1.27071 0.568333 1.44048 0.5 1.64286 0.5H8.78571C8.9881 0.5 9.15762 0.568333 9.29429 0.705C9.43143 0.842143 9.5 1.0119 9.5 1.21429V8.35714C9.5 8.55952 9.43143 8.72905 9.29429 8.86571C9.15762 9.00286 8.9881 9.07143 8.78571 9.07143C8.58333 9.07143 8.41381 9.00286 8.27714 8.86571C8.14 8.72905 8.07143 8.55952 8.07143 8.35714V2.92857Z" fill="black"/>
</svg>
