<svg width="20" height="21" viewBox="0 0 20 21" fill="none" xmlns="http://www.w3.org/2000/svg">
<g clip-path="url(#clip0_756_28067)">
<path d="M10 0.499023C7.34844 0.499023 4.80312 1.5661 2.92969 3.46365C1.05432 5.36195 0.000519484 7.93641 0 10.621C0 13.3044 1.05469 15.8808 2.92969 17.7783C4.80312 19.6758 7.34844 20.7429 10 20.7429C12.6516 20.7429 15.1969 19.6758 17.0703 17.7783C18.9453 15.8808 20 13.3044 20 10.621C20 7.93755 18.9453 5.3612 17.0703 3.46365C15.1969 1.5661 12.6516 0.499023 10 0.499023Z" fill="url(#paint0_linear_756_28067)"/>
<path d="M4.52572 10.514C7.44135 9.22856 9.3851 8.381 10.357 7.97154C13.1351 6.8023 13.7117 6.59922 14.0882 6.59235C14.171 6.591 14.3554 6.61172 14.4757 6.71017C14.5757 6.7932 14.6038 6.90549 14.6179 6.98433C14.6304 7.06309 14.6476 7.2426 14.6335 7.38273C14.4835 8.98326 13.832 12.8672 13.5007 14.6599C13.3617 15.4184 13.0851 15.6728 12.8179 15.6976C12.2367 15.7517 11.796 15.3092 11.2335 14.9361C10.3538 14.352 9.85697 13.9886 9.00229 13.4187C8.01478 12.7602 8.65541 12.3982 9.21791 11.8067C9.36479 11.6518 11.9242 9.29609 11.9726 9.08242C11.9788 9.0557 11.9851 8.95606 11.9257 8.90355C11.8679 8.85088 11.782 8.86891 11.7195 8.88315C11.6304 8.90339 10.2257 9.8441 7.50072 11.7051C7.10228 11.9825 6.74135 12.1177 6.41635 12.1106C6.0601 12.1029 5.3726 11.9063 4.86166 11.7383C4.23666 11.5323 3.73822 11.4233 3.78197 11.0733C3.80385 10.8911 4.05229 10.7046 4.52572 10.514Z" fill="white"/>
</g>
<defs>
<linearGradient id="paint0_linear_756_28067" x1="1000" y1="0.499023" x2="1000" y2="2024.89" gradientUnits="userSpaceOnUse">
<stop stop-color="#2AABEE"/>
<stop offset="1" stop-color="#229ED9"/>
</linearGradient>
<clipPath id="clip0_756_28067">
<rect width="20" height="20.2439" fill="white" transform="translate(0 0.499023)"/>
</clipPath>
</defs>
</svg>
