<svg width="20" height="21" viewBox="0 0 20 21" fill="none" xmlns="http://www.w3.org/2000/svg">
<g clip-path="url(#clip0_756_28063)">
<path d="M19 10.499C19 15.4696 14.9706 19.499 10 19.499C7.44477 19.499 5.5 17.999 3 17.499C2 15.499 1 12.9144 1 10.499C1 5.52846 5.02944 1.49902 10 1.49902C14.9706 1.49902 19 5.52846 19 10.499Z" fill="#07C347"/>
<path d="M14.7983 11.9912C14.7594 11.9725 13.3013 11.2545 13.0422 11.1613C12.9364 11.1233 12.8231 11.0862 12.7026 11.0862C12.5057 11.0862 12.3403 11.1844 12.2115 11.3771C12.0659 11.5936 11.625 12.109 11.4887 12.2629C11.4709 12.2832 11.4466 12.3075 11.4321 12.3075C11.419 12.3075 11.1934 12.2146 11.1251 12.1849C9.561 11.5055 8.37379 9.87169 8.211 9.59617C8.18775 9.55656 8.18678 9.53857 8.18659 9.53857C8.1923 9.5176 8.2449 9.46487 8.27204 9.43766C8.35146 9.35909 8.43749 9.25552 8.52074 9.15532C8.56016 9.10786 8.59964 9.06032 8.6384 9.01552C8.75918 8.875 8.81295 8.76591 8.87529 8.63954L8.90795 8.57389C9.06016 8.27149 8.93016 8.0163 8.88814 7.93389C8.85366 7.86493 8.23801 6.37908 8.17256 6.22298C8.01516 5.84629 7.80717 5.6709 7.51814 5.6709C7.49133 5.6709 7.51814 5.6709 7.40568 5.67564C7.26873 5.68142 6.52295 5.7796 6.19319 5.98746C5.84352 6.20791 5.25195 6.91065 5.25195 8.14649C5.25195 9.25876 5.9578 10.309 6.26085 10.7084C6.26839 10.7184 6.28222 10.7389 6.30228 10.7682C7.46288 12.4632 8.9097 13.7193 10.3764 14.3052C11.7884 14.8692 12.457 14.9344 12.8372 14.9344C12.8372 14.9344 12.8372 14.9344 12.8372 14.9344C12.997 14.9344 13.1248 14.9219 13.2376 14.9108L13.3092 14.904C13.797 14.8607 14.8689 14.3053 15.1127 13.6277C15.3048 13.094 15.3555 12.5108 15.2277 12.2992C15.1401 12.1553 14.9893 12.0829 14.7983 11.9912Z" fill="white"/>
<path d="M10.1775 0.499023C4.7609 0.499023 0.354141 4.87266 0.354141 10.2486C0.354141 11.9873 0.819468 13.6893 1.70096 15.179L0.0137512 20.1559C-0.0176774 20.2487 0.00569919 20.3513 0.0743357 20.4212C0.123881 20.4718 0.191089 20.499 0.259725 20.499C0.286024 20.499 0.312518 20.4951 0.338362 20.4868L5.52797 18.8377C6.94812 19.5965 8.55318 19.997 10.1776 19.997C15.5937 19.9971 20 15.6239 20 10.2486C20 4.87266 15.5937 0.499023 10.1775 0.499023ZM10.1775 17.9662C8.64903 17.9662 7.16857 17.5248 5.89596 16.6897C5.85317 16.6616 5.80349 16.6472 5.75349 16.6472C5.72707 16.6472 5.70057 16.6512 5.67479 16.6594L3.07512 17.4858L3.91434 15.0099C3.94148 14.9297 3.92791 14.8414 3.87791 14.7731C2.90882 13.4489 2.39655 11.8844 2.39655 10.2486C2.39655 5.99253 5.88707 2.52993 10.1775 2.52993C14.4673 2.52993 17.9575 5.99253 17.9575 10.2486C17.9575 14.5041 14.4675 17.9662 10.1775 17.9662Z" fill="white"/>
</g>
<defs>
<clipPath id="clip0_756_28063">
<rect width="20" height="20" fill="white" transform="translate(0 0.499023)"/>
</clipPath>
</defs>
</svg>
