<svg width="24" height="12" viewBox="0 0 24 12" fill="none" xmlns="http://www.w3.org/2000/svg">
<path d="M13.0474 11.0929C12.676 11.4146 12.4903 11.5754 12.2816 11.6366C12.0978 11.6906 11.9022 11.6906 11.7184 11.6366C11.5097 11.5754 11.324 11.4146 10.9526 11.0929L2.25374 3.55949C1.25061 2.69075 0.749045 2.25639 0.700118 1.87836C0.657731 1.55086 0.779759 1.22355 1.0262 1.00373C1.31066 0.75 1.97417 0.75 3.30118 0.75L20.6988 0.750001C22.0258 0.750001 22.6893 0.750002 22.9738 1.00374C23.2202 1.22355 23.3423 1.55086 23.2999 1.87836C23.251 2.25639 22.7494 2.69075 21.7463 3.55949L13.0474 11.0929Z" fill="white"/>
</svg>
