<svg width="52" height="148" viewBox="0 0 52 148" fill="none" xmlns="http://www.w3.org/2000/svg">
<path d="M8.53909 146.486L12.6774 147.882C15.4119 139.888 11.8791 134.219 8.79559 129.231C5.87453 124.44 3.30239 120.279 5.34187 114.263C7.38134 108.247 11.9061 106.494 17.1553 104.465C22.6602 102.348 28.9428 99.8899 31.5615 91.978C34.1803 84.0661 30.7632 78.3144 27.6721 73.3131C24.7374 68.5296 22.1789 64.3611 24.2184 58.3451C26.2579 52.3292 30.7887 50.5546 36.0516 48.518C41.3145 46.4814 47.7707 43.9811 50.464 36.01C53.1574 28.0389 49.652 22.354 46.5807 17.3239C43.6308 12.5129 41.0875 8.37181 43.1331 2.33458L38.9735 0.932113C36.239 8.92597 39.7642 14.582 42.8568 19.6183C45.8143 24.4429 48.3439 28.5916 46.3044 34.6075C44.2649 40.6235 39.7341 42.3981 34.4712 44.4347C28.9739 46.5653 22.6836 49.0095 20.0664 56.9564C17.4491 64.9033 20.8632 70.585 23.9482 75.6075C26.8829 80.3911 29.4414 84.5596 27.4019 90.5755C25.3624 96.5915 20.8377 98.3447 15.5885 100.374C10.0912 102.504 3.80099 104.949 1.18224 112.861C-1.4365 120.772 1.98666 126.503 5.07166 131.525C8.00642 136.309 10.571 140.456 8.53909 146.486Z" fill="#5ED19C"/>
</svg>
