<svg width="291" height="369" viewBox="0 0 291 369" fill="none" xmlns="http://www.w3.org/2000/svg">
<g filter="url(#filter0_dd_756_28254)">
<path fill-rule="evenodd" clip-rule="evenodd" d="M149.639 152.725L119.678 263.435L124.73 264.789L157.241 153.561L149.639 152.725Z" fill="url(#paint0_linear_756_28254)"/>
<path style="mix-blend-mode:multiply" opacity="0.71" fill-rule="evenodd" clip-rule="evenodd" d="M129.861 225.809L135.929 226.46L137.407 221.41L131.526 219.685L129.861 225.809Z" fill="url(#paint1_linear_756_28254)"/>
<path fill-rule="evenodd" clip-rule="evenodd" d="M184.011 155.164C178.999 174.001 172.428 192.388 164.366 210.135L164.344 210.215L109.84 195.611C113.151 176.662 117.647 157.939 123.301 139.552C131.924 111.621 144.951 80.445 163.052 64.3766C163.052 64.3766 182.662 46.138 192.215 73.3224C192.196 73.3092 197.343 104.619 184.011 155.164Z" fill="url(#paint2_linear_756_28254)"/>
<path fill-rule="evenodd" clip-rule="evenodd" d="M129.975 201.037L111.9 196.193C113.825 176.994 117.634 158.03 123.271 139.575C124.805 139.719 126.291 140.192 127.628 140.961C138.323 149.733 129.975 201.037 129.975 201.037Z" fill="url(#paint3_linear_756_28254)"/>
<path fill-rule="evenodd" clip-rule="evenodd" d="M127.945 200.492L109.833 195.639C113.143 176.69 117.639 157.967 123.293 139.581C123.712 139.562 124.13 139.626 124.524 139.769C124.919 139.912 125.281 140.131 125.59 140.415C136.263 149.181 127.945 200.492 127.945 200.492Z" fill="url(#paint4_linear_756_28254)"/>
<path fill-rule="evenodd" clip-rule="evenodd" d="M216.207 154.427L220.313 155.527C220.313 155.527 207.118 229.899 174.11 278.02L171.125 277.22L216.207 154.427Z" fill="url(#paint5_linear_756_28254)"/>
<path fill-rule="evenodd" clip-rule="evenodd" d="M96.4474 122.338L92.3416 121.237C92.3416 121.237 66.5678 192.239 71.0863 250.415L74.0856 251.219L96.4474 122.338Z" fill="url(#paint6_linear_756_28254)"/>
<path fill-rule="evenodd" clip-rule="evenodd" d="M184.432 153.567C180.115 169.997 170.83 189.364 161.783 209.442L146.477 205.153C146.477 205.153 169.719 149.625 184.432 153.567C184.378 153.537 184.497 153.585 184.432 153.567Z" fill="url(#paint7_linear_756_28254)"/>
<path fill-rule="evenodd" clip-rule="evenodd" d="M184.012 155.163C179 174.001 172.429 192.388 164.367 210.134L149.06 205.846C149.06 205.846 171.928 151.894 183.837 155.086C183.899 155.104 183.957 155.13 184.012 155.163Z" fill="url(#paint8_linear_756_28254)"/>
<path fill-rule="evenodd" clip-rule="evenodd" d="M171.123 277.228L168.568 276.543C168.568 276.543 189.486 216.53 184.908 203.623C182.542 196.903 173.652 196.128 165.694 196.914C160.972 197.421 156.307 198.366 151.76 199.734C151.76 199.734 161.611 175.463 170.479 165.457C173.383 165.488 176.285 165.29 179.158 164.864C186.927 163.825 198.653 160.889 208.669 152.946L216.187 154.414C216.187 154.414 206.589 222.618 171.123 277.228Z" fill="url(#paint9_linear_756_28254)"/>
<path fill-rule="evenodd" clip-rule="evenodd" d="M118.361 184.082C112.193 179.613 104.571 176.142 99.2645 180.689C88.8404 189.6 76.9551 252.01 76.9551 252.01L73.4681 251.076C70.0592 186.05 96.7617 122.445 96.7617 122.445L104.007 124.932C108.706 136.834 117.304 145.192 123.463 149.956C125.708 151.761 128.094 153.381 130.599 154.802C131.807 165.815 128.854 193.58 128.854 193.58C125.676 190.077 122.162 186.896 118.361 184.082Z" fill="url(#paint10_linear_756_28254)"/>
<path fill-rule="evenodd" clip-rule="evenodd" d="M145.646 86.3887L192.965 99.0676C192.965 99.0676 197.482 55.2736 182.544 51.271C167.606 47.2683 145.646 86.3887 145.646 86.3887Z" fill="url(#paint11_radial_756_28254)"/>
<path style="mix-blend-mode:screen" opacity="0.5" fill-rule="evenodd" clip-rule="evenodd" d="M145.646 86.3884C145.646 86.3884 165.234 96.1859 192.965 99.0673L145.646 86.3884Z" fill="url(#paint12_linear_756_28254)"/>
<path fill-rule="evenodd" clip-rule="evenodd" d="M193.356 93.6717C193.356 93.6717 196.736 96.0833 196.682 99.0805C196.628 102.078 192.664 104.347 192.664 104.347L193.356 93.6717Z" fill="url(#paint13_radial_756_28254)"/>
<path fill-rule="evenodd" clip-rule="evenodd" d="M148.579 81.6738C148.579 81.6738 143.929 81.9338 142.47 84.5546C141.011 87.1753 143.054 90.9062 143.054 90.9062L148.579 81.6738Z" fill="url(#paint14_radial_756_28254)"/>
<path fill-rule="evenodd" clip-rule="evenodd" d="M145.646 86.388C145.646 86.388 171.111 95.2478 192.965 99.0669C192.965 99.0669 165.004 91.1926 145.646 86.388Z" fill="url(#paint15_linear_756_28254)"/>
<path style="mix-blend-mode:screen" opacity="0.5" fill-rule="evenodd" clip-rule="evenodd" d="M176.981 95.1511C175.822 99.4753 171.883 102.18 168.177 101.188C164.472 100.195 162.413 95.8823 163.572 91.5581C164.73 87.2339 168.67 84.5287 172.375 85.5216C176.08 86.5144 178.14 90.8269 176.981 95.1511Z" fill="url(#paint16_linear_756_28254)"/>
<path fill-rule="evenodd" clip-rule="evenodd" d="M176.02 94.8937C175.027 98.5991 171.654 100.91 168.48 100.059C165.306 99.2088 163.54 95.521 164.533 91.8156C165.526 88.1102 168.899 85.7995 172.073 86.65C175.247 87.5004 177.013 91.1883 176.02 94.8937Z" fill="url(#paint17_linear_756_28254)"/>
<path fill-rule="evenodd" clip-rule="evenodd" d="M174.885 94.5898C174.087 97.5672 171.372 99.4301 168.824 98.7474C166.276 98.0647 164.849 95.0919 165.647 92.1145C166.444 89.1371 169.159 87.2741 171.715 87.9588C174.27 88.6435 175.682 91.6124 174.885 94.5898Z" fill="url(#paint18_radial_756_28254)"/>
<path style="mix-blend-mode:screen" fill-rule="evenodd" clip-rule="evenodd" d="M177.604 75.6961C171.272 82.6444 162.611 85.0599 158.259 81.0928C153.908 77.1256 155.513 68.2788 161.846 61.3305C168.179 54.3822 176.841 51.9594 181.236 55.9383C185.632 59.9171 183.963 68.7391 177.604 75.6961Z" fill="url(#paint19_radial_756_28254)"/>
<path fill-rule="evenodd" clip-rule="evenodd" d="M168.895 62.4926C166.351 59.5248 160.13 70.5993 162.198 72.4019C164.266 74.2045 171.981 66.0893 168.895 62.4926Z" fill="white"/>
<path style="mix-blend-mode:screen" opacity="0.2" fill-rule="evenodd" clip-rule="evenodd" d="M124.626 135.28C124.626 135.28 142.413 90.5939 150.262 92.8375C158.11 95.081 129.977 201.037 129.977 201.037C129.977 201.037 135.553 175.917 132.844 158.307C130.135 140.696 127.526 139.716 127.526 139.716L123.239 139.527L124.626 135.28Z" fill="url(#paint20_linear_756_28254)"/>
<path fill-rule="evenodd" clip-rule="evenodd" d="M139.207 106.462C137.997 105.358 133.512 118.981 134.709 119.723C135.907 120.465 141.917 108.866 139.207 106.462Z" fill="white"/>
<path style="mix-blend-mode:screen" opacity="0.2" fill-rule="evenodd" clip-rule="evenodd" d="M184.43 153.567C184.43 153.567 193.632 107.579 190.945 102.669C188.258 97.7596 173.034 159.174 173.034 159.174C173.034 159.174 178.362 152.511 184.43 153.567Z" fill="url(#paint21_linear_756_28254)"/>
<path style="mix-blend-mode:screen" opacity="0.2" fill-rule="evenodd" clip-rule="evenodd" d="M191.447 106.214C191.447 106.214 186.594 139.643 182.342 153.008L184.431 153.568C184.431 153.568 192.103 122.666 191.447 106.214Z" fill="url(#paint22_linear_756_28254)"/>
<path style="mix-blend-mode:screen" opacity="0.2" fill-rule="evenodd" clip-rule="evenodd" d="M150.951 195.234C150.951 195.234 163.071 169.309 171.934 160.37C171.934 160.37 159.607 170.472 150.951 195.234Z" fill="url(#paint23_linear_756_28254)"/>
<path fill-rule="evenodd" clip-rule="evenodd" d="M109.834 195.639C109.834 195.639 114.328 215.468 133.838 220.695C153.348 225.923 164.363 210.149 164.363 210.149L109.834 195.639Z" fill="url(#paint24_radial_756_28254)"/>
<path style="mix-blend-mode:multiply" opacity="0.71" fill-rule="evenodd" clip-rule="evenodd" d="M165.69 196.928C160.968 197.435 156.303 198.38 151.756 199.748C151.756 199.748 161.607 175.477 170.475 165.471C173.379 165.502 176.281 165.304 179.154 164.878C179.154 164.878 167.358 175.676 165.69 196.928Z" fill="url(#paint25_linear_756_28254)"/>
<path style="mix-blend-mode:multiply" opacity="0.71" fill-rule="evenodd" clip-rule="evenodd" d="M118.364 184.068C123.354 173.28 123.434 149.949 123.434 149.949C125.678 151.753 128.064 153.374 130.57 154.794C131.807 165.815 128.853 193.581 128.853 193.581C125.667 190.074 122.143 186.89 118.331 184.075L118.364 184.068Z" fill="url(#paint26_linear_756_28254)"/>
<g style="mix-blend-mode:screen" opacity="0.5">
<path fill-rule="evenodd" clip-rule="evenodd" d="M83.7084 149.494L87.0644 150.393C87.0644 150.393 79.903 177.702 78.1907 187.878L75.2788 187.098C75.2788 187.098 79.3264 164.595 83.7084 149.494Z" fill="white"/>
</g>
<g style="mix-blend-mode:screen" opacity="0.5">
<path fill-rule="evenodd" clip-rule="evenodd" d="M74.6721 190.593L77.5403 191.362L76.6845 196.594L73.6488 195.781L74.6721 190.593Z" fill="white"/>
</g>
<path style="mix-blend-mode:screen" opacity="0.64" fill-rule="evenodd" clip-rule="evenodd" d="M187.294 56.6637C187.294 56.6637 195.333 71.3016 192.45 97.0573C188.061 84.0699 186.308 70.3371 187.294 56.6637Z" fill="url(#paint27_linear_756_28254)"/>
<path style="mix-blend-mode:multiply" opacity="0.71" fill-rule="evenodd" clip-rule="evenodd" d="M188.387 245.759L191.67 246.639C191.67 246.639 182.791 266.005 174.11 278.02L171.125 277.22C171.125 277.22 183.087 257.853 188.387 245.759Z" fill="url(#paint28_linear_756_28254)"/>
<path style="mix-blend-mode:screen" opacity="0.64" fill-rule="evenodd" clip-rule="evenodd" d="M111.528 198.551C111.528 198.551 116.495 214.956 132.532 219.956C144.873 223.809 154.713 216.903 154.713 216.903C154.713 216.903 149.066 219.689 133.094 213.373C117.122 207.057 111.528 198.551 111.528 198.551Z" fill="url(#paint29_linear_756_28254)"/>
</g>
<defs>
<filter id="filter0_dd_756_28254" x="0.55481" y="0.983521" width="289.758" height="367.036" filterUnits="userSpaceOnUse" color-interpolation-filters="sRGB">
<feFlood flood-opacity="0" result="BackgroundImageFix"/>
<feColorMatrix in="SourceAlpha" type="matrix" values="0 0 0 0 0 0 0 0 0 0 0 0 0 0 0 0 0 0 127 0" result="hardAlpha"/>
<feOffset dy="20"/>
<feGaussianBlur stdDeviation="35"/>
<feColorMatrix type="matrix" values="0 0 0 0 0.264167 0 0 0 0 0.77925 0 0 0 0 1 0 0 0 1 0"/>
<feBlend mode="lighten" in2="BackgroundImageFix" result="effect1_dropShadow_756_28254"/>
<feColorMatrix in="SourceAlpha" type="matrix" values="0 0 0 0 0 0 0 0 0 0 0 0 0 0 0 0 0 0 127 0" result="hardAlpha"/>
<feOffset dy="30"/>
<feGaussianBlur stdDeviation="10"/>
<feColorMatrix type="matrix" values="0 0 0 0 0.0627451 0 0 0 0 0.760157 0 0 0 0 0.980392 0 0 0 0.3 0"/>
<feBlend mode="lighten" in2="effect1_dropShadow_756_28254" result="effect2_dropShadow_756_28254"/>
<feBlend mode="normal" in="SourceGraphic" in2="effect2_dropShadow_756_28254" result="shape"/>
</filter>
<linearGradient id="paint0_linear_756_28254" x1="123.47" y1="264.451" x2="153.455" y2="152.546" gradientUnits="userSpaceOnUse">
<stop offset="0.01" stop-color="#DD7500"/>
<stop offset="0.28" stop-color="#DD7403"/>
<stop offset="0.51" stop-color="#DF700E"/>
<stop offset="0.73" stop-color="#E16A1F"/>
<stop offset="0.93" stop-color="#E46138"/>
<stop offset="1" stop-color="#E55E42"/>
</linearGradient>
<linearGradient id="paint1_linear_756_28254" x1="132.831" y1="226.605" x2="134.474" y2="220.475" gradientUnits="userSpaceOnUse">
<stop stop-color="#CC87CF"/>
<stop offset="0.09" stop-color="#C781CB"/>
<stop offset="0.69" stop-color="#A65AAF"/>
<stop offset="1" stop-color="#9A4BA4"/>
</linearGradient>
<linearGradient id="paint2_linear_756_28254" x1="138.508" y1="203.292" x2="177.411" y2="58.1045" gradientUnits="userSpaceOnUse">
<stop stop-color="#860057"/>
<stop offset="0.03" stop-color="#8C0555"/>
<stop offset="0.19" stop-color="#A9224B"/>
<stop offset="0.36" stop-color="#C13842"/>
<stop offset="0.54" stop-color="#D1483D"/>
<stop offset="0.74" stop-color="#DB5139"/>
<stop offset="0.99" stop-color="#DE5438"/>
</linearGradient>
<linearGradient id="paint3_linear_756_28254" x1="119.1" y1="198.092" x2="134.057" y2="142.27" gradientUnits="userSpaceOnUse">
<stop stop-color="#892243"/>
<stop offset="0.42" stop-color="#921E46"/>
<stop offset="0.99" stop-color="#951D47"/>
</linearGradient>
<linearGradient id="paint4_linear_756_28254" x1="118.016" y1="197.801" x2="132.973" y2="141.979" gradientUnits="userSpaceOnUse">
<stop stop-color="#590043"/>
<stop offset="0.06" stop-color="#5B0044"/>
<stop offset="0.47" stop-color="#650046"/>
<stop offset="0.99" stop-color="#680047"/>
</linearGradient>
<linearGradient id="paint5_linear_756_28254" x1="179.366" y1="279.428" x2="213.084" y2="153.59" gradientUnits="userSpaceOnUse">
<stop offset="0.01" stop-color="#DD7500"/>
<stop offset="0.28" stop-color="#DD7403"/>
<stop offset="0.51" stop-color="#DF700E"/>
<stop offset="0.73" stop-color="#E16A1F"/>
<stop offset="0.93" stop-color="#E46138"/>
<stop offset="1" stop-color="#E55E42"/>
</linearGradient>
<linearGradient id="paint6_linear_756_28254" x1="65.8449" y1="249.01" x2="99.5631" y2="123.172" gradientUnits="userSpaceOnUse">
<stop offset="0.01" stop-color="#DD7500"/>
<stop offset="0.28" stop-color="#DD7403"/>
<stop offset="0.51" stop-color="#DF700E"/>
<stop offset="0.73" stop-color="#E16A1F"/>
<stop offset="0.93" stop-color="#E46138"/>
<stop offset="1" stop-color="#E55E42"/>
</linearGradient>
<linearGradient id="paint7_linear_756_28254" x1="157.699" y1="208.347" x2="173.187" y2="150.546" gradientUnits="userSpaceOnUse">
<stop stop-color="#892243"/>
<stop offset="0.42" stop-color="#921E46"/>
<stop offset="0.99" stop-color="#951D47"/>
</linearGradient>
<linearGradient id="paint8_linear_756_28254" x1="158.987" y1="208.693" x2="174.05" y2="152.478" gradientUnits="userSpaceOnUse">
<stop stop-color="#590043"/>
<stop offset="0.06" stop-color="#5B0044"/>
<stop offset="0.47" stop-color="#650046"/>
<stop offset="0.99" stop-color="#680047"/>
</linearGradient>
<linearGradient id="paint9_linear_756_28254" x1="158.915" y1="273.957" x2="192.633" y2="148.119" gradientUnits="userSpaceOnUse">
<stop offset="0.01" stop-color="#FFCC00"/>
<stop offset="0.22" stop-color="#FEC902"/>
<stop offset="0.41" stop-color="#FCBE08"/>
<stop offset="0.58" stop-color="#F8AD13"/>
<stop offset="0.75" stop-color="#F29422"/>
<stop offset="0.91" stop-color="#EA7435"/>
<stop offset="1" stop-color="#E55E42"/>
</linearGradient>
<linearGradient id="paint10_linear_756_28254" x1="85.884" y1="254.387" x2="119.602" y2="128.549" gradientUnits="userSpaceOnUse">
<stop offset="0.01" stop-color="#FFCC00"/>
<stop offset="0.22" stop-color="#FEC902"/>
<stop offset="0.41" stop-color="#FCBE08"/>
<stop offset="0.58" stop-color="#F8AD13"/>
<stop offset="0.75" stop-color="#F29422"/>
<stop offset="0.91" stop-color="#EA7435"/>
<stop offset="1" stop-color="#E55E42"/>
</linearGradient>
<radialGradient id="paint11_radial_756_28254" cx="0" cy="0" r="1" gradientUnits="userSpaceOnUse" gradientTransform="translate(170.47 63.6016) rotate(15) scale(48.8219)">
<stop stop-color="#FFD5BD"/>
<stop offset="0.1" stop-color="#F8D0BF"/>
<stop offset="0.25" stop-color="#E5C2C6"/>
<stop offset="0.43" stop-color="#C5ABD2"/>
<stop offset="0.63" stop-color="#9A8CE1"/>
<stop offset="0.75" stop-color="#7A75ED"/>
<stop offset="0.97" stop-color="#7A82ED"/>
</radialGradient>
<linearGradient id="paint12_linear_756_28254" x1="145.394" y1="87.3275" x2="192.713" y2="100.006" gradientUnits="userSpaceOnUse">
<stop stop-color="white"/>
<stop offset="1"/>
</linearGradient>
<radialGradient id="paint13_radial_756_28254" cx="0" cy="0" r="1" gradientUnits="userSpaceOnUse" gradientTransform="translate(194.284 99.351) rotate(15) scale(4.06975 4.06974)">
<stop offset="0.01" stop-color="#60DBFF"/>
<stop offset="0.18" stop-color="#56D5FF"/>
<stop offset="0.48" stop-color="#3CC4FF"/>
<stop offset="0.86" stop-color="#12A9FF"/>
<stop offset="1" stop-color="#009DFF"/>
</radialGradient>
<radialGradient id="paint14_radial_756_28254" cx="0" cy="0" r="1" gradientUnits="userSpaceOnUse" gradientTransform="translate(144.693 85.985) rotate(-165) scale(4.10744 4.10743)">
<stop offset="0.01" stop-color="#60DBFF"/>
<stop offset="0.18" stop-color="#56D5FF"/>
<stop offset="0.48" stop-color="#3CC4FF"/>
<stop offset="0.86" stop-color="#12A9FF"/>
<stop offset="1" stop-color="#009DFF"/>
</radialGradient>
<linearGradient id="paint15_linear_756_28254" x1="169.079" y1="93.5719" x2="169.348" y2="92.5673" gradientUnits="userSpaceOnUse">
<stop stop-color="#590043"/>
<stop offset="0.06" stop-color="#5B0044"/>
<stop offset="0.47" stop-color="#650046"/>
<stop offset="0.99" stop-color="#680047"/>
</linearGradient>
<linearGradient id="paint16_linear_756_28254" x1="168.177" y1="101.188" x2="172.375" y2="85.5216" gradientUnits="userSpaceOnUse">
<stop stop-color="white"/>
<stop offset="1"/>
</linearGradient>
<linearGradient id="paint17_linear_756_28254" x1="168.48" y1="100.059" x2="172.073" y2="86.65" gradientUnits="userSpaceOnUse">
<stop stop-color="#597EE7"/>
<stop offset="0.11" stop-color="#5D5EBE"/>
<stop offset="0.23" stop-color="#60419A"/>
<stop offset="0.36" stop-color="#632A7C"/>
<stop offset="0.49" stop-color="#651764"/>
<stop offset="0.63" stop-color="#670A54"/>
<stop offset="0.79" stop-color="#68024A"/>
<stop offset="0.99" stop-color="#680047"/>
</linearGradient>
<radialGradient id="paint18_radial_756_28254" cx="0" cy="0" r="1" gradientUnits="userSpaceOnUse" gradientTransform="translate(173.239 94.1489) rotate(15) scale(4.80276 5.5846)">
<stop offset="0.01" stop-color="#60DBFF"/>
<stop offset="0.18" stop-color="#56D5FF"/>
<stop offset="0.48" stop-color="#3CC4FF"/>
<stop offset="0.86" stop-color="#12A9FF"/>
<stop offset="1" stop-color="#009DFF"/>
</radialGradient>
<radialGradient id="paint19_radial_756_28254" cx="0" cy="0" r="1" gradientUnits="userSpaceOnUse" gradientTransform="translate(160.531 64.7513) rotate(42.4991) scale(10.6186 17.0246)">
<stop offset="0.01" stop-color="#F4FF09"/>
<stop offset="0.07" stop-color="#DFE908"/>
<stop offset="0.27" stop-color="#9CA306"/>
<stop offset="0.46" stop-color="#646904"/>
<stop offset="0.63" stop-color="#393C02"/>
<stop offset="0.78" stop-color="#1A1B01"/>
<stop offset="0.91" stop-color="#070700"/>
<stop offset="1"/>
</radialGradient>
<linearGradient id="paint20_linear_756_28254" x1="119.189" y1="198.115" x2="147.59" y2="92.1216" gradientUnits="userSpaceOnUse">
<stop stop-color="#623964"/>
<stop offset="1" stop-color="white"/>
</linearGradient>
<linearGradient id="paint21_linear_756_28254" x1="177.562" y1="160.387" x2="192.937" y2="103.008" gradientUnits="userSpaceOnUse">
<stop stop-color="#623964"/>
<stop offset="1" stop-color="#FFC209"/>
</linearGradient>
<linearGradient id="paint22_linear_756_28254" x1="181.781" y1="152.858" x2="194.09" y2="106.922" gradientUnits="userSpaceOnUse">
<stop stop-color="#623964"/>
<stop offset="1" stop-color="white"/>
</linearGradient>
<linearGradient id="paint23_linear_756_28254" x1="156.382" y1="196.69" x2="166.506" y2="158.908" gradientUnits="userSpaceOnUse">
<stop stop-color="#623964"/>
<stop offset="1" stop-color="#FFC209"/>
</linearGradient>
<radialGradient id="paint24_radial_756_28254" cx="0" cy="0" r="1" gradientUnits="userSpaceOnUse" gradientTransform="translate(116.353 207.038) rotate(15) scale(43.5312 43.5313)">
<stop stop-color="#B1B5BD"/>
<stop offset="0.14" stop-color="#ABAEBD"/>
<stop offset="0.34" stop-color="#9B9BBF"/>
<stop offset="0.57" stop-color="#817CC0"/>
<stop offset="0.75" stop-color="#685EC2"/>
<stop offset="0.97" stop-color="#7A75D8"/>
</radialGradient>
<linearGradient id="paint25_linear_756_28254" x1="160.186" y1="202.007" x2="170.739" y2="162.623" gradientUnits="userSpaceOnUse">
<stop stop-color="#CC87CF"/>
<stop offset="0.09" stop-color="#C781CB"/>
<stop offset="0.69" stop-color="#A65AAF"/>
<stop offset="1" stop-color="#9A4BA4"/>
</linearGradient>
<linearGradient id="paint26_linear_756_28254" x1="120.889" y1="191.447" x2="131.438" y2="152.078" gradientUnits="userSpaceOnUse">
<stop stop-color="#CC87CF"/>
<stop offset="0.09" stop-color="#C781CB"/>
<stop offset="0.69" stop-color="#A65AAF"/>
<stop offset="1" stop-color="#9A4BA4"/>
</linearGradient>
<linearGradient id="paint27_linear_756_28254" x1="182.419" y1="74.8558" x2="197.328" y2="78.8506" gradientUnits="userSpaceOnUse">
<stop stop-color="#623964"/>
<stop offset="1" stop-color="#FFC209"/>
</linearGradient>
<linearGradient id="paint28_linear_756_28254" x1="175.635" y1="260.389" x2="187.159" y2="263.477" gradientUnits="userSpaceOnUse">
<stop stop-color="#CC87CF"/>
<stop offset="0.09" stop-color="#C781CB"/>
<stop offset="0.69" stop-color="#A65AAF"/>
<stop offset="1" stop-color="#9A4BA4"/>
</linearGradient>
<linearGradient id="paint29_linear_756_28254" x1="130.021" y1="219.306" x2="133.971" y2="204.565" gradientUnits="userSpaceOnUse">
<stop stop-color="#623964"/>
<stop offset="1" stop-color="#FFC209"/>
</linearGradient>
</defs>
</svg>
