<svg width="35" height="36" viewBox="0 0 35 36" fill="none" xmlns="http://www.w3.org/2000/svg">
<path d="M17.5802 0.500342C21.0323 0.521437 24.4009 1.56465 27.2607 3.49827C30.1206 5.43188 32.3436 8.16928 33.6493 11.365C34.9549 14.5608 35.2847 18.0717 34.5971 21.4547C33.9094 24.8377 32.235 27.9412 29.7853 30.3736C27.3356 32.806 24.2202 34.4582 20.8324 35.1219C17.4446 35.7855 13.9361 35.4307 10.7497 34.1024C7.56332 32.774 4.8418 30.5316 2.92856 27.658C1.01533 24.7845 -0.00387069 21.4086 -0.000418088 17.9564C0.0231228 13.3125 1.88689 8.86727 5.18236 5.59514C8.47784 2.32301 12.9362 0.490862 17.5802 0.500342ZM17.5802 27.4229C19.4494 27.4088 21.2726 26.8417 22.82 25.793C24.3673 24.7443 25.5696 23.261 26.2752 21.53C26.9808 19.7991 27.1581 17.898 26.7848 16.0664C26.4116 14.2348 25.5044 12.5547 24.1777 11.2379C22.851 9.92106 21.1642 9.02651 19.3298 8.66698C17.4955 8.30744 15.5957 8.49902 13.8701 9.21756C12.1445 9.9361 10.6702 11.1494 9.63311 12.7046C8.59603 14.2598 8.04258 16.0872 8.04253 17.9564C8.04719 19.2043 8.2976 20.4389 8.77943 21.59C9.26127 22.7411 9.96511 23.7859 10.8508 24.665C11.7364 25.544 12.7865 26.24 13.9412 26.7132C15.0958 27.1864 16.3324 27.4276 17.5802 27.4229Z" fill="white"/>
</svg>
