<svg width="121" height="112" viewBox="0 0 121 112" fill="none" xmlns="http://www.w3.org/2000/svg">
<path d="M116.765 0.500053L120.324 3.50726C114.506 10.3402 107.335 10.3046 101.053 10.2512C94.7718 10.1978 89.7895 10.2512 85.3943 15.3404C80.9992 20.4295 81.8355 25.6076 82.9565 31.5152C84.0776 37.4229 85.2876 44.6651 79.4867 51.4981C73.6858 58.331 66.5147 58.2954 60.1978 58.242C54.1834 58.242 48.9341 58.242 44.539 63.3311C40.1438 68.4203 40.9802 73.6161 42.0834 79.5416C43.1866 85.467 44.4144 92.7093 38.5246 99.5422C32.6347 106.375 25.5348 106.34 19.2357 106.322C12.9366 106.304 7.95422 106.322 3.55907 111.429L0.000244404 108.421C5.83672 101.571 12.9544 101.606 19.2891 101.66C25.6238 101.713 30.5706 101.66 34.9657 96.535C39.3609 91.4103 38.5246 86.25 37.4213 80.3423C36.3359 74.1678 35.0903 67.1747 40.9802 60.3239C46.87 53.4732 53.9343 53.5444 60.2512 53.5799C66.2834 53.5799 71.5149 53.6689 75.9101 48.4908C80.3052 43.3127 79.4689 38.2236 78.3479 32.316C77.2268 26.4083 76.0168 19.1661 81.8177 12.3331C87.6186 5.5002 94.7896 5.53576 101.107 5.58915C107.139 5.64253 112.37 5.67815 116.765 0.500053Z" fill="#ADE2EB"/>
</svg>
