<svg width="18" height="18" viewBox="0 0 18 18" fill="none" xmlns="http://www.w3.org/2000/svg">
<path d="M8.66525 0.499478C10.3706 0.506511 12.0356 1.01865 13.4502 1.97121C14.8647 2.92377 15.9653 4.27406 16.613 5.85162C17.2608 7.42918 17.4266 9.16331 17.0896 10.835C16.7526 12.5068 15.9279 14.0412 14.7195 15.2446C13.5112 16.448 11.9734 17.2664 10.3003 17.5965C8.62717 17.9266 6.89377 17.7537 5.31889 17.0994C3.74401 16.4452 2.39824 15.3391 1.45151 13.9206C0.504778 12.5022 -0.000468705 10.835 -0.000481932 9.12965C0.008931 6.83752 0.92608 4.64247 2.5502 3.02502C4.17433 1.40757 6.37311 0.499459 8.66525 0.499478ZM8.66525 13.7917C9.59083 13.7882 10.4946 13.5103 11.2622 12.9931C12.0298 12.476 12.6269 11.7428 12.9778 10.8864C13.3288 10.0299 13.4179 9.08856 13.2339 8.18146C13.0498 7.27435 12.601 6.4422 11.944 5.7902C11.287 5.13821 10.4514 4.69565 9.54296 4.51853C8.63448 4.34141 7.6939 4.43764 6.84012 4.79509C5.98634 5.15255 5.25772 5.75518 4.74642 6.52672C4.23512 7.29826 3.96409 8.20407 3.9676 9.12965C4.00007 10.3538 4.50931 11.517 5.3868 12.3712C6.26428 13.2254 7.44064 13.7032 8.66525 13.7028L8.66525 13.7917Z" fill="#ADE2EB"/>
</svg>
