<svg width="157" height="145" viewBox="0 0 157 145" fill="none" xmlns="http://www.w3.org/2000/svg">
<path d="M44.2725 4.33691H29.0117V19.5841H44.2725V4.33691Z" fill="#C08DFD"/>
<path d="M40.4326 8.17422V15.7471H32.853V8.17422H40.4326ZM48.1137 0.5H25.1719V23.4214H48.1137V0.5Z" fill="#271C40"/>
<path d="M127.741 4.33691H112.48V19.5841H127.741V4.33691Z" fill="#C08DFD"/>
<path d="M123.901 8.17422V15.7471H116.322V8.17422H123.901ZM131.582 0.5H108.641V23.4214H131.582V0.5Z" fill="#271C40"/>
<path d="M42.8447 125.099H27.584V140.346H42.8447V125.099Z" fill="#491CA9"/>
<path d="M39.0018 128.936V136.506H31.4252V128.936H39.0018ZM46.6829 121.262H23.7441V144.18H46.6829V121.262Z" fill="#271C40"/>
<path d="M129.794 125.098H114.533V140.345H129.794V125.098Z" fill="#491CA9"/>
<path d="M125.951 128.935V136.505H118.374V128.935H125.951ZM133.632 121.261H110.693V144.18H133.632V121.261Z" fill="#271C40"/>
<path d="M19.5092 33.3643H3.83984V72.9632H19.5092V33.3643Z" fill="url(#paint0_linear_130_173)"/>
<path d="M15.6694 37.2016V69.1263H7.68107V37.2016H15.6694ZM23.3505 29.5273H0V76.8006H23.3505V29.5273Z" fill="#271C40"/>
<path d="M20.6309 43.261V19.4771H44.3992V35.2092H36.4109V43.261H20.6309Z" fill="url(#paint1_linear_130_173)"/>
<path d="M40.5554 23.3202V31.3689H32.5671V39.4207H24.4743V23.3202H40.5554ZM48.2365 15.6459H16.7871V47.1041H40.2574V39.0523H48.2457V15.6367L48.2365 15.6459Z" fill="#271C40"/>
<path d="M153.16 33.3643H137.49V72.9632H153.16V33.3643Z" fill="url(#paint2_linear_130_173)"/>
<path d="M149.32 37.2016V69.1263H141.331V37.2016H149.32ZM157.001 29.5273H133.65V76.8006H157.001V29.5273Z" fill="#271C40"/>
<path d="M120.576 43.3777V35.2737H112.588V19.4648H136.384V43.3777H120.576Z" fill="url(#paint3_linear_130_173)"/>
<path d="M132.523 23.3203V39.5252H124.434V31.4212H116.445V23.3203H132.523ZM140.238 15.6123H108.73V39.1292H116.719V47.2332H140.238V15.6154V15.6123Z" fill="#271C40"/>
<path d="M90.6871 125.096V109.407H66.3105V125.096H42.9262V109.268H25.8926V90.9393H10.1895V75.2808H26.0278V50.8952H34.7351V43.221H43.0645V35.5805H50.8469V19.48H66.3105V35.5467L90.6871 35.3411V19.48H106.458V35.4424H114.379V43.356H122.299V50.8952H130.73V75.1457H146.572V90.9393H130.865V109.268H114.514V125.096H90.6871Z" fill="url(#paint4_linear_130_173)"/>
<path d="M102.617 23.3202V39.2826H110.538V47.1963H118.456V54.7323H126.889V78.9829H142.728V87.1022H127.025V105.434H110.673V121.259H94.5245V105.569H62.4698V121.259H46.7666V105.434H29.733V87.1022H14.0268V79.121H29.8682V54.7323H38.5724V47.0581H46.9018V39.4177H54.6873V23.3202H62.4698V39.4177L94.5245 39.1445V23.3202H102.617ZM110.298 15.646H86.8434V31.5378L70.1509 31.679V15.646H47.0062V31.7434H39.2207V39.3839H30.8913V47.0581H22.1872V71.4468H6.3457V94.7764H22.052V113.109H39.0855V128.933H70.1509V113.244H86.8434V128.933H118.354V113.109H134.706V94.7764H150.409V71.3087H134.571V47.0581H126.137V39.522H118.219V31.6084H110.298V15.646Z" fill="#271C40"/>
<path d="M63.2406 64.3677H49.6543V87.0834H63.2406V64.3677Z" fill="#271C40"/>
<path d="M108.145 64.3677H94.4141V87.0834H108.145V64.3677Z" fill="#271C40"/>
<path d="M84.8299 69.9634C82.8303 69.4469 80.7753 69.1859 78.7123 69.1864C76.5035 69.1677 74.303 69.4619 72.1738 70.0605V72.1688C72.4488 72.0774 72.7351 71.986 73.0213 71.9117C76.7557 70.9907 80.6521 70.9907 84.3865 71.9117L84.8299 72.0431V69.9634Z" fill="#271C40"/>
<path d="M37.3047 76.5052C37.3036 80.0844 38.3452 83.5836 40.2979 86.5601C42.2506 89.5366 45.0265 91.8567 48.2746 93.2269C51.5227 94.5971 55.0971 94.9559 58.5455 94.2579C61.994 93.56 65.1616 91.8365 67.6478 89.3056C70.1339 86.7747 71.8269 83.5501 72.5126 80.0396C73.1982 76.5291 72.8458 72.8904 71.4998 69.5839C70.1537 66.2773 67.8747 63.4514 64.9508 61.4636C62.0269 59.4758 58.5896 58.4154 55.0736 58.4165C52.74 58.4158 50.4291 58.8831 48.2729 59.7919C46.1167 60.7007 44.1576 62.0331 42.5075 63.7129C40.8573 65.3927 39.5485 67.3871 38.6558 69.5821C37.763 71.777 37.304 74.1296 37.3047 76.5052Z" fill="#271C40"/>
<path d="M39.3933 71.9862C39.253 73.7687 39.2979 75.5856 41.0771 76.5569C43.4624 77.8881 46.5324 77.8367 49.1758 77.5682C52.4703 77.2311 55.6975 76.4255 58.9976 76.1684C61.2987 75.9856 63.8243 76.3341 66.0468 75.9627C67.8989 75.6485 69.0887 75.0143 69.5377 73.0603C69.9233 71.3325 69.8575 69.532 69.3469 67.8382C67.7545 65.1073 65.4382 62.8887 62.6638 61.4367C59.8893 59.9847 56.769 59.3581 53.6608 59.6289C50.5525 59.8997 47.5821 61.0569 45.0904 62.9677C42.5986 64.8785 40.6864 67.4655 39.5729 70.4321C39.4831 70.9977 39.4326 71.5234 39.3933 71.9862Z" fill="#3B3054"/>
<path d="M73.8976 81.9391C74.616 79.9851 74.7956 78.2482 74.3017 78.0597C73.8078 77.8711 72.8256 79.2995 72.1072 81.2535C71.3888 83.2075 71.2092 84.9501 71.7087 85.1329C72.7751 85.5214 73.269 83.6474 73.8976 81.9391Z" fill="#271C40"/>
<path d="M73.2636 72.2943C72.3016 67.9727 69.8855 64.1296 66.4334 61.4303C62.9814 58.731 58.7109 57.3455 54.3611 57.5137C50.0114 57.6819 45.8564 59.3931 42.6154 62.3511C39.3745 65.3092 37.2516 69.3278 36.6144 73.7113H33.8643C33.0112 73.7113 33 74.4197 33 75.2939C33 76.168 33 76.8708 33.8643 76.8708H36.418C36.4967 81.7956 38.4513 86.4968 41.8695 89.9828C45.2877 93.4687 49.9023 95.4669 54.7399 95.5558C59.5775 95.6448 64.26 93.8175 67.7996 90.4595C71.3392 87.1014 73.4593 82.4751 73.7126 77.5564C73.7126 74.4597 73.4656 72.9171 73.2636 72.2943ZM55.0737 94.1539C51.6448 94.1539 48.2929 93.1188 45.4419 91.1795C42.5909 89.2403 40.3688 86.4839 39.0566 83.259C37.7444 80.0341 37.4011 76.4855 38.07 73.062C38.739 69.6385 40.3901 66.4938 42.8147 64.0256C45.2393 61.5573 48.3284 59.8764 51.6915 59.1955C55.0545 58.5145 58.5403 58.864 61.7082 60.1998C64.8761 61.5356 67.5837 63.7977 69.4887 66.7C71.3937 69.6023 72.4105 73.0145 72.4105 76.5051C72.4046 81.184 70.5761 85.6695 67.3261 88.978C64.0761 92.2865 59.6699 94.1479 55.0737 94.1539Z" fill="#271C40"/>
<path d="M119.696 76.5052C119.697 80.0844 118.655 83.5836 116.702 86.5601C114.75 89.5366 111.974 91.8567 108.726 93.2269C105.478 94.5971 101.903 94.9559 98.4548 94.2579C95.0063 93.56 91.8387 91.8365 89.3525 89.3056C86.8664 86.7747 85.1734 83.5501 84.4878 80.0396C83.8021 76.5291 84.1546 72.8904 85.5006 69.5839C86.8466 66.2773 89.1257 63.4514 92.0496 61.4636C94.9734 59.4758 98.4107 58.4154 101.927 58.4165C104.26 58.4158 106.571 58.8831 108.727 59.7919C110.884 60.7007 112.843 62.0331 114.493 63.7129C116.143 65.3927 117.452 67.3871 118.345 69.5821C119.237 71.777 119.696 74.1296 119.696 76.5052Z" fill="#271C40"/>
<path d="M117.607 71.9862C117.747 73.7687 117.697 75.5856 115.923 76.5569C113.538 77.8881 110.468 77.8367 107.824 77.5682C104.53 77.2311 101.303 76.4255 98.0026 76.1684C95.7015 75.9856 93.1759 76.3341 90.9533 75.9627C89.1012 75.6485 87.9114 75.0143 87.4624 73.0603C87.0768 71.3325 87.1426 69.532 87.6532 67.8382C89.2456 65.1073 91.5619 62.8887 94.3363 61.4367C97.1108 59.9847 100.231 59.3581 103.339 59.6289C106.448 59.8997 109.418 61.0569 111.91 62.9677C114.401 64.8785 116.314 67.4655 117.427 70.4321C117.517 70.9977 117.567 71.5234 117.607 71.9862Z" fill="#3B3054"/>
<path d="M83.1027 81.9391C82.3843 79.9851 82.2047 78.2482 82.6986 78.0597C83.1925 77.8711 84.1747 79.2995 84.8931 81.2535C85.6115 83.2075 85.791 84.9501 85.2915 85.1329C84.214 85.5214 83.7313 83.6474 83.1027 81.9391Z" fill="#271C40"/>
<path d="M83.2871 77.5564C83.5404 82.4751 85.6605 87.1014 89.2001 90.4595C92.7397 93.8175 97.4222 95.6448 102.26 95.5558C107.097 95.4669 111.712 93.4687 115.13 89.9828C118.548 86.4968 120.503 81.7956 120.582 76.8708H123.135C123.988 76.8708 124 76.168 124 75.2939C124 74.4197 124 73.7113 123.135 73.7113H120.385C119.748 69.3278 117.625 65.3092 114.384 62.3511C111.143 59.3931 106.988 57.6819 102.639 57.5137C98.2888 57.3455 94.0183 58.731 90.5663 61.4303C87.1142 64.1296 84.6981 67.9727 83.7361 72.2943C83.534 72.9171 83.2871 74.4597 83.2871 77.5564ZM84.5892 76.5051C84.5892 73.0145 85.606 69.6023 87.511 66.7C89.416 63.7977 92.1236 61.5356 95.2915 60.1998C98.4594 58.864 101.945 58.5145 105.308 59.1955C108.671 59.8764 111.76 61.5573 114.185 64.0256C116.61 66.4938 118.261 69.6385 118.93 73.062C119.599 76.4855 119.255 80.0341 117.943 83.259C116.631 86.4839 114.409 89.2403 111.558 91.1795C108.707 93.1188 105.355 94.1539 101.926 94.1539C97.3294 94.1494 92.9223 92.2885 89.6719 88.9797C86.4216 85.6709 84.5936 81.1845 84.5892 76.5051Z" fill="#271C40"/>
<defs>
<linearGradient id="paint0_linear_130_173" x1="11.6458" y1="71.6144" x2="12.4297" y2="34.5083" gradientUnits="userSpaceOnUse">
<stop stop-color="#8959D6"/>
<stop offset="1" stop-color="#C390FF"/>
</linearGradient>
<linearGradient id="paint1_linear_130_173" x1="32.4714" y1="42.4508" x2="32.6579" y2="20.1558" gradientUnits="userSpaceOnUse">
<stop stop-color="#8959D6"/>
<stop offset="1" stop-color="#C390FF"/>
</linearGradient>
<linearGradient id="paint2_linear_130_173" x1="145.296" y1="71.6144" x2="146.08" y2="34.5083" gradientUnits="userSpaceOnUse">
<stop stop-color="#8959D6"/>
<stop offset="1" stop-color="#C390FF"/>
</linearGradient>
<linearGradient id="paint3_linear_130_173" x1="124.442" y1="42.5632" x2="124.631" y2="20.1473" gradientUnits="userSpaceOnUse">
<stop stop-color="#8959D6"/>
<stop offset="1" stop-color="#C390FF"/>
</linearGradient>
<linearGradient id="paint4_linear_130_173" x1="78.1301" y1="121.498" x2="78.7711" y2="22.4913" gradientUnits="userSpaceOnUse">
<stop stop-color="#471AA7"/>
<stop offset="1" stop-color="#C390FF"/>
</linearGradient>
</defs>
</svg>
