<svg width="316" height="145" viewBox="0 0 316 145" fill="none" xmlns="http://www.w3.org/2000/svg">
<path d="M4.29693 20.3952L4.80909 18.6232C4.95807 18.1114 5.24525 17.6506 5.63905 17.2914C6.03286 16.9321 6.51805 16.6885 7.0413 16.5871C7.64472 16.4733 8.25136 16.3659 8.86122 16.2649C8.28357 16.0501 7.7027 15.8354 7.11861 15.6206C6.60441 15.4403 6.14347 15.1342 5.77778 14.7302C5.4121 14.3261 5.15328 13.837 5.0249 13.3074L4.57717 11.5L4.0167 13.2752C3.8521 13.7921 3.56164 14.2599 3.17144 14.6367C2.78124 15.0135 2.30353 15.2874 1.78126 15.4337C1.18214 15.6077 0.589459 15.7849 0 15.975C0.605565 16.1071 1.20147 16.2488 1.79737 16.397C2.31296 16.5317 2.78146 16.806 3.15139 17.1896C3.52132 17.5732 3.77837 18.0515 3.8943 18.5717L4.29693 20.3952Z" fill="white"/>
<path d="M10.5286 28.571L10.812 27.5658C10.8918 27.2685 11.0485 26.9973 11.2661 26.7796C11.4838 26.5619 11.7548 26.4053 12.0521 26.3255L13.0732 26.0516L12.0521 25.7778C11.7529 25.6965 11.4805 25.5375 11.2627 25.3168C11.0449 25.0961 10.8894 24.8216 10.812 24.5213L10.535 23.5L10.2612 24.5213C10.1814 24.8186 10.0248 25.0898 9.80711 25.3075C9.58944 25.5252 9.31837 25.6818 9.02109 25.7616L8 26.0355L9.02109 26.3093C9.31913 26.3916 9.59017 26.5511 9.8068 26.7717C10.0234 26.9923 10.178 27.2663 10.2548 27.5658L10.5286 28.571Z" fill="white"/>
<path d="M20.9748 83.4512L21.4064 81.8404C21.5317 81.3773 21.776 80.9552 22.1151 80.6161C22.4542 80.2769 22.8762 80.0325 23.3391 79.9073L24.9496 79.4756L23.3391 79.0439C22.8762 78.9187 22.4542 78.6743 22.1151 78.3351C21.776 77.996 21.5317 77.5739 21.4064 77.1109L20.9748 75.5L20.5432 77.1109C20.418 77.5739 20.1737 77.996 19.8346 78.3351C19.4955 78.6743 19.0735 78.9187 18.6105 79.0439L17 79.4756L18.6105 79.9073C19.0735 80.0325 19.4955 80.2769 19.8346 80.6161C20.1737 80.9552 20.418 81.3773 20.5432 81.8404L20.9748 83.4512Z" fill="white"/>
<path d="M38.3148 51.1317L38.8914 48.9893C39.0591 48.3671 39.3872 47.7998 39.8428 47.3441C40.2983 46.8884 40.8655 46.5603 41.4876 46.3925L43.6296 45.8158L41.4876 45.2392C40.8655 45.0714 40.2983 44.7433 39.8428 44.2876C39.3872 43.8319 39.0591 43.2646 38.8914 42.6424L38.3148 40.5L37.7382 42.6424C37.5705 43.2646 37.2424 43.8319 36.7868 44.2876C36.3313 44.7433 35.7641 45.0714 35.142 45.2392L33 45.8158L35.142 46.3925C35.7641 46.5603 36.3313 46.8884 36.7868 47.3441C37.2424 47.7998 37.5705 48.3671 37.7382 48.9893L38.3148 51.1317Z" fill="white"/>
<path d="M305.167 119.759L305.96 116.814C306.189 115.959 306.64 115.179 307.266 114.553C307.891 113.928 308.671 113.477 309.526 113.248L312.47 112.455L309.526 111.662C308.671 111.433 307.891 110.983 307.266 110.357C306.64 109.731 306.189 108.951 305.96 108.096L305.167 105.151L304.375 108.096C304.146 108.951 303.695 109.731 303.069 110.357C302.444 110.983 301.664 111.433 300.809 111.662L297.865 112.455L300.809 113.248C301.664 113.477 302.444 113.928 303.069 114.553C303.695 115.179 304.146 115.959 304.375 116.814L305.167 119.759Z" fill="white"/>
<path d="M292.5 124.914L292.822 123.699C292.917 123.347 293.102 123.026 293.36 122.769C293.618 122.511 293.939 122.327 294.291 122.233L295.502 121.911L294.291 121.589C293.939 121.494 293.618 121.309 293.36 121.051C293.102 120.793 292.917 120.472 292.822 120.12L292.5 118.908L292.178 120.12C292.084 120.472 291.9 120.793 291.642 121.051C291.385 121.309 291.064 121.494 290.712 121.589L289.498 121.911L290.712 122.233C291.064 122.327 291.385 122.512 291.642 122.769C291.899 123.026 292.084 123.347 292.178 123.699L292.5 124.914Z" fill="white"/>
<path d="M300.874 100.641L301.221 99.3522C301.323 98.975 301.522 98.6311 301.798 98.3551C302.075 98.0791 302.419 97.8808 302.797 97.78L304.085 97.4288L302.797 97.0809C302.419 96.9798 302.074 96.781 301.798 96.5045C301.521 96.2279 301.322 95.8833 301.221 95.5055L300.874 94.2168L300.522 95.5055C300.422 95.8829 300.223 96.2272 299.947 96.5038C299.672 96.7803 299.328 96.9794 298.951 97.0809L297.662 97.4288L298.951 97.78C299.327 97.8813 299.671 98.0799 299.947 98.3558C300.223 98.6317 300.421 98.9754 300.522 99.3522L300.874 100.641Z" fill="white"/>
<path d="M281.009 12.5817L281.534 10.6486C281.686 10.0834 281.984 9.56806 282.398 9.15417C282.812 8.74029 283.327 8.4424 283.892 8.29034L285.825 7.7652L283.892 7.24006C283.327 7.088 282.812 6.79012 282.398 6.37623C281.984 5.96234 281.686 5.44698 281.534 4.88176L281.009 2.9165L280.484 4.84954C280.332 5.41477 280.034 5.93013 279.621 6.34401C279.207 6.7579 278.692 7.05579 278.127 7.20784L276.178 7.74909L278.11 8.27424C278.676 8.42629 279.191 8.72418 279.605 9.13807C280.018 9.55195 280.316 10.0673 280.468 10.6325L281.009 12.5817Z" fill="white"/>
<path d="M227.832 22.1652L228.357 20.2321C228.509 19.6669 228.807 19.1516 229.22 18.7377C229.634 18.3238 230.149 18.0259 230.714 17.8738L232.647 17.3487L230.714 16.8236C230.149 16.6715 229.634 16.3736 229.22 15.9597C228.807 15.5458 228.509 15.0305 228.357 14.4653L227.832 12.5L227.307 14.433C227.155 14.9983 226.857 15.5136 226.443 15.9275C226.029 16.3414 225.514 16.6393 224.949 16.7913L223 17.3326L224.933 17.8577C225.498 18.0098 226.013 18.3077 226.427 18.7216C226.841 19.1354 227.138 19.6508 227.29 20.216L227.832 22.1652Z" fill="white"/>
<path d="M278.915 19.5082L279.176 18.5417C279.253 18.2587 279.403 18.0008 279.61 17.7935C279.818 17.5861 280.075 17.4364 280.358 17.3593L281.325 17.0983L280.358 16.8374C280.075 16.7602 279.818 16.6106 279.61 16.4032C279.403 16.1958 279.253 15.9379 279.176 15.655L278.915 14.6885L278.654 15.655C278.578 15.9382 278.428 16.1964 278.221 16.4039C278.013 16.6114 277.755 16.7608 277.472 16.8374L276.506 17.0983L277.472 17.3593C277.755 17.4358 278.013 17.5853 278.221 17.7928C278.428 18.0002 278.578 18.2584 278.654 18.5417L278.915 19.5082Z" fill="white"/>
<path d="M193.737 66.0917L193.998 65.1252C194.076 64.8422 194.225 64.5843 194.432 64.377C194.64 64.1696 194.898 64.0199 195.181 63.9428L196.147 63.6818L195.181 63.4209C194.898 63.3437 194.64 63.1941 194.432 62.9867C194.225 62.7793 194.076 62.5214 193.998 62.2385L193.737 61.272L193.477 62.2385C193.4 62.5217 193.251 62.7799 193.043 62.9874C192.836 63.1948 192.578 63.3443 192.294 63.4209L191.328 63.6818L192.294 63.9428C192.578 64.0193 192.836 64.1688 193.043 64.3763C193.251 64.5837 193.4 64.8419 193.477 65.1252L193.737 66.0917Z" fill="white"/>
<path d="M72.3219 15.6741L72.8469 13.741C72.9989 13.1758 73.2968 12.6604 73.7106 12.2466C74.1244 11.8327 74.6396 11.5348 75.2047 11.3827L77.1535 10.8576L75.2047 10.326C74.6396 10.1739 74.1244 9.87606 73.7106 9.46218C73.2968 9.04829 72.9989 8.53293 72.8469 7.9677L72.3219 6.03467L71.7968 7.9677C71.6448 8.53293 71.347 9.04829 70.9332 9.46218C70.5194 9.87606 70.0041 10.1739 69.439 10.326L67.4902 10.8511L69.439 11.3763C70.0041 11.5283 70.5194 11.8262 70.9332 12.2401C71.347 12.654 71.6448 13.1694 71.7968 13.7346L72.3219 15.6741Z" fill="white"/>
<path d="M306.643 10.8256C309.111 10.8256 309.117 6.9917 306.643 6.9917C304.169 6.9917 304.173 10.8256 306.643 10.8256Z" fill="white"/>
<path d="M238.854 50.3339C241.321 50.3339 241.328 46.5 238.854 46.5C236.38 46.5 236.384 50.3339 238.854 50.3339Z" fill="white"/>
<path d="M313.89 135.5C316.357 135.5 316.361 131.667 313.89 131.667C311.419 131.667 311.419 135.5 313.89 135.5Z" fill="white"/>
<path d="M60.726 5.99303C63.1933 5.99303 63.1966 2.15918 60.726 2.15918C58.2554 2.15918 58.2554 5.99303 60.726 5.99303Z" fill="white"/>
<path d="M64.8493 74.3371C67.3167 74.3371 67.3199 70.5 64.8493 70.5C62.3787 70.5 62.3884 74.3371 64.8493 74.3371Z" fill="white"/>
<path d="M142.854 40.3371C145.321 40.3371 145.325 36.5 142.854 36.5C140.384 36.5 140.38 40.3371 142.854 40.3371Z" fill="white"/>
<path d="M305.813 133.235C306.85 133.235 306.85 131.625 305.813 131.625C304.776 131.625 304.776 133.235 305.813 133.235Z" fill="white"/>
<path d="M313.864 5.33254C314.901 5.33254 314.901 3.72168 313.864 3.72168C312.827 3.72168 312.827 5.33254 313.864 5.33254Z" fill="white"/>
<path d="M269.778 34.1109C270.815 34.1109 270.815 32.5 269.778 32.5C268.741 32.5 268.741 34.1109 269.778 34.1109Z" fill="white"/>
<path d="M298.725 13.3867C299.762 13.3867 299.762 11.7759 298.725 11.7759C297.688 11.7759 297.688 13.3867 298.725 13.3867Z" fill="white"/>
<path d="M294.778 62.1109C295.815 62.1109 295.815 60.5 294.778 60.5C293.741 60.5 293.741 62.1109 294.778 62.1109Z" fill="white"/>
<path d="M68.7408 2.11086C69.778 2.11086 69.778 0.5 68.7408 0.5C67.7036 0.5 67.7036 2.11086 68.7408 2.11086Z" fill="white"/>
<path d="M63.9088 18.542C64.9459 18.542 64.9459 16.9312 63.9088 16.9312C62.8716 16.9312 62.8716 18.542 63.9088 18.542Z" fill="white"/>
<path d="M114.778 51.1109C115.815 51.1109 115.815 49.5 114.778 49.5C113.741 49.5 113.741 51.1109 114.778 51.1109Z" fill="white"/>
<path d="M77.7779 41.1109C78.8151 41.1109 78.8151 39.5 77.7779 39.5C76.7407 39.5 76.7407 41.1109 77.7779 41.1109Z" fill="white"/>
<path d="M140.778 53.1109C141.815 53.1109 141.815 51.5 140.778 51.5C139.741 51.5 139.741 53.1109 140.778 53.1109Z" fill="white"/>
<path d="M6.59005 144.797L7.08932 142.948C7.2321 142.406 7.51603 141.912 7.91215 141.515C8.30827 141.119 8.80239 140.835 9.34409 140.692L11.1801 140.206L9.3312 139.707C8.7895 139.564 8.29539 139.28 7.89927 138.884C7.50315 138.487 7.21921 137.993 7.07644 137.451L6.57717 135.602L6.0779 137.451C5.93512 137.993 5.65119 138.487 5.25507 138.884C4.85895 139.28 4.36483 139.564 3.82314 139.707L2 140.206L3.84891 140.705C4.3906 140.848 4.88472 141.132 5.28084 141.528C5.67695 141.924 5.96089 142.419 6.10367 142.96L6.59005 144.797Z" fill="white"/>
<path d="M16.9777 144.716L17.2386 143.75C17.3158 143.467 17.4654 143.209 17.6727 143.001C17.8801 142.794 18.1379 142.644 18.4208 142.567L19.3871 142.306L18.4208 142.045C18.1376 141.969 17.8794 141.819 17.672 141.612C17.4646 141.404 17.3152 141.146 17.2386 140.863L16.9777 139.896L16.7168 140.863C16.6409 141.147 16.4916 141.405 16.2841 141.613C16.0766 141.82 15.8182 141.969 15.5347 142.045L14.5684 142.306L15.5347 142.567C15.8179 142.644 16.076 142.793 16.2834 143.001C16.4909 143.208 16.6403 143.466 16.7168 143.75L16.9777 144.716Z" fill="white"/>
<path d="M21.7305 134.809L22.0204 133.737C22.1035 133.428 22.2663 133.146 22.4924 132.92C22.7185 132.694 23 132.531 23.3088 132.448L24.3879 132.151L23.3152 131.862C23.0065 131.778 22.725 131.616 22.4989 131.389C22.2727 131.163 22.11 130.882 22.0268 130.573L21.7369 129.5L21.447 130.573C21.3638 130.882 21.201 131.163 20.9749 131.389C20.7488 131.616 20.4673 131.778 20.1586 131.862L19.0859 132.151L20.1586 132.441C20.4673 132.525 20.7488 132.687 20.9749 132.914C21.201 133.14 21.3638 133.421 21.447 133.73L21.7305 134.809Z" fill="white"/>
</svg>
