<svg width="157" height="159" viewBox="0 0 157 159" fill="none" xmlns="http://www.w3.org/2000/svg">
<path d="M44.2725 18.3369H29.0117V33.5841H44.2725V18.3369Z" fill="#C08DFD"/>
<path d="M40.4326 22.1742V29.7471H32.853V22.1742H40.4326ZM48.1137 14.5H25.1719V37.4214H48.1137V14.5Z" fill="#271C40"/>
<path d="M127.741 18.3369H112.48V33.5841H127.741V18.3369Z" fill="#C08DFD"/>
<path d="M123.901 22.1742V29.7471H116.322V22.1742H123.901ZM131.582 14.5H108.641V37.4214H131.582V14.5Z" fill="#271C40"/>
<path d="M42.8447 139.099H27.584V154.346H42.8447V139.099Z" fill="#491CA9"/>
<path d="M39.0018 142.936V150.506H31.4252V142.936H39.0018ZM46.6829 135.262H23.7441V158.18H46.6829V135.262Z" fill="#271C40"/>
<path d="M129.794 139.098H114.533V154.345H129.794V139.098Z" fill="#491CA9"/>
<path d="M125.951 142.935V150.505H118.374V142.935H125.951ZM133.632 135.261H110.693V158.18H133.632V135.261Z" fill="#271C40"/>
<path d="M19.5092 47.3643H3.83984V86.9632H19.5092V47.3643Z" fill="url(#paint0_linear_130_172)"/>
<path d="M15.6694 51.2016V83.1263H7.68107V51.2016H15.6694ZM23.3505 43.5273H0V90.8006H23.3505V43.5273Z" fill="#271C40"/>
<path d="M20.6309 57.261V33.4771H44.3992V49.2092H36.4109V57.261H20.6309Z" fill="url(#paint1_linear_130_172)"/>
<path d="M40.5554 37.3202V45.3689H32.5671V53.4207H24.4743V37.3202H40.5554ZM48.2365 29.6459H16.7871V61.1041H40.2574V53.0523H48.2457V29.6367L48.2365 29.6459Z" fill="#271C40"/>
<path d="M153.16 47.3643H137.49V86.9632H153.16V47.3643Z" fill="url(#paint2_linear_130_172)"/>
<path d="M149.32 51.2016V83.1263H141.331V51.2016H149.32ZM157.001 43.5273H133.65V90.8006H157.001V43.5273Z" fill="#271C40"/>
<path d="M120.576 57.3777V49.2737H112.588V33.4648H136.384V57.3777H120.576Z" fill="url(#paint3_linear_130_172)"/>
<path d="M132.523 37.3203V53.5252H124.434V45.4212H116.445V37.3203H132.523ZM140.238 29.6123H108.73V53.1292H116.719V61.2332H140.238V29.6154V29.6123Z" fill="#271C40"/>
<path d="M90.6871 139.096V123.407H66.3105V139.096H42.9262V123.268H25.8926V104.939H10.1895V89.2808H26.0278V64.8952H34.7351V57.221H43.0645V49.5805H50.8469V33.48H66.3105V49.5467L90.6871 49.3411V33.48H106.458V49.4424H114.379V57.356H122.299V64.8952H130.73V89.1457H146.572V104.939H130.865V123.268H114.514V139.096H90.6871Z" fill="url(#paint4_linear_130_172)"/>
<path d="M102.617 37.3202V53.2826H110.538V61.1963H118.456V68.7323H126.889V92.9829H142.728V101.102H127.025V119.434H110.673V135.259H94.5244V119.569H62.4698V135.259H46.7666V119.434H29.733V101.102H14.0268V93.121H29.8682V68.7323H38.5724V61.0581H46.9018V53.4177H54.6873V37.3202H62.4698V53.4177L94.5244 53.1445V37.3202H102.617ZM110.298 29.646H86.8434V45.5378L70.1509 45.679V29.646H47.0062V45.7434H39.2207V53.3839H30.8913V61.0581H22.1872V85.4468H6.3457V108.776H22.052V127.109H39.0855V142.933H70.1509V127.244H86.8434V142.933H118.354V127.109H134.706V108.776H150.409V85.3087H134.571V61.0581H126.137V53.522H118.219V45.6084H110.298V29.646Z" fill="#271C40"/>
<path d="M63.2406 78.3677H49.6543V101.083H63.2406V78.3677Z" fill="#271C40"/>
<path d="M108.145 78.3677H94.4141V101.083H108.145V78.3677Z" fill="#271C40"/>
<path d="M137.246 31.8693L110.716 55.2715L72.3881 17.7593L44.8415 63.775L13.2363 47.8752L26.4289 81.643C28.1056 85.871 51.9982 86.3365 80.7583 82.626C109.518 78.9154 132.507 72.396 133.056 67.881L137.246 31.8693Z" fill="#E1A000"/>
<path d="M91.959 36.9155L94.917 80.4975C97.457 80.0621 99.9111 79.6101 102.279 79.1416L101.066 45.8348L91.959 36.9155Z" fill="#D47B12"/>
<path d="M110.716 55.2718L105.656 50.3229L106.21 78.3214C113.441 76.7622 119.604 75.0832 124.193 73.4268L125.92 41.8623L110.716 55.2718Z" fill="#D47B12"/>
<path d="M71.368 9.83008L42.2803 58.9439L8.49219 38.9992L20.2972 69.2146C22.105 73.7951 48.002 74.3013 79.1665 70.2789C110.331 66.2566 135.24 59.1948 135.835 54.3024L139.579 22.078L111.969 49.9613L71.368 9.83008Z" fill="#F0C11B"/>
<path d="M111.624 40.642L70.0939 0L40.2446 49.8573L6 32.6266L8.49027 38.9991L42.2784 58.9461L71.3639 9.83L111.965 49.95L139.584 22.078L140.373 15.2828L111.624 40.642Z" fill="#F0C11B"/>
<path d="M71.7522 12.8311L112.356 52.951L139.139 25.9219L139.586 22.078L111.967 49.95L71.3658 9.83008L42.2803 58.9462L8.49219 38.9992L9.89776 42.6035L42.6667 61.9449L71.7522 12.8311Z" fill="#D47B12"/>
<path d="M112.353 52.9505L71.749 12.8306L42.6635 61.9444L9.89453 42.603L11.6526 47.1023L44.0126 66.2448L72.7794 20.8166L112.14 57.452L138.67 29.9212L139.135 25.9214L112.353 52.9505Z" fill="#E1A000"/>
<path d="M70.0935 0L40.2441 49.8573L71.0335 0.919727L70.0935 0Z" fill="white"/>
<path d="M111.625 40.6419L140.374 15.2827L140.216 16.6431L111.625 40.6419Z" fill="white"/>
<path d="M10.709 48.9016L12.2434 48.6123L24.1275 56.2707L20.2972 69.2169L18.7628 69.5039L10.709 48.9016Z" fill="#D47B12"/>
<path d="M10.709 48.9009L22.5931 56.5592L18.7628 69.5032L10.709 48.9009Z" fill="#F2D042"/>
<path d="M11.6484 51.2988L20.5293 57.1449L17.7769 66.9794L11.6484 51.2988Z" fill="#E1A000"/>
<path d="M11.5215 60.4734L17.3607 65.9149L19.8736 57.4272L11.5215 60.4734Z" fill="#9A1740"/>
<path d="M19.8736 57.4275L12.0796 52.4062L11.5215 60.4736L19.8736 57.4275Z" fill="#C82441"/>
<path d="M139.951 32.2173L138.391 32.328L128.844 42.7546L135.835 54.302L137.392 54.1913L139.951 32.2173Z" fill="#D47B12"/>
<path d="M139.952 32.2173L130.402 42.6461L137.394 54.1913L139.952 32.2173Z" fill="#F2D042"/>
<path d="M139.652 34.7778L132.547 42.687L137.706 51.5001L139.652 34.7778Z" fill="#E1A000"/>
<path d="M142.103 43.6183L137.837 50.366L133.252 42.7935L142.103 43.6183Z" fill="#9A1740"/>
<path d="M133.252 42.7933L139.514 35.9575L142.103 43.6181L133.252 42.7933Z" fill="#C82441"/>
<path d="M84.4731 77.2939C84.8344 74.8203 83.1221 72.5222 80.6485 72.1609C78.1749 71.7997 75.8768 73.512 75.5155 75.9856C75.1542 78.4591 76.8666 80.7572 79.3401 81.1185C81.8137 81.4798 84.1118 79.7675 84.4731 77.2939Z" fill="#F2D042"/>
<path d="M83.6136 76.1742C83.7056 76.8919 83.5827 77.6207 83.2605 78.2686C82.9383 78.9164 82.4312 79.4542 81.8033 79.8138C81.1755 80.1735 80.4551 80.3389 79.7332 80.2892C79.0114 80.2394 78.3205 79.9768 77.7479 79.5344C77.1753 79.092 76.7468 78.4898 76.5165 77.8038C76.2861 77.1179 76.2644 76.3791 76.454 75.6808C76.6435 74.9825 77.0359 74.3561 77.5814 73.8808C78.127 73.4055 78.8012 73.1026 79.5189 73.0105C80.4814 72.8875 81.4532 73.1517 82.221 73.7449C82.9888 74.3381 83.4897 75.2119 83.6136 76.1742Z" fill="#C82441"/>
<path d="M82.4931 73.9712C82.638 74.7102 82.5708 75.4751 82.2991 76.1775C82.0274 76.8799 81.5625 77.4911 80.958 77.9402C80.3535 78.3894 79.6342 78.6582 78.8833 78.7157C78.1324 78.7731 77.3806 78.6168 76.7148 78.2648C76.9533 78.7432 77.2938 79.1635 77.7123 79.4961C78.1307 79.8287 78.6171 80.0655 79.137 80.1898C79.6569 80.3141 80.1977 80.3229 80.7214 80.2156C81.2451 80.1083 81.7389 79.8874 82.1679 79.5686C82.597 79.2497 82.951 78.8407 83.2049 78.3703C83.4587 77.8998 83.6064 77.3795 83.6374 76.8458C83.6684 76.3121 83.582 75.7781 83.3843 75.2815C83.1866 74.7848 82.8824 74.3376 82.4931 73.9712Z" fill="#9A1740"/>
<path d="M77.3019 75.1511C77.1144 75.4335 76.9697 75.8132 77.1528 76.0979C77.2108 76.1772 77.2857 76.2427 77.372 76.2896C77.4584 76.3365 77.5541 76.3636 77.6522 76.3691C77.8485 76.3774 78.0447 76.349 78.2307 76.2855C78.9109 76.0818 79.5433 75.7437 80.0905 75.2912C80.3675 75.0934 80.5754 74.8135 80.6848 74.4912C80.7212 74.3483 80.7172 74.198 80.6733 74.0572C80.6294 73.9164 80.5474 73.7905 80.4362 73.6935C80.3434 73.6398 80.2406 73.6056 80.1341 73.5932C80.0276 73.5807 79.9197 73.5903 79.817 73.6212C79.1722 73.7018 78.5609 73.9547 78.0476 74.3534C77.7576 74.5772 77.5058 74.8466 77.3019 75.1511Z" fill="#E06747"/>
<path d="M62.1714 81.1721C63.4631 79.2962 62.9895 76.7283 61.1135 75.4365C59.2376 74.1448 56.6697 74.6184 55.3779 76.4944C54.0862 78.3703 54.5598 80.9383 56.4358 82.23C58.3117 83.5217 60.8797 83.0481 62.1714 81.1721Z" fill="#F2D042"/>
<path d="M62.0784 78.403C62.1628 79.0568 62.0514 79.721 61.7583 80.3114C61.4653 80.9019 61.0037 81.3923 60.432 81.7205C59.8603 82.0487 59.2042 82.2 58.5465 82.1552C57.8888 82.1105 57.2591 81.8718 56.7371 81.4692C56.2151 81.0666 55.8242 80.5183 55.6138 79.8936C55.4034 79.2689 55.383 78.5958 55.5551 77.9594C55.7272 77.3231 56.0842 76.7521 56.5808 76.3186C57.0774 75.8851 57.6915 75.6086 58.3452 75.5241C58.7794 75.468 59.2204 75.4979 59.6429 75.6122C60.0655 75.7265 60.4615 75.923 60.8081 76.1903C61.1548 76.4576 61.4454 76.7907 61.6633 77.1703C61.8813 77.55 62.0223 77.9689 62.0784 78.403Z" fill="#C82441"/>
<path d="M61.0563 76.4009C61.1875 77.0741 61.1257 77.7707 60.8779 78.4103C60.6301 79.0498 60.2064 79.6062 59.6558 80.0153C59.1052 80.4243 58.4502 80.6693 57.7663 80.7219C57.0825 80.7745 56.3977 80.6326 55.791 80.3125C56.0085 80.7479 56.3188 81.1304 56.7 81.433C57.0813 81.7356 57.5241 81.9509 57.9976 82.0639C58.471 82.1769 58.9634 82.1848 59.4402 82.0869C59.917 81.9891 60.3665 81.788 60.7572 81.4978C61.1479 81.2075 61.4702 80.8352 61.7015 80.4069C61.9328 79.9787 62.0675 79.505 62.096 79.0191C62.1245 78.5332 62.0462 78.047 61.8665 77.5947C61.6869 77.1423 61.4103 76.7348 61.0563 76.4009Z" fill="#9A1740"/>
<path d="M56.3282 77.4787C56.1565 77.7363 56.0254 78.082 56.1926 78.3419C56.2449 78.414 56.3126 78.4735 56.3908 78.5161C56.469 78.5587 56.5556 78.5834 56.6446 78.5882C56.8234 78.5967 57.0021 78.5706 57.1711 78.5114C57.7914 78.3278 58.3679 78.0203 58.8659 77.6075C59.1183 77.4266 59.3079 77.1714 59.4083 76.8776C59.4413 76.7473 59.4376 76.6103 59.3978 76.4819C59.3579 76.3535 59.2833 76.2387 59.1823 76.1499C59.0979 76.1012 59.0045 76.0703 58.9077 76.059C58.8109 76.0477 58.7129 76.0564 58.6196 76.0844C58.0318 76.1584 57.4747 76.3886 57.0061 76.751C56.743 76.9561 56.5142 77.2017 56.3282 77.4787Z" fill="#E06747"/>
<path d="M43.5088 78.3078C43.7348 80.1337 42.5462 81.7946 40.831 82.0138C39.1158 82.233 37.534 80.9359 37.299 79.11C37.064 77.2841 38.2616 75.6254 39.9768 75.404C41.692 75.1825 43.2738 76.4819 43.5088 78.3078Z" fill="#F2D042"/>
<path d="M42.6189 78.4347C42.8087 79.9104 41.8393 81.2504 40.454 81.4312C39.0688 81.612 37.7898 80.5589 37.6 79.0833C37.4101 77.6077 38.3773 76.2654 39.7648 76.0868C41.1523 75.9083 42.4404 76.9478 42.6189 78.4347Z" fill="#C82441"/>
<path d="M41.831 76.8032C41.944 77.4125 41.874 78.0415 41.6299 78.611C41.4524 79.0164 41.1812 79.3738 40.8387 79.6539C40.4961 79.9341 40.0919 80.1288 39.6594 80.2223C39.0399 80.3342 38.4008 80.2272 37.8516 79.9194C38.0719 80.411 38.4423 80.8201 38.9096 81.088C39.3769 81.356 39.917 81.469 40.4526 81.4109C41.8378 81.2301 42.8072 79.8901 42.6174 78.4144C42.5403 77.8053 42.2638 77.2388 41.831 76.8032Z" fill="#9A1740"/>
<path d="M38.242 77.6415C38.1651 77.7382 38.1155 77.8538 38.0984 77.9762C38.0813 78.0987 38.0974 78.2234 38.1449 78.3375C38.1834 78.3956 38.2349 78.444 38.2953 78.4789C38.3557 78.5138 38.4233 78.5342 38.4929 78.5386C38.6288 78.5461 38.7648 78.5262 38.8928 78.4799C39.3685 78.3326 39.8075 78.0862 40.1809 77.7568C40.3744 77.609 40.5166 77.4043 40.5877 77.1715C40.6116 77.0667 40.608 76.9574 40.5771 76.8544C40.5462 76.7515 40.4891 76.6582 40.4114 76.5839C40.3481 76.5442 40.277 76.5186 40.2029 76.5088C40.1288 76.4991 40.0535 76.5054 39.9821 76.5274C39.5329 76.5828 39.1093 76.7664 38.7618 77.0562C38.5576 77.2215 38.3821 77.4193 38.242 77.6415Z" fill="#E06747"/>
<path d="M30.1202 77.3204C30.3461 79.1463 29.4422 80.7689 28.0864 80.9361C26.7305 81.1033 25.4379 79.7746 25.2029 77.9487C24.9679 76.1228 25.8808 74.5002 27.2367 74.333C28.5926 74.1658 29.8851 75.4968 30.1202 77.3204Z" fill="#F2D042"/>
<path d="M27.5206 80.3808C28.6173 80.2394 29.352 78.9286 29.1617 77.4532C28.9714 75.9778 27.9281 74.8963 26.8314 75.0378C25.7347 75.1793 25 76.49 25.1903 77.9655C25.3806 79.4409 26.4239 80.5223 27.5206 80.3808Z" fill="#C82441"/>
<path d="M28.4958 75.8062C28.6044 76.4089 28.5664 77.029 28.385 77.614C28.1161 78.4275 27.5309 79.0218 26.862 79.1664C26.6101 79.2114 26.3517 79.2035 26.1031 79.1432C25.8545 79.0829 25.6212 78.9715 25.418 78.8162C25.8225 79.8263 26.6563 80.4839 27.5241 80.3709C28.6223 80.2285 29.3567 78.9179 29.1669 77.4332C29.0944 76.8401 28.8625 76.2778 28.4958 75.8062Z" fill="#9A1740"/>
<path d="M25.6679 76.5476C25.608 76.6515 25.5717 76.7673 25.5615 76.8868C25.5514 77.0063 25.5676 77.1265 25.6091 77.2391C25.6366 77.2936 25.6765 77.341 25.7255 77.3775C25.7746 77.414 25.8314 77.4386 25.8916 77.4492C25.9994 77.4604 26.1082 77.444 26.208 77.4018C26.5911 77.2604 26.9339 77.0277 27.2068 76.7238C27.3629 76.5674 27.4698 76.3686 27.5141 76.1521C27.5315 76.048 27.5266 75.9414 27.4997 75.8393C27.4728 75.7373 27.4246 75.6421 27.3582 75.56C27.3121 75.52 27.2563 75.4928 27.1964 75.4813C27.1365 75.4698 27.0746 75.4743 27.017 75.4945C26.6502 75.5428 26.3115 75.717 26.0588 75.9871C25.8996 76.152 25.7676 76.3412 25.6679 76.5476Z" fill="#E06747"/>
<path d="M104.337 75.8717C105.72 74.0623 105.375 71.474 103.565 70.0906C101.756 68.7072 99.1676 69.0525 97.7842 70.862C96.4008 72.6714 96.7461 75.2597 98.5555 76.6431C100.365 78.0265 102.953 77.6811 104.337 75.8717Z" fill="#F2D042"/>
<path d="M103.159 75.9529C104.589 74.7934 104.808 72.6943 103.648 71.2645C102.489 69.8347 100.39 69.6156 98.96 70.7751C97.5302 71.9346 97.311 74.0336 98.4705 75.4634C99.63 76.8932 101.729 77.1123 103.159 75.9529Z" fill="#C82441"/>
<path d="M98.2378 71.603C98.2817 72.2875 98.5183 72.9456 98.9203 73.5013C99.3223 74.057 99.8733 74.4877 100.51 74.7436C101.146 74.9995 101.842 75.0702 102.517 74.9476C103.191 74.8249 103.818 74.5139 104.323 74.0504C104.223 74.5267 104.02 74.9754 103.728 75.3649C103.437 75.7543 103.063 76.075 102.634 76.3045C102.204 76.5339 101.73 76.6665 101.244 76.6929C100.758 76.7193 100.272 76.6389 99.8205 76.4573C99.369 76.2757 98.9627 75.9973 98.6303 75.6418C98.2978 75.2863 98.0474 74.8622 97.8965 74.3995C97.7456 73.9367 97.698 73.4465 97.757 72.9634C97.8159 72.4802 97.98 72.0159 98.2378 71.603Z" fill="#9A1740"/>
<path d="M103.081 71.4423C103.307 71.648 103.533 71.9508 103.431 72.2445C103.399 72.3282 103.349 72.4034 103.283 72.4645C103.218 72.5256 103.14 72.5709 103.054 72.5971C102.883 72.6502 102.704 72.6709 102.525 72.6581C101.878 72.6343 101.243 72.4806 100.656 72.2061C100.367 72.0953 100.119 71.8971 99.9468 71.6389C99.8825 71.5213 99.8519 71.3882 99.8582 71.2542C99.8646 71.1203 99.9078 70.9907 99.983 70.8796C100.052 70.8107 100.135 70.7566 100.226 70.7208C100.317 70.6851 100.414 70.6684 100.512 70.6717C101.098 70.5898 101.695 70.6679 102.24 70.8977C102.548 71.0327 102.832 71.2166 103.081 71.4423Z" fill="#E06747"/>
<path d="M119.024 71.3639C120.736 71.139 121.931 69.4793 121.691 67.6569C121.452 65.8344 119.87 64.5394 118.157 64.7642C116.445 64.9891 115.251 66.6488 115.49 68.4712C115.729 70.2937 117.312 71.5888 119.024 71.3639Z" fill="#F2D042"/>
<path d="M119.231 70.6836C120.615 70.5019 121.58 69.1606 121.387 67.6879C121.193 66.2151 119.915 65.1685 118.531 65.3502C117.147 65.5319 116.182 66.8731 116.376 68.3459C116.569 69.8187 117.848 70.8653 119.231 70.6836Z" fill="#C82441"/>
<path d="M116.933 67.1084C116.977 67.7302 117.206 68.3248 117.588 68.8168C117.864 69.1632 118.217 69.4394 118.62 69.6229C119.022 69.8063 119.463 69.8917 119.905 69.8721C120.532 69.8238 121.123 69.5576 121.575 69.1196C121.487 69.6514 121.232 70.1415 120.848 70.5196C120.464 70.8977 119.97 71.1441 119.437 71.2234C118.049 71.402 116.773 70.3512 116.58 68.8755C116.5 68.2637 116.624 67.6426 116.933 67.1084Z" fill="#9A1740"/>
<path d="M120.63 67.0087C120.729 67.083 120.806 67.1822 120.854 67.2962C120.901 67.4102 120.918 67.5348 120.901 67.6572C120.879 67.7231 120.841 67.7828 120.792 67.8318C120.742 67.8808 120.682 67.9177 120.616 67.9397C120.487 67.9808 120.35 67.9962 120.214 67.9849C119.719 67.9621 119.234 67.8359 118.791 67.6143C118.567 67.5182 118.378 67.3567 118.248 67.151C118.198 67.0554 118.174 66.9485 118.178 66.8407C118.182 66.733 118.214 66.6281 118.271 66.5364C118.363 66.4008 118.524 66.394 118.671 66.3737C119.024 66.3283 119.383 66.3617 119.722 66.4715C120.06 66.5813 120.371 66.7647 120.63 67.0087Z" fill="#E06747"/>
<path d="M128.395 64.6359C128.621 66.4618 129.92 67.7996 131.278 67.6234C132.637 67.4471 133.538 65.8155 133.312 64.0077C133.086 62.1999 131.787 60.844 130.429 61.0203C129.071 61.1966 128.158 62.81 128.395 64.6359Z" fill="#F2D042"/>
<path d="M131.671 66.9468C132.768 66.8053 133.502 65.4945 133.312 64.0191C133.122 62.5437 132.078 61.4623 130.982 61.6037C129.885 61.7452 129.15 63.0559 129.341 64.5314C129.531 66.0068 130.574 67.0882 131.671 66.9468Z" fill="#C82441"/>
<path d="M129.575 62.7603C129.625 63.3705 129.819 63.9601 130.142 64.4799C130.61 65.1985 131.326 65.6256 132.011 65.594C132.266 65.5734 132.513 65.5001 132.738 65.3787C132.963 65.2573 133.16 65.0906 133.317 64.889C133.184 65.9691 132.545 66.8165 131.674 66.9227C130.579 67.0651 129.534 65.9827 129.345 64.5093C129.261 63.9162 129.341 63.3115 129.575 62.7603Z" fill="#9A1740"/>
<path d="M132.502 62.7584C132.585 62.8445 132.648 62.9474 132.687 63.0601C132.726 63.1729 132.74 63.2928 132.728 63.4115C132.715 63.4721 132.688 63.5287 132.649 63.5766C132.609 63.6245 132.559 63.6624 132.502 63.6872C132.401 63.7245 132.291 63.7361 132.184 63.7211C131.776 63.6803 131.384 63.5398 131.043 63.3121C130.848 63.2026 130.69 63.0373 130.591 62.8375C130.548 62.7416 130.525 62.6376 130.525 62.5324C130.525 62.4273 130.548 62.3233 130.591 62.2274C130.661 62.094 130.787 62.0895 130.905 62.0737C131.27 62.0267 131.64 62.1065 131.953 62.2997C132.161 62.4204 132.347 62.5755 132.502 62.7584Z" fill="#E06747"/>
<path d="M34.4443 22.9436L32.7427 22.6431L26.5645 42.972L29.6016 44.5018L34.4443 22.9436Z" fill="#E1A000"/>
<path d="M48.7851 35.5913L34.4423 22.9434L29.5996 44.5016L40.2431 49.8572L48.7851 35.5913Z" fill="#D47B12"/>
<path d="M40.2439 49.8574L34.834 47.1344L36.8339 29.5488L44.6188 37.1914L38.4722 33.4966L38.6168 40.8048L46.6413 39.1709L40.2439 49.8574Z" fill="#BD591B"/>
<path d="M110.402 13.1406L111.973 12.4175L123.111 30.5115L120.56 32.7622L110.402 13.1406Z" fill="#E1A000"/>
<path d="M99.7441 29.0155L110.403 13.1406L120.561 32.7622L111.626 40.642L99.7441 29.0155Z" fill="#D47B12"/>
<path d="M111.624 40.6419L116.166 36.6353L109.769 20.1367L104.178 29.5035L109.186 24.3693L110.901 31.474L102.723 31.9327L111.624 40.6419Z" fill="#BD591B"/>
<path d="M86.9619 16.5073L83.2559 21.5805L88.9392 27.196L92.6701 22.0935L86.9619 16.5073Z" fill="#F2D042"/>
<path d="M97.4091 26.729L93.6602 31.8609L103.553 41.6367L107.341 36.4505L97.4091 26.729Z" fill="#F2D042"/>
<path d="M76.2833 31.1193L51.0123 65.6938C50.7163 66.097 50.5357 66.5732 50.49 67.0713C50.4443 67.5693 50.5352 68.0705 50.753 68.5208C50.9707 68.9711 51.307 69.3535 51.7257 69.6271C52.1445 69.9006 52.6298 70.0548 53.1297 70.0732C54.127 70.1079 55.125 70.1327 56.1239 70.1478C56.5635 70.1545 56.9984 70.0554 57.3917 69.8587C57.785 69.6621 58.1252 69.3737 58.3836 69.0179L82.509 35.9981C82.9081 35.4513 83.0916 34.7765 83.0245 34.1028C82.9574 33.4291 82.6443 32.8037 82.1451 32.3464L80.3599 30.7125C80.0747 30.4516 79.7376 30.2538 79.3707 30.1319C79.0038 30.0101 78.6154 29.9669 78.2307 30.0053C77.8461 30.0437 77.4738 30.1627 77.1382 30.3547C76.8027 30.5466 76.5114 30.8072 76.2833 31.1193Z" fill="#F2D042"/>
<path d="M87.0227 40.9423L69.288 65.21C68.9765 65.6359 68.7942 66.1424 68.7627 66.6691C68.7312 67.1958 68.8519 67.7204 69.1104 68.1804C69.3688 68.6404 69.7542 69.0163 70.2204 69.2633C70.6866 69.5104 71.2141 69.6181 71.7398 69.5736C75.595 69.2301 79.4366 68.7367 83.2647 68.0934C83.9723 67.9739 84.605 67.5822 85.0273 67.002L97.6029 49.7938C98.0017 49.2467 98.1849 48.5717 98.1174 47.898C98.0498 47.2243 97.7363 46.5991 97.2368 46.142L91.1083 40.5355C90.8231 40.2727 90.4855 40.0733 90.1176 39.9504C89.7498 39.8274 89.3601 39.7837 88.9742 39.8221C88.5883 39.8605 88.2149 39.9802 87.8785 40.1733C87.5422 40.3663 87.2505 40.6284 87.0227 40.9423Z" fill="#F2D042"/>
<path d="M89.7842 46.1734L73.9341 29.7358L62.7754 49.6602L62.972 51.1698L64.0928 51.0251L78.6277 66.0978L88.8577 47.8276L89.9785 47.6829L89.7842 46.1734Z" fill="#D47B12"/>
<path d="M74.1254 31.2461L63.1406 52.506L79.1624 70.2791L90.1472 49.0192L74.1254 31.2461Z" fill="#E1A000"/>
<path d="M74.1272 31.2461L62.9707 51.1705L78.8207 67.6081L89.9772 47.6837L74.1272 31.2461Z" fill="#F2D042"/>
<path d="M74.7568 36.1401L66.6035 50.6998L78.1871 62.7128L86.3426 48.1531L74.7568 36.1401Z" fill="#E1A000"/>
<path d="M67.498 50.5855L78.0354 61.5138L76.4738 49.4263L67.498 50.5855Z" fill="#C82441"/>
<path d="M74.9146 37.3403L67.498 50.5848L76.4739 49.4256L74.9146 37.3403Z" fill="#E06747"/>
<path d="M78.0361 61.5131L85.4527 48.2686L76.4746 49.4256L78.0361 61.5131Z" fill="#9A1740"/>
<path d="M76.4733 49.4256L85.4514 48.2686L74.9141 37.3403L76.4733 49.4256Z" fill="#C82441"/>
<path d="M12.736 36.0166L9.93164 39.8514L16.772 43.8896L19.8927 39.6187L12.736 36.0166Z" fill="#F2D042"/>
<path d="M25.8347 42.606L22.4473 47.2407L34.3495 54.2664L38.2905 48.8746L25.8347 42.606Z" fill="#F2D042"/>
<path d="M34.6152 72.8322C36.3824 72.7847 38.145 72.8322 39.9076 72.7599L42.5515 72.7079L45.1932 72.6311C48.7162 72.5045 52.2369 72.3712 55.7554 72.1565C59.2739 71.9418 62.7901 71.7271 66.3063 71.4786C69.8225 71.23 73.3387 70.9475 76.8571 70.647C73.3771 71.2503 69.8722 71.7181 66.3605 72.0887C62.8488 72.4593 59.3258 72.7395 55.7983 72.9452C52.2708 73.1508 48.7365 73.2367 45.2045 73.2367C41.6725 73.2367 38.1473 73.0988 34.6152 72.8322Z" fill="white"/>
<path d="M51.4098 68.7173L50.8155 67.2778L50.6053 68.8213C50.5425 69.269 50.3634 69.6924 50.0858 70.0493C49.8082 70.4061 49.4419 70.684 49.0235 70.855L47.584 71.4494L49.1274 71.6573C49.5751 71.7203 49.9984 71.8995 50.3552 72.177C50.712 72.4546 50.9899 72.8208 51.1612 73.2391L51.7555 74.6786L51.9634 73.1352C52.0258 72.6873 52.2047 72.2637 52.4824 71.9067C52.76 71.5498 53.1265 71.2721 53.5453 71.1014L54.9847 70.507L53.4413 70.2969C52.994 70.2346 52.5709 70.0559 52.2144 69.7787C51.8579 69.5014 51.5804 69.1354 51.4098 68.7173Z" fill="white"/>
<path d="M59.2457 69.4067L58.9948 68.7988L58.9067 69.4496C58.8812 69.6382 58.8066 69.8168 58.6904 69.9675C58.5742 70.1182 58.4205 70.2357 58.2446 70.3084L57.6367 70.5592L58.2875 70.6473C58.4761 70.6729 58.6547 70.7475 58.8053 70.8637C58.956 70.9798 59.0736 71.1336 59.1462 71.3094L59.3971 71.9151L59.4852 71.2665C59.5108 71.0779 59.5854 70.8994 59.7015 70.7487C59.8177 70.598 59.9714 70.4804 60.1473 70.4078L60.7529 70.157L60.1044 70.0688C59.9158 70.0433 59.7373 69.9687 59.5866 69.8525C59.4359 69.7363 59.3183 69.5826 59.2457 69.4067Z" fill="white"/>
<path d="M65.5153 14.4942L63.8905 14.2682C63.4181 14.205 62.9708 14.0184 62.5935 13.7272C62.2162 13.436 61.9223 13.0505 61.7414 12.6096L61.1155 11.0933L60.8895 12.718C60.8261 13.1898 60.6397 13.6365 60.3489 14.0133C60.0581 14.3902 59.6733 14.6838 59.2331 14.8648L57.7168 15.4908L59.3416 15.7168C59.8139 15.78 60.2613 15.9666 60.6386 16.2578C61.0159 16.549 61.3098 16.9345 61.4906 17.3754L62.1143 18.8895L62.3403 17.2647C62.4037 16.793 62.5901 16.3462 62.8809 15.9694C63.1717 15.5926 63.5565 15.2989 63.9967 15.1179L65.5153 14.4942Z" fill="white"/>
<path d="M67.0547 22.5408L66.6208 21.4878L66.4671 22.6177C66.4226 22.9478 66.292 23.2604 66.0885 23.5241C65.8851 23.7879 65.6159 23.9935 65.3079 24.1204L64.248 24.5588L65.3779 24.7125C65.7079 24.7575 66.0203 24.8882 66.284 25.0916C66.5476 25.2951 66.7534 25.564 66.8807 25.8717L67.3191 26.9338L67.4727 25.804C67.5174 25.4736 67.6479 25.1607 67.8514 24.8966C68.0548 24.6325 68.324 24.4264 68.632 24.2989L69.6941 23.8628L68.5642 23.7069C68.2321 23.6628 67.9176 23.5317 67.6526 23.327C67.3875 23.1222 67.1812 22.851 67.0547 22.5408Z" fill="white"/>
<path d="M52.2533 23.3703L52.4793 23.8991L52.5561 23.3319C52.5782 23.1664 52.6435 23.0098 52.7455 22.8777C52.8475 22.7455 52.9825 22.6426 53.1369 22.5793L53.6656 22.3534L53.0984 22.2765C52.933 22.2544 52.7764 22.1891 52.6443 22.0872C52.5121 21.9852 52.4092 21.8502 52.346 21.6958L52.12 21.167L52.0431 21.7342C52.021 21.8993 51.956 22.0557 51.8544 22.1877C51.7529 22.3198 51.6185 22.4229 51.4646 22.4867L50.9336 22.7127L51.5008 22.7895C51.6662 22.8116 51.8229 22.8769 51.955 22.9789C52.0871 23.0809 52.19 23.2159 52.2533 23.3703Z" fill="white"/>
<path d="M84.6803 44.2078L84.1334 42.8813L83.9413 44.305C83.8847 44.7175 83.721 45.108 83.4665 45.4375C83.2119 45.767 82.8754 46.024 82.4905 46.1829L81.1641 46.7297L82.5855 46.9241C83.0007 46.9785 83.3942 47.1419 83.7259 47.3974C84.0577 47.653 84.316 47.9918 84.4746 48.3794L85.0215 49.7059L85.2158 48.2845C85.2712 47.8716 85.4342 47.4805 85.6884 47.1505C85.9427 46.8205 86.2792 46.5631 86.6644 46.4043L87.9908 45.8575L86.5694 45.6654C86.154 45.6105 85.7605 45.4468 85.4287 45.1908C85.097 44.9348 84.8388 44.5957 84.6803 44.2078Z" fill="white"/>
<path d="M18.3813 53.0234L17.8503 51.7354L17.6627 53.1161C17.6086 53.5171 17.45 53.8968 17.2029 54.2173C16.9559 54.5377 16.6289 54.7876 16.2549 54.942L14.9668 55.473L16.3475 55.6606C16.7485 55.7147 17.1283 55.8733 17.4487 56.1203C17.7692 56.3674 18.0191 56.6944 18.1734 57.0684L18.7045 58.3565L18.892 56.9758C18.9477 56.577 19.1064 56.1997 19.3525 55.881C19.5986 55.5624 19.9236 55.3135 20.2953 55.1589L21.5857 54.6279L20.2027 54.4403C19.8015 54.3846 19.422 54.2243 19.1023 53.9756C18.7827 53.727 18.534 53.3986 18.3813 53.0234Z" fill="white"/>
<path d="M131.429 45.7151L130.99 44.6553L130.837 45.7852C130.792 46.1155 130.661 46.4284 130.458 46.6925C130.255 46.9566 129.985 47.1627 129.677 47.2902L128.615 47.7263L129.745 47.8822C130.077 47.9283 130.391 48.0612 130.655 48.2676C130.919 48.4739 131.123 48.7464 131.248 49.0573L131.686 50.1171L131.84 48.9873C131.885 48.6571 132.015 48.3446 132.219 48.0808C132.422 47.8171 132.691 47.6114 132.999 47.4845L134.059 47.0461L132.929 46.8924C132.598 46.8454 132.284 46.7118 132.021 46.5051C131.758 46.2984 131.553 46.0259 131.429 45.7151Z" fill="white"/>
<path d="M126.425 51.5677L126.16 50.9214L126.066 51.6129C126.038 51.8118 125.958 51.9999 125.835 52.1585C125.711 52.3171 125.549 52.4406 125.363 52.5168L124.719 52.7834L125.397 52.8761C125.596 52.9045 125.784 52.9846 125.943 53.1083C126.101 53.2319 126.225 53.395 126.301 53.5811L126.567 54.2252L126.66 53.5337C126.689 53.3348 126.769 53.1469 126.893 52.9885C127.016 52.83 127.179 52.7064 127.365 52.6298L128.009 52.3654L127.317 52.2705C127.121 52.24 126.935 52.1593 126.779 52.0362C126.623 51.9131 126.501 51.7517 126.425 51.5677Z" fill="white"/>
<path d="M22.2599 33.431L21.9164 32.5972L21.7944 33.5011C21.7599 33.7598 21.6584 34.005 21.4998 34.2124C21.3412 34.4197 21.1312 34.5819 20.8905 34.6829L20.0566 35.0264L20.9493 35.1484C21.208 35.1829 21.4532 35.2845 21.6605 35.443C21.8679 35.6016 22.0301 35.8117 22.1311 36.0524L22.4746 36.8862L22.5966 35.9823C22.6311 35.7236 22.7327 35.4784 22.8912 35.271C23.0498 35.0637 23.2599 34.9015 23.5005 34.8004L24.3344 34.457L23.4418 34.3349C23.183 34.3005 22.9378 34.1989 22.7305 34.0403C22.5232 33.8818 22.3609 33.6717 22.2599 33.431Z" fill="white"/>
<path d="M131.038 23.2958C130.636 23.2415 130.256 23.0826 129.936 22.8351C129.615 22.5876 129.366 22.2602 129.212 21.8857L128.678 20.5977L128.493 21.9784C128.438 22.3795 128.279 22.7592 128.032 23.0796C127.784 23.4 127.457 23.6499 127.083 23.8043L125.795 24.3376L127.176 24.5229C127.577 24.5772 127.957 24.7361 128.277 24.9836C128.598 25.2311 128.848 25.5585 129.002 25.933L129.535 27.221L129.72 25.8403C129.774 25.4391 129.933 25.0592 130.181 24.7387C130.428 24.4182 130.756 24.1685 131.13 24.0144L132.418 23.4811L131.038 23.2958Z" fill="white"/>
<path d="M93.3098 11.4479C91.319 11.7032 91.7144 14.7968 93.7076 14.5392C95.7007 14.2816 95.303 11.1902 93.3098 11.4479Z" fill="white"/>
<path d="M32.8861 48.5538C30.8975 48.8092 31.2929 51.9028 33.2861 51.6452C35.2792 51.3876 34.8792 48.2962 32.8861 48.5538Z" fill="white"/>
<path d="M122.156 22.2204C124.145 21.9628 123.738 18.8714 121.756 19.129C119.775 19.3866 120.163 22.478 122.156 22.2204Z" fill="white"/>
<path d="M38.7064 17.9674C36.7178 18.225 37.1133 21.3164 39.1064 21.0587C41.0995 20.8011 40.6995 17.7098 38.7064 17.9674Z" fill="white"/>
<path d="M30.5091 62.8531C28.5182 63.1085 28.9137 66.2021 30.9068 65.9445C32.8999 65.6869 32.4999 62.5955 30.5091 62.8531Z" fill="white"/>
<path d="M137.635 58.2657C135.645 58.5211 136.054 61.6147 138.033 61.3571C140.013 61.0995 139.629 58.0081 137.635 58.2657Z" fill="white"/>
<path d="M141.193 61.2919C139.938 61.4546 140.187 63.4025 141.443 63.2398C142.7 63.0771 142.447 61.1292 141.193 61.2919Z" fill="white"/>
<path d="M124.319 16.4737C123.065 16.6365 123.315 18.5844 124.57 18.4217C125.824 18.259 125.573 16.3133 124.319 16.4737Z" fill="white"/>
<path d="M97.2668 9.40539C96.0149 9.56809 96.2634 11.516 97.5199 11.3533C98.7763 11.1906 98.5232 9.24495 97.2668 9.40539Z" fill="white"/>
<path d="M43.6386 19.364C44.8906 19.2036 44.642 17.2557 43.3878 17.4161C42.1336 17.5766 42.3822 19.5267 43.6386 19.364Z" fill="white"/>
<path d="M26.9172 16.6385C25.6653 16.799 25.9138 18.7469 27.1703 18.5865C28.4267 18.426 28.1736 16.4758 26.9172 16.6385Z" fill="white"/>
<path d="M25.389 64.0939C24.1348 64.2566 24.3857 66.2045 25.6398 66.0418C26.894 65.8791 26.6432 63.9334 25.389 64.0939Z" fill="white"/>
<path d="M17.1859 76.2425C15.9317 76.403 16.1825 78.3509 17.4367 78.1905C18.6909 78.03 18.4401 76.0798 17.1859 76.2425Z" fill="white"/>
<path d="M36.2992 84.2035C35.045 84.3662 35.2958 86.3141 36.55 86.1514C37.8042 85.9887 37.5533 84.0408 36.2992 84.2035Z" fill="white"/>
<path d="M115.399 76.2377C114.145 76.4004 114.395 78.3483 115.65 78.1856C116.904 78.0229 116.653 76.075 115.399 76.2377Z" fill="white"/>
<defs>
<linearGradient id="paint0_linear_130_172" x1="11.6458" y1="85.6144" x2="12.4297" y2="48.5083" gradientUnits="userSpaceOnUse">
<stop stop-color="#8959D6"/>
<stop offset="1" stop-color="#C390FF"/>
</linearGradient>
<linearGradient id="paint1_linear_130_172" x1="32.4714" y1="56.4508" x2="32.6579" y2="34.1558" gradientUnits="userSpaceOnUse">
<stop stop-color="#8959D6"/>
<stop offset="1" stop-color="#C390FF"/>
</linearGradient>
<linearGradient id="paint2_linear_130_172" x1="145.296" y1="85.6144" x2="146.08" y2="48.5083" gradientUnits="userSpaceOnUse">
<stop stop-color="#8959D6"/>
<stop offset="1" stop-color="#C390FF"/>
</linearGradient>
<linearGradient id="paint3_linear_130_172" x1="124.442" y1="56.5632" x2="124.631" y2="34.1473" gradientUnits="userSpaceOnUse">
<stop stop-color="#8959D6"/>
<stop offset="1" stop-color="#C390FF"/>
</linearGradient>
<linearGradient id="paint4_linear_130_172" x1="78.1301" y1="135.498" x2="78.7711" y2="36.4913" gradientUnits="userSpaceOnUse">
<stop stop-color="#471AA7"/>
<stop offset="1" stop-color="#C390FF"/>
</linearGradient>
</defs>
</svg>
