<svg width="10" height="10" viewBox="0 0 10 10" fill="none" xmlns="http://www.w3.org/2000/svg">
<path d="M8.15521 0.33427C8.25335 0.23051 8.3713 0.147477 8.50208 0.090081C8.63286 0.0326847 8.77382 0.00208931 8.91662 0.000103318C9.05943 -0.00188268 9.20119 0.024781 9.33351 0.0785183C9.46584 0.132256 9.58605 0.211976 9.68704 0.312967C9.78803 0.413959 9.86775 0.534171 9.92148 0.666499C9.97522 0.798828 10.0019 0.940586 9.9999 1.0834C9.99791 1.2262 9.96732 1.36717 9.90992 1.49795C9.85253 1.62873 9.7695 1.74668 9.66574 1.84483L6.53498 4.97564C6.53083 4.97978 6.52754 4.98469 6.5253 4.9901C6.52305 4.99551 6.5219 5.00131 6.5219 5.00716C6.5219 5.01302 6.52305 5.01882 6.5253 5.02423C6.52754 5.02963 6.53083 5.03455 6.53498 5.03868L9.66574 8.1695C9.7663 8.26841 9.84628 8.38626 9.90106 8.51624C9.95585 8.64621 9.98436 8.78575 9.98495 8.92681C9.98555 9.06786 9.9582 9.20763 9.90451 9.33807C9.85081 9.4685 9.77182 9.58701 9.67209 9.68676C9.57236 9.78652 9.45387 9.86554 9.32346 9.91927C9.19304 9.97299 9.05327 10.0004 8.91222 9.99981C8.77117 9.99926 8.63163 9.97078 8.50164 9.91602C8.37165 9.86126 8.25379 9.7813 8.15485 9.68077L5.02409 6.54995C5.01996 6.54581 5.01504 6.54252 5.00963 6.54027C5.00423 6.53803 4.99843 6.53687 4.99257 6.53687C4.98671 6.53687 4.98092 6.53803 4.97551 6.54027C4.9701 6.54252 4.96519 6.54581 4.96105 6.54995L1.83029 9.68077C1.73138 9.78133 1.61354 9.86131 1.48356 9.9161C1.35358 9.97089 1.21405 9.9994 1.07299 9.99999C0.931944 10.0006 0.792172 9.97324 0.661741 9.91954C0.53131 9.86584 0.412801 9.78685 0.313051 9.68712C0.2133 9.58739 0.134282 9.4689 0.0805537 9.33848C0.0268254 9.20806 -0.00054931 9.06829 8.35173e-06 8.92724C0.000566014 8.78619 0.0290451 8.64664 0.0838029 8.51665C0.138561 8.38665 0.218513 8.26879 0.319049 8.16985L3.44981 5.03904C3.45395 5.0349 3.45724 5.02999 3.45949 5.02458C3.46173 5.01917 3.46289 5.01337 3.46289 5.00752C3.46289 5.00166 3.46173 4.99586 3.45949 4.99045C3.45724 4.98504 3.45395 4.98013 3.44981 4.976L0.319049 1.84518C0.121335 1.64426 0.0110205 1.37336 0.012135 1.09148C0.0132494 0.809591 0.125703 0.539566 0.324999 0.340219C0.524296 0.140872 0.79429 0.0283528 1.07617 0.0271719C1.35805 0.025991 1.62897 0.136244 1.82993 0.333914L4.96069 3.46473C4.96483 3.46887 4.96974 3.47216 4.97515 3.47441C4.98056 3.47665 4.98636 3.47781 4.99221 3.47781C4.99807 3.47781 5.00387 3.47665 5.00928 3.47441C5.01469 3.47216 5.0196 3.46887 5.02374 3.46473L8.1545 0.333914L8.15521 0.33427Z" fill="#b25565"/>
</svg>
