<svg width="157" height="145" viewBox="0 0 157 145" fill="none" xmlns="http://www.w3.org/2000/svg">
<path d="M44.2725 4.33691H29.0117V19.5841H44.2725V4.33691Z" fill="#C08DFD"/>
<path d="M40.4326 8.17422V15.7471H32.853V8.17422H40.4326ZM48.1137 0.5H25.1719V23.4214H48.1137V0.5Z" fill="#271C40"/>
<path d="M127.741 4.33691H112.48V19.5841H127.741V4.33691Z" fill="#C08DFD"/>
<path d="M123.901 8.17422V15.7471H116.322V8.17422H123.901ZM131.582 0.5H108.641V23.4214H131.582V0.5Z" fill="#271C40"/>
<path d="M42.8447 125.099H27.584V140.346H42.8447V125.099Z" fill="#491CA9"/>
<path d="M39.0018 128.936V136.506H31.4252V128.936H39.0018ZM46.6829 121.262H23.7441V144.18H46.6829V121.262Z" fill="#271C40"/>
<path d="M129.794 125.098H114.533V140.345H129.794V125.098Z" fill="#491CA9"/>
<path d="M125.951 128.935V136.505H118.374V128.935H125.951ZM133.632 121.261H110.693V144.18H133.632V121.261Z" fill="#271C40"/>
<path d="M19.5092 33.3643H3.83984V72.9632H19.5092V33.3643Z" fill="url(#paint0_linear_130_172)"/>
<path d="M15.6694 37.2016V69.1263H7.68107V37.2016H15.6694ZM23.3505 29.5273H0V76.8006H23.3505V29.5273Z" fill="#271C40"/>
<path d="M20.6309 43.261V19.4771H44.3992V35.2092H36.4109V43.261H20.6309Z" fill="url(#paint1_linear_130_172)"/>
<path d="M40.5554 23.3202V31.3689H32.5671V39.4207H24.4743V23.3202H40.5554ZM48.2365 15.6459H16.7871V47.1041H40.2574V39.0523H48.2457V15.6367L48.2365 15.6459Z" fill="#271C40"/>
<path d="M153.16 33.3643H137.49V72.9632H153.16V33.3643Z" fill="url(#paint2_linear_130_172)"/>
<path d="M149.32 37.2016V69.1263H141.331V37.2016H149.32ZM157.001 29.5273H133.65V76.8006H157.001V29.5273Z" fill="#271C40"/>
<path d="M120.576 43.3777V35.2737H112.588V19.4648H136.384V43.3777H120.576Z" fill="url(#paint3_linear_130_172)"/>
<path d="M132.523 23.3203V39.5252H124.434V31.4212H116.445V23.3203H132.523ZM140.238 15.6123H108.73V39.1292H116.719V47.2332H140.238V15.6154V15.6123Z" fill="#271C40"/>
<path d="M90.6871 125.096V109.407H66.3105V125.096H42.9262V109.268H25.8926V90.9393H10.1895V75.2808H26.0278V50.8952H34.7351V43.221H43.0645V35.5805H50.8469V19.48H66.3105V35.5467L90.6871 35.3411V19.48H106.458V35.4424H114.379V43.356H122.299V50.8952H130.73V75.1457H146.572V90.9393H130.865V109.268H114.514V125.096H90.6871Z" fill="url(#paint4_linear_130_172)"/>
<path d="M102.617 23.3202V39.2826H110.538V47.1963H118.456V54.7323H126.889V78.9829H142.728V87.1022H127.025V105.434H110.673V121.259H94.5244V105.569H62.4698V121.259H46.7666V105.434H29.733V87.1022H14.0268V79.121H29.8682V54.7323H38.5724V47.0581H46.9018V39.4177H54.6873V23.3202H62.4698V39.4177L94.5244 39.1445V23.3202H102.617ZM110.298 15.646H86.8434V31.5378L70.1509 31.679V15.646H47.0062V31.7434H39.2207V39.3839H30.8913V47.0581H22.1872V71.4468H6.3457V94.7764H22.052V113.109H39.0855V128.933H70.1509V113.244H86.8434V128.933H118.354V113.109H134.706V94.7764H150.409V71.3087H134.571V47.0581H126.137V39.522H118.219V31.6084H110.298V15.646Z" fill="#271C40"/>
<path d="M63.2406 64.3677H49.6543V87.0834H63.2406V64.3677Z" fill="#271C40"/>
<path d="M108.145 64.3677H94.4141V87.0834H108.145V64.3677Z" fill="#271C40"/>
<defs>
<linearGradient id="paint0_linear_130_172" x1="11.6458" y1="71.6144" x2="12.4297" y2="34.5083" gradientUnits="userSpaceOnUse">
<stop stop-color="#8959D6"/>
<stop offset="1" stop-color="#C390FF"/>
</linearGradient>
<linearGradient id="paint1_linear_130_172" x1="32.4714" y1="42.4508" x2="32.6579" y2="20.1558" gradientUnits="userSpaceOnUse">
<stop stop-color="#8959D6"/>
<stop offset="1" stop-color="#C390FF"/>
</linearGradient>
<linearGradient id="paint2_linear_130_172" x1="145.296" y1="71.6144" x2="146.08" y2="34.5083" gradientUnits="userSpaceOnUse">
<stop stop-color="#8959D6"/>
<stop offset="1" stop-color="#C390FF"/>
</linearGradient>
<linearGradient id="paint3_linear_130_172" x1="124.442" y1="42.5632" x2="124.631" y2="20.1473" gradientUnits="userSpaceOnUse">
<stop stop-color="#8959D6"/>
<stop offset="1" stop-color="#C390FF"/>
</linearGradient>
<linearGradient id="paint4_linear_130_172" x1="78.1301" y1="121.498" x2="78.7711" y2="22.4913" gradientUnits="userSpaceOnUse">
<stop stop-color="#471AA7"/>
<stop offset="1" stop-color="#C390FF"/>
</linearGradient>
</defs>
</svg>
