<svg width="12" height="10" viewBox="0 0 12 10" fill="none" xmlns="http://www.w3.org/2000/svg">
<path d="M4.2266 6.83168L10.0197 0.363036C10.2365 0.121012 10.5123 0 10.8473 0C11.1823 0 11.4581 0.121012 11.6749 0.363036C11.8916 0.60506 12 0.913091 12 1.28713C12 1.66117 11.8916 1.9692 11.6749 2.21122L5.05419 9.60396C4.81773 9.86799 4.54187 10 4.2266 10C3.91133 10 3.63547 9.86799 3.39901 9.60396L0.325123 6.17162C0.108374 5.92959 0 5.62156 0 5.24752C0 4.87349 0.108374 4.56546 0.325123 4.32343C0.541871 4.08141 0.817734 3.9604 1.15271 3.9604C1.48768 3.9604 1.76355 4.08141 1.9803 4.32343L4.2266 6.83168Z" fill="#5ed19c"/>
</svg>
