<svg width="263" height="34" viewBox="0 0 263 34" fill="none" xmlns="http://www.w3.org/2000/svg">
<path d="M25.7638 13.0614H34.4954V14.4347C34.4954 16.9779 33.6994 19.0379 32.1073 20.6147C30.5152 22.1915 28.4588 22.9799 25.938 22.9799C23.2513 22.9799 21.0208 22.0898 19.2463 20.3095C17.4883 18.5123 16.6094 16.3251 16.6094 13.748C16.6094 11.154 17.4801 8.95832 19.2214 7.16112C20.9793 5.36392 23.1518 4.46531 25.739 4.46531C27.3476 4.46531 28.8236 4.83832 30.1669 5.58433C31.5102 6.33034 32.5633 7.33914 33.3262 8.61075L30.3908 10.3401C29.9762 9.61108 29.346 9.01766 28.5002 8.55988C27.6544 8.1021 26.7257 7.87322 25.7141 7.87322C24.0391 7.87322 22.6709 8.43272 21.6095 9.55173C20.5481 10.6368 20.0174 12.0356 20.0174 13.748C20.0174 15.4265 20.5564 16.8168 21.6344 17.9189C22.7124 19.004 24.1552 19.5465 25.9628 19.5465C27.273 19.5465 28.3676 19.2498 29.2465 18.6564C30.1255 18.063 30.7225 17.2322 31.0376 16.1641H25.7638V13.0614Z" fill="white"/>
<path d="M46.2409 11.4083V9.90778H49.4499V22.6238H46.2409V21.1233C45.279 22.361 43.9274 22.9799 42.186 22.9799C40.5276 22.9799 39.1014 22.3356 37.9073 21.047C36.7299 19.7415 36.1411 18.1478 36.1411 16.2658C36.1411 14.4008 36.7299 12.8155 37.9073 11.51C39.1014 10.2045 40.5276 9.55173 42.186 9.55173C43.9274 9.55173 45.279 10.1706 46.2409 11.4083ZM40.3203 18.8599C40.9671 19.5211 41.788 19.8517 42.7831 19.8517C43.7781 19.8517 44.599 19.5211 45.2458 18.8599C45.9092 18.1817 46.2409 17.317 46.2409 16.2658C46.2409 15.2146 45.9092 14.3584 45.2458 13.6972C44.599 13.019 43.7781 12.6799 42.7831 12.6799C41.788 12.6799 40.9671 13.019 40.3203 13.6972C39.6735 14.3584 39.3501 15.2146 39.3501 16.2658C39.3501 17.317 39.6735 18.1817 40.3203 18.8599Z" fill="white"/>
<path d="M66.1164 9.55173C67.5426 9.55173 68.6786 10.0265 69.5244 10.9759C70.3868 11.9254 70.818 13.197 70.818 14.7907V22.6238H67.609V15.0196C67.609 14.2567 67.4265 13.6633 67.0617 13.2394C66.6968 12.8155 66.1827 12.6036 65.5194 12.6036C64.7897 12.6036 64.2175 12.8494 63.8029 13.3411C63.4049 13.8328 63.2059 14.5449 63.2059 15.4774V22.6238H59.9968V15.0196C59.9968 14.2567 59.8144 13.6633 59.4496 13.2394C59.0847 12.8155 58.5706 12.6036 57.9072 12.6036C57.1941 12.6036 56.622 12.8579 56.1908 13.3665C55.7762 13.8582 55.5689 14.5619 55.5689 15.4774V22.6238H52.3598V9.90778H55.5689V11.2557C56.3152 10.1197 57.4678 9.55173 59.0267 9.55173C60.569 9.55173 61.6967 10.1621 62.4098 11.3828C63.2225 10.1621 64.458 9.55173 66.1164 9.55173Z" fill="white"/>
<path d="M85.6333 17.6137H76.255C76.6696 19.2075 77.8388 20.0043 79.7626 20.0043C80.9898 20.0043 81.9185 19.5805 82.5487 18.7327L85.1358 20.2586C83.9086 22.0728 82.1009 22.9799 79.7128 22.9799C77.6564 22.9799 76.0062 22.3441 74.7624 21.0725C73.5186 19.8009 72.8967 18.1986 72.8967 16.2658C72.8967 14.3669 73.5103 12.7731 74.7376 11.4846C75.9482 10.196 77.5237 9.55173 79.4641 9.55173C81.3049 9.55173 82.8058 10.196 83.9666 11.4846C85.1607 12.7731 85.7577 14.3669 85.7577 16.2658C85.7577 16.6219 85.7163 17.0712 85.6333 17.6137ZM76.2053 15.0705H82.5487C82.3663 14.2397 81.9931 13.6039 81.4293 13.1631C80.882 12.7223 80.2269 12.5019 79.4641 12.5019C78.6017 12.5019 77.8885 12.7307 77.3247 13.1885C76.7608 13.6293 76.3877 14.2567 76.2053 15.0705Z" fill="white"/>
<path d="M88.1472 4.82136H95.0628C97.4509 4.82136 99.441 5.67758 101.033 7.39001C102.642 9.08548 103.446 11.1963 103.446 13.7226C103.446 16.2489 102.642 18.3597 101.033 20.0552C99.441 21.7676 97.4509 22.6238 95.0628 22.6238H88.1472V4.82136ZM91.5801 19.2668H95.0628C96.572 19.2668 97.7992 18.7582 98.7445 17.7409C99.6898 16.6897 100.162 15.3503 100.162 13.7226C100.162 12.078 99.6898 10.747 98.7445 9.72976C97.7992 8.69552 96.572 8.1784 95.0628 8.1784H91.5801V19.2668Z" fill="white"/>
<path d="M117.831 17.6137H108.453C108.868 19.2075 110.037 20.0043 111.961 20.0043C113.188 20.0043 114.116 19.5805 114.747 18.7327L117.334 20.2586C116.107 22.0728 114.299 22.9799 111.911 22.9799C109.854 22.9799 108.204 22.3441 106.96 21.0725C105.717 19.8009 105.095 18.1986 105.095 16.2658C105.095 14.3669 105.708 12.7731 106.936 11.4846C108.146 10.196 109.722 9.55173 111.662 9.55173C113.503 9.55173 115.004 10.196 116.165 11.4846C117.359 12.7731 117.956 14.3669 117.956 16.2658C117.956 16.6219 117.914 17.0712 117.831 17.6137ZM108.403 15.0705H114.747C114.564 14.2397 114.191 13.6039 113.627 13.1631C113.08 12.7223 112.425 12.5019 111.662 12.5019C110.8 12.5019 110.087 12.7307 109.523 13.1885C108.959 13.6293 108.586 14.2567 108.403 15.0705Z" fill="white"/>
<path d="M124.843 18.809L127.878 9.90778H131.41L126.684 22.6238H123.027L118.3 9.90778H121.833L124.843 18.809Z" fill="white"/>
<path d="M154.246 22.6238H150.514L149.47 19.4194H142.529L141.484 22.6238H137.778L143.872 4.82136H148.126L154.246 22.6238ZM146.012 8.86507L143.624 16.1386H148.4L146.012 8.86507Z" fill="white"/>
<path d="M161.362 22.9799C159.488 22.9799 157.92 22.3356 156.66 21.047C155.416 19.7585 154.794 18.1647 154.794 16.2658C154.794 14.3669 155.416 12.7731 156.66 11.4846C157.92 10.196 159.488 9.55173 161.362 9.55173C162.572 9.55173 163.675 9.84844 164.67 10.4419C165.665 11.0353 166.42 11.8321 166.934 12.8325L164.173 14.4856C163.924 13.96 163.542 13.5446 163.028 13.2394C162.531 12.9342 161.967 12.7816 161.337 12.7816C160.375 12.7816 159.579 13.1122 158.949 13.7735C158.318 14.4177 158.003 15.2485 158.003 16.2658C158.003 17.2492 158.318 18.08 158.949 18.7582C159.579 19.4024 160.375 19.7246 161.337 19.7246C161.983 19.7246 162.556 19.5805 163.053 19.2922C163.567 18.987 163.949 18.5717 164.197 18.0461L166.984 19.6737C166.436 20.691 165.657 21.4963 164.645 22.0898C163.65 22.6832 162.556 22.9799 161.362 22.9799Z" fill="white"/>
<path d="M177.93 11.4083V9.90778H181.139V22.6238H177.93V21.1233C176.968 22.361 175.617 22.9799 173.875 22.9799C172.217 22.9799 170.791 22.3356 169.597 21.047C168.419 19.7415 167.83 18.1478 167.83 16.2658C167.83 14.4008 168.419 12.8155 169.597 11.51C170.791 10.2045 172.217 9.55173 173.875 9.55173C175.617 9.55173 176.968 10.1706 177.93 11.4083ZM172.01 18.8599C172.656 19.5211 173.477 19.8517 174.472 19.8517C175.467 19.8517 176.288 19.5211 176.935 18.8599C177.598 18.1817 177.93 17.317 177.93 16.2658C177.93 15.2146 177.598 14.3584 176.935 13.6972C176.288 13.019 175.467 12.6799 174.472 12.6799C173.477 12.6799 172.656 13.019 172.01 13.6972C171.363 14.3584 171.039 15.2146 171.039 16.2658C171.039 17.317 171.363 18.1817 172.01 18.8599Z" fill="white"/>
<path d="M193.477 11.4083V4.82136H196.686V22.6238H193.477V21.1233C192.532 22.361 191.189 22.9799 189.447 22.9799C187.772 22.9799 186.338 22.3356 185.144 21.047C183.966 19.7415 183.377 18.1478 183.377 16.2658C183.377 14.4008 183.966 12.8155 185.144 11.51C186.338 10.2045 187.772 9.55173 189.447 9.55173C191.189 9.55173 192.532 10.1706 193.477 11.4083ZM187.557 18.8599C188.237 19.5211 189.066 19.8517 190.044 19.8517C191.039 19.8517 191.86 19.5211 192.507 18.8599C193.154 18.1817 193.477 17.317 193.477 16.2658C193.477 15.2146 193.154 14.3584 192.507 13.6972C191.86 13.019 191.039 12.6799 190.044 12.6799C189.049 12.6799 188.22 13.019 187.557 13.6972C186.91 14.3584 186.587 15.2146 186.587 16.2658C186.587 17.317 186.91 18.1817 187.557 18.8599Z" fill="white"/>
<path d="M211.711 17.6137H202.333C202.747 19.2075 203.916 20.0043 205.84 20.0043C207.067 20.0043 207.996 19.5805 208.626 18.7327L211.213 20.2586C209.986 22.0728 208.178 22.9799 205.79 22.9799C203.734 22.9799 202.084 22.3441 200.84 21.0725C199.596 19.8009 198.974 18.1986 198.974 16.2658C198.974 14.3669 199.588 12.7731 200.815 11.4846C202.026 10.196 203.601 9.55173 205.542 9.55173C207.382 9.55173 208.883 10.196 210.044 11.4846C211.238 12.7731 211.835 14.3669 211.835 16.2658C211.835 16.6219 211.794 17.0712 211.711 17.6137ZM202.283 15.0705H208.626C208.444 14.2397 208.071 13.6039 207.507 13.1631C206.96 12.7223 206.304 12.5019 205.542 12.5019C204.679 12.5019 203.966 12.7307 203.402 13.1885C202.838 13.6293 202.465 14.2567 202.283 15.0705Z" fill="white"/>
<path d="M227.831 9.55173C229.258 9.55173 230.394 10.0265 231.239 10.9759C232.102 11.9254 232.533 13.197 232.533 14.7907V22.6238H229.324V15.0196C229.324 14.2567 229.142 13.6633 228.777 13.2394C228.412 12.8155 227.898 12.6036 227.234 12.6036C226.505 12.6036 225.932 12.8494 225.518 13.3411C225.12 13.8328 224.921 14.5449 224.921 15.4774V22.6238H221.712V15.0196C221.712 14.2567 221.529 13.6633 221.165 13.2394C220.8 12.8155 220.286 12.6036 219.622 12.6036C218.909 12.6036 218.337 12.8579 217.906 13.3665C217.491 13.8582 217.284 14.5619 217.284 15.4774V22.6238H214.075V9.90778H217.284V11.2557C218.03 10.1197 219.183 9.55173 220.742 9.55173C222.284 9.55173 223.412 10.1621 224.125 11.3828C224.937 10.1621 226.173 9.55173 227.831 9.55173Z" fill="white"/>
<path d="M240.346 18.453L243.107 9.90778H246.54L242.012 22.6238C241.366 24.4549 240.503 25.7774 239.425 26.5912C238.364 27.422 237.037 27.795 235.445 27.7103V24.6584C236.291 24.6754 236.971 24.4889 237.485 24.0989C237.999 23.7089 238.405 23.0816 238.704 22.2169L233.604 9.90778H237.112L240.346 18.453Z" fill="white"/>
<path d="M248.18 33.8626V29.3173C249.239 29.4256 252.414 29.3173 252.891 28.9927C253.367 28.668 253.314 27.9646 253.314 26.9906V21.5254C253.314 19.3068 254.055 17.7376 255.484 16.926C254.055 16.1143 253.314 14.5992 253.314 12.3806V6.91545C253.314 5.94146 253.314 5.34624 252.838 5.02157C252.361 4.69691 249.186 4.6428 248.18 4.75102V0.205711C253.208 -0.173065 257.972 0.313929 257.972 6.91545V12.3806C257.972 13.3546 258.184 14.004 258.607 14.3286C259.03 14.6533 261.994 14.7615 263 14.6533V19.2527C261.941 19.1986 259.03 19.3068 258.607 19.5774C258.184 19.8479 257.972 20.5514 257.972 21.5254V26.9906C258.184 34.3496 253.208 34.2414 248.18 33.8626Z" fill="#1426FF"/>
<path d="M5.02817 26.8823V21.4172C5.02817 20.4432 4.81646 19.7938 4.39304 19.4692C3.96961 19.1445 1.00563 19.0363 0 19.1445V14.5451C1.05856 14.5992 3.96961 14.491 4.39304 14.2204C4.81646 13.9499 5.02817 13.2464 5.02817 12.2724V6.80722C5.02817 0.151591 9.79171 -0.281292 14.8199 0.0974839V4.64279C13.7613 4.53457 10.5856 4.58868 10.1093 4.91334C9.63293 5.23801 9.68585 5.83323 9.68585 6.80722V12.2724C9.68585 14.491 8.94486 16.0061 7.5158 16.8177C8.94486 17.6294 9.68585 19.1986 9.68585 21.4172V26.8823C9.68585 27.8563 9.68585 28.5598 10.1093 28.8845C10.5327 29.2091 13.7613 29.3173 14.8199 29.2091V33.7544C9.73878 34.1332 4.81646 34.2414 5.02817 26.8823Z" fill="#1426FF"/>
</svg>
