<?xml version="1.0" encoding="utf-8"?><svg viewBox="0 0 24 20" xmlns="http://www.w3.org/2000/svg" xmlns:xlink="http://www.w3.org/1999/xlink"><style>:root>svg{display:none}:root>svg:target{display:block}</style><svg viewBox="0 0 24 12" id="accordion-icon" xmlns="http://www.w3.org/2000/svg"><path d="M13.047 11.093c-.371.322-.557.482-.765.544a1 1 0 01-.564 0c-.208-.062-.394-.222-.765-.544l-8.7-7.534C1.252 2.691.75 2.256.7 1.88a1 1 0 01.326-.875C1.311.75 1.974.75 3.301.75H20.7c1.327 0 1.99 0 2.275.254a1 1 0 01.326.874c-.049.378-.55.813-1.554 1.681l-8.699 7.534z"/></svg><svg viewBox="0 0 18 20" id="play" xmlns="http://www.w3.org/2000/svg"><path d="M16.17 7.871c1.639.946 1.639 3.312 0 4.258L4.26 19.006c-1.64.946-3.688-.237-3.688-2.129V3.123C.572 1.231 2.62.048 4.259.994L16.17 7.871z"/></svg></svg>